<svg width="49" height="46" viewBox="0 0 49 46" fill="none" xmlns="http://www.w3.org/2000/svg">
<g clip-path="url(#clip0_15_2356)">
<mask id="mask0_15_2356" style="mask-type:luminance" maskUnits="userSpaceOnUse" x="7" y="3" width="42" height="43">
<path d="M49 3.5H7V45.5H49V3.5Z" fill="white"/>
</mask>
<g mask="url(#mask0_15_2356)">
<path d="M27.4814 43.7498H14.6721C11.4518 43.7498 8.83984 41.1379 8.83984 37.9176V11.0822C8.83984 7.86198 11.4518 5.25 14.6721 5.25H36.4265C39.6469 5.25 42.2588 7.86198 42.2588 11.0822V20.8145" fill="#2E85EC" fill-opacity="0.75"/>
<path d="M38.1096 40.6009C41.6072 40.6009 44.4427 37.7654 44.4427 34.2678C44.4427 30.7701 41.6072 27.9346 38.1096 27.9346C34.6119 27.9346 31.7764 30.7701 31.7764 34.2678C31.7764 37.7654 34.6119 40.6009 38.1096 40.6009Z" fill="#2E85EC" fill-opacity="0.75"/>
<path d="M42.3662 38.9556L47.1609 43.7502L42.3662 38.9556Z" fill="#2E85EC" fill-opacity="0.75"/>
</g>
</g>
<g clip-path="url(#clip1_15_2356)">
<mask id="mask1_15_2356" style="mask-type:luminance" maskUnits="userSpaceOnUse" x="0" y="0" width="42" height="43">
<path d="M42 0.5H0V42.5H42V0.5Z" fill="white"/>
</mask>
<g mask="url(#mask1_15_2356)">
<path d="M20.4814 40.7498H7.67207C4.45182 40.7498 1.83984 38.1379 1.83984 34.9176V8.08222C1.83984 4.86198 4.45182 2.25 7.67207 2.25H29.4265C32.6469 2.25 35.2588 4.86198 35.2588 8.08222V17.8145" stroke="black" stroke-linecap="round" stroke-linejoin="round"/>
<path d="M9.85547 12.0181H27.2448" stroke="black" stroke-linecap="round" stroke-linejoin="round"/>
<path d="M9.85547 19.7827H21.7704" stroke="black" stroke-linecap="round" stroke-linejoin="round"/>
<path d="M9.85547 27.5112H15.151" stroke="black" stroke-linecap="round" stroke-linejoin="round"/>
<path d="M31.1096 37.6009C34.6072 37.6009 37.4427 34.7654 37.4427 31.2678C37.4427 27.7701 34.6072 24.9346 31.1096 24.9346C27.6119 24.9346 24.7764 27.7701 24.7764 31.2678C24.7764 34.7654 27.6119 37.6009 31.1096 37.6009Z" stroke="black" stroke-linecap="round" stroke-linejoin="round"/>
<path d="M35.3662 35.9556L40.1609 40.7502" stroke="black" stroke-linecap="round" stroke-linejoin="round"/>
</g>
</g>
<defs>
<clipPath id="clip0_15_2356">
<rect width="42" height="42" fill="white" transform="translate(7 3.5)"/>
</clipPath>
<clipPath id="clip1_15_2356">
<rect width="42" height="42" fill="white" transform="translate(0 0.5)"/>
</clipPath>
</defs>
</svg>
