<svg width="47" height="45" viewBox="0 0 47 45" fill="none" xmlns="http://www.w3.org/2000/svg">
<path d="M32.3478 14.7881L28.5734 7.20506C27.544 5.11199 24.5589 5.11199 23.4952 7.20506L19.7208 14.7881C19.3091 15.6116 18.5199 16.1949 17.5935 16.3322L9.18689 17.5331C6.85365 17.8762 5.92721 20.7242 7.60852 22.3712L13.6475 28.2386C14.3338 28.8904 14.6426 29.8169 14.471 30.7433L13.0299 39.0471C12.6181 41.3459 15.0543 43.1302 17.1474 42.0322L24.6961 38.0863C25.5196 37.6746 26.4804 37.6746 27.3039 38.0863L34.8526 42.0322C36.9457 43.1302 39.3476 41.3459 38.9701 39.0471L37.529 30.7433C37.3575 29.8169 37.6662 28.8904 38.3526 28.2386L44.3915 22.3712C46.0729 20.7242 45.1464 17.8762 42.8131 17.5331L34.4065 16.3322C33.4802 16.1949 32.691 15.6116 32.2792 14.7881H32.3478Z" fill="#2E85EC" fill-opacity="0.75"/>
<path fill-rule="evenodd" clip-rule="evenodd" d="M23.9651 4.01106C23.9652 4.01137 23.9654 4.01167 23.9655 4.01198L27.739 11.5932C27.7709 11.6573 27.7861 11.7271 27.7847 11.7965C28.1542 12.3851 28.7652 12.7946 29.469 12.8992C29.4694 12.8993 29.4698 12.8993 29.4702 12.8994L37.8763 14.1003C40.5669 14.4959 41.6375 17.7832 39.6971 19.6837L39.6959 19.685L33.6534 25.5558C33.0721 26.1079 32.8148 26.8859 32.9587 27.6637L32.9596 27.6685L34.4014 35.9762C34.836 38.623 32.0691 40.6892 29.6489 39.4197L22.1044 35.4759C21.4059 35.128 20.5932 35.128 19.8947 35.476L12.3502 39.4197C12.3501 39.4197 12.3503 39.4196 12.3502 39.4197C9.93922 40.684 7.12295 38.6318 7.59859 35.9711C7.59866 35.9707 7.59873 35.9703 7.5988 35.97L9.04036 27.6637C9.18438 26.8859 8.92697 26.1079 8.34576 25.5558L8.34219 25.5524L2.3032 19.685L2.30192 19.6837C0.361699 17.7832 1.43229 14.4959 4.12279 14.1003L4.12457 14.1L12.5289 12.8994C12.5293 12.8993 12.5297 12.8993 12.5301 12.8992C13.3126 12.7829 13.9801 12.29 14.3288 11.5929C14.3287 11.5931 14.3289 11.5928 14.3288 11.5929L18.1031 4.01011L18.1047 4.00685C19.3277 1.60031 22.7724 1.58773 23.9651 4.01106ZM26.8424 11.7556L23.1813 4.40001L23.1803 4.39813C22.3141 2.63677 19.7905 2.62398 18.8856 4.40169C18.8853 4.40221 18.8851 4.40274 18.8848 4.40326L15.112 11.9831C14.6374 12.9324 13.7268 13.6065 12.6571 13.7649L12.6549 13.7653L4.2501 14.9659C4.24978 14.966 4.24946 14.966 4.24915 14.9661C2.27412 15.2573 1.49225 17.6649 2.91368 19.0581C2.9135 19.0579 2.91386 19.0583 2.91368 19.0581L8.95026 24.9231C9.73962 25.6741 10.0991 26.7471 9.90122 27.8205C9.90107 27.8213 9.90091 27.8222 9.90076 27.823L8.4605 36.1219L8.46009 36.1242C8.11328 38.0604 10.169 39.5758 11.9437 38.6448L19.4999 34.695C20.4467 34.2216 21.5524 34.2217 22.4991 34.695L22.5062 34.6986L30.0548 38.6445C31.8203 39.5706 33.8569 38.0698 33.5383 36.12C33.5382 36.1193 33.5381 36.1187 33.538 36.118L32.0984 27.823C32.0982 27.8221 32.098 27.8212 32.0979 27.8202C31.9001 26.7469 32.2595 25.674 33.049 24.9231C33.0496 24.9225 33.0502 24.9219 33.0508 24.9213L39.0849 19.0586C39.0848 19.0587 39.085 19.0585 39.0849 19.0586C40.5067 17.6655 39.7251 15.2573 37.7499 14.9661C37.7496 14.966 37.7493 14.966 37.749 14.9659L29.3442 13.7653L29.3419 13.7649C28.2724 13.6065 27.3621 12.9331 26.8874 11.9838C26.8515 11.912 26.8367 11.8331 26.8424 11.7556Z" fill="black"/>
</svg>
