<svg width="48" height="46" viewBox="0 0 48 46" fill="none" xmlns="http://www.w3.org/2000/svg">
<path d="M41.1607 8.9834H12.8394C10.0286 8.9834 7.75 11.262 7.75 14.0728V35.9274C7.75 38.7383 10.0286 41.0168 12.8394 41.0168H41.1607C43.9713 41.0168 46.25 38.7383 46.25 35.9274V14.0728C46.25 11.262 43.9713 8.9834 41.1607 8.9834Z" fill="#2E85EC" fill-opacity="0.75"/>
<path fill-rule="evenodd" clip-rule="evenodd" d="M1.3125 10.0728C1.3125 7.02038 3.78698 4.5459 6.83942 4.5459H35.1607C38.213 4.5459 40.6875 7.02038 40.6875 10.0728V31.9274C40.6875 34.9799 38.2129 37.4543 35.1607 37.4543H6.83942C3.78699 37.4543 1.3125 34.9799 1.3125 31.9274V10.0728ZM6.83942 5.4209C4.27023 5.4209 2.1875 7.50363 2.1875 10.0728V31.9274C2.1875 34.4967 4.27022 36.5793 6.83942 36.5793H35.1607C37.7297 36.5793 39.8125 34.4967 39.8125 31.9274V10.0728C39.8125 7.50363 37.7297 5.4209 35.1607 5.4209H6.83942Z" fill="black"/>
<path fill-rule="evenodd" clip-rule="evenodd" d="M1.3125 12.0186C1.3125 11.7769 1.50838 11.5811 1.75 11.5811H40.25C40.4916 11.5811 40.6875 11.7769 40.6875 12.0186C40.6875 12.2602 40.4916 12.4561 40.25 12.4561H1.75C1.50838 12.4561 1.3125 12.2602 1.3125 12.0186Z" fill="black"/>
<path fill-rule="evenodd" clip-rule="evenodd" d="M1.3125 17.8564C1.3125 17.6148 1.50838 17.4189 1.75 17.4189H13.9347C14.0964 17.4189 14.245 17.5082 14.321 17.651L15.0723 19.0637C15.5772 20.0468 16.4566 20.5924 17.3476 20.5924H25.4907C26.2589 20.5924 27.0224 20.1095 27.4694 19.2679L27.4704 19.2661L28.3385 17.6495C28.4148 17.5075 28.5629 17.4189 28.724 17.4189H40.25C40.4916 17.4189 40.6875 17.6148 40.6875 17.8564C40.6875 18.0981 40.4916 18.2939 40.25 18.2939H28.9856L28.2422 19.6783C28.242 19.6786 28.2419 19.6789 28.2417 19.6792C27.6708 20.7534 26.638 21.4674 25.4907 21.4674H17.3476C16.0841 21.4674 14.9285 20.6968 14.2954 19.4664L13.6719 18.2939H1.75C1.50838 18.2939 1.3125 18.0981 1.3125 17.8564Z" fill="black"/>
</svg>
