<svg width="581" height="1609" viewBox="0 0 581 1609" fill="none" xmlns="http://www.w3.org/2000/svg">
<path d="M21.0001 48C9.99971 102.5 -11.6799 205.6 139.5 214C290.68 222.4 510.248 204.5 546 273" stroke="#2E85EC" stroke-width="3"/>
<path d="M566.5 328C584 375.5 583 487 486.5 521C390 555 174.5 465.5 132.5 533" stroke="#2E85EC" stroke-width="3"/>
<path d="M108 593C91.4999 627 84.9998 694.5 124.5 741C164 787.5 204.5 788.5 241.5 773.5" stroke="#2E85EC" stroke-width="3"/>
<path d="M278.5 795.5C291 833 237 904.5 324.5 897.5C412 890.5 360 967.5 476.5 950.5" stroke="#2E85EC" stroke-width="3"/>
<path d="M507 977.5C530 1152.5 384 980.5 401 1142.5" stroke="#2E85EC" stroke-width="3"/>
<path d="M409 1200C430.5 1310.5 305 1313.5 305 1367" stroke="#2E85EC" stroke-width="3"/>
<path d="M294.5 1425.5C279.5 1548 328.5 1611.5 468 1589.5" stroke="#2E85EC" stroke-width="3"/>
<rect width="45" height="45" rx="22.5" fill="#2E85EC"/>
<rect x="536" y="277" width="45" height="45" rx="22.5" fill="#2E85EC"/>
<path d="M24.465 13.5455V31H22.3513V15.7614H22.2491L17.9877 18.5909V16.4432L22.3513 13.5455H24.465Z" fill="white"/>
<path d="M552.636 308V306.466L558.398 300.159C559.074 299.42 559.63 298.778 560.068 298.233C560.505 297.682 560.829 297.165 561.04 296.682C561.255 296.193 561.363 295.682 561.363 295.148C561.363 294.534 561.216 294.003 560.92 293.554C560.63 293.105 560.233 292.759 559.727 292.514C559.221 292.27 558.653 292.148 558.023 292.148C557.352 292.148 556.767 292.287 556.267 292.565C555.773 292.838 555.389 293.222 555.116 293.716C554.849 294.21 554.716 294.79 554.716 295.455H552.704C552.704 294.432 552.94 293.534 553.412 292.761C553.883 291.989 554.525 291.386 555.338 290.955C556.156 290.523 557.074 290.307 558.091 290.307C559.113 290.307 560.02 290.523 560.809 290.955C561.599 291.386 562.219 291.969 562.667 292.702C563.116 293.435 563.341 294.25 563.341 295.148C563.341 295.79 563.224 296.418 562.991 297.031C562.764 297.639 562.366 298.318 561.798 299.068C561.236 299.812 560.454 300.722 559.454 301.795L555.534 305.989V306.125H563.648V308H552.636Z" fill="white"/>
<rect x="102" y="542" width="45" height="45" rx="22.5" fill="#2E85EC"/>
<path d="M124.164 573.239C123.039 573.239 122.036 573.045 121.155 572.659C120.28 572.273 119.584 571.736 119.067 571.048C118.556 570.355 118.277 569.551 118.232 568.636H120.38C120.425 569.199 120.618 569.685 120.959 570.094C121.3 570.497 121.746 570.81 122.297 571.031C122.848 571.253 123.459 571.364 124.13 571.364C124.88 571.364 125.544 571.233 126.124 570.972C126.704 570.71 127.158 570.347 127.488 569.881C127.817 569.415 127.982 568.875 127.982 568.261C127.982 567.619 127.823 567.054 127.505 566.565C127.187 566.071 126.721 565.685 126.107 565.406C125.493 565.128 124.743 564.989 123.857 564.989H122.459V563.114H123.857C124.55 563.114 125.158 562.989 125.681 562.739C126.209 562.489 126.621 562.136 126.917 561.682C127.218 561.227 127.368 560.693 127.368 560.08C127.368 559.489 127.238 558.974 126.976 558.537C126.715 558.099 126.346 557.759 125.868 557.514C125.397 557.27 124.84 557.148 124.198 557.148C123.596 557.148 123.027 557.259 122.493 557.48C121.965 557.696 121.533 558.011 121.198 558.426C120.863 558.835 120.681 559.33 120.652 559.909H118.607C118.641 558.994 118.917 558.193 119.434 557.506C119.951 556.812 120.627 556.273 121.462 555.886C122.303 555.5 123.226 555.307 124.232 555.307C125.312 555.307 126.238 555.526 127.01 555.963C127.783 556.395 128.377 556.966 128.792 557.676C129.206 558.386 129.414 559.153 129.414 559.977C129.414 560.96 129.155 561.798 128.638 562.491C128.127 563.185 127.431 563.665 126.55 563.932V564.068C127.652 564.25 128.513 564.719 129.133 565.474C129.752 566.224 130.062 567.153 130.062 568.261C130.062 569.21 129.803 570.062 129.286 570.818C128.775 571.568 128.076 572.159 127.189 572.591C126.303 573.023 125.294 573.239 124.164 573.239Z" fill="white"/>
<rect x="251" y="745" width="45" height="45" rx="22.5" fill="#2E85EC"/>
<path d="M266.789 772.42V770.682L274.459 758.545H275.72V761.239H274.868L269.073 770.409V770.545H279.402V772.42H266.789ZM275.004 776V771.892V771.082V758.545H277.016V776H275.004Z" fill="white"/>
<rect x="481" y="926" width="45" height="45" rx="22.5" fill="#2E85EC"/>
<path d="M503.056 957.239C502.056 957.239 501.155 957.04 500.354 956.642C499.553 956.244 498.911 955.699 498.428 955.006C497.945 954.312 497.681 953.523 497.635 952.636H499.681C499.76 953.426 500.118 954.08 500.755 954.597C501.397 955.108 502.164 955.364 503.056 955.364C503.772 955.364 504.408 955.196 504.965 954.861C505.527 954.526 505.968 954.065 506.286 953.48C506.61 952.889 506.772 952.222 506.772 951.477C506.772 950.716 506.604 950.037 506.269 949.44C505.939 948.838 505.485 948.364 504.905 948.017C504.326 947.67 503.664 947.494 502.919 947.489C502.385 947.483 501.837 947.565 501.275 947.736C500.712 947.901 500.249 948.114 499.885 948.375L497.908 948.136L498.965 939.545H508.033V941.42H500.738L500.124 946.568H500.226C500.584 946.284 501.033 946.048 501.573 945.861C502.113 945.673 502.675 945.58 503.26 945.58C504.329 945.58 505.28 945.835 506.115 946.347C506.956 946.852 507.615 947.545 508.093 948.426C508.576 949.307 508.817 950.312 508.817 951.443C508.817 952.557 508.567 953.551 508.067 954.426C507.573 955.295 506.891 955.983 506.022 956.489C505.152 956.989 504.164 957.239 503.056 957.239Z" fill="white"/>
<rect x="382" y="1149" width="45" height="45" rx="22.5" fill="#2E85EC"/>
<path d="M404.219 1180.24C403.503 1180.23 402.787 1180.09 402.071 1179.83C401.355 1179.57 400.702 1179.13 400.111 1178.51C399.52 1177.88 399.046 1177.04 398.688 1175.98C398.33 1174.91 398.151 1173.57 398.151 1171.95C398.151 1170.41 398.296 1169.04 398.585 1167.85C398.875 1166.65 399.296 1165.64 399.847 1164.82C400.398 1164 401.063 1163.37 401.841 1162.95C402.625 1162.52 403.509 1162.31 404.492 1162.31C405.469 1162.31 406.338 1162.5 407.1 1162.89C407.867 1163.28 408.492 1163.82 408.975 1164.51C409.458 1165.21 409.77 1166.01 409.912 1166.91H407.833C407.639 1166.12 407.264 1165.47 406.708 1164.96C406.151 1164.44 405.412 1164.18 404.492 1164.18C403.139 1164.18 402.074 1164.77 401.296 1165.95C400.523 1167.12 400.134 1168.77 400.128 1170.9H400.264C400.583 1170.41 400.96 1170 401.398 1169.66C401.841 1169.32 402.33 1169.05 402.864 1168.86C403.398 1168.67 403.963 1168.58 404.56 1168.58C405.56 1168.58 406.475 1168.83 407.304 1169.33C408.134 1169.82 408.799 1170.51 409.299 1171.38C409.799 1172.25 410.049 1173.25 410.049 1174.38C410.049 1175.45 409.807 1176.44 409.324 1177.34C408.841 1178.23 408.162 1178.94 407.287 1179.47C406.418 1179.99 405.395 1180.25 404.219 1180.24ZM404.219 1178.36C404.935 1178.36 405.577 1178.18 406.145 1177.83C406.719 1177.47 407.171 1176.99 407.5 1176.39C407.835 1175.78 408.003 1175.11 408.003 1174.38C408.003 1173.65 407.841 1173 407.517 1172.41C407.199 1171.81 406.759 1171.34 406.196 1170.98C405.639 1170.63 405.003 1170.45 404.287 1170.45C403.747 1170.45 403.245 1170.56 402.779 1170.78C402.313 1170.99 401.904 1171.28 401.551 1171.65C401.205 1172.02 400.932 1172.44 400.733 1172.92C400.534 1173.39 400.435 1173.89 400.435 1174.41C400.435 1175.1 400.597 1175.75 400.921 1176.35C401.25 1176.95 401.699 1177.44 402.267 1177.81C402.841 1178.18 403.492 1178.36 404.219 1178.36Z" fill="white"/>
<rect x="282" y="1373" width="45" height="45" rx="22.5" fill="#2E85EC"/>
<path d="M299.597 1404L307.404 1388.56V1388.42H298.404V1386.55H309.586V1388.52L301.813 1404H299.597Z" fill="white"/>
<rect x="472" y="1564" width="45" height="45" rx="22.5" fill="#2E85EC"/>
<path d="M494.093 1595.24C492.923 1595.24 491.888 1595.03 490.991 1594.62C490.099 1594.2 489.403 1593.62 488.903 1592.89C488.403 1592.15 488.156 1591.31 488.161 1590.36C488.156 1589.62 488.3 1588.94 488.596 1588.32C488.891 1587.69 489.295 1587.16 489.806 1586.74C490.323 1586.32 490.9 1586.05 491.536 1585.93V1585.83C490.701 1585.61 490.036 1585.14 489.542 1584.42C489.048 1583.7 488.803 1582.87 488.809 1581.94C488.803 1581.06 489.028 1580.26 489.482 1579.57C489.937 1578.87 490.562 1578.32 491.357 1577.91C492.158 1577.51 493.07 1577.31 494.093 1577.31C495.104 1577.31 496.008 1577.51 496.803 1577.91C497.599 1578.32 498.224 1578.87 498.678 1579.57C499.138 1580.26 499.371 1581.06 499.377 1581.94C499.371 1582.87 499.119 1583.7 498.619 1584.42C498.124 1585.14 497.468 1585.61 496.65 1585.83V1585.93C497.281 1586.05 497.849 1586.32 498.354 1586.74C498.86 1587.16 499.263 1587.69 499.565 1588.32C499.866 1588.94 500.019 1589.62 500.025 1590.36C500.019 1591.31 499.763 1592.15 499.258 1592.89C498.758 1593.62 498.062 1594.2 497.17 1594.62C496.283 1595.03 495.258 1595.24 494.093 1595.24ZM494.093 1593.36C494.883 1593.36 495.565 1593.24 496.138 1592.98C496.712 1592.72 497.156 1592.36 497.468 1591.9C497.781 1591.43 497.94 1590.89 497.945 1590.26C497.94 1589.6 497.769 1589.02 497.434 1588.51C497.099 1588.01 496.641 1587.61 496.062 1587.32C495.488 1587.03 494.832 1586.89 494.093 1586.89C493.349 1586.89 492.684 1587.03 492.099 1587.32C491.519 1587.61 491.062 1588.01 490.727 1588.51C490.397 1589.02 490.235 1589.6 490.241 1590.26C490.235 1590.89 490.386 1591.43 490.692 1591.9C491.005 1592.36 491.451 1592.72 492.031 1592.98C492.61 1593.24 493.298 1593.36 494.093 1593.36ZM494.093 1585.08C494.718 1585.08 495.272 1584.95 495.755 1584.7C496.244 1584.45 496.627 1584.11 496.906 1583.66C497.184 1583.21 497.326 1582.68 497.332 1582.08C497.326 1581.49 497.187 1580.97 496.914 1580.54C496.641 1580.09 496.263 1579.75 495.781 1579.51C495.298 1579.27 494.735 1579.15 494.093 1579.15C493.44 1579.15 492.869 1579.27 492.38 1579.51C491.891 1579.75 491.513 1580.09 491.246 1580.54C490.979 1580.97 490.849 1581.49 490.854 1582.08C490.849 1582.68 490.982 1583.21 491.255 1583.66C491.533 1584.11 491.917 1584.45 492.406 1584.7C492.894 1584.95 493.457 1585.08 494.093 1585.08Z" fill="white"/>
</svg>
