<svg width="229" height="182" viewBox="0 0 229 182" fill="none" xmlns="http://www.w3.org/2000/svg">
<g clip-path="url(#clip0_1_1869)">
<path d="M84.4023 181.005H202.79C222.124 181.005 234.782 160.77 226.335 143.387L198.897 86.9314C194.071 77.0003 183.565 71.1333 172.585 72.2367L137.997 75.6948C126.147 76.8759 116.107 84.9265 112.377 96.2331L84.4023 181.005Z" fill="#2E85EC"/>
<path d="M128.035 152.906C127.608 152.906 127.266 152.564 127.258 152.137L126.807 117.906C126.807 117.479 127.142 117.121 127.577 117.121H127.584C128.012 117.121 128.354 117.463 128.362 117.891L128.812 152.121C128.812 152.549 128.478 152.906 128.043 152.906H128.035Z" fill="black"/>
<path d="M141.354 172.403L144.268 170.794C144.268 170.794 150.298 178.589 158.17 173.087C160.097 171.742 160.191 159.239 156.499 154.957C149.265 146.581 135.814 136.098 127.965 141.32C120.117 146.542 109.704 156.745 109.704 156.745C109.704 156.745 114.024 162.441 118.135 159.278C123.886 154.849 130.965 151.632 130.965 151.632L118.531 169.225C118.531 169.225 121.096 172.154 124.515 173.25C127.934 174.346 132.573 177.493 141.354 172.395V172.403Z" fill="white"/>
<path d="M115.283 161.073C111.918 161.073 108.996 157.942 108.841 157.771C108.569 157.475 108.569 157.017 108.841 156.721C109.253 156.263 119.106 145.469 127.584 140.644C131.664 138.32 140.911 137.022 157.074 154.429C157.369 154.74 157.346 155.237 157.035 155.525C156.724 155.82 156.227 155.797 155.94 155.486C150.609 149.743 137.243 136.937 128.361 141.996C121.165 146.091 112.664 154.926 110.512 157.219C111.67 158.26 114.576 160.475 117.109 159.029C118.516 158.229 120.225 157.001 122.043 155.704C125.61 153.155 129.294 150.52 131.71 150.342C132.138 150.318 132.511 150.629 132.542 151.057C132.573 151.484 132.254 151.857 131.827 151.888C129.853 152.036 126.185 154.654 122.953 156.97C121.103 158.291 119.355 159.542 117.886 160.382C117.016 160.879 116.145 161.073 115.298 161.073H115.283Z" fill="black"/>
<path d="M122.681 173.118C120.179 173.118 118.345 170.786 117.622 169.287C117.498 169.022 117.529 168.704 117.708 168.478L135.41 145.718C135.674 145.376 136.163 145.321 136.497 145.578C136.839 145.842 136.894 146.332 136.63 146.666L119.246 169.022C119.829 170.009 121.5 172.31 123.823 171.307C124.22 171.136 124.678 171.315 124.841 171.711C125.012 172.107 124.834 172.566 124.437 172.729C123.816 172.993 123.225 173.11 122.673 173.11L122.681 173.118Z" fill="black"/>
<path d="M128.47 175.985C125.844 175.985 123.194 174.089 123.046 173.98C122.867 173.856 122.759 173.654 122.727 173.444C122.704 173.227 122.766 173.009 122.906 172.846L142.084 150.528C142.364 150.202 142.854 150.171 143.18 150.443C143.506 150.722 143.545 151.212 143.266 151.538L124.67 173.18C126.1 174.019 128.61 175.053 130.117 173.926C132.713 171.991 147.516 156.892 147.672 156.745C147.975 156.434 148.464 156.434 148.767 156.737C149.07 157.04 149.078 157.53 148.775 157.833C148.161 158.454 133.731 173.164 131.042 175.169C130.257 175.76 129.364 175.978 128.47 175.978V175.985Z" fill="black"/>
<path d="M134.073 176.086C132.799 176.086 131.579 175.783 130.475 175.092C130.11 174.866 130.001 174.385 130.234 174.019C130.467 173.654 130.941 173.545 131.307 173.778C134.811 175.978 140.064 172.978 143.856 170.072C148.115 166.808 151.511 162.93 151.542 162.892C151.829 162.565 152.319 162.534 152.637 162.814C152.964 163.094 152.995 163.583 152.715 163.909C152.218 164.485 141.999 176.079 134.073 176.079V176.086Z" fill="black"/>
<path d="M152.855 175.682C150.135 175.682 147.034 174.672 144.175 171.571C143.88 171.253 143.903 170.763 144.221 170.476C144.532 170.18 145.03 170.204 145.317 170.522C150.865 176.529 156.756 173.421 157.991 172.659C159.413 167.282 160.167 160.039 155.932 155.486C150.601 149.743 137.236 136.937 128.354 141.996C127.981 142.205 127.507 142.081 127.297 141.708C127.087 141.335 127.211 140.861 127.584 140.651C131.664 138.328 140.911 137.03 157.074 154.437C161.869 159.597 160.991 167.577 159.413 173.366C159.367 173.537 159.258 173.693 159.11 173.794C157.781 174.734 155.497 175.69 152.855 175.69V175.682Z" fill="black"/>
<path d="M155.722 153.877C155.365 153.877 155.038 153.629 154.961 153.264C154.875 152.844 155.139 152.432 155.559 152.347L194.84 144.078C195.26 143.985 195.672 144.257 195.757 144.677C195.843 145.096 195.578 145.508 195.159 145.594L155.878 153.862C155.823 153.87 155.769 153.877 155.714 153.877H155.722Z" fill="black"/>
<path d="M154.223 80.3871L151.622 80.4751C145.424 80.685 140.221 75.8229 140.011 69.6253L139.513 54.9235L164.567 54.075L165.065 68.7767C165.275 74.9743 160.413 80.1773 154.216 80.3872L154.223 80.3871Z" fill="white"/>
<path d="M151.231 81.2511C148.177 81.2511 145.286 80.1088 143.041 78.0185C140.694 75.8271 139.35 72.8586 139.241 69.6493L138.743 54.9468C138.743 54.737 138.813 54.5428 138.953 54.3873C139.093 54.2397 139.287 54.1464 139.497 54.1387L164.55 53.2917C164.985 53.2683 165.343 53.6103 165.351 54.0454L165.848 68.7479C166.073 75.3686 160.867 80.9325 154.254 81.1579L151.651 81.2434C151.511 81.2434 151.371 81.2434 151.231 81.2434V81.2511ZM140.321 55.6695L140.795 69.5949C140.888 72.3846 142.062 74.9723 144.105 76.8839C146.149 78.7878 148.822 79.798 151.596 79.697L154.199 79.6115C159.965 79.4172 164.488 74.5682 164.294 68.81L163.82 54.8847L140.313 55.6773L140.321 55.6695Z" fill="black"/>
<path d="M140.111 72.3922L139.521 54.9234L155.435 54.3872L160.719 60.192C156.989 67.0148 149.724 71.5141 140.111 72.4V72.3922Z" fill="black"/>
<path d="M157.76 6.6189L152.584 5.37537C140.228 2.40664 127.805 10.0166 124.836 22.3728L123.273 28.8783C120.304 41.2345 127.914 53.6577 140.27 56.6264L145.446 57.87C157.802 60.8387 170.225 53.2287 173.194 40.8726L174.757 34.367C177.726 22.0109 170.116 9.58763 157.76 6.6189Z" fill="black"/>
<path d="M159.656 4.71961L163.985 5.75983C174.291 8.23601 180.646 18.6099 178.17 28.9161L176.106 37.507C173.63 47.8131 163.256 54.1678 152.95 51.6916L148.62 50.6514C138.314 48.1752 131.96 37.8013 134.436 27.4952L136.5 18.9042C138.976 8.59808 149.35 2.24343 159.656 4.71961Z" fill="black"/>
<path d="M180.224 29.311H180.201C179.773 29.2955 179.431 28.9458 179.447 28.5106C179.618 22.1774 177.807 16.9943 174.07 13.0855C170.122 8.9592 163.96 6.42591 157.58 6.31712C157.153 6.31712 156.811 5.95189 156.818 5.52449C156.818 5.0971 157.207 4.74741 157.611 4.76295C164.395 4.87951 170.969 7.59154 175.196 12.0131C179.229 16.2327 181.188 21.7966 181.001 28.5573C180.993 28.9769 180.644 29.311 180.224 29.311Z" fill="black"/>
<path d="M124.949 40.2341L130.703 41.7286C133.266 42.3943 135.883 40.8563 136.549 38.2933L136.826 37.2253C137.492 34.6623 135.954 32.045 133.391 31.3793L127.637 29.8849C125.074 29.2192 122.457 30.7572 121.791 33.3202L121.514 34.3882C120.848 36.9511 122.386 39.5685 124.949 40.2341Z" fill="white"/>
<path d="M131.921 42.661C131.455 42.661 130.981 42.5988 130.514 42.4822L124.756 40.9902C123.319 40.6172 122.106 39.7081 121.353 38.4181C120.599 37.1281 120.389 35.6361 120.762 34.1985L121.042 33.1262C121.811 30.1577 124.857 28.3626 127.834 29.1397L133.592 30.6317C136.56 31.401 138.355 34.4472 137.578 37.4234L137.298 38.4958C136.925 39.9334 136.008 41.1457 134.726 41.8994C133.856 42.4045 132.892 42.6687 131.913 42.6687L131.921 42.661ZM126.435 30.5074C124.648 30.5074 123.016 31.7041 122.549 33.5147L122.27 34.5871C121.998 35.6284 122.153 36.7085 122.697 37.6332C123.241 38.558 124.111 39.2185 125.145 39.4827L130.903 40.9747C131.936 41.2467 133.024 41.0913 133.949 40.5473C134.874 40.0034 135.534 39.133 135.799 38.0995L136.078 37.0271C136.638 34.8824 135.34 32.691 133.203 32.1315L127.445 30.6395C127.111 30.554 126.769 30.5074 126.435 30.5074Z" fill="black"/>
<path d="M157.238 14.6472L158.427 14.9347C166.299 16.823 172.119 22.7988 174.186 30.0723L175.639 29.9946C178.585 29.8391 181.102 32.1005 181.265 35.0534C181.421 37.9985 179.16 40.5163 176.207 40.6795L174.466 40.7727C174.443 40.866 174.427 40.9515 174.412 41.0447L172.477 49.1031C169.687 60.7282 158 67.8852 146.382 65.0877L145.194 64.8002C133.568 62.0104 126.412 50.3231 129.209 38.7057L131.144 30.6473C133.934 19.0221 145.621 11.8652 157.238 14.6627V14.6472Z" fill="white"/>
<path d="M151.433 66.4555C149.708 66.4555 147.952 66.2535 146.196 65.8339L145.007 65.5463C132.985 62.6556 125.557 50.5331 128.447 38.5116L130.382 30.4532C133.273 18.4318 145.395 11.0028 157.417 13.8936L158.606 14.1811C166.26 16.0228 172.399 21.7732 174.753 29.2643L175.593 29.2177C178.942 29.0312 181.856 31.6344 182.035 35.007C182.213 38.3795 179.618 41.2702 176.245 41.449L175.095 41.5111L173.23 49.2742C170.767 59.5395 161.559 66.4555 151.433 66.4555ZM152.179 14.8261C142.761 14.8261 134.19 21.2603 131.89 30.8185L129.955 38.8768C127.266 50.0668 134.182 61.3501 145.364 64.0388L146.553 64.3263C157.735 67.015 169.026 60.099 171.715 48.9168L173.704 40.602C173.782 40.26 174.069 40.0114 174.419 39.9958L176.16 39.9026C178.678 39.7705 180.612 37.6102 180.48 35.0924C180.348 32.5747 178.211 30.6397 175.67 30.7718L174.217 30.8496C173.86 30.8651 173.526 30.632 173.432 30.2901C171.365 23.0476 165.545 17.4526 158.233 15.6964L157.044 15.4089C155.412 15.0204 153.78 14.8261 152.171 14.8261H152.179Z" fill="black"/>
<path d="M130.095 30.2975V30.3364C134.415 28.7123 139.272 20.5917 141.782 10.1477V10.1089C137.461 11.733 132.605 19.8535 130.095 30.2975Z" fill="black"/>
<path d="M128.774 38.123C128.774 38.123 128.704 38.123 128.673 38.123C128.245 38.0686 127.95 37.68 128.004 37.2526C128.331 34.766 126.287 33.5693 126.202 33.5226C125.829 33.3128 125.697 32.8388 125.906 32.4658C126.116 32.0928 126.582 31.9607 126.955 32.1627C127.08 32.2327 130.009 33.8956 129.543 37.4547C129.489 37.8432 129.155 38.1307 128.774 38.1307V38.123Z" fill="black"/>
<path d="M147.354 29.7459C147.47 30.6318 145.582 31.6031 143.142 31.9295C140.694 32.2559 138.619 31.7974 138.503 30.9193C138.386 30.0334 140.274 29.0621 142.714 28.7357C145.162 28.4093 147.237 28.8678 147.354 29.7459Z" fill="black"/>
<path d="M163.711 32.4502C163.447 33.2972 161.318 33.3905 158.971 32.6523C156.617 31.914 154.93 30.6241 155.194 29.7771C155.459 28.93 157.588 28.8368 159.935 29.575C162.289 30.3132 163.975 31.6032 163.711 32.4502Z" fill="black"/>
<path d="M150.734 44.7903C150.648 44.7903 150.563 44.7748 150.477 44.7437C149.498 44.4018 148.705 43.648 148.301 42.6922C147.897 41.7364 147.921 40.6407 148.363 39.7004L150.842 34.424C151.029 34.0355 151.487 33.8645 151.876 34.051C152.264 34.2297 152.428 34.696 152.249 35.0845L149.77 40.3609C149.514 40.9127 149.498 41.5266 149.731 42.0938C149.964 42.6533 150.415 43.0807 150.99 43.2828C151.394 43.4226 151.612 43.8656 151.464 44.2774C151.355 44.596 151.052 44.7981 150.734 44.7981V44.7903Z" fill="black"/>
<path d="M152.435 55.7319C151.495 55.7319 150.563 55.4133 149.646 54.776C149.296 54.5274 149.203 54.0456 149.451 53.6959C149.7 53.3462 150.182 53.253 150.531 53.5016C151.417 54.1155 152.257 54.3098 153.104 54.0922C155.186 53.5638 156.6 50.7663 156.616 50.743C156.81 50.3622 157.276 50.2068 157.657 50.3933C158.038 50.5876 158.193 51.0538 158.007 51.4346C157.937 51.5745 156.266 54.8848 153.492 55.5998C153.135 55.693 152.785 55.7319 152.435 55.7319Z" fill="black"/>
<path d="M165.879 12.0519C169.78 14.4997 173.036 17.2739 175.289 19.9082C175.01 20.662 174.652 21.3924 174.217 22.084C172.142 25.3866 168.661 27.3993 164.628 28.0365C162.499 27.1351 160.261 25.9772 158.031 24.5785C149.024 18.9291 143.476 11.5545 145.644 8.09652C147.812 4.6385 156.873 6.41025 165.879 12.0596V12.0519Z" fill="black"/>
<path d="M132.721 16.2091C129.201 19.1853 127.546 23.0086 127.577 26.4821C128.284 26.8629 129.03 27.1815 129.815 27.4224C133.545 28.5569 137.492 27.7876 140.958 25.6196C140.546 22.9464 143.149 18.4704 147.4 15.6651C156.267 9.80591 143.289 7.28039 132.729 16.2246L132.721 16.2091Z" fill="black"/>
<path d="M158.373 37.8197C158.085 39.2961 157.09 40.353 156.15 40.1665C155.21 39.98 154.681 38.6356 154.969 37.1592C155.256 35.6827 156.251 34.6259 157.191 34.8124C158.132 34.9989 158.66 36.3432 158.373 37.8197Z" fill="black"/>
<path d="M143.904 37.8197C143.616 39.2961 142.621 40.353 141.681 40.1665C140.741 39.98 140.212 38.6356 140.5 37.1592C140.788 35.6827 141.782 34.6259 142.722 34.8124C143.663 34.9989 144.191 36.3432 143.904 37.8197Z" fill="black"/>
<path d="M149.833 8.06526C149.786 8.06526 149.739 8.06526 149.7 8.04972C149.281 7.97201 148.993 7.5757 149.071 7.1483C149.763 3.20072 154.549 2.19051 154.751 2.14388C155.179 2.0584 155.583 2.33038 155.668 2.75001C155.754 3.16963 155.482 3.58149 155.062 3.66697C155.023 3.67474 151.107 4.51399 150.602 7.41251C150.532 7.79328 150.206 8.05749 149.84 8.05749L149.833 8.06526Z" fill="black"/>
<path d="M149.964 6.31687C149.964 6.31687 149.925 6.31687 149.91 6.31687C149.483 6.28578 149.164 5.91278 149.195 5.48539C149.296 4.12549 148.371 3.76803 148.185 3.71364C147.781 3.5893 147.54 3.16191 147.664 2.75005C147.788 2.3382 148.208 2.10507 148.612 2.22164C149.42 2.44699 150.905 3.44166 150.749 5.60195C150.718 6.0138 150.376 6.32464 149.972 6.32464L149.964 6.31687Z" fill="black"/>
<path d="M158.823 27.7723C158.707 27.7723 158.59 27.749 158.481 27.6946C152.63 24.8271 148.674 20.7164 146.724 15.4633C146.576 15.0592 146.778 14.6163 147.182 14.4608C147.587 14.3132 148.03 14.5152 148.185 14.9193C149.996 19.7839 153.687 23.6149 159.173 26.2958C159.561 26.4823 159.717 26.9486 159.53 27.3371C159.398 27.6091 159.118 27.7723 158.831 27.7723H158.823Z" fill="black"/>
<path d="M175.53 24.5316L172.725 38.6901L170.308 38.7522L168.506 21.229L175.53 24.5316Z" fill="black"/>
<path d="M136.684 75.4386L139.761 93.8943L148.993 83.901L158.986 94.6636L167.635 73.4648L164.364 65.3909L148.993 79.2851L139.381 70.4419L136.684 75.4386Z" fill="white"/>
<path d="M158.986 95.4408C158.768 95.4408 158.566 95.3553 158.419 95.1921L148.993 85.0434L140.336 94.4228C140.134 94.6404 139.823 94.7258 139.543 94.6404C139.256 94.5549 139.046 94.314 138.999 94.0265L135.922 75.5707C135.891 75.3998 135.922 75.2288 136.008 75.0734L138.696 70.0767C138.813 69.8669 139.015 69.7193 139.248 69.6804C139.489 69.6416 139.73 69.7115 139.901 69.8747L148.993 78.2361L163.843 64.8236C164.029 64.6527 164.293 64.5828 164.534 64.6449C164.783 64.6993 164.985 64.878 165.078 65.1112L168.35 73.1851C168.427 73.3716 168.427 73.5814 168.35 73.7679L159.701 94.9667C159.6 95.2154 159.382 95.3864 159.118 95.4408C159.071 95.4485 159.025 95.4563 158.978 95.4563L158.986 95.4408ZM148.993 83.124C149.21 83.124 149.412 83.2172 149.56 83.3726L158.729 93.2494L166.795 73.4726L164.06 66.7197L149.505 79.868C149.21 80.14 148.752 80.1322 148.456 79.868L139.582 71.7008L137.492 75.5863L140.266 92.2159L148.418 83.3882C148.565 83.2328 148.767 83.1395 148.985 83.1395L148.993 83.124Z" fill="black"/>
<path d="M73.9351 175.006H157.152C160.113 175.006 162.514 177.408 162.514 180.368V181.992H73.9351V175.006Z" fill="black"/>
<path d="M108.305 181.992H27.761L10.067 128.497C8.35742 123.33 12.2039 118.007 17.6513 118.007H81.3638C84.8063 118.007 87.8602 120.214 88.9481 123.485L108.305 182V181.992Z" fill="black"/>
<path d="M59.3289 152.544C60.0486 149.494 58.1601 146.439 55.111 145.72C52.0618 145 49.0066 146.888 48.287 149.937C47.5673 152.987 49.4557 156.042 52.5049 156.762C55.554 157.481 58.6092 155.593 59.3289 152.544Z" fill="white"/>
<path d="M53.8089 157.7C50.2499 157.7 47.3591 154.81 47.3591 151.251C47.3591 147.692 50.2499 144.801 53.8089 144.801C57.3679 144.801 60.2586 147.692 60.2586 151.251C60.2586 154.81 57.3679 157.7 53.8089 157.7ZM53.8089 146.355C51.1124 146.355 48.9133 148.554 48.9133 151.251C48.9133 153.947 51.1124 156.146 53.8089 156.146C56.5053 156.146 58.7045 153.947 58.7045 151.251C58.7045 148.554 56.5053 146.355 53.8089 146.355Z" fill="black"/>
<path d="M184.661 146.643C184.389 146.643 184.124 146.495 183.977 146.239L167.441 116.266C167.231 115.893 167.371 115.419 167.744 115.21C168.117 115 168.591 115.14 168.8 115.513L185.337 145.485C185.546 145.858 185.407 146.332 185.034 146.542C184.917 146.604 184.785 146.635 184.661 146.635V146.643Z" fill="black"/>
<path d="M87.8371 90.6461C61.23 96.4198 34.6228 102.201 8.0235 107.975C4.23913 108.822 1.16968 105.605 1.16968 100.787V21.3768C1.16968 16.5589 4.23913 13.3418 8.0235 14.1888C34.6306 19.9625 61.2377 25.744 87.8371 31.5178C91.6214 32.3648 94.6909 35.2866 94.6909 38.0375C94.6909 53.4004 94.6909 68.7634 94.6909 84.1186C94.6909 86.8694 91.6214 89.7913 87.8371 90.6383V90.6461Z" fill="white"/>
<path d="M6.8343 108.892C5.52881 108.892 4.28549 108.457 3.23644 107.625C1.42585 106.172 0.392334 103.685 0.392334 100.802V21.3766C0.392334 18.4859 1.43362 15.9992 3.24421 14.5461C4.64294 13.4271 6.39914 13.0308 8.19419 13.4271L88.0078 30.756C92.1962 31.6963 95.4677 34.8901 95.4755 38.0373V84.1262C95.4755 87.2656 92.204 90.4672 88.0155 91.4074L8.18642 108.736C7.73571 108.837 7.27724 108.892 6.8343 108.892ZM6.81876 14.8336C5.86296 14.8336 4.97709 15.1444 4.20778 15.7583C2.77019 16.9084 1.93872 18.9599 1.93872 21.3766V100.795C1.93872 103.211 2.76242 105.255 4.20001 106.405C5.24129 107.237 6.50016 107.516 7.8445 107.221L87.6658 89.8921C91.0539 89.1306 93.9058 86.4963 93.9058 84.1339V38.0451C93.9058 35.6828 91.0461 33.0407 87.6581 32.2869L7.86004 14.9502C7.51036 14.8724 7.16067 14.8336 6.82653 14.8336H6.81876Z" fill="black"/>
<path d="M87.8371 90.6461C61.23 96.4198 34.6228 102.201 8.0235 107.975C4.23913 108.822 1.16968 105.605 1.16968 100.787V21.3768C1.16968 16.5589 4.23913 13.3418 8.0235 14.1888C34.6306 19.9625 61.2377 25.744 87.8371 31.5178C91.6214 32.3648 94.6909 35.2866 94.6909 38.0375C94.6909 53.4004 94.6909 68.7634 94.6909 84.1186C94.6909 86.8694 91.6214 89.7913 87.8371 90.6383V90.6461Z" fill="white"/>
<path d="M6.8343 108.892C5.52881 108.892 4.28549 108.457 3.23644 107.625C1.42585 106.172 0.392334 103.685 0.392334 100.802V21.3766C0.392334 18.4859 1.43362 15.9992 3.24421 14.5461C4.64294 13.4271 6.39914 13.0308 8.19419 13.4271L88.0078 30.756C92.1962 31.6963 95.4677 34.8901 95.4755 38.0373V84.1262C95.4755 87.2656 92.204 90.4672 88.0155 91.4074L8.18642 108.736C7.73571 108.837 7.27724 108.892 6.8343 108.892ZM6.81876 14.8336C5.86296 14.8336 4.97709 15.1444 4.20778 15.7583C2.77019 16.9084 1.93872 18.9599 1.93872 21.3766V100.795C1.93872 103.211 2.76242 105.255 4.20001 106.405C5.24129 107.237 6.50016 107.516 7.8445 107.221L87.6658 89.8921C91.0539 89.1306 93.9058 86.4963 93.9058 84.1339V38.0451C93.9058 35.6828 91.0461 33.0407 87.6581 32.2869L7.86004 14.9502C7.51036 14.8724 7.16067 14.8336 6.82653 14.8336H6.81876Z" fill="black"/>
<path d="M7.70491 23.5993C7.5728 23.5993 7.4407 23.5915 7.31637 23.5682C5.96425 23.3273 4.89966 21.8897 4.89966 20.2889C4.89966 19.3952 5.24157 18.6026 5.83215 18.1131C6.32948 17.7012 6.95891 17.5458 7.60389 17.6701C8.94823 17.9343 10.0051 19.3719 10.0051 20.9494C10.0051 21.8275 9.67091 22.6046 9.0881 23.0942C8.69179 23.4283 8.21778 23.5993 7.71268 23.5993H7.70491ZM7.16095 19.1854C7.02885 19.1854 6.91229 19.2321 6.81127 19.3175C6.58592 19.504 6.44604 19.8693 6.44604 20.2889C6.44604 21.2059 7.04439 21.9441 7.58057 22.0373C7.76707 22.0684 7.93803 22.0296 8.0779 21.9052C8.30326 21.711 8.44313 21.3613 8.44313 20.9494C8.44313 20.1335 7.90695 19.3175 7.29306 19.201C7.24643 19.1932 7.19981 19.1854 7.16095 19.1854Z" fill="black"/>
<path d="M13.6807 24.656C13.5486 24.656 13.4165 24.6483 13.2844 24.6172C11.9245 24.3763 10.8677 22.962 10.8677 21.4001C10.8677 20.5375 11.2018 19.7604 11.7846 19.2864C12.2897 18.8745 12.9269 18.7191 13.5719 18.8435C14.9162 19.1154 15.9731 20.5297 15.9731 22.0606C15.9731 22.9076 15.6467 23.6614 15.0717 24.1432C14.6754 24.4773 14.1936 24.656 13.6807 24.656ZM13.129 20.3588C12.9969 20.3588 12.8725 20.4054 12.7637 20.4909C12.5462 20.6696 12.4141 21.0115 12.4141 21.4001C12.4141 22.1927 12.9425 22.9853 13.5486 23.0863C13.7429 23.1174 13.9216 23.0786 14.0692 22.9542C14.2868 22.7677 14.4111 22.4414 14.4111 22.0606C14.4111 21.2835 13.875 20.4909 13.2611 20.3665C13.2144 20.3588 13.1678 20.351 13.129 20.351V20.3588Z" fill="black"/>
<path d="M19.6638 25.7128C19.5317 25.7128 19.3918 25.6973 19.2597 25.674C17.9076 25.4408 16.843 24.0499 16.843 22.5112C16.843 21.672 17.1694 20.926 17.7367 20.4597C18.2418 20.0479 18.8867 19.8925 19.5472 20.0168C20.8916 20.2888 21.9484 21.672 21.9484 23.1718C21.9484 23.9877 21.6298 24.7259 21.0703 25.1922C20.674 25.5263 20.1844 25.7051 19.6716 25.7051L19.6638 25.7128ZM19.0965 21.5321C18.9567 21.5321 18.8323 21.5787 18.7235 21.6642C18.5137 21.8352 18.3972 22.146 18.3972 22.519C18.3972 23.2806 18.9256 24.0421 19.5239 24.1509C19.7337 24.1897 19.9125 24.1431 20.0679 24.0188C20.2699 23.8478 20.3943 23.5448 20.3943 23.1873C20.3943 22.4413 19.8581 21.6798 19.2442 21.5554C19.1976 21.5477 19.1432 21.5399 19.0965 21.5399V21.5321Z" fill="black"/>
<path d="M42.0204 33.1031C45.4007 32.2638 47.1724 33.7015 48.0738 35.0536C48.1982 35.2401 48.3147 35.4344 48.4158 35.6364C48.6877 28.7981 50.7858 24.0501 54.6635 21.4935C58.036 19.271 62.8383 18.7348 68.5498 19.9626C72.8393 20.8796 76.1729 22.4726 76.204 22.4881C76.305 22.5348 76.375 22.628 76.3983 22.7368C76.577 23.5527 80.68 42.9099 77.9835 51.9085C75.2871 60.9227 74.4478 63.7746 74.4478 63.7746C74.4168 63.8756 74.3468 63.9611 74.2536 64C74.1914 64.031 70.2749 65.7639 64.237 64.5284L63.3823 72.5712C63.3667 72.68 63.3123 72.781 63.2191 72.8354C63.0947 72.9131 61.3075 73.9855 56.3342 72.8121C52.8296 71.9884 47.7475 70.0534 40.5595 65.865C40.4274 65.7873 40.3575 65.6396 40.3886 65.4842L43.6911 47.6268C41.2278 47.2538 38.9432 44.8526 38.1894 41.5733C37.2802 37.5713 38.951 33.8413 42.0049 33.0876L42.0204 33.1031Z" fill="white"/>
<path d="M51.2442 12.689C54.2981 13.4117 56.8469 15.1524 58.6108 17.4681C49.7522 17.8333 41.7871 24.2365 39.5958 33.5692C39.5025 33.9811 39.417 34.393 39.3471 34.8048C36.0912 31.7276 34.5059 27.0495 35.6016 22.3715C37.249 15.3777 44.2505 11.0416 51.2442 12.689Z" fill="black"/>
<path d="M46.4496 43.1507L38.8032 40.936L36.4486 31.3546C35.283 26.6221 36.8372 21.6255 40.4894 18.4006C44.5536 14.8027 49.4103 10.7696 50.4593 11.0183C51.6483 11.298 66.0864 12.5724 74.9139 14.1655C79.8795 15.0591 83.1743 19.8071 82.2806 24.7727L78.5274 34.7737L76.1728 22.3404C76.1728 22.3404 66.3739 28.9456 53.4666 24.9125L46.4574 43.1429L46.4496 43.1507Z" fill="black"/>
<path d="M64.1047 42.2883C63.654 42.2883 63.1878 42.2339 62.7293 42.1251C61.1674 41.7598 59.8464 40.804 59.0071 39.4441C58.1601 38.0842 57.9037 36.4757 58.2689 34.9137C58.6341 33.3518 59.5899 32.0307 60.9498 31.1915C62.3097 30.3522 63.9183 30.088 65.4802 30.4533C68.6973 31.207 70.7021 34.4475 69.9406 37.6646C69.2879 40.4233 66.8245 42.2883 64.1047 42.2883ZM64.097 31.852C63.281 31.852 62.4807 32.0774 61.7657 32.5203C60.7555 33.142 60.0484 34.1211 59.7842 35.279C59.5122 36.4368 59.7065 37.6258 60.3282 38.636C60.9498 39.6462 61.9289 40.3533 63.0868 40.6175C65.4724 41.177 67.8658 39.6928 68.4253 37.3149C68.9848 34.9293 67.5006 32.5359 65.1227 31.9764C64.7808 31.8986 64.4389 31.8598 64.097 31.8598V31.852Z" fill="#2E85EC"/>
<path d="M68.4329 52.0793C66.9875 52.0793 64.8894 51.7063 64.0191 49.7014C63.8481 49.3051 64.0269 48.8466 64.4232 48.6834C64.8195 48.5125 65.278 48.6912 65.4489 49.0875C66.3037 51.0613 69.5674 50.4396 69.6063 50.4319C70.0259 50.3464 70.4378 50.6184 70.5155 51.0457C70.6009 51.4654 70.329 51.8772 69.9094 51.9627C69.8472 51.9783 69.2411 52.0948 68.4407 52.0948L68.4329 52.0793Z" fill="black"/>
<path d="M45.2456 47.2381C42.417 47.883 39.4253 45.3187 38.5627 41.5109C37.7001 37.7032 39.2854 34.0976 42.1062 33.4526C44.927 32.8076 47.9265 35.372 48.789 39.1797L45.2456 47.2381Z" fill="white"/>
<path d="M44.3595 48.1162C43.0851 48.1162 41.8029 47.6111 40.6684 46.632C39.2774 45.4431 38.2672 43.6868 37.8087 41.682C37.3503 39.6771 37.5057 37.6567 38.2439 35.9782C39.0132 34.2297 40.3265 33.0563 41.9428 32.6911C45.1832 31.9529 48.5946 34.7892 49.5581 39.001C49.6514 39.4207 49.395 39.8325 48.9753 39.9335C48.5557 40.0268 48.1439 39.7626 48.0428 39.3507C47.2735 35.9704 44.6936 33.6625 42.2925 34.2064C41.1735 34.4629 40.241 35.3099 39.6737 36.5998C39.0676 37.9675 38.951 39.646 39.3318 41.3323C39.7126 43.0108 40.5518 44.4717 41.6864 45.4508C42.7587 46.3678 43.9632 46.733 45.0822 46.4766C45.5018 46.3833 45.9137 46.6398 46.0147 47.0594C46.1079 47.479 45.8515 47.8909 45.4319 47.9919C45.0822 48.0696 44.7247 48.1085 44.3673 48.1085L44.3595 48.1162Z" fill="black"/>
<path d="M73.6164 37.1205C73.5542 37.1205 73.4998 37.1205 73.4376 37.0971L69.9408 36.2734C69.5212 36.1724 69.2647 35.7606 69.358 35.3409C69.459 34.9213 69.8786 34.6649 70.2905 34.7659L73.7873 35.5896C74.2069 35.6906 74.4634 36.1102 74.3701 36.5221C74.2846 36.8796 73.9661 37.1205 73.6164 37.1205Z" fill="#2E85EC"/>
<path d="M65.4413 35.6985C65.2004 36.7165 64.571 37.4314 64.0348 37.3071C63.4986 37.1827 63.25 36.258 63.4908 35.24C63.7317 34.2221 64.3612 33.5071 64.8974 33.6315C65.4335 33.7558 65.6822 34.6805 65.4413 35.6985Z" fill="black"/>
<path d="M77.0197 36.9419C76.7788 37.9599 76.1494 38.6748 75.6132 38.5505C75.077 38.4262 74.8283 37.5014 75.0692 36.4834C75.3101 35.4655 75.9395 34.7505 76.4757 34.8749C77.0119 34.9992 77.2606 35.9239 77.0197 36.9419Z" fill="black"/>
<path d="M47.8562 37.245C47.4677 37.245 47.1335 36.9575 47.0869 36.5612C47.0325 36.1338 47.3355 35.7453 47.7629 35.6986L58.9295 34.3232C59.3569 34.2688 59.7455 34.5719 59.7921 34.9993C59.8465 35.4267 59.5434 35.8152 59.116 35.8618L47.9494 37.2373C47.9494 37.2373 47.8873 37.2373 47.8562 37.2373V37.245Z" fill="#2E85EC"/>
<path d="M68.4644 65.453C64.1905 65.453 57.9584 64.0543 50.8248 58.0863C50.4984 57.8143 50.4518 57.317 50.7315 56.9906C51.0035 56.6642 51.4931 56.6176 51.8272 56.8896C58.277 62.2825 63.903 63.6502 67.4931 63.8445C70.5703 64.0077 72.7073 63.3705 73.4843 63.0907C73.7796 62.0727 74.751 58.809 76.9113 51.5821C79.5222 42.8632 75.3493 23.1719 75.3027 22.9776C75.2095 22.558 75.4814 22.1462 75.9011 22.0529C76.3207 21.9674 76.7325 22.2316 76.8258 22.6513C77.0045 23.475 81.123 42.9332 78.4032 52.0328C75.7068 61.0392 74.8675 63.8989 74.8675 63.8989C74.8054 64.1165 74.65 64.2874 74.4479 64.3884C74.2537 64.4739 72.0545 65.4608 68.4722 65.4608L68.4644 65.453Z" fill="black"/>
<path d="M40.7616 66.3387C40.7149 66.3387 40.6683 66.3387 40.6217 66.3232C40.2021 66.2455 39.9223 65.8414 40 65.414L43.3337 47.3934C43.4114 46.9738 43.8155 46.694 44.2429 46.7718C44.6625 46.8495 44.9422 47.2535 44.8645 47.6732L41.5309 65.6937C41.4609 66.0667 41.1346 66.331 40.7693 66.331L40.7616 66.3387Z" fill="black"/>
<path d="M63.04 73.3171C63.04 73.3171 62.9856 73.3171 62.9545 73.3171C62.5271 73.2704 62.2163 72.8897 62.2629 72.4623L63.141 64.1708C63.1877 63.7434 63.5606 63.4403 63.9958 63.4792C64.4232 63.5258 64.734 63.9066 64.6874 64.334L63.8093 72.6255C63.7705 73.0218 63.4285 73.3171 63.04 73.3171Z" fill="black"/>
<path d="M78.0611 43.8346C77.6026 43.8346 77.1364 43.7802 76.6779 43.6714C75.893 43.4849 75.1626 43.1507 74.5098 42.6767C74.1602 42.4203 74.0902 41.9385 74.3389 41.5888C74.5953 41.2391 75.0771 41.1692 75.4268 41.4179C75.9086 41.7675 76.4448 42.0162 77.0276 42.1561C78.1854 42.4281 79.3744 42.2338 80.3846 41.6121C81.3948 40.9905 82.0941 40.0113 82.3661 38.8535C82.6381 37.6956 82.4438 36.5067 81.8221 35.4965C81.2005 34.4863 80.2214 33.7791 79.0635 33.5149C77.012 33.0331 74.8984 34.0666 74.0125 35.9705C73.8338 36.359 73.3753 36.53 72.979 36.3513C72.5905 36.1725 72.4195 35.7063 72.5982 35.3177C73.7872 32.7456 76.6546 31.3546 79.4132 31.9996C80.9751 32.3648 82.2962 33.3206 83.1354 34.6805C83.9746 36.0404 84.2389 37.649 83.8736 39.2109C83.5084 40.7729 82.5526 42.0939 81.1927 42.9332C80.2291 43.5315 79.149 43.8346 78.0455 43.8346H78.0611Z" fill="#2E85EC"/>
<path d="M70.6947 48.4737C70.3761 48.4737 70.0808 48.2794 69.9643 47.9686C69.8166 47.5645 70.0187 47.1215 70.4227 46.9661C72.21 46.2978 73.9507 45.3731 74.3159 44.9069C73.7486 43.1973 72.1478 34.2764 71.8215 32.4424C71.7438 32.0228 72.0235 31.6187 72.4509 31.541C72.8783 31.4633 73.2746 31.7508 73.3523 32.1705C74.3237 37.6334 75.5204 43.8034 75.8079 44.4639C75.9011 44.6815 75.9788 45.0234 75.8079 45.443C75.2717 46.7097 72.2489 47.953 70.9745 48.427C70.8812 48.4581 70.7957 48.4737 70.7025 48.4737H70.6947Z" fill="black"/>
<path d="M38.7016 81.3832L58.4215 86.023C60.7442 86.5696 63.0702 85.1296 63.6167 82.8068L65.7702 73.6541C66.3167 71.3313 64.8768 69.0053 62.5541 68.4588L42.8341 63.8189C40.5114 63.2724 38.1854 64.7124 37.6389 67.0351L35.4854 76.1879C34.9389 78.5107 36.3788 80.8367 38.7016 81.3832Z" fill="black"/>
<path d="M8.02317 107.983C34.6303 102.209 61.2374 96.4274 87.8367 90.6537C89.0412 90.3817 90.1758 89.8999 91.1549 89.286C88.6138 84.3127 81.9387 80.3884 73.3365 78.9819L55.9766 76.1533L33.7289 78.539C21.7075 79.8289 12.064 85.1675 9.03337 92.1923L2.97217 106.273C4.22326 107.734 6.01831 108.426 8.0154 107.975L8.02317 107.983Z" fill="black"/>
<path d="M64.6489 91.8116V104.828C64.6489 106.677 66.9491 107.524 68.1458 106.126L80.6023 91.6096C81.7835 90.2342 80.6567 88.1205 78.8539 88.3381L66.3973 89.8378C65.3949 89.9622 64.6489 90.8092 64.6489 91.8116Z" fill="black"/>
</g>
<defs>
<clipPath id="clip0_1_1869">
<rect width="229" height="182" fill="white"/>
</clipPath>
</defs>
</svg>
