<svg width="200" height="161" viewBox="0 0 200 161" fill="none" xmlns="http://www.w3.org/2000/svg">
<g clip-path="url(#clip0_1_1868)">
<path d="M59.7051 0.133401L12.1654 0.713885C6.13059 0.787572 1.2982 5.7365 1.37193 11.7676L1.95276 59.2785C2.0265 65.3096 6.97843 70.1391 13.0132 70.0654L60.553 69.4849C66.5878 69.4112 71.4201 64.4623 71.3464 58.4312L70.7656 10.9203C70.6918 4.88916 65.7399 0.0597126 59.7051 0.133401Z" fill="#2E85EC"/>
<path d="M29.0547 49.2796C28.8765 49.2796 28.7051 49.2111 28.5679 49.0809L19.6146 40.133C19.3472 39.8658 19.3472 39.4341 19.6146 39.1669C19.882 38.8997 20.3139 38.8997 20.5812 39.1669L29.0478 47.6284L52.1168 24.5735C52.3842 24.3062 52.8161 24.3062 53.0834 24.5735C53.3508 24.8407 53.3508 25.2723 53.0834 25.5395L29.5277 49.0809C29.3906 49.2179 29.2192 49.2796 29.041 49.2796H29.0547Z" fill="white"/>
<path d="M12.876 147.028C6.54827 147.028 1.33804 141.883 1.26263 135.559L0.686766 88.0583C0.652488 84.9546 1.82479 82.0291 3.99115 79.8092C6.1575 77.5894 9.05741 76.3493 12.163 76.3082L59.8365 75.7327C66.1642 75.7327 71.3745 80.8781 71.4499 87.2019L72.0257 134.703C72.06 137.806 70.8877 140.732 68.7214 142.952C66.555 145.172 63.6551 146.412 60.5495 146.453L12.876 147.028Z" fill="white"/>
<path d="M59.8363 76.4111C65.8144 76.4111 70.6887 81.2139 70.7641 87.202L71.34 134.703C71.4154 140.739 66.5822 145.686 60.5424 145.761L13.0128 146.336C12.9649 146.336 12.9237 146.336 12.8757 146.336C6.89769 146.336 2.02338 141.534 1.94797 135.545L1.3721 88.0447C1.29669 82.0086 6.12986 77.0619 12.1696 76.9866L59.6992 76.4111C59.7472 76.4111 59.7883 76.4111 59.8363 76.4111ZM59.8363 75.0408H59.6855L12.1559 75.6163C8.87209 75.6574 5.79394 76.9729 3.50418 79.3229C1.20071 81.6798 -0.0401426 84.7766 0.00099075 88.0653L0.576858 135.566C0.659125 142.26 6.17785 147.714 12.8757 147.714H13.0266L60.5562 147.138C67.3363 147.056 72.7933 141.472 72.7111 134.696L72.1352 87.1951C72.0529 80.5013 66.5342 75.0476 59.8363 75.0476V75.0408Z" fill="black"/>
<path d="M29.0547 125.556C28.8765 125.556 28.7051 125.488 28.5679 125.358L19.6146 116.41C19.3472 116.142 19.3472 115.711 19.6146 115.444C19.882 115.176 20.3139 115.176 20.5812 115.444L29.0478 123.905L52.1168 100.85C52.3842 100.583 52.8161 100.583 53.0834 100.85C53.3508 101.117 53.3508 101.549 53.0834 101.816L29.5277 125.358C29.3906 125.495 29.2192 125.556 29.041 125.556H29.0547Z" fill="black"/>
<path d="M113.254 49.3005L89.417 73.1228L91.7479 75.4523C96.0121 79.7139 102.929 79.7139 107.2 75.4523L121.241 61.4207L113.261 49.3005H113.254Z" fill="white"/>
<path d="M99.468 79.3302C96.4927 79.3302 93.5242 78.1997 91.255 75.9388L88.9241 73.6093C88.6568 73.3421 88.6568 72.9104 88.9241 72.6432L112.761 48.8209C112.905 48.677 113.11 48.6017 113.316 48.6222C113.522 48.6428 113.707 48.7524 113.817 48.9237L121.796 61.0438C121.975 61.3179 121.94 61.6741 121.707 61.9071L107.667 75.9388C105.405 78.1997 102.429 79.3302 99.4543 79.3302H99.468ZM90.3844 73.1228L92.2285 74.9659C96.2184 78.9534 102.717 78.9534 106.707 74.9659L120.35 61.3316L113.138 50.3762L90.3775 73.1228H90.3844Z" fill="black"/>
<path d="M110.053 48.6292L78.0996 59.379L79.1485 62.5032C81.0749 68.2173 87.2723 71.2936 92.9899 69.3683L111.808 63.0376L110.053 48.636V48.6292Z" fill="white"/>
<path d="M89.5139 70.6153C84.667 70.6153 80.1286 67.5527 78.5038 62.7156L77.4549 59.5914C77.3315 59.2351 77.5303 58.8446 77.8868 58.7213L109.841 47.9714C110.04 47.9029 110.252 47.9303 110.423 48.0399C110.595 48.1496 110.711 48.3346 110.739 48.5332L112.494 62.9349C112.535 63.2569 112.343 63.5652 112.034 63.668L93.2159 69.9987C91.9887 70.4098 90.7479 70.6084 89.5207 70.6084L89.5139 70.6153ZM78.97 59.8038L79.7995 62.2772C81.6025 67.6281 87.4161 70.5125 92.7703 68.7106L111.061 62.5581L109.47 49.5404L78.9632 59.8038H78.97Z" fill="black"/>
<path d="M170.923 160.033L135.953 125.084L114.536 103.68C106.927 96.0751 102.649 85.7569 102.649 75.0003V34.3509H74.5342C67.9871 34.3509 62.6877 29.0479 62.6877 22.5117V18.9421H119.472L153.826 41.3599L166.447 98.8089L199.319 131.661L170.923 160.04V160.033Z" fill="white"/>
<path d="M170.924 160.718C170.745 160.718 170.574 160.649 170.437 160.519L114.05 104.166C106.255 96.3765 101.964 86.0171 101.964 75.0001V35.0359H74.5344C67.624 35.0359 62.0024 29.4178 62.0024 22.5116V18.942C62.0024 18.5651 62.3109 18.2568 62.688 18.2568H119.473C119.603 18.2568 119.733 18.2979 119.85 18.3665L154.203 40.7842C154.354 40.8801 154.457 41.0377 154.498 41.209L167.071 98.4661L199.799 131.175C200.067 131.442 200.067 131.874 199.799 132.141C199.532 132.408 199.1 132.408 198.833 132.141L165.96 99.2883C165.871 99.1924 165.802 99.0759 165.775 98.9526L153.216 41.7777L119.267 19.6203H63.3804V22.5047C63.3804 28.6573 68.385 33.6588 74.5413 33.6588H102.656C103.033 33.6588 103.341 33.9671 103.341 34.3439V74.9932C103.341 85.6472 107.489 95.6571 115.023 103.187L171.41 159.539C171.678 159.807 171.678 160.238 171.41 160.506C171.273 160.643 171.102 160.704 170.924 160.704V160.718Z" fill="black"/>
<path d="M106.591 43.7852H72.8755V47.0807C72.8755 53.1099 77.7635 58.0018 83.8033 58.0018H103.657L106.591 43.792V43.7852Z" fill="white"/>
<path d="M103.664 58.6802H83.8101C77.407 58.6802 72.1968 53.4731 72.1968 47.0739V43.7784C72.1968 43.4016 72.5053 43.0933 72.8824 43.0933H106.598C106.804 43.0933 106.996 43.1892 107.133 43.3468C107.263 43.5043 107.311 43.7167 107.27 43.9154L104.336 58.1252C104.267 58.4404 103.993 58.6733 103.664 58.6733V58.6802ZM73.5679 44.4704V47.0808C73.5679 52.7263 78.1611 57.3168 83.8101 57.3168H103.109L105.762 44.4772H73.5748L73.5679 44.4704Z" fill="black"/>
<path d="M180.432 33.1929L61.1317 34.1041L41.9705 42.9424L60.2268 51.493L179.527 50.5817L180.199 49.4649C183.03 44.7238 183.257 38.8658 180.796 33.9191L180.439 33.1997L180.432 33.1929Z" fill="black"/>
<path d="M173.734 50.8216H173.721C173.344 50.8147 173.042 50.4996 173.049 50.1227L173.426 33.7753C173.433 33.3985 173.728 33.097 174.125 33.1039C174.502 33.1107 174.804 33.4259 174.797 33.8027L174.42 50.1501C174.413 50.5201 174.105 50.8216 173.734 50.8216Z" fill="white"/>
<path d="M50.3754 39.0579L41.9705 42.9358L50.3754 46.8685V39.0579Z" fill="white"/>
<path d="M124.737 62.7222L90.7339 28.7393L90.5694 28.9242C85.366 34.9261 85.1124 43.7712 89.973 50.054L102.806 68.8199L124.737 62.7085V62.7222Z" fill="white"/>
<path d="M102.807 69.519C102.587 69.519 102.375 69.4162 102.238 69.2175L89.4107 50.4516C84.3924 43.9633 84.6598 34.7071 90.0551 28.486L90.2197 28.301C90.3431 28.1571 90.5213 28.0749 90.7133 28.0681C90.9189 28.0612 91.0903 28.1366 91.2206 28.2667L125.224 62.2497C125.492 62.5169 125.492 62.9485 125.224 63.2157C124.957 63.4829 124.525 63.4829 124.258 63.2157L90.7818 29.7604C86.1132 35.4881 85.9829 43.7715 90.5213 49.65L103.376 68.4502C103.588 68.7654 103.506 69.1901 103.197 69.4025C103.081 69.4847 102.944 69.519 102.813 69.519H102.807Z" fill="black"/>
</g>
<defs>
<clipPath id="clip0_1_1868">
<rect width="200" height="161" fill="white"/>
</clipPath>
</defs>
</svg>
