<svg width="261" height="201" viewBox="0 0 261 201" fill="none" xmlns="http://www.w3.org/2000/svg">
<g clip-path="url(#clip0_1_1866)">
<path d="M115.645 192.453C110.573 192.453 105.69 191.49 100.859 189.582C100.704 189.522 100.558 189.453 100.411 189.393C95.6665 190.837 90.379 191.275 87.0118 189.814C84.5489 188.749 83.3605 186.806 83.5672 184.211C83.6016 183.738 84.015 183.377 84.4972 183.42C84.9709 183.454 85.3239 183.875 85.2895 184.348C85.1431 186.196 85.9268 187.468 87.7007 188.242C90.2412 189.342 94.4436 189.178 98.4911 188.181C97.0357 186.875 96.8721 185.388 96.9496 184.46C97.251 180.876 101.514 177.343 105.122 176.579C107.593 176.054 109.609 176.836 110.651 178.719C111.65 180.532 111.271 182.552 109.583 184.4C108.153 185.964 105.733 187.408 102.926 188.525C113.096 192.126 123.611 191.336 135.883 186.076C136.925 185.629 137.889 185.182 138.767 184.743C138.716 184.529 138.69 184.322 138.664 184.133C138.285 180.266 142.169 175.728 145.347 175.152C147.637 174.739 148.774 175.685 149.084 176.707C149.661 178.615 147.732 181.899 141.006 185.526C142.092 186.884 144.529 187.588 148.085 187.511C157.61 187.322 162.656 185.208 164.878 183.893C164.275 183.411 163.844 182.939 163.543 182.509C162.639 181.22 162.475 179.776 163.087 178.538C163.612 177.472 164.671 176.75 165.773 176.699C167.435 176.63 168.564 177.086 169.106 178.074C170.122 179.922 168.46 182.741 167.823 183.712C173.214 186.248 184.452 186.832 199.359 185.233C199.832 185.182 200.254 185.526 200.306 185.998C200.358 186.471 200.013 186.892 199.54 186.944C179.896 189.049 170.742 187.202 166.48 184.933C164.387 186.359 159.039 189.024 148.12 189.239C142.91 189.333 140.507 187.889 139.448 186.334C138.552 186.772 137.596 187.219 136.554 187.666C129.071 190.872 122.199 192.47 115.645 192.47V192.453ZM106.577 178.126C106.198 178.126 105.819 178.177 105.475 178.246C102.246 178.933 98.87 182.071 98.6547 184.589C98.5514 185.809 99.2058 186.806 100.601 187.563C103.787 186.531 106.663 185.01 108.3 183.222C109.505 181.899 109.781 180.695 109.135 179.527C108.532 178.435 107.542 178.117 106.577 178.117V178.126ZM146.38 176.768C146.156 176.768 145.915 176.793 145.648 176.836C143.289 177.257 140.128 181.031 140.369 183.893C146.105 180.738 147.698 178.083 147.431 177.189C147.345 176.914 146.948 176.759 146.38 176.759V176.768ZM166.101 178.401C166.015 178.401 165.928 178.401 165.851 178.401C165.369 178.418 164.886 178.77 164.637 179.277C164.447 179.664 164.232 180.472 164.955 181.503C165.291 181.985 165.748 182.423 166.325 182.835C167.117 181.658 168.03 179.664 167.599 178.882C167.375 178.478 166.652 178.392 166.109 178.392L166.101 178.401Z" fill="black"/>
<path d="M163.25 131.405C162.923 131.405 162.613 131.224 162.467 130.906C160.564 126.798 158.6 124.245 156.068 121.443C153.295 118.384 145.614 115.607 134.445 113.622C134.1 113.562 133.756 113.502 133.42 113.442C133.239 113.596 133.058 113.751 132.869 113.897C132.696 114.026 132.541 114.146 132.369 114.267C131.25 115.083 130.035 115.788 128.856 116.467L128.778 116.51C125.222 118.555 122.208 119.767 119.28 120.317C112.898 121.529 106.207 120.18 100.937 116.604C99.7743 115.822 98.7409 114.954 97.8625 114.035C97.5697 113.725 97.3114 113.424 97.0703 113.132C94.2715 113.295 78.6414 114.292 71.6316 115.968C68.6864 116.673 65.7154 118.813 62.7961 122.346C62.4947 122.715 61.9522 122.767 61.5819 122.457C61.2116 122.157 61.1599 121.615 61.4699 121.246C64.6304 117.421 67.92 115.083 71.2355 114.292C79.2443 112.384 97.2856 111.396 97.4492 111.387C97.7334 111.37 98.0003 111.508 98.1726 111.731C98.4481 112.092 98.7581 112.462 99.1198 112.857C99.9035 113.682 100.842 114.464 101.91 115.186C106.81 118.504 113.019 119.759 118.97 118.633C121.699 118.117 124.55 116.965 127.934 115.023L128.012 114.98C129.148 114.327 130.32 113.648 131.379 112.883C131.534 112.771 131.68 112.659 131.835 112.548C132.085 112.35 132.343 112.144 132.576 111.92C132.774 111.731 133.041 111.654 133.308 111.697C133.773 111.774 134.264 111.86 134.763 111.946C142.927 113.399 153.476 116.029 157.36 120.3C160.004 123.214 162.053 125.887 164.051 130.193C164.249 130.622 164.06 131.138 163.629 131.336C163.509 131.387 163.388 131.413 163.268 131.413L163.25 131.405Z" fill="black"/>
<path d="M159.634 62.2772C159.987 60.2747 159.539 58.2635 158.368 56.5961C157.446 55.2811 156.163 54.3357 154.682 53.8115C154.932 53.545 155.19 53.27 155.405 52.9692C156.577 51.3018 157.024 49.2906 156.671 47.2881C156.025 43.6439 152.874 41.0053 149.179 41.0053C149.162 41.0053 149.145 41.0053 149.128 41.0053C150.04 38.8738 150.006 36.3642 148.757 34.2069C147.397 31.8605 144.873 30.408 142.152 30.408C141.248 30.408 140.361 30.5799 139.508 30.8979C139.526 30.5284 139.551 30.1674 139.517 29.7892C139.336 27.7695 138.38 25.9302 136.83 24.6238C135.461 23.4807 133.721 22.8447 131.939 22.8447C130.156 22.8447 128.382 23.5237 127.013 24.684C126.35 22.4493 124.696 20.5413 122.337 19.6904C121.493 19.381 120.623 19.2263 119.728 19.2263C116.972 19.2263 114.457 20.7304 113.114 23.0768C111.727 21.2203 109.523 19.9998 107.025 19.9998C103.262 19.9998 100.153 22.7416 99.5333 26.3256C98.3104 25.5262 96.8723 25.0535 95.348 25.0535C94.461 25.0535 93.5826 25.2082 92.7473 25.5091C90.8355 26.2052 89.3113 27.5976 88.4501 29.4368C87.7784 30.8808 87.589 32.4622 87.8732 33.992C87.3048 33.8545 86.7192 33.7772 86.1164 33.7772C84.3338 33.7772 82.5942 34.4132 81.225 35.5563C79.6663 36.8627 78.7104 38.6933 78.5296 40.7217C78.3918 42.3117 78.7621 43.8502 79.5457 45.1995C77.1776 45.4832 75.0419 46.8583 73.8362 48.9382C72.8201 50.7002 72.5445 52.7457 73.0784 54.7053C73.4918 56.2524 74.3702 57.5759 75.5844 58.5729C73.4918 59.6215 71.9159 61.5897 71.4853 64.0306C71.1322 66.0331 71.58 68.0443 72.7512 69.7117C73.6726 71.0181 74.9558 71.9721 76.437 72.4964C74.8438 74.1895 74.0171 76.5617 74.4477 79.0198C75.0935 82.6639 78.2454 85.3025 81.9398 85.3025C81.957 85.3025 81.9742 85.3025 81.9914 85.3025C81.0786 87.434 81.1131 89.9436 82.3617 92.1009C83.7224 94.4473 86.2456 95.8998 88.9668 95.8998C89.871 95.8998 90.758 95.7279 91.602 95.4099C91.5848 95.7794 91.5589 96.1404 91.5934 96.5186C91.7742 98.5384 92.7301 100.378 94.2888 101.684C95.658 102.827 97.3976 103.463 99.1802 103.463C100.963 103.463 102.737 102.784 104.098 101.624C104.761 103.858 106.414 105.767 108.774 106.617C109.618 106.927 110.487 107.073 111.374 107.073C114.13 107.073 116.653 105.569 117.988 103.222C119.374 105.079 121.579 106.299 124.076 106.299C127.84 106.299 130.948 103.558 131.569 99.9737C132.791 100.773 134.229 101.246 135.754 101.246C136.641 101.246 137.519 101.091 138.363 100.782C140.275 100.085 141.799 98.6931 142.66 96.8538C143.332 95.4099 143.521 93.8284 143.237 92.2986C143.806 92.4361 144.391 92.5135 144.994 92.5135C146.777 92.5135 148.516 91.8774 149.885 90.7344C152.762 88.3278 153.382 84.2281 151.556 81.0911C153.924 80.816 156.069 79.4323 157.274 77.3438C158.29 75.5819 158.566 73.5363 158.032 71.5767C157.619 70.0297 156.74 68.7061 155.526 67.7091C157.619 66.6605 159.195 64.6924 159.625 62.2515L159.634 62.2772Z" fill="black"/>
<path d="M122.414 111.989C122.483 111.533 122.526 111.069 122.526 110.588V74.9801C122.526 69.574 118.143 65.1993 112.735 65.1821C107.327 65.1907 102.943 69.574 102.943 74.9801V110.588C102.943 110.966 102.926 111.791 102.969 112.161C99.8172 112.401 97.2854 112.573 96.562 112.797C96.4587 112.831 96.4242 112.943 96.4931 113.029C97.0701 113.751 99.2402 115.943 100.205 116.716C105.32 120.807 111.848 122.294 117.902 120.936C121.2 120.197 124.248 118.521 127.133 116.561C128.322 115.753 129.536 114.928 130.647 113.974C130.802 113.837 130.957 113.699 131.112 113.562C131.206 113.467 131.301 113.373 131.396 113.278C128.632 112.745 125.609 112.316 122.414 111.998V111.989Z" fill="white"/>
<path d="M113.415 122.286C108.507 122.286 103.667 120.592 99.6538 117.378C98.6634 116.587 96.4503 114.361 95.813 113.562C95.6063 113.295 95.5374 112.952 95.6408 112.634C95.7355 112.316 95.9852 112.075 96.3039 111.972C97.0014 111.757 98.6893 111.619 101.867 111.379L102.074 111.362C102.074 111.207 102.074 111.044 102.074 110.872V74.9802C102.074 69.1186 106.853 64.3399 112.726 64.3228C118.599 64.3399 123.379 69.1186 123.379 74.9802V110.58C123.379 110.786 123.379 110.992 123.353 111.207C126.272 111.516 129.028 111.92 131.551 112.41C131.87 112.47 132.12 112.702 132.214 113.012C132.309 113.321 132.214 113.648 131.99 113.871L131.887 113.974C131.818 114.043 131.758 114.112 131.689 114.172C131.525 114.327 131.362 114.464 131.19 114.61C130.061 115.573 128.847 116.407 127.667 117.215C124.051 119.673 121.019 121.099 118.083 121.761C116.541 122.105 114.974 122.277 113.415 122.277V122.286ZM98.009 113.433C98.8701 114.335 100.084 115.521 100.73 116.037C105.613 119.939 111.796 121.417 117.704 120.094C120.425 119.484 123.267 118.134 126.643 115.848C127.624 115.178 128.597 114.516 129.502 113.803C127.263 113.416 124.86 113.098 122.328 112.849C122.096 112.823 121.88 112.711 121.734 112.522C121.588 112.341 121.527 112.101 121.562 111.869C121.631 111.379 121.665 110.975 121.665 110.597V74.9974C121.665 70.0812 117.661 66.0761 112.735 66.0589C107.809 66.0675 103.805 70.0812 103.805 74.9974V110.906C103.805 111.25 103.796 111.834 103.822 112.075C103.848 112.307 103.779 112.539 103.632 112.72C103.486 112.9 103.271 113.012 103.038 113.029L102.013 113.106C100.498 113.218 99.0337 113.33 98.0262 113.442L98.009 113.433Z" fill="black"/>
<path d="M112.752 66.0502C112.752 66.0502 112.675 66.0502 112.649 66.0502C112.193 66.0159 111.831 65.6205 111.857 65.1564C111.874 64.7181 112.218 64.3657 112.649 64.3313H112.752C113.226 64.3313 113.613 64.7181 113.613 65.1908C113.613 65.6635 113.226 66.0502 112.752 66.0502Z" fill="black"/>
<path d="M97.3719 70.4938C98.5947 74.9802 97.6733 79.1314 95.3137 79.7761C92.9541 80.4121 90.052 77.2922 88.8378 72.8057C87.6149 68.3193 88.5364 64.1681 90.8959 63.5234C93.2555 62.8874 96.1576 66.0073 97.3719 70.4938Z" fill="white"/>
<path d="M94.6764 80.7215C93.4621 80.7215 92.1876 80.0598 91.0164 78.8049C89.6989 77.3868 88.631 75.3413 88.0024 73.0379C86.6331 68.0186 87.8043 63.4806 90.672 62.707C93.5396 61.9335 96.8465 65.2597 98.2071 70.279C99.5764 75.2983 98.4052 79.8363 95.5375 80.6098C95.2534 80.6872 94.9692 80.7215 94.6764 80.7215ZM91.5073 64.3142C91.3695 64.3142 91.2403 64.3314 91.1198 64.3658C89.4922 64.8041 88.4933 68.2936 89.6644 72.591C90.2156 74.6279 91.1456 76.4242 92.2737 77.6361C93.2555 78.6932 94.2802 79.1659 95.0811 78.951C96.7087 78.5127 97.7077 75.0233 96.5365 70.7259C95.46 66.7551 93.1263 64.3142 91.4987 64.3142H91.5073Z" fill="black"/>
<path d="M127.125 70.4938C125.902 74.9802 126.823 79.1315 129.183 79.7761C131.543 80.4207 134.445 77.2922 135.659 72.8057C136.882 68.3193 135.96 64.1681 133.601 63.5234C131.241 62.8874 128.339 66.0073 127.125 70.4938Z" fill="white"/>
<path d="M129.82 80.7215C129.527 80.7215 129.243 80.6872 128.959 80.6098C126.1 79.8363 124.929 75.2983 126.29 70.279C127.659 65.2597 130.966 61.9335 133.825 62.707C136.684 63.4806 137.855 68.0186 136.494 73.0379C135.866 75.3413 134.798 77.3868 133.48 78.8049C132.309 80.0684 131.035 80.7215 129.82 80.7215ZM132.989 64.3142C131.362 64.3142 129.037 66.7551 127.952 70.7259C126.78 75.0233 127.779 78.5127 129.407 78.951C130.208 79.1659 131.233 78.6932 132.214 77.6361C133.342 76.4242 134.272 74.6279 134.824 72.591C135.995 68.2936 134.996 64.8041 133.368 64.3658C133.248 64.3314 133.119 64.3142 132.981 64.3142H132.989Z" fill="black"/>
<path d="M112.304 103.824C102.116 103.824 93.8667 91.886 93.8667 81.727V59.8879C93.8667 49.7203 105.553 55.4616 112.304 41.4866C115.404 51.7744 130.741 49.7289 130.741 59.8879V81.727C130.741 91.8946 122.483 103.824 112.304 103.824Z" fill="white"/>
<path d="M112.304 104.684C107.284 104.684 102.418 101.993 98.5859 97.1116C95.0896 92.651 93.0056 86.9011 93.0056 81.7185V59.8793C93.0056 54.3443 96.2264 52.9863 99.9638 51.4221C103.641 49.8751 108.222 47.9584 111.529 41.0999C111.684 40.7819 112.02 40.5928 112.373 40.6186C112.726 40.6443 113.028 40.885 113.131 41.2288C114.517 45.827 118.625 47.8123 122.604 49.729C127.03 51.869 131.603 54.0779 131.603 59.8793V81.7185C131.603 86.9011 129.519 92.651 126.022 97.1116C122.199 101.993 117.325 104.684 112.304 104.684ZM112.192 43.5322C108.705 49.6172 104.261 51.4823 100.627 53.0035C97.0703 54.499 94.7279 55.4788 94.7279 59.8793V81.7185C94.7279 91.336 102.564 102.956 112.304 102.956C122.044 102.956 129.88 91.336 129.88 81.7185V59.8793C129.88 55.1522 126.16 53.3559 121.846 51.276C118.238 49.5313 114.207 47.5889 112.192 43.5322Z" fill="black"/>
<path d="M100.377 71.2416C100.86 72.4706 101.971 73.1926 102.866 72.8488C103.753 72.505 104.08 71.2244 103.598 69.9867C103.116 68.7491 102.005 68.0357 101.109 68.3795C100.222 68.7233 99.8951 70.0039 100.377 71.2416Z" fill="black"/>
<path d="M106.457 67.3739C106.276 67.3739 106.087 67.3137 105.932 67.1934C105.105 66.5574 103.96 66.1535 102.702 66.0675C101.178 65.9644 99.7313 66.3425 98.8357 67.0817C98.4654 67.3825 97.9229 67.3309 97.6215 66.97C97.3201 66.6004 97.3718 66.0589 97.7335 65.7581C98.9821 64.7267 100.834 64.211 102.823 64.3572C104.416 64.4689 105.889 64.9932 106.982 65.8354C107.361 66.1277 107.43 66.6691 107.137 67.0387C106.965 67.2536 106.715 67.3739 106.457 67.3739Z" fill="black"/>
<path d="M120.132 71.2417C120.615 72.4707 121.726 73.1927 122.621 72.8489C123.508 72.5051 123.835 71.2245 123.353 69.9868C122.871 68.7578 121.76 68.0358 120.864 68.3796C119.977 68.7234 119.65 70.004 120.132 71.2417Z" fill="black"/>
<path d="M126.212 67.3738C126.031 67.3738 125.842 67.3137 125.687 67.1933C124.86 66.5573 123.715 66.1534 122.457 66.0674C120.933 65.9557 119.486 66.3425 118.591 67.0816C118.229 67.3824 117.678 67.3309 117.376 66.9699C117.075 66.6003 117.127 66.0588 117.488 65.758C118.72 64.7439 120.623 64.211 122.578 64.3571C124.171 64.4688 125.644 64.9931 126.737 65.8354C127.116 66.1276 127.185 66.6691 126.892 67.0386C126.72 67.2535 126.47 67.3738 126.212 67.3738Z" fill="black"/>
<path d="M111.331 79.7073C110.797 79.7073 110.263 79.4838 109.936 79.0971C109.282 78.3235 109.342 77.3094 109.385 76.6991C109.609 73.2699 109.919 69.7976 110.307 66.3855C110.358 65.9128 110.789 65.569 111.262 65.6292C111.736 65.6807 112.072 66.1105 112.02 66.5832C111.641 69.9609 111.331 73.4074 111.107 76.8109C111.082 77.2578 111.064 77.7649 111.254 77.9798C111.254 77.9798 111.271 77.9798 111.28 77.9798C111.435 77.636 111.796 77.4211 112.192 77.4727C112.666 77.5414 112.985 77.9798 112.924 78.4439C112.838 79.0197 112.442 79.4581 111.848 79.6299C111.684 79.6815 111.512 79.6987 111.34 79.6987L111.331 79.7073Z" fill="black"/>
<path d="M115.043 85.5519C114.414 85.5519 113.803 85.4402 113.234 85.2253C112.786 85.0534 112.571 84.5549 112.743 84.1166C112.916 83.6696 113.415 83.4548 113.854 83.6267C114.784 83.9791 115.887 83.8931 116.885 83.386C117.884 82.8789 118.608 82.0367 118.858 81.074C118.978 80.6185 119.452 80.3435 119.908 80.4638C120.365 80.5841 120.64 81.0569 120.52 81.5124C120.141 82.9391 119.099 84.1853 117.661 84.9159C116.817 85.3456 115.921 85.5605 115.034 85.5605L115.043 85.5519Z" fill="black"/>
<path d="M94.7538 63.9188C94.7538 63.9188 96.2178 51.9636 99.9724 53.6052C103.727 55.2468 103.865 58.6589 109.712 59.0714C115.559 59.484 119.314 57.4298 121.398 59.484C123.482 61.5295 127.245 66.0417 132.249 62.7586C137.261 59.484 137.743 51.6284 129.812 47.5287C121.88 43.429 109.988 42.8188 103.305 42.4063C96.6225 41.9937 89.7418 54.0865 94.7452 63.9188H94.7538Z" fill="black"/>
<path d="M3.77188 195.315C-1.25729 190.295 -1.25729 182.165 3.77188 177.145L44.8492 136.149L63.0541 154.318L21.9768 195.315C16.9476 200.334 8.80106 200.334 3.77188 195.315Z" fill="black"/>
<path d="M72.5861 138.989L60.2004 126.628L47.76 139.044L60.1456 151.405L72.5861 138.989Z" fill="white"/>
<path d="M60.1433 152.273C59.9108 152.273 59.6955 152.178 59.5319 152.023L47.1484 139.664C46.8125 139.329 46.8125 138.787 47.1484 138.452L59.5921 126.033C59.928 125.698 60.4705 125.698 60.8064 126.033L73.1899 138.392C73.5257 138.727 73.5257 139.269 73.1899 139.604L60.7461 152.023C60.5825 152.187 60.3672 152.273 60.1347 152.273H60.1433ZM48.974 139.054L60.1433 150.201L71.3642 139.002L60.1949 127.855L48.974 139.054Z" fill="black"/>
<path d="M174.772 24.2283C143.503 -6.9791 92.8155 -6.9791 61.5468 24.2283C30.278 55.4357 30.278 106.024 61.5468 137.232C92.8155 168.439 143.503 168.439 174.772 137.232C206.041 106.024 206.041 55.4357 174.772 24.2283ZM68.9958 129.797C41.8434 102.698 41.8434 58.7619 68.9958 31.6627C96.1482 4.5636 140.171 4.5636 167.323 31.6627C194.475 58.7619 194.475 102.698 167.323 129.797C140.171 156.896 96.1482 156.896 68.9958 129.797Z" fill="white"/>
<path d="M118.16 161.452C97.44 161.452 76.7119 153.579 60.9354 137.833C29.3825 106.342 29.3825 55.1093 60.9354 23.6183C92.4883 -7.87276 143.822 -7.87276 175.375 23.6183C206.928 55.1093 206.928 106.342 175.375 137.833C159.599 153.579 138.879 161.452 118.151 161.452H118.16ZM118.16 1.71894C97.8792 1.71894 77.5989 9.41981 62.1583 24.8301C31.2771 55.6508 31.2771 105.801 62.1583 136.613C93.0395 167.434 143.288 167.434 174.161 136.613C205.042 105.792 205.042 55.6422 174.161 24.8301C158.72 9.41981 138.44 1.71894 118.16 1.71894ZM118.16 150.975C99.3604 150.975 81.6808 143.669 68.3845 130.399C40.9393 103.008 40.9393 58.4441 68.3845 31.0527C95.8296 3.66135 140.481 3.66135 167.926 31.0527C195.371 58.4441 195.371 103.008 167.926 130.399C154.63 143.669 136.959 150.975 118.151 150.975H118.16ZM69.6073 129.187C96.3808 155.908 139.947 155.908 166.72 129.187C193.494 102.466 193.494 58.9855 166.72 32.2646C139.947 5.54358 96.3894 5.54358 69.6073 32.2646C42.8338 58.9855 42.8338 102.466 69.6073 129.187Z" fill="black"/>
<path d="M254.542 62.6384L246.137 58.3754C241.495 56.0204 236.449 56.6307 234.873 59.7419L189.119 149.574L214.325 162.363L260.079 72.5309C261.663 69.4196 259.183 64.9933 254.542 62.6384Z" fill="#2E85EC"/>
<path d="M232.401 64.598L257.608 77.3869L260.079 72.5309C261.664 69.4196 259.183 64.9933 254.542 62.6384L246.137 58.3754C241.495 56.0204 236.449 56.6307 234.873 59.7419L232.401 64.598Z" fill="black"/>
<path d="M190.015 151.224L212.457 162.612L192.297 174.455L190.015 151.224Z" fill="white"/>
<path d="M191.023 152.694L210.666 162.664L193.021 173.029L191.014 152.694H191.023ZM188.999 149.737L191.574 175.874L214.248 162.543L188.999 149.729V149.737Z" fill="black"/>
<path d="M202.674 169.359L190.317 163.085L191.574 175.882L202.674 169.359Z" fill="black"/>
<path d="M235.579 200.145H86.5377C78.3567 200.145 71.7085 193.501 71.7085 185.345C71.7085 177.189 78.3653 170.545 86.5377 170.545H235.57C243.751 170.545 250.399 177.189 250.399 185.345C250.399 193.501 243.742 200.145 235.57 200.145H235.579ZM86.5463 172.255C79.3212 172.255 73.4394 178.125 73.4394 185.336C73.4394 192.547 79.3212 198.418 86.5463 198.418H235.579C242.804 198.418 248.686 192.547 248.686 185.336C248.686 178.125 242.804 172.255 235.579 172.255H86.5377H86.5463Z" fill="black"/>
</g>
<defs>
<clipPath id="clip0_1_1866">
<rect width="261" height="201" fill="white"/>
</clipPath>
</defs>
</svg>
