<svg width="272" height="182" viewBox="0 0 272 182" fill="none" xmlns="http://www.w3.org/2000/svg">
<path d="M269.945 33.4915C271.478 35.6855 270.392 38.1329 268.728 40.2482C261.413 49.566 257.654 46.0696 256.121 43.8844C254.588 41.6905 260.966 33.8499 263.173 32.3115C265.381 30.7731 268.412 31.3063 269.945 33.4915Z" fill="white"/>
<path d="M260.213 47.2582C260.169 47.2582 260.116 47.2582 260.072 47.2582C258.268 47.2058 256.691 46.2443 255.394 44.3825C254.483 43.0714 255.193 40.7113 257.514 37.3548C259.17 34.9598 261.378 32.4862 262.666 31.5946C265.267 29.7852 268.851 30.4146 270.664 32.9931C272.188 35.1696 271.768 37.7919 269.42 40.79C266.056 45.0818 262.955 47.2582 260.221 47.2582H260.213ZM265.96 32.3113C265.171 32.3113 264.365 32.5474 263.664 33.0281C262.709 33.6924 260.633 35.9213 258.951 38.3513C256.892 41.3319 256.551 42.9927 256.822 43.386C257.803 44.7846 258.872 45.4751 260.107 45.5101C262.28 45.58 264.996 43.5608 268.018 39.7149C269.867 37.3636 270.252 35.493 269.21 33.9983C268.439 32.897 267.204 32.3113 265.942 32.3113H265.96Z" fill="black"/>
<path d="M73.5968 148.04C76.648 129.285 63.8832 111.613 45.0856 108.568C26.2881 105.524 8.57606 118.26 5.52479 137.016C2.47352 155.771 15.2384 173.443 34.036 176.488C52.8335 179.532 70.5455 166.796 73.5968 148.04Z" fill="#2E85EC"/>
<path d="M50.6515 70.7011L53.4198 70.9458L95.8208 76.3302L95.0148 176.527H40.7696L7.49707 130.655L11.8423 114.877C16.3803 98.3747 25.5175 83.489 38.194 71.9598L41.7858 68.6907L50.6602 70.7011H50.6515Z" fill="#2E85EC"/>
<path d="M249.997 6H87.0024C82.5829 6 79 10.7417 79 16.591V160.409C79 166.258 82.5829 171 87.0024 171H249.997C254.417 171 258 166.258 258 160.409V16.591C258 10.7417 254.417 6 249.997 6Z" fill="white"/>
<path d="M89.1107 18.4309C87.0257 18.4309 85.335 16.7439 85.335 14.6636C85.335 12.5832 87.0257 10.8962 89.1107 10.8962C91.1958 10.8962 92.8865 12.5832 92.8865 14.6636C92.8865 16.7439 91.1958 18.4309 89.1107 18.4309ZM89.1107 12.6444C87.9982 12.6444 87.0871 13.5535 87.0871 14.6636C87.0871 15.7736 87.9982 16.6827 89.1107 16.6827C90.2233 16.6827 91.1344 15.7736 91.1344 14.6636C91.1344 13.5535 90.2233 12.6444 89.1107 12.6444Z" fill="black"/>
<path d="M98.8698 18.4309C96.7848 18.4309 95.094 16.7439 95.094 14.6636C95.094 12.5832 96.7848 10.8962 98.8698 10.8962C100.955 10.8962 102.646 12.5832 102.646 14.6636C102.646 16.7439 100.955 18.4309 98.8698 18.4309ZM98.8698 12.6444C97.7572 12.6444 96.8461 13.5535 96.8461 14.6636C96.8461 15.7736 97.7572 16.6827 98.8698 16.6827C99.9824 16.6827 100.893 15.7736 100.893 14.6636C100.893 13.5535 99.9824 12.6444 98.8698 12.6444Z" fill="black"/>
<path d="M108.62 18.4309C106.535 18.4309 104.845 16.7439 104.845 14.6636C104.845 12.5832 106.535 10.8962 108.62 10.8962C110.705 10.8962 112.396 12.5832 112.396 14.6636C112.396 16.7439 110.705 18.4309 108.62 18.4309ZM108.62 12.6444C107.508 12.6444 106.597 13.5535 106.597 14.6636C106.597 15.7736 107.508 16.6827 108.62 16.6827C109.733 16.6827 110.644 15.7736 110.644 14.6636C110.644 13.5535 109.733 12.6444 108.62 12.6444Z" fill="black"/>
<path d="M34.252 62.1089L36.4684 74.3374L32.7277 79.5906L45.0625 88.1392C52.8243 93.5236 63.2932 87.099 61.9791 77.755L60.7176 68.7519L34.252 62.1089Z" fill="white"/>
<path d="M51.2385 90.9801C48.917 90.9801 46.5954 90.2721 44.563 88.8648L32.2282 80.3163C32.0354 80.1851 31.904 79.9754 31.8602 79.7481C31.8164 79.5208 31.8777 79.2848 32.0091 79.0925L35.5396 74.1452L33.3845 62.2751C33.332 61.9867 33.4284 61.6807 33.6474 61.4797C33.8664 61.2787 34.173 61.2 34.4621 61.2699L60.9277 67.913C61.2693 68.0004 61.5321 68.2888 61.5847 68.6385L62.8462 77.6416C63.5033 82.3092 61.4095 86.7495 57.3797 89.2232C55.4611 90.4032 53.341 90.9889 51.2298 90.9889L51.2385 90.9801ZM33.954 79.381L45.5617 87.4313C48.8644 89.7214 53.0432 89.8351 56.4686 87.7373C59.8939 85.6394 61.6723 81.8634 61.1116 77.8863L59.929 69.4688L35.3557 63.2978L37.3355 74.1889C37.3794 74.4249 37.3268 74.6609 37.1866 74.8532L33.954 79.381Z" fill="black"/>
<path d="M61.9794 77.7553C62.0583 78.3409 62.0933 78.9091 62.0933 79.4685C59.6491 79.0927 57.1962 78.1574 54.9009 76.5665L35.4613 63.0881L35.873 62.5112L60.7179 68.7522L61.9794 77.7553Z" fill="black"/>
<path d="M18.5097 20.8257C24.3792 13.0114 35.6015 9.95208 38.729 12.2072C39.4999 9.98704 41.0155 7.89798 43.1881 6.31588C48.2604 2.62723 54.9885 3.15169 58.2124 7.47842C61.007 11.2282 60.2449 16.5951 56.6968 20.3625C59.3162 22.5652 61.7955 25.1612 64.0119 28.1418C72.86 40.0119 54.095 55.0987 50.4331 57.7559C40.5336 64.9409 26.035 62.0739 18.0454 51.3488C10.0557 40.6238 11.4136 30.2571 18.5097 20.8257Z" fill="black"/>
<path d="M20.1654 24.1039C23.5294 23.1948 26.6832 23.2997 29.2063 24.6371C36.3286 28.4131 39.1232 44.1379 28.5405 52.3019C27.8834 52.8089 26.9548 52.9924 26.4467 53.6305C19.2368 43.8932 17.143 32.6437 20.1742 24.1039H20.1654Z" fill="black"/>
<path d="M57.0905 19.9954C53.779 24.4883 48.3825 28.7713 41.6632 31.8044C30.3534 36.9003 18.8595 36.8391 13.3229 32.2064C13.5594 24.9078 16.4153 18.5445 21.9082 14.646C31.3083 7.9855 45.5792 10.5728 57.0905 20.0042V19.9954Z" fill="black"/>
<path d="M26.2716 49.9329C28.0149 49.1462 29.8722 48.9539 31.6243 49.2686C35.2336 44.7408 36.1009 39.033 35.1898 34.1731C37.3274 33.57 39.4912 32.7833 41.6551 31.8131C48.243 28.8412 53.5519 24.6718 56.8809 20.2751C59.4302 22.4778 61.8481 25.0651 64.0207 28.0108C74.6735 42.4595 75.4532 59.9412 65.7728 67.0475C58.5191 72.3707 47.4458 70.3603 37.8705 62.9481C36.9419 64.4865 35.5665 65.7714 33.7969 66.5668C29.1976 68.6384 23.7836 66.6017 21.7073 62.0128C19.6311 57.4238 21.6723 52.022 26.2716 49.9504V49.9329Z" fill="white"/>
<path d="M56.0481 70.9112C50.3888 70.9112 44.055 68.6298 38.0803 64.1982C37.064 65.5705 35.7237 66.6544 34.1555 67.3624C31.7201 68.4637 28.9956 68.5511 26.4901 67.6071C23.9846 66.6631 22.0047 64.8013 20.9009 62.3714C19.797 59.9414 19.7182 57.223 20.6556 54.7231C21.6017 52.2232 23.4677 50.2478 25.9031 49.1464C27.5851 48.386 29.4161 48.115 31.2383 48.3335C34.1468 44.4438 35.2681 39.3741 34.322 34.3394C34.2344 33.8936 34.506 33.4566 34.944 33.3342C37.0816 32.7311 39.2104 31.9531 41.2866 31.0179C47.5066 28.2121 52.7892 24.2087 56.1708 19.7509C56.3197 19.5586 56.5387 19.4362 56.7753 19.41C57.0205 19.3838 57.2571 19.4624 57.4411 19.6198C60.113 21.9274 62.5572 24.5759 64.7123 27.4953C69.9686 34.6191 73.0436 42.7044 73.3852 50.2478C73.7269 57.9223 71.2039 64.137 66.2804 67.7557C63.3807 69.8798 59.8677 70.9287 56.0394 70.9287L56.0481 70.9112ZM37.87 62.0654C38.0627 62.0654 38.2555 62.1266 38.4044 62.249C47.9797 69.67 58.5186 71.2696 65.2467 66.331C69.6883 63.0706 71.9573 57.3803 71.6419 50.309C71.3177 43.1065 68.3567 35.3708 63.3106 28.518C61.4271 25.9569 59.2983 23.6144 56.9943 21.534C53.4375 25.9219 48.1549 29.8291 42.0138 32.6C40.104 33.4653 38.1416 34.1995 36.1792 34.7852C36.994 40.2395 35.601 45.6676 32.3071 49.8107C32.1056 50.0642 31.7814 50.1866 31.4661 50.1254C29.8191 49.837 28.1458 50.038 26.6303 50.7285C24.6153 51.6376 23.0822 53.2721 22.3025 55.3262C21.5229 57.3891 21.5929 59.6267 22.504 61.6371C23.4151 63.6475 25.0534 65.1772 27.1121 65.9551C29.1796 66.733 31.4223 66.6631 33.4372 65.7541C34.979 65.0635 36.2493 63.9272 37.1166 62.4762C37.248 62.2577 37.4583 62.1091 37.7036 62.0654C37.7561 62.0567 37.8087 62.0479 37.8613 62.0479L37.87 62.0654Z" fill="black"/>
<path d="M38.4398 12.7931H38.4047C37.9229 12.7756 37.5462 12.3648 37.5637 11.884C37.7389 7.53984 40.0955 4.10467 44.3794 1.94568C47.5332 0.354843 50.5994 0.02269 50.7308 0.00520825C51.2214 -0.0472369 51.6419 0.302398 51.6944 0.783145C51.747 1.26389 51.3966 1.6922 50.9148 1.74464C50.8885 1.74464 48.0063 2.06805 45.1328 3.52778C41.4271 5.4158 39.4647 8.24785 39.3158 11.954C39.2983 12.426 38.9128 12.7931 38.4398 12.7931Z" fill="black"/>
<path d="M66.3247 34.8026C66.6926 36.1662 66.2809 37.4511 65.4136 37.6871C64.5463 37.9143 63.5476 37.0053 63.1796 35.6417C62.8117 34.2781 63.2234 32.9932 64.0907 32.7572C64.958 32.53 65.9567 33.439 66.3247 34.8026Z" fill="black"/>
<path d="M60.648 31.5773C60.3677 31.5773 60.0874 31.4374 59.9209 31.1927C59.6493 30.7906 59.7545 30.2487 60.1574 29.9777C60.2713 29.8991 62.9258 28.1509 66.1672 28.1072H66.1759C66.6578 28.1072 67.0432 28.4918 67.052 28.9725C67.052 29.4533 66.6665 29.8554 66.1847 29.8554C63.4602 29.8903 61.1561 31.4112 61.1299 31.4287C60.9809 31.5249 60.8145 31.5773 60.6393 31.5773H60.648Z" fill="black"/>
<path d="M54.1297 40.7288C54.4977 42.0924 54.0859 43.3773 53.2186 43.6133C52.3513 43.8406 51.3526 42.9315 50.9847 41.568C50.6167 40.2044 51.0285 38.9195 51.8958 38.6835C52.7631 38.4562 53.7618 39.3653 54.1297 40.7288Z" fill="black"/>
<path d="M45.9564 41.0348C45.8425 41.0348 45.7286 41.0173 45.6235 40.9649C45.1767 40.7813 44.9664 40.2656 45.1504 39.8198C45.238 39.6013 47.4632 34.3917 52.4129 33.6225C52.886 33.5526 53.3415 33.876 53.4116 34.348C53.4904 34.8288 53.1575 35.2746 52.6845 35.3445C48.7159 35.9651 46.7886 40.4404 46.7711 40.4929C46.6309 40.825 46.3068 41.0261 45.9651 41.0261L45.9564 41.0348Z" fill="black"/>
<path d="M62.3389 46.1745C62.006 46.1745 61.6906 45.9822 61.5417 45.6588C61.3402 45.2217 61.5417 44.706 61.9797 44.505C62.7594 44.1466 63.9771 43.3337 64.091 42.7131C64.1085 42.6344 64.1348 42.4596 63.837 42.1537C62.2776 40.5628 58.4668 35.3183 58.3091 35.0998C58.0287 34.7065 58.1163 34.1645 58.5018 33.8761C58.896 33.5964 59.4392 33.6838 59.7283 34.0684C59.7633 34.1208 63.618 39.4265 65.0897 40.93C65.8607 41.7254 65.9045 42.5121 65.8081 43.0278C65.4839 44.7585 63.1624 45.8773 62.6981 46.0871C62.5842 46.1395 62.4616 46.1657 62.3389 46.1657V46.1745Z" fill="black"/>
<path d="M61.419 53.7003C59.2464 53.7003 56.5394 52.8175 53.6835 49.7669C53.3506 49.4173 53.3681 48.8579 53.7273 48.5345C54.0777 48.2023 54.6383 48.2198 54.9625 48.5782C60.543 54.5307 65.0721 50.8595 65.2649 50.7022C65.6328 50.3963 66.1847 50.44 66.5001 50.8071C66.8155 51.1742 66.7717 51.7249 66.4037 52.0308C66.3687 52.057 64.3888 53.7003 61.419 53.7003Z" fill="black"/>
<path d="M26.1052 55.6846C25.8161 55.6846 25.5357 55.5447 25.3693 55.2913C25.1065 54.8892 25.2203 54.3472 25.6233 54.085C29.1713 51.7687 33.0523 53.9452 33.2099 54.0413C33.6305 54.2861 33.7706 54.8193 33.5341 55.2388C33.2888 55.6584 32.7544 55.7982 32.3427 55.5622C32.2112 55.4836 29.2151 53.8315 26.587 55.5535C26.4381 55.6496 26.2716 55.6933 26.1052 55.6933V55.6846Z" fill="black"/>
<path d="M159.633 117.273L153.308 116.827L154.771 116.661C156.777 116.434 158.441 114.851 158.555 112.841C158.686 110.49 156.82 108.541 154.49 108.541H121.586L129.987 102.142C132.125 100.516 133.5 98.069 133.772 95.3943C133.947 93.6374 132.046 92.4137 130.46 93.2004L120.78 98.0253C115.611 100.604 111.047 104.258 107.402 108.75C106.859 109.415 106.369 110.114 105.904 110.831L33.4284 131.529C19.1224 135.611 13.9449 153.163 23.7567 164.325C29.8541 171.274 39.8936 173.214 48.1548 169.054L109.575 138.102C112.002 139.553 114.849 140.375 117.889 140.322C123.145 140.235 127.727 140.113 127.92 139.964L148.875 146.179C150.618 146.694 152.344 146.056 152.887 144.702C153.483 143.224 152.475 141.424 150.644 140.689L139.58 136.258L155.174 135.559C157.188 135.471 158.958 134.011 159.221 132.01C159.519 129.676 157.793 127.596 155.471 127.43L139.475 126.302L159.676 125.402C161.954 125.297 163.741 123.348 163.557 120.996C163.4 118.968 161.665 117.421 159.633 117.273Z" fill="white"/>
<path d="M154.771 117.544H137.355C136.873 117.544 136.479 117.15 136.479 116.669C136.479 116.189 136.873 115.795 137.355 115.795H154.771C155.252 115.795 155.647 116.189 155.647 116.669C155.647 117.15 155.252 117.544 154.771 117.544Z" fill="black"/>
<path d="M51.8604 127.097C51.7991 127.097 51.7377 127.097 51.6764 127.08C51.2033 126.975 50.9055 126.512 51.0106 126.04L53.0255 116.783C53.1307 116.311 53.595 116.014 54.068 116.119C54.5411 116.224 54.839 116.687 54.7338 117.159L52.7189 126.416C52.6313 126.827 52.2634 127.106 51.8604 127.106V127.097Z" fill="black"/>
<path d="M267.011 71.5927C268.185 74.416 266.853 77.6501 264.023 78.8301C261.194 80.0014 257.952 78.6728 256.77 75.8495C255.596 73.0262 256.927 69.7921 259.757 68.612C262.587 67.4408 265.828 68.7694 267.011 71.5927Z" fill="white"/>
<path d="M261.886 80.133C261.054 80.133 260.23 79.9669 259.442 79.6435C257.856 78.9879 256.621 77.7642 255.964 76.1821C255.307 74.6 255.298 72.8606 255.955 71.2785C256.612 69.6964 257.839 68.4639 259.424 67.8083C262.692 66.4535 266.459 68.0006 267.817 71.261C269.175 74.5213 267.624 78.2799 264.356 79.6347C263.559 79.9669 262.727 80.133 261.886 80.133ZM261.886 69.067C261.29 69.067 260.677 69.1807 260.099 69.4254C258.951 69.9062 258.049 70.7977 257.576 71.9515C257.103 73.1053 257.103 74.364 257.576 75.5178C258.058 76.6628 258.951 77.5632 260.108 78.0352C261.264 78.5072 262.534 78.5072 263.682 78.0352C266.056 77.0474 267.186 74.3116 266.196 71.9428C265.452 70.1596 263.708 69.0758 261.877 69.0758L261.886 69.067Z" fill="black"/>
<path d="M266.555 60.1947C267.729 63.018 266.397 66.2522 263.568 67.4322C260.738 68.6122 257.497 67.2748 256.314 64.4515C255.14 61.6282 256.472 58.3941 259.301 57.2141C262.131 56.0341 265.372 57.3714 266.555 60.1947Z" fill="white"/>
<path d="M261.439 68.7258C258.925 68.7258 256.533 67.2398 255.508 64.7836C254.15 61.5233 255.701 57.7647 258.969 56.4099C260.554 55.7543 262.298 55.7456 263.883 56.4011C265.469 57.0567 266.704 58.2804 267.361 59.8625C268.018 61.4446 268.027 63.1841 267.37 64.7662C266.713 66.3482 265.487 67.5807 263.901 68.2363C263.095 68.5684 262.263 68.7258 261.439 68.7258ZM261.439 57.6598C260.835 57.6598 260.221 57.7822 259.643 58.0182C257.269 59.0059 256.139 61.7418 257.129 64.1106C258.119 66.4794 260.861 67.6069 263.235 66.6192C264.383 66.1385 265.285 65.2469 265.758 64.0931C266.231 62.9393 266.231 61.6806 265.758 60.5268C265.276 59.3818 264.383 58.4815 263.226 58.0095C262.657 57.7735 262.052 57.6598 261.448 57.6598H261.439Z" fill="black"/>
<path d="M266.073 48.7616C267.247 51.5849 265.916 54.8191 263.086 55.9991C260.256 57.1791 257.015 55.8417 255.832 53.0184C254.658 50.1951 255.99 46.961 258.82 45.781C261.649 44.601 264.891 45.9383 266.073 48.7616Z" fill="white"/>
<path d="M260.957 57.3017C260.125 57.3017 259.302 57.1356 258.513 56.8122C256.928 56.1566 255.692 54.9329 255.035 53.3508C254.378 51.7687 254.369 50.0293 255.027 48.4472C255.684 46.8651 256.91 45.6326 258.496 44.977C261.763 43.6222 265.53 45.1693 266.888 48.4297C268.246 51.69 266.696 55.4486 263.428 56.8034C262.631 57.1356 261.798 57.3017 260.957 57.3017ZM260.957 46.2357C260.362 46.2357 259.748 46.3494 259.17 46.5941C258.023 47.0749 257.12 47.9664 256.647 49.1202C256.174 50.274 256.174 51.5327 256.647 52.6865C257.129 53.8315 258.023 54.7319 259.179 55.2039C260.335 55.6759 261.606 55.6759 262.753 55.2039C265.127 54.2161 266.258 51.4803 265.268 49.1115C264.523 47.3283 262.78 46.2445 260.949 46.2445L260.957 46.2357Z" fill="black"/>
<path d="M127 44.5C127 50.851 121.851 56 115.5 56C109.149 56 104 50.851 104 44.5C104 38.149 109.149 33 115.5 33C121.851 33 127 38.149 127 44.5Z" fill="#2E85EC"/>
<path d="M170.559 39H142.441C142.199 39 142 38.55 142 37.9999C142 37.45 142.199 37 142.441 37H170.559C170.801 37 171 37.45 171 37.9999C171 38.55 170.801 39 170.559 39Z" fill="black"/>
<path d="M182.565 45H142.435C142.196 45 142 44.55 142 44.0001C142 43.45 142.196 43 142.435 43H182.565C182.804 43 183 43.45 183 44.0001C183 44.55 182.804 45 182.565 45Z" fill="black"/>
<path d="M170.559 51H142.441C142.199 51 142 50.5499 142 50C142 49.4499 142.199 49 142.441 49H170.559C170.801 49 171 49.4499 171 50C171 50.5499 170.801 51 170.559 51Z" fill="black"/>
<path d="M167.876 112H223.672C224.154 112 224.548 111.55 224.548 111C224.548 110.45 224.154 110 223.672 110H167.876C167.394 110 167 110.45 167 111C167 111.55 167.394 112 167.876 112Z" fill="black"/>
<path d="M167.876 103H223.672C224.154 103 224.548 102.55 224.548 102C224.548 101.45 224.154 101 223.672 101H167.876C167.394 101 167 101.45 167 102C167 102.55 167.394 103 167.876 103Z" fill="black"/>
<path d="M142.876 75.7481H223.631C224.113 75.7481 224.507 75.3548 224.507 74.8741C224.507 74.3933 224.113 74 223.631 74H142.876C142.395 74 142 74.3933 142 74.8741C142 75.3548 142.395 75.7481 142.876 75.7481Z" fill="black"/>
<path d="M142.876 85H223.631C224.113 85 224.507 84.55 224.507 84.0001C224.507 83.45 224.113 83 223.631 83H142.876C142.395 83 142 83.45 142 84.0001C142 84.55 142.395 85 142.876 85Z" fill="black"/>
<path d="M143.263 94H223.736C224.431 94 225 93.5499 225 93C225 92.4499 224.431 92 223.736 92H143.263C142.568 92 142 92.4499 142 93C142 93.5499 142.568 94 143.263 94Z" fill="black"/>
<path d="M167.876 121H223.672C224.154 121 224.548 120.55 224.548 120C224.548 119.45 224.154 119 223.672 119H167.876C167.394 119 167 119.45 167 120C167 120.55 167.394 121 167.876 121Z" fill="black"/>
<path d="M39.2323 171.974C33.2684 171.974 27.4098 169.507 23.2728 164.866C18.4595 159.465 16.8082 152.132 18.8723 145.247C20.9364 138.363 26.3646 133.075 33.3913 131.099L105.749 110.756C106.223 110.057 106.672 109.444 107.119 108.901C110.879 104.345 115.49 100.713 120.821 98.0907L130.527 93.3285C131.572 92.8195 132.82 92.9057 133.777 93.5614C134.726 94.1998 135.217 95.2437 135.104 96.3566C134.813 99.2209 133.303 101.87 130.975 103.621L124.624 108.383H155.015C156.377 108.383 157.694 108.943 158.625 109.91C159.573 110.894 160.048 112.188 159.969 113.542C159.89 114.845 159.248 116.027 158.265 116.872L160.232 117.01C162.754 117.183 164.791 119.107 164.984 121.479C165.09 122.825 164.66 124.111 163.754 125.112C162.859 126.112 161.612 126.699 160.259 126.759L155.208 126.983L156.06 127.044C157.413 127.139 158.687 127.785 159.547 128.821C160.426 129.865 160.804 131.185 160.628 132.54C160.329 134.851 158.23 136.68 155.744 136.793L144.159 137.302L151.493 140.192C152.573 140.614 153.451 141.357 153.97 142.279C154.523 143.263 154.619 144.324 154.233 145.273C153.514 147.033 151.326 147.879 149.148 147.24L128.331 141.166C127.479 141.287 125.213 141.382 118.336 141.495C115.402 141.546 112.53 140.822 109.956 139.415L48.7974 169.758C45.7583 171.267 42.4821 172 39.241 172L39.2323 171.974ZM131.949 94.7175C131.73 94.7175 131.51 94.7692 131.309 94.8641L121.603 99.6263C116.491 102.137 112.073 105.622 108.48 109.979C108.015 110.548 107.541 111.196 107.041 111.955C106.926 112.128 106.75 112.257 106.548 112.317L33.8832 132.746C27.4362 134.558 22.4647 139.406 20.5675 145.73C18.6791 152.046 20.1811 158.775 24.5991 163.727C30.4576 170.292 40.0755 172.121 48.0068 168.187L109.587 137.638C109.86 137.508 110.176 137.517 110.43 137.664C112.82 139.07 115.552 139.786 118.301 139.734C126.109 139.605 127.751 139.484 128.076 139.433C128.252 139.372 128.445 139.364 128.621 139.415L149.63 145.549C150.94 145.928 152.213 145.524 152.591 144.592C152.776 144.134 152.723 143.599 152.424 143.082C152.099 142.503 151.528 142.038 150.826 141.753L139.732 137.379C139.346 137.224 139.126 136.836 139.196 136.43C139.266 136.034 139.609 135.732 140.021 135.714L155.656 135.024C157.298 134.955 158.687 133.773 158.88 132.28C158.994 131.41 158.748 130.555 158.177 129.882C157.615 129.201 156.807 128.795 155.92 128.735L139.881 127.621C139.416 127.587 139.056 127.208 139.065 126.75C139.065 126.293 139.442 125.922 139.908 125.896L160.162 125.008C161.04 124.973 161.84 124.593 162.42 123.947C162.999 123.299 163.28 122.462 163.21 121.591C163.087 120.064 161.743 118.822 160.083 118.71L153.741 118.27C153.285 118.235 152.933 117.873 152.925 117.425C152.916 116.976 153.25 116.596 153.698 116.544L155.165 116.38C156.798 116.191 158.098 114.923 158.186 113.421C158.239 112.541 157.931 111.713 157.316 111.074C156.702 110.437 155.876 110.091 154.988 110.091H121.998C121.621 110.091 121.287 109.858 121.164 109.504C121.041 109.151 121.164 108.772 121.462 108.547L129.886 102.232C131.836 100.774 133.091 98.5652 133.338 96.1668C133.408 95.4853 132.96 95.0971 132.758 94.9676C132.503 94.7951 132.222 94.7088 131.932 94.7088L131.949 94.7175Z" fill="black"/>
<path fill-rule="evenodd" clip-rule="evenodd" d="M249.997 8H87.0024C85.5569 8 84.101 8.77066 82.9396 10.3077C81.7773 11.8459 81 14.0608 81 16.591V160.409C81 162.939 81.7773 165.154 82.9396 166.692C84.101 168.229 85.557 169 87.0024 169H249.997C251.443 169 252.899 168.229 254.06 166.692C255.223 165.154 256 162.939 256 160.409V16.591C256 14.0608 255.223 11.8459 254.06 10.3077C252.899 8.77067 251.443 8 249.997 8ZM87.0024 6H249.997C254.417 6 258 10.7417 258 16.591V160.409C258 166.258 254.417 171 249.997 171H87.0024C82.5829 171 79 166.258 79 160.409V16.591C79 10.7417 82.5829 6 87.0024 6Z" fill="black"/>
<path d="M131.578 94.1583C131.779 94.0616 131.999 94.0089 132.219 94.0089L132.202 94C132.491 94 132.772 94.0879 133.027 94.2638C133.23 94.3958 133.678 94.7915 133.608 95.4863C133.361 97.9312 132.105 100.183 130.155 101.669L121.728 108.106C121.43 108.336 121.307 108.722 121.43 109.082C121.552 109.443 121.886 109.681 122.264 109.681H155.265C156.153 109.681 156.979 110.033 157.594 110.683C158.209 111.334 158.517 112.178 158.464 113.075C158.376 114.606 157.076 115.899 155.442 116.092L153.974 116.259C153.526 116.311 153.192 116.699 153.201 117.156C153.209 117.613 153.561 117.982 154.018 118.018L160.361 118.466C162.022 118.581 163.367 119.847 163.489 121.403C163.56 122.292 163.279 123.145 162.699 123.805C162.119 124.464 161.319 124.851 160.44 124.887L140.18 125.792C139.714 125.818 139.337 126.197 139.337 126.662C139.327 127.129 139.688 127.516 140.153 127.551L156.197 128.686C157.085 128.747 157.893 129.161 158.455 129.855C159.026 130.541 159.272 131.412 159.158 132.3C158.965 133.822 157.576 135.026 155.933 135.097L140.293 135.8C139.881 135.818 139.538 136.126 139.468 136.531C139.398 136.944 139.617 137.34 140.003 137.497L151.101 141.957C151.804 142.246 152.375 142.721 152.7 143.311C152.999 143.838 153.052 144.383 152.867 144.85C152.489 145.8 151.215 146.213 149.906 145.826L128.889 139.573C128.713 139.521 128.52 139.529 128.344 139.591C128.019 139.644 126.376 139.766 118.566 139.898C115.815 139.951 113.082 139.221 110.692 137.788C110.438 137.638 110.122 137.629 109.849 137.761L48.2482 168.903C38 172.5 32 170.5 24.8326 164.356C20.4132 159.309 18.9106 152.449 20.7997 146.01C22.6976 139.564 27.6707 134.622 34.1198 132.775L106.809 111.95C107.011 111.888 107.187 111.756 107.301 111.58C107.802 110.807 108.276 110.147 108.742 109.566C112.335 105.125 116.755 101.572 121.869 99.0129L131.578 94.1583Z" fill="white"/>
</svg>
