<svg width="272" height="182" viewBox="0 0 272 182" fill="none" xmlns="http://www.w3.org/2000/svg">
<path d="M269.945 33.4915C271.478 35.6855 270.392 38.1329 268.728 40.2482C261.413 49.566 257.654 46.0696 256.121 43.8844C254.588 41.6905 260.966 33.8499 263.173 32.3115C265.381 30.7731 268.412 31.3063 269.945 33.4915Z" fill="white"/>
<path d="M260.213 47.2582C260.169 47.2582 260.116 47.2582 260.072 47.2582C258.268 47.2058 256.691 46.2443 255.394 44.3825C254.483 43.0714 255.193 40.7113 257.514 37.3548C259.17 34.9598 261.378 32.4862 262.666 31.5946C265.267 29.7852 268.851 30.4146 270.664 32.9931C272.188 35.1696 271.768 37.7919 269.42 40.79C266.056 45.0818 262.955 47.2582 260.221 47.2582H260.213ZM265.96 32.3113C265.171 32.3113 264.365 32.5474 263.664 33.0281C262.709 33.6924 260.633 35.9213 258.951 38.3513C256.892 41.3319 256.551 42.9927 256.822 43.386C257.803 44.7846 258.872 45.4751 260.107 45.5101C262.28 45.58 264.996 43.5608 268.018 39.7149C269.867 37.3636 270.252 35.493 269.21 33.9983C268.439 32.897 267.204 32.3113 265.942 32.3113H265.96Z" fill="black"/>
<path d="M73.5969 148.04C76.6481 129.285 63.8833 111.613 45.0857 108.568C26.2882 105.524 8.57618 118.26 5.52491 137.016C2.47364 155.771 15.2385 173.443 34.0361 176.488C52.8336 179.532 70.5456 166.796 73.5969 148.04Z" fill="#2E85EC"/>
<path d="M50.6515 70.7011L53.4198 70.9458L95.8208 76.3302L95.0148 176.527H40.7696L7.49707 130.655L11.8423 114.877C16.3803 98.3747 25.5175 83.489 38.194 71.9598L41.7858 68.6907L50.6602 70.7011H50.6515Z" fill="#2E85EC"/>
<path d="M250.147 5.98389H86.8772C82.4502 5.98389 78.8613 9.56466 78.8613 13.9818V122.587C78.8613 127.004 82.4502 130.585 86.8772 130.585H250.147C254.574 130.585 258.163 127.004 258.163 122.587V13.9818C258.163 9.56466 254.574 5.98389 250.147 5.98389Z" fill="white"/>
<path d="M250.138 131.468H86.877C81.9711 131.468 77.9851 127.482 77.9851 122.596V13.9906C77.9851 9.09575 81.9799 5.11865 86.877 5.11865H250.138C255.044 5.11865 259.03 9.10449 259.03 13.9906V122.596C259.03 127.491 255.035 131.468 250.138 131.468ZM86.877 6.85808C82.9348 6.85808 79.7372 10.0572 79.7372 13.9819V122.587C79.7372 126.521 82.9435 129.711 86.877 129.711H250.138C254.081 129.711 257.278 126.512 257.278 122.587V13.9906C257.278 10.0572 254.072 6.86683 250.138 6.86683H86.877V6.85808Z" fill="black"/>
<path d="M89.1107 18.4309C87.0257 18.4309 85.335 16.7439 85.335 14.6636C85.335 12.5832 87.0257 10.8962 89.1107 10.8962C91.1958 10.8962 92.8865 12.5832 92.8865 14.6636C92.8865 16.7439 91.1958 18.4309 89.1107 18.4309ZM89.1107 12.6444C87.9982 12.6444 87.0871 13.5535 87.0871 14.6636C87.0871 15.7736 87.9982 16.6827 89.1107 16.6827C90.2233 16.6827 91.1344 15.7736 91.1344 14.6636C91.1344 13.5535 90.2233 12.6444 89.1107 12.6444Z" fill="black"/>
<path d="M98.8698 18.4309C96.7848 18.4309 95.094 16.7439 95.094 14.6636C95.094 12.5832 96.7848 10.8962 98.8698 10.8962C100.955 10.8962 102.646 12.5832 102.646 14.6636C102.646 16.7439 100.955 18.4309 98.8698 18.4309ZM98.8698 12.6444C97.7572 12.6444 96.8461 13.5535 96.8461 14.6636C96.8461 15.7736 97.7572 16.6827 98.8698 16.6827C99.9824 16.6827 100.893 15.7736 100.893 14.6636C100.893 13.5535 99.9824 12.6444 98.8698 12.6444Z" fill="black"/>
<path d="M108.62 18.4309C106.535 18.4309 104.845 16.7439 104.845 14.6636C104.845 12.5832 106.535 10.8962 108.62 10.8962C110.705 10.8962 112.396 12.5832 112.396 14.6636C112.396 16.7439 110.705 18.4309 108.62 18.4309ZM108.62 12.6444C107.508 12.6444 106.597 13.5535 106.597 14.6636C106.597 15.7736 107.508 16.6827 108.62 16.6827C109.733 16.6827 110.644 15.7736 110.644 14.6636C110.644 13.5535 109.733 12.6444 108.62 12.6444Z" fill="black"/>
<path d="M34.2521 62.1089L36.4685 74.3374L32.7278 79.5906L45.0626 88.1392C52.8244 93.5236 63.2933 87.099 61.9792 77.755L60.7177 68.7519L34.2521 62.1089Z" fill="white"/>
<path d="M51.2385 90.9801C48.917 90.9801 46.5954 90.2721 44.563 88.8648L32.2282 80.3163C32.0354 80.1851 31.904 79.9754 31.8602 79.7481C31.8164 79.5208 31.8777 79.2848 32.0091 79.0925L35.5396 74.1452L33.3845 62.2751C33.332 61.9867 33.4284 61.6807 33.6474 61.4797C33.8664 61.2787 34.173 61.2 34.4621 61.2699L60.9277 67.913C61.2693 68.0004 61.5321 68.2888 61.5847 68.6385L62.8462 77.6416C63.5033 82.3092 61.4095 86.7495 57.3797 89.2232C55.4611 90.4032 53.341 90.9889 51.2298 90.9889L51.2385 90.9801ZM33.954 79.381L45.5617 87.4313C48.8644 89.7214 53.0432 89.8351 56.4686 87.7373C59.8939 85.6394 61.6723 81.8634 61.1116 77.8863L59.929 69.4688L35.3557 63.2978L37.3355 74.1889C37.3794 74.4249 37.3268 74.6609 37.1866 74.8532L33.954 79.381Z" fill="black"/>
<path d="M61.9793 77.7553C62.0582 78.3409 62.0932 78.9091 62.0932 79.4685C59.649 79.0927 57.1961 78.1574 54.9008 76.5665L35.4612 63.0881L35.8729 62.5112L60.7178 68.7522L61.9793 77.7553Z" fill="black"/>
<path d="M18.5097 20.8257C24.3792 13.0114 35.6015 9.95208 38.729 12.2072C39.4999 9.98704 41.0155 7.89798 43.1881 6.31588C48.2604 2.62723 54.9885 3.15169 58.2124 7.47842C61.007 11.2282 60.2449 16.5951 56.6968 20.3625C59.3162 22.5652 61.7955 25.1612 64.0119 28.1418C72.86 40.0119 54.095 55.0987 50.4331 57.7559C40.5336 64.9409 26.035 62.0739 18.0454 51.3488C10.0557 40.6238 11.4136 30.2571 18.5097 20.8257Z" fill="black"/>
<path d="M20.1654 24.1039C23.5294 23.1948 26.6832 23.2997 29.2063 24.6371C36.3286 28.4131 39.1232 44.1379 28.5405 52.3019C27.8834 52.8089 26.9548 52.9924 26.4467 53.6305C19.2368 43.8932 17.143 32.6437 20.1742 24.1039H20.1654Z" fill="black"/>
<path d="M57.0906 19.9954C53.7791 24.4883 48.3826 28.7713 41.6633 31.8044C30.3535 36.9003 18.8596 36.8391 13.323 32.2064C13.5595 24.9078 16.4154 18.5445 21.9083 14.646C31.3084 7.9855 45.5793 10.5728 57.0906 20.0042V19.9954Z" fill="black"/>
<path d="M26.2715 49.9329C28.0148 49.1462 29.8721 48.9539 31.6242 49.2686C35.2335 44.7408 36.1008 39.033 35.1897 34.1731C37.3273 33.57 39.4911 32.7833 41.655 31.8131C48.2429 28.8412 53.5518 24.6718 56.8808 20.2751C59.4301 22.4778 61.848 25.0651 64.0206 28.0108C74.6734 42.4595 75.4531 59.9412 65.7727 67.0475C58.519 72.3707 47.4457 70.3603 37.8704 62.9481C36.9418 64.4865 35.5664 65.7714 33.7968 66.5668C29.1975 68.6384 23.7835 66.6017 21.7072 62.0128C19.631 57.4238 21.6722 52.022 26.2715 49.9504V49.9329Z" fill="white"/>
<path d="M56.0482 70.9112C50.3889 70.9112 44.0551 68.6298 38.0804 64.1982C37.0641 65.5705 35.7238 66.6544 34.1556 67.3624C31.7202 68.4637 28.9957 68.5511 26.4902 67.6071C23.9847 66.6631 22.0048 64.8013 20.901 62.3714C19.7971 59.9414 19.7183 57.223 20.6557 54.7231C21.6018 52.2232 23.4678 50.2478 25.9032 49.1464C27.5852 48.386 29.4162 48.115 31.2384 48.3335C34.1469 44.4438 35.2682 39.3741 34.3221 34.3394C34.2345 33.8936 34.5061 33.4566 34.9441 33.3342C37.0817 32.7311 39.2105 31.9531 41.2867 31.0179C47.5067 28.2121 52.7893 24.2087 56.1709 19.7509C56.3198 19.5586 56.5388 19.4362 56.7754 19.41C57.0206 19.3838 57.2572 19.4624 57.4412 19.6198C60.1131 21.9274 62.5573 24.5759 64.7124 27.4953C69.9687 34.6191 73.0437 42.7044 73.3853 50.2478C73.727 57.9223 71.204 64.137 66.2805 67.7557C63.3808 69.8798 59.8678 70.9287 56.0395 70.9287L56.0482 70.9112ZM37.8701 62.0654C38.0628 62.0654 38.2556 62.1266 38.4045 62.249C47.9798 69.67 58.5187 71.2696 65.2468 66.331C69.6884 63.0706 71.9574 57.3803 71.642 50.309C71.3178 43.1065 68.3568 35.3708 63.3107 28.518C61.4272 25.9569 59.2984 23.6144 56.9944 21.534C53.4376 25.9219 48.155 29.8291 42.0139 32.6C40.1041 33.4653 38.1417 34.1995 36.1793 34.7852C36.9941 40.2395 35.6011 45.6676 32.3072 49.8107C32.1057 50.0642 31.7815 50.1866 31.4662 50.1254C29.8192 49.837 28.1459 50.038 26.6304 50.7285C24.6154 51.6376 23.0823 53.2721 22.3026 55.3262C21.523 57.3891 21.593 59.6267 22.5041 61.6371C23.4152 63.6475 25.0535 65.1772 27.1122 65.9551C29.1797 66.733 31.4224 66.6631 33.4373 65.7541C34.9791 65.0635 36.2494 63.9272 37.1167 62.4762C37.2481 62.2577 37.4584 62.1091 37.7037 62.0654C37.7562 62.0567 37.8088 62.0479 37.8614 62.0479L37.8701 62.0654Z" fill="black"/>
<path d="M38.4399 12.7931H38.4048C37.923 12.7756 37.5463 12.3648 37.5638 11.884C37.739 7.53984 40.0956 4.10467 44.3795 1.94568C47.5333 0.354843 50.5995 0.02269 50.7309 0.00520825C51.2215 -0.0472369 51.642 0.302398 51.6945 0.783145C51.7471 1.26389 51.3967 1.6922 50.9149 1.74464C50.8886 1.74464 48.0064 2.06805 45.1329 3.52778C41.4272 5.4158 39.4648 8.24785 39.3159 11.954C39.2984 12.426 38.9129 12.7931 38.4399 12.7931Z" fill="black"/>
<path d="M66.3246 34.8026C66.6925 36.1662 66.2808 37.4511 65.4135 37.6871C64.5462 37.9143 63.5475 37.0053 63.1795 35.6417C62.8116 34.2781 63.2233 32.9932 64.0906 32.7572C64.9579 32.53 65.9566 33.439 66.3246 34.8026Z" fill="black"/>
<path d="M60.6479 31.5773C60.3676 31.5773 60.0873 31.4374 59.9208 31.1927C59.6492 30.7906 59.7544 30.2487 60.1573 29.9777C60.2712 29.8991 62.9257 28.1509 66.1671 28.1072H66.1758C66.6577 28.1072 67.0431 28.4918 67.0519 28.9725C67.0519 29.4533 66.6664 29.8554 66.1846 29.8554C63.4601 29.8903 61.156 31.4112 61.1298 31.4287C60.9808 31.5249 60.8144 31.5773 60.6392 31.5773H60.6479Z" fill="black"/>
<path d="M54.1297 40.7288C54.4977 42.0924 54.0859 43.3773 53.2186 43.6133C52.3513 43.8406 51.3526 42.9315 50.9847 41.568C50.6167 40.2044 51.0285 38.9195 51.8958 38.6835C52.7631 38.4562 53.7618 39.3653 54.1297 40.7288Z" fill="black"/>
<path d="M45.9563 41.0348C45.8424 41.0348 45.7285 41.0173 45.6234 40.9649C45.1766 40.7813 44.9663 40.2656 45.1503 39.8198C45.2379 39.6013 47.4631 34.3917 52.4128 33.6225C52.8859 33.5526 53.3414 33.876 53.4115 34.348C53.4903 34.8288 53.1574 35.2746 52.6844 35.3445C48.7158 35.9651 46.7885 40.4404 46.771 40.4929C46.6308 40.825 46.3067 41.0261 45.965 41.0261L45.9563 41.0348Z" fill="black"/>
<path d="M62.3389 46.1745C62.006 46.1745 61.6906 45.9822 61.5417 45.6588C61.3402 45.2217 61.5417 44.706 61.9797 44.505C62.7594 44.1466 63.9771 43.3337 64.091 42.7131C64.1085 42.6344 64.1348 42.4596 63.837 42.1537C62.2776 40.5628 58.4668 35.3183 58.3091 35.0998C58.0287 34.7065 58.1163 34.1645 58.5018 33.8761C58.896 33.5964 59.4392 33.6838 59.7283 34.0684C59.7633 34.1208 63.618 39.4265 65.0897 40.93C65.8607 41.7254 65.9045 42.5121 65.8081 43.0278C65.4839 44.7585 63.1624 45.8773 62.6981 46.0871C62.5842 46.1395 62.4616 46.1657 62.3389 46.1657V46.1745Z" fill="black"/>
<path d="M61.419 53.7003C59.2464 53.7003 56.5394 52.8175 53.6835 49.7669C53.3506 49.4173 53.3681 48.8579 53.7273 48.5345C54.0777 48.2023 54.6383 48.2198 54.9625 48.5782C60.543 54.5307 65.0721 50.8595 65.2649 50.7022C65.6328 50.3963 66.1847 50.44 66.5001 50.8071C66.8155 51.1742 66.7717 51.7249 66.4037 52.0308C66.3687 52.057 64.3888 53.7003 61.419 53.7003Z" fill="black"/>
<path d="M26.1052 55.6846C25.8161 55.6846 25.5357 55.5447 25.3693 55.2913C25.1065 54.8892 25.2203 54.3472 25.6233 54.085C29.1713 51.7687 33.0523 53.9452 33.2099 54.0413C33.6305 54.2861 33.7706 54.8193 33.5341 55.2388C33.2888 55.6584 32.7544 55.7982 32.3427 55.5622C32.2112 55.4836 29.2151 53.8315 26.587 55.5535C26.4381 55.6496 26.2716 55.6933 26.1052 55.6933V55.6846Z" fill="black"/>
<path d="M159.633 117.273L153.308 116.827L154.771 116.661C156.777 116.434 158.441 114.851 158.555 112.841C158.686 110.49 156.82 108.541 154.49 108.541H121.586L129.987 102.142C132.125 100.516 133.5 98.069 133.772 95.3943C133.947 93.6374 132.046 92.4137 130.46 93.2004L120.78 98.0253C115.611 100.604 111.047 104.258 107.402 108.75C106.859 109.415 106.369 110.114 105.904 110.831L33.4283 131.529C19.1223 135.611 13.9448 153.163 23.7566 164.325C29.854 171.274 39.8935 173.214 48.1547 169.054L109.575 138.102C112.002 139.553 114.849 140.375 117.889 140.322C123.145 140.235 127.727 140.113 127.92 139.964L148.875 146.179C150.618 146.694 152.344 146.056 152.887 144.702C153.483 143.224 152.475 141.424 150.644 140.689L139.58 136.258L155.174 135.559C157.188 135.471 158.958 134.011 159.221 132.01C159.519 129.676 157.793 127.596 155.471 127.43L139.475 126.302L159.676 125.402C161.954 125.297 163.741 123.348 163.557 120.996C163.4 118.968 161.665 117.421 159.633 117.273Z" fill="white"/>
<path d="M39.0173 172.095C33.0689 172.095 27.2256 169.595 23.0994 164.893C18.2986 159.421 16.6516 151.991 18.7103 145.016C20.7691 138.041 26.1831 132.683 33.1915 130.681L105.361 110.07C105.834 109.362 106.281 108.741 106.727 108.191C110.477 103.575 115.076 99.8956 120.394 97.2383L130.074 92.4134C131.117 91.8977 132.361 91.9851 133.316 92.6494C134.262 93.2962 134.752 94.3538 134.639 95.4814C134.349 98.3834 132.843 101.067 130.521 102.841L124.187 107.666H154.499C155.857 107.666 157.171 108.234 158.099 109.213C159.045 110.21 159.518 111.521 159.44 112.893C159.361 114.213 158.721 115.411 157.74 116.267L159.702 116.407C162.217 116.582 164.249 118.531 164.442 120.935C164.547 122.298 164.118 123.601 163.215 124.615C162.322 125.629 161.078 126.223 159.729 126.284L154.691 126.511L155.541 126.573C156.89 126.669 158.161 127.324 159.019 128.373C159.895 129.431 160.272 130.768 160.097 132.141C159.799 134.483 157.705 136.336 155.226 136.45L143.671 136.966L150.986 139.894C152.063 140.322 152.939 141.074 153.456 142.009C154.008 143.006 154.104 144.081 153.719 145.042C153.001 146.825 150.819 147.682 148.647 147.035L127.884 140.881C127.034 141.004 124.774 141.1 117.915 141.214C114.989 141.266 112.124 140.532 109.557 139.107L48.5575 169.849C45.5263 171.378 42.2587 172.121 39.026 172.121L39.0173 172.095ZM131.493 93.8207C131.274 93.8207 131.055 93.8731 130.854 93.9692L121.174 98.7942C116.075 101.338 111.668 104.869 108.085 109.283C107.621 109.86 107.148 110.516 106.649 111.285C106.535 111.46 106.359 111.591 106.158 111.652L33.6821 132.35C27.2519 134.186 22.2934 139.098 20.4011 145.505C18.5176 151.904 20.0157 158.722 24.4222 163.739C30.2655 170.391 39.8583 172.244 47.769 168.258L109.189 137.306C109.461 137.175 109.776 137.184 110.03 137.333C112.413 138.757 115.138 139.483 117.88 139.43C125.668 139.299 127.306 139.177 127.63 139.125C127.805 139.063 127.998 139.055 128.173 139.107L149.128 145.322C150.434 145.706 151.704 145.296 152.081 144.352C152.265 143.888 152.212 143.346 151.914 142.822C151.59 142.236 151.021 141.764 150.32 141.476L139.255 137.044C138.87 136.887 138.651 136.494 138.721 136.083C138.791 135.681 139.133 135.375 139.544 135.357L155.138 134.658C156.776 134.588 158.161 133.391 158.353 131.878C158.467 130.996 158.222 130.13 157.652 129.448C157.092 128.758 156.286 128.347 155.401 128.286L139.404 127.158C138.94 127.123 138.581 126.739 138.59 126.275C138.59 125.812 138.966 125.436 139.431 125.41L159.632 124.51C160.508 124.475 161.306 124.09 161.884 123.435C162.462 122.779 162.742 121.931 162.672 121.048C162.55 119.501 161.209 118.243 159.553 118.129L153.228 117.683C152.773 117.648 152.422 117.281 152.414 116.827C152.405 116.372 152.738 115.987 153.185 115.935L154.648 115.769C156.277 115.577 157.574 114.292 157.661 112.771C157.714 111.879 157.407 111.04 156.794 110.393C156.181 109.747 155.357 109.397 154.472 109.397H121.568C121.191 109.397 120.858 109.161 120.736 108.802C120.613 108.444 120.736 108.06 121.033 107.832L129.435 101.434C131.38 99.9567 132.632 97.7191 132.878 95.2891C132.948 94.5986 132.501 94.2053 132.299 94.0741C132.045 93.8993 131.765 93.8119 131.476 93.8119L131.493 93.8207Z" fill="black"/>
<path d="M154.771 117.544H137.355C136.873 117.544 136.479 117.15 136.479 116.669C136.479 116.189 136.873 115.795 137.355 115.795H154.771C155.252 115.795 155.647 116.189 155.647 116.669C155.647 117.15 155.252 117.544 154.771 117.544Z" fill="black"/>
<path d="M51.8604 127.097C51.7991 127.097 51.7377 127.097 51.6764 127.08C51.2033 126.975 50.9055 126.512 51.0106 126.04L53.0255 116.783C53.1307 116.311 53.595 116.014 54.068 116.119C54.5411 116.224 54.839 116.687 54.7338 117.159L52.7189 126.416C52.6313 126.827 52.2634 127.106 51.8604 127.106V127.097Z" fill="black"/>
<path d="M267.011 71.5927C268.185 74.416 266.853 77.6501 264.023 78.8301C261.194 80.0014 257.952 78.6728 256.77 75.8495C255.596 73.0262 256.927 69.7921 259.757 68.612C262.587 67.4408 265.828 68.7694 267.011 71.5927Z" fill="white"/>
<path d="M261.886 80.133C261.054 80.133 260.23 79.9669 259.442 79.6435C257.856 78.9879 256.621 77.7642 255.964 76.1821C255.307 74.6 255.298 72.8606 255.955 71.2785C256.612 69.6964 257.839 68.4639 259.424 67.8083C262.692 66.4535 266.459 68.0006 267.817 71.261C269.175 74.5213 267.624 78.2799 264.356 79.6347C263.559 79.9669 262.727 80.133 261.886 80.133ZM261.886 69.067C261.29 69.067 260.677 69.1807 260.099 69.4254C258.951 69.9062 258.049 70.7977 257.576 71.9515C257.103 73.1053 257.103 74.364 257.576 75.5178C258.058 76.6628 258.951 77.5632 260.108 78.0352C261.264 78.5072 262.534 78.5072 263.682 78.0352C266.056 77.0474 267.186 74.3116 266.196 71.9428C265.452 70.1596 263.708 69.0758 261.877 69.0758L261.886 69.067Z" fill="black"/>
<path d="M266.555 60.1947C267.729 63.018 266.397 66.2522 263.568 67.4322C260.738 68.6122 257.497 67.2748 256.314 64.4515C255.14 61.6282 256.472 58.3941 259.301 57.2141C262.131 56.0341 265.372 57.3714 266.555 60.1947Z" fill="white"/>
<path d="M261.439 68.7258C258.925 68.7258 256.533 67.2398 255.508 64.7836C254.15 61.5233 255.701 57.7647 258.969 56.4099C260.554 55.7543 262.298 55.7456 263.883 56.4011C265.469 57.0567 266.704 58.2804 267.361 59.8625C268.018 61.4446 268.027 63.1841 267.37 64.7662C266.713 66.3482 265.487 67.5807 263.901 68.2363C263.095 68.5684 262.263 68.7258 261.439 68.7258ZM261.439 57.6598C260.835 57.6598 260.221 57.7822 259.643 58.0182C257.269 59.0059 256.139 61.7418 257.129 64.1106C258.119 66.4794 260.861 67.6069 263.235 66.6192C264.383 66.1385 265.285 65.2469 265.758 64.0931C266.231 62.9393 266.231 61.6806 265.758 60.5268C265.276 59.3818 264.383 58.4815 263.226 58.0095C262.657 57.7735 262.052 57.6598 261.448 57.6598H261.439Z" fill="black"/>
<path d="M266.073 48.7616C267.247 51.5849 265.916 54.8191 263.086 55.9991C260.256 57.1791 257.015 55.8417 255.832 53.0184C254.658 50.1951 255.99 46.961 258.82 45.781C261.649 44.601 264.891 45.9383 266.073 48.7616Z" fill="white"/>
<path d="M260.957 57.3017C260.125 57.3017 259.302 57.1356 258.513 56.8122C256.928 56.1566 255.692 54.9329 255.035 53.3508C254.378 51.7687 254.369 50.0293 255.027 48.4472C255.684 46.8651 256.91 45.6326 258.496 44.977C261.763 43.6222 265.53 45.1693 266.888 48.4297C268.246 51.69 266.696 55.4486 263.428 56.8034C262.631 57.1356 261.798 57.3017 260.957 57.3017ZM260.957 46.2357C260.362 46.2357 259.748 46.3494 259.17 46.5941C258.023 47.0749 257.12 47.9664 256.647 49.1202C256.174 50.274 256.174 51.5327 256.647 52.6865C257.129 53.8315 258.023 54.7319 259.179 55.2039C260.335 55.6759 261.606 55.6759 262.753 55.2039C265.127 54.2161 266.258 51.4803 265.268 49.1115C264.523 47.3283 262.78 46.2445 260.949 46.2445L260.957 46.2357Z" fill="black"/>
<path d="M236.051 55.5621C236.051 68.9094 225.205 79.7305 211.828 79.7305C198.451 79.7305 187.605 68.9094 187.605 55.5621C187.605 42.2147 198.451 31.3936 211.828 31.3936C225.205 31.3936 236.051 42.2147 236.051 55.5621Z" fill="#2E85EC"/>
<path d="M240.754 55.0167H212.567L226.881 30.6133C235.185 35.6621 240.725 44.6236 240.754 55.0167Z" fill="white" stroke="black" stroke-width="2"/>
<path d="M151.565 49.7147H95.7689C95.287 49.7147 94.8928 49.3214 94.8928 48.8406C94.8928 48.3599 95.287 47.9666 95.7689 47.9666H151.565C152.047 47.9666 152.441 48.3599 152.441 48.8406C152.441 49.3214 152.047 49.7147 151.565 49.7147Z" fill="black"/>
<path d="M176.524 58.5079H95.7689C95.2871 58.5079 94.8928 58.1146 94.8928 57.6339C94.8928 57.1531 95.2871 56.7598 95.7689 56.7598H176.524C177.005 56.7598 177.4 57.1531 177.4 57.6339C177.4 58.1146 177.005 58.5079 176.524 58.5079Z" fill="black"/>
<path d="M151.565 67.2929H95.7689C95.2871 67.2929 94.8928 66.8995 94.8928 66.4188C94.8928 65.938 95.2871 65.5447 95.7689 65.5447H151.565C152.047 65.5447 152.441 65.938 152.441 66.4188C152.441 66.8995 152.047 67.2929 151.565 67.2929Z" fill="black"/>
</svg>
