<svg width="271" height="199" viewBox="0 0 271 199" fill="none" xmlns="http://www.w3.org/2000/svg">
<g clip-path="url(#clip0_1_1867)">
<path d="M14.1344 13.6758H126.543C130.875 13.6758 134.388 17.1749 134.388 21.4891V94.7144C134.388 99.0286 130.875 102.528 126.543 102.528H14.1344C9.80241 102.528 6.28882 99.0286 6.28882 94.7144V21.4891C6.28882 17.1749 9.80241 13.6758 14.1344 13.6758Z" fill="white"/>
<path d="M126.534 103.414H14.1345C9.32218 103.414 5.39941 99.5159 5.39941 94.7145V21.4892C5.39941 16.6967 9.31328 12.79 14.1345 12.79H126.543C131.355 12.79 135.278 16.6878 135.278 21.4892V94.7145C135.278 99.507 131.364 103.414 126.543 103.414H126.534ZM14.1345 14.5618C10.3006 14.5618 7.17845 17.6711 7.17845 21.4892V94.7145C7.17845 98.5326 10.3006 101.642 14.1345 101.642H126.543C130.376 101.642 133.499 98.5326 133.499 94.7145V21.4892C133.499 17.6711 130.376 14.5618 126.543 14.5618H14.1345Z" fill="black"/>
<path d="M13.6098 22.8181C11.9731 22.8181 10.6477 21.4981 10.6477 19.8681C10.6477 18.2381 11.9731 16.9182 13.6098 16.9182C15.2465 16.9182 16.5719 18.2381 16.5719 19.8681C16.5719 21.4981 15.2465 22.8181 13.6098 22.8181ZM13.6098 18.6899C12.9604 18.6899 12.4267 19.2215 12.4267 19.8681C12.4267 20.5148 12.9604 21.0463 13.6098 21.0463C14.2591 21.0463 14.7928 20.5148 14.7928 19.8681C14.7928 19.2215 14.2591 18.6899 13.6098 18.6899Z" fill="black"/>
<path d="M20.5834 22.8181C18.9467 22.8181 17.6213 21.4981 17.6213 19.8681C17.6213 18.2381 18.9467 16.9182 20.5834 16.9182C22.2201 16.9182 23.5455 18.2381 23.5455 19.8681C23.5455 21.4981 22.2201 22.8181 20.5834 22.8181ZM20.5834 18.6899C19.9341 18.6899 19.4004 19.2215 19.4004 19.8681C19.4004 20.5148 19.9341 21.0463 20.5834 21.0463C21.2328 21.0463 21.7665 20.5148 21.7665 19.8681C21.7665 19.2215 21.2328 18.6899 20.5834 18.6899Z" fill="black"/>
<path d="M27.5483 22.8181C25.9205 22.8181 24.5862 21.4981 24.5862 19.8681C24.5862 18.2381 25.9116 16.9182 27.5483 16.9182C29.185 16.9182 30.5104 18.2381 30.5104 19.8681C30.5104 21.4981 29.185 22.8181 27.5483 22.8181ZM27.5483 18.6899C26.8989 18.6899 26.3652 19.2215 26.3652 19.8681C26.3652 20.5148 26.8989 21.0463 27.5483 21.0463C28.1976 21.0463 28.7313 20.5148 28.7313 19.8681C28.7313 19.2215 28.1976 18.6899 27.5483 18.6899Z" fill="black"/>
<path d="M119.631 61.5213C120.823 59.9267 121.321 57.969 121.028 56.0024C120.796 54.4521 120.094 53.0613 119.026 51.954C119.364 51.83 119.711 51.7059 120.031 51.5288C121.793 50.5809 123.073 49.0129 123.643 47.1083C124.683 43.6446 123.082 39.9505 119.844 38.3294C119.827 38.3294 119.809 38.3206 119.8 38.3117C121.543 36.85 122.611 34.6354 122.469 32.1992C122.317 29.5505 120.734 27.1676 118.359 25.9805C117.567 25.5819 116.705 25.3427 115.833 25.2541C116.011 24.944 116.197 24.634 116.331 24.2885C117.069 22.4371 117.034 20.4173 116.251 18.5924C115.557 16.989 114.312 15.6779 112.746 14.8895C111.145 14.0834 109.33 13.9239 107.623 14.3403C108.023 12.099 107.418 9.69836 105.728 7.91778C105.123 7.27996 104.429 6.76616 103.646 6.37638C101.227 5.17161 98.3537 5.38421 96.1477 6.84589C95.7474 4.61352 94.3598 2.57603 92.1715 1.48642C88.8714 -0.16128 84.9309 0.875178 82.8138 3.73651C82.1022 2.49631 81.0437 1.45985 79.7094 0.786592C78.9266 0.396813 78.0905 0.148772 77.2277 0.051327C75.244 -0.178997 73.2871 0.370237 71.7216 1.61044C70.494 2.57603 69.6401 3.87825 69.2042 5.34878C68.7595 4.97672 68.288 4.65781 67.7543 4.39205C66.1888 3.61249 64.3831 3.39988 62.6841 3.80738C60.7449 4.26803 59.0904 5.44623 58.0497 7.14708C57.2313 8.47587 56.8666 9.9907 56.9645 11.5144C54.7674 10.7171 52.2856 10.9917 50.3109 12.2851C48.6475 13.3747 47.5 15.049 47.0998 16.9979C46.7795 18.5304 46.9663 20.0807 47.589 21.4803C45.294 21.4803 43.0436 22.5168 41.5937 24.4568C40.4017 26.0514 39.9036 28.0091 40.1971 29.9846C40.4284 31.5349 41.1311 32.9257 42.1985 34.033C40.0548 34.8125 38.2847 36.5311 37.5819 38.8698C36.5412 42.3335 38.1334 46.0276 41.3802 47.6487C41.398 47.6487 41.4157 47.6575 41.4246 47.6664C39.6812 49.1281 38.6138 51.3427 38.7561 53.7788C38.9162 56.4276 40.4907 58.8105 42.8657 59.9976C43.6573 60.3962 44.5202 60.6354 45.3919 60.724C45.214 61.0341 45.0272 61.3441 44.8938 61.6896C44.1555 63.541 44.191 65.5608 44.9738 67.3857C45.6676 68.9891 46.913 70.3002 48.4785 71.0886C50.0796 71.8947 51.8942 72.0542 53.6021 71.6378C53.2018 73.8791 53.8067 76.2797 55.4968 78.0603C56.1017 78.6981 56.7955 79.2119 57.5783 79.6017C59.9977 80.8065 62.8709 80.5939 65.0769 79.1322C65.4772 81.3646 66.8648 83.4021 69.053 84.4917C72.3531 86.1394 76.2937 85.1029 78.4107 82.2416C79.1223 83.4818 80.1809 84.5182 81.5151 85.1915C82.2979 85.5813 83.1341 85.8293 84.0058 85.9268C85.9894 86.1571 87.9374 85.6079 89.503 84.3677C90.7305 83.4021 91.5845 82.0998 92.0203 80.6293C92.4651 81.0014 92.9365 81.3203 93.4702 81.586C95.0358 82.3656 96.8415 82.5782 98.5494 82.1707C102.134 81.3203 104.483 78.016 104.26 74.4726C106.457 75.2699 108.939 75.0041 110.923 73.7019C112.586 72.6123 113.734 70.938 114.134 68.9891C114.454 67.4566 114.267 65.9063 113.645 64.5066C115.94 64.5066 118.19 63.4702 119.649 61.5301L119.631 61.5213Z" fill="black"/>
<path d="M243.941 17.8395V56.782C243.941 59.5547 241.682 61.8047 238.897 61.8047H157.738C154.954 61.8047 152.694 59.5547 152.694 56.782V47.1703H141.718C139.61 47.1703 138.293 44.9025 139.352 43.0864L152.703 28.771V17.8395C152.703 15.0667 154.963 12.8167 157.747 12.8167H238.906C241.69 12.8167 243.95 15.0667 243.95 17.8395H243.941Z" fill="#2E85EC"/>
<path d="M43.4971 71.8149C31.9156 71.8149 21.5261 78.9284 17.3809 89.7005L12.4441 102.528H125.27L121.072 90.5155C117.158 79.3182 106.555 71.8149 94.6532 71.8149H43.4971Z" fill="white"/>
<path d="M125.262 103.414H12.4354C12.1418 103.414 11.8661 103.272 11.706 103.033C11.537 102.794 11.5014 102.484 11.6081 102.218L16.5449 89.3905C20.7968 78.3527 31.6222 70.938 43.4973 70.938H94.6445C106.92 70.938 117.87 78.6893 121.908 90.2321L126.107 102.244C126.204 102.519 126.16 102.811 125.991 103.05C125.822 103.281 125.555 103.423 125.262 103.423V103.414ZM13.7252 101.642H124.007L120.218 90.8079C116.438 79.9738 106.155 72.7009 94.6356 72.7009H43.4973C32.3605 72.7009 22.1934 79.6637 18.2083 90.0195L13.7341 101.651L13.7252 101.642Z" fill="black"/>
<path d="M100.622 54.6058C108.946 46.8949 109.009 33.4887 100.765 24.6621C92.5203 15.8355 79.0892 14.9311 70.7658 22.6421C62.4424 30.353 62.3785 43.7592 70.6231 52.5858C78.8678 61.4124 92.2988 62.3168 100.622 54.6058Z" fill="black"/>
<path d="M53.4065 80.3372C60.6382 86.6799 71.6682 85.989 78.0372 78.7869L103.744 49.7306L85.4735 33.6965L52.7927 70.637C50.2754 73.4806 50.5511 77.8302 53.4065 80.3372Z" fill="white"/>
<path d="M64.9169 85.5548C60.4515 85.5548 56.1996 83.9603 52.8194 80.9926C49.5994 78.1667 49.2881 73.2502 52.1256 70.0434L84.8064 33.103C84.9577 32.9258 85.18 32.8195 85.4202 32.8018C85.6693 32.8018 85.8917 32.8638 86.0607 33.0232L104.331 49.0573C104.696 49.3851 104.732 49.9432 104.411 50.3064L78.7133 79.3627C75.4754 83.0213 71.0011 85.2093 66.1088 85.5194C65.7085 85.546 65.3171 85.5548 64.9258 85.5548H64.9169ZM53.9936 79.6638C57.3115 82.5783 61.5812 84.0311 65.9843 83.7477C70.3963 83.4731 74.4436 81.4976 77.3612 78.1933L102.472 49.8014L85.5358 34.9367L53.451 71.2127C51.2628 73.6931 51.503 77.4758 53.9847 79.6638H53.9936Z" fill="black"/>
<path d="M80.3587 37.2488C84.1926 31.6767 91.451 29.1698 98.1135 31.5793C106.021 34.4406 110.095 43.1398 107.222 51.0151L106.644 52.5919C108.156 53.3361 108.895 55.0901 108.299 56.7023C107.703 58.2969 106.012 59.1385 104.402 58.7487L102.401 64.241C99.5278 72.1163 90.7928 76.1736 82.885 73.3123C74.9772 70.4509 70.9032 61.7518 73.7763 53.8764L75.502 49.1548L73.1626 47.0907C70.6274 44.8495 70.3962 40.9872 72.6377 38.4624C74.6214 36.2389 77.8681 35.796 80.3498 37.2577L80.3587 37.2488Z" fill="white"/>
<path d="M88.0797 75.1016C86.2562 75.1016 84.406 74.7915 82.5914 74.136C74.2389 71.1152 69.9158 61.8845 72.9491 53.5663L74.4701 49.4116L72.5844 47.7462C69.6845 45.186 69.4177 40.7567 71.9884 37.8688C74.0343 35.5744 77.3255 34.8923 80.0919 36.1148C84.3349 30.5427 91.7623 28.337 98.4248 30.7465C102.472 32.2082 105.701 35.1581 107.525 39.0382C109.348 42.9271 109.544 47.2855 108.067 51.3162L107.738 52.2109C109.197 53.3094 109.802 55.2406 109.144 57.0034C108.494 58.7397 106.786 59.8028 104.998 59.7142L103.237 64.5333C100.862 71.0443 94.6622 75.1016 88.0708 75.1016H88.0797ZM77.2454 37.2842C75.7866 37.2842 74.3367 37.8865 73.3138 39.0382C71.3924 41.1908 71.597 44.5039 73.7585 46.4174L76.098 48.4814C76.3737 48.7206 76.4716 49.1016 76.347 49.447L74.6214 54.1687C71.9172 61.5656 75.7688 69.7776 83.2052 72.4706C90.6327 75.1547 98.8785 71.3278 101.583 63.922L103.584 58.4297C103.735 58.0045 104.189 57.7653 104.634 57.8716C105.835 58.1639 107.062 57.5261 107.489 56.3745C107.925 55.214 107.4 53.9206 106.279 53.3714C105.87 53.1677 105.683 52.6981 105.835 52.2729L106.413 50.6961C107.72 47.1084 107.551 43.2371 105.924 39.7734C104.305 36.3186 101.431 33.6964 97.8288 32.3942C91.6823 30.1707 84.7974 32.3588 81.1059 37.7359C80.8391 38.1169 80.3232 38.232 79.9229 37.9928C79.0956 37.5056 78.1705 37.2664 77.2632 37.2664L77.2454 37.2842Z" fill="black"/>
<path d="M76.8365 45.2746C76.6586 45.2746 76.4896 45.2214 76.3384 45.1151C75.9292 44.8405 75.8313 44.2912 76.1071 43.8837C77.2012 42.2981 76.2138 40.7567 76.1782 40.6946C75.9114 40.2871 76.0181 39.7379 76.4273 39.4722C76.8365 39.2064 77.3791 39.3127 77.6548 39.7113C77.726 39.8176 79.3627 42.2892 77.5748 44.8848C77.4058 45.1328 77.1211 45.2657 76.8365 45.2657V45.2746Z" fill="black"/>
<path d="M92.7498 62.9653C91.4512 62.9653 88.9338 61.9642 88.7203 58.1993C88.6937 57.7121 89.0673 57.2958 89.5565 57.2692C90.0368 57.2515 90.4638 57.6147 90.4905 58.1019C90.6595 61.0518 92.5453 61.1847 92.7587 61.1935C93.248 61.2113 93.6394 61.6099 93.6305 62.0883C93.6305 62.5755 93.2302 62.9653 92.7498 62.9653Z" fill="black"/>
<path d="M103.139 50.9529C102.721 51.697 101.894 52.0248 101.271 51.6793C100.658 51.3427 100.489 50.4568 100.907 49.7127C101.325 48.9686 102.152 48.6408 102.775 48.9863C103.388 49.3229 103.557 50.2088 103.139 50.9529Z" fill="black"/>
<path d="M104.322 45.6201C104.305 46.1516 103.086 46.5414 101.609 46.4883C100.133 46.4351 98.9497 45.9568 98.9675 45.4252C98.9853 44.8937 100.204 44.5039 101.681 44.5571C103.157 44.6102 104.34 45.0886 104.322 45.6201Z" fill="black"/>
<path d="M93.4792 16.0235C82.9651 12.6306 71.8818 16.0058 64.9702 23.7216C65.7708 24.7404 66.8738 25.5288 68.1547 25.9452C68.9019 26.1843 69.6847 26.2818 70.4674 26.2463C70.3518 26.5475 70.2361 26.8399 70.165 27.1588C69.7647 28.8774 70.0671 30.6491 71.0011 32.1373C71.8284 33.4484 73.0915 34.4317 74.5681 34.9101C76.0803 35.3973 77.6903 35.2999 79.1313 34.7063C79.0779 36.7261 79.9408 38.7459 81.6575 40.0835C82.2713 40.5619 82.9562 40.9251 83.6856 41.1554C85.9717 41.8907 88.4534 41.3237 90.188 39.7469C90.8373 41.6515 92.3317 43.246 94.3954 43.9104C97.5087 44.9115 100.818 43.4852 102.294 40.6859C103.086 41.6781 104.153 42.4488 105.417 42.8563C106.155 43.0954 106.92 43.2017 107.694 43.1752C109.393 43.1132 110.967 42.4222 112.159 41.2174C111.99 30.0201 104.767 19.6644 93.4703 16.0235H93.4792Z" fill="black"/>
<path d="M57.3027 102.625H51.2273L55.1411 98.6033C56.6533 97.053 58.6814 96.0963 60.8429 95.9103C62.7732 95.742 63.7606 96.4329 65.166 98.7539L72.0064 111.014L69.1154 111.546C67.0607 111.918 64.9525 111.2 63.556 109.641L57.2938 102.634L57.3027 102.625Z" fill="white"/>
<path d="M68.0568 112.52C66.1088 112.52 64.2141 111.696 62.8976 110.226L56.8934 103.511H51.2183C50.8625 103.511 50.5423 103.298 50.3999 102.971C50.2576 102.643 50.3288 102.262 50.5778 102.005L54.4917 97.9833C56.1551 96.2736 58.3789 95.2282 60.7628 95.0245C63.3068 94.803 64.5343 96.0078 65.922 98.2933L72.7802 110.58C72.9225 110.828 72.9314 111.129 72.8068 111.386C72.6823 111.643 72.4421 111.829 72.1664 111.882L69.2755 112.414C68.8663 112.485 68.4571 112.52 68.0479 112.52H68.0568ZM53.3264 101.739H57.3026C57.5605 101.739 57.8007 101.846 57.9697 102.032L64.2319 109.039C65.4061 110.359 67.2118 110.979 68.9641 110.66L70.6364 110.359L64.4009 99.1792C63.0933 97.0177 62.355 96.6811 60.9318 96.7874C58.9838 96.9557 57.1514 97.815 55.7904 99.2146L53.3353 101.73L53.3264 101.739Z" fill="black"/>
<path d="M49.3059 102.625H43.2305L47.1443 98.6035C48.6565 97.0532 50.6846 96.0965 52.8461 95.9105C54.7764 95.7422 56.5643 96.9204 57.1692 98.7541L62.5774 114.354L58.5746 114.558C56.5021 114.664 54.5629 113.548 53.62 111.705L49.3059 102.625Z" fill="white"/>
<path d="M58.3077 115.444C56.0127 115.444 53.8868 114.159 52.8283 112.104L48.7365 103.511H43.2215C42.8657 103.511 42.5454 103.299 42.4031 102.971C42.2608 102.643 42.332 102.262 42.581 102.005L46.4949 97.9834C48.1583 96.2736 50.3821 95.2283 52.766 95.0246C55.1054 94.812 57.2669 96.2382 58.0052 98.4706L63.4046 114.053C63.4936 114.319 63.458 114.602 63.2979 114.841C63.1378 115.072 62.8887 115.213 62.604 115.231L58.6012 115.435C58.4945 115.435 58.3877 115.435 58.2899 115.435L58.3077 115.444ZM45.3385 101.739H49.3147C49.6616 101.739 49.9729 101.934 50.1152 102.244L54.4294 111.324C55.2033 112.822 56.8133 113.761 58.5301 113.663L61.3498 113.521L56.333 99.0375C55.8526 97.5847 54.4561 96.6634 52.9261 96.7875C50.9781 96.9558 49.1457 97.815 47.7847 99.2147L45.3296 101.731L45.3385 101.739Z" fill="black"/>
<path d="M41.3181 102.625H35.2427L39.1565 98.6035C40.6687 97.0532 42.6968 96.0965 44.8583 95.9105C46.7886 95.7422 48.5765 96.9204 49.1814 98.7541L54.0648 113.025L50.062 113.229C47.9894 113.335 46.0503 112.219 45.1074 110.377L41.3092 102.625H41.3181Z" fill="white"/>
<path d="M49.795 114.124C47.5 114.124 45.3741 112.839 44.3155 110.784L40.7575 103.511H35.2425C34.8867 103.511 34.5664 103.298 34.4241 102.971C34.2818 102.643 34.353 102.262 34.602 102.005L38.5159 97.9833C40.1793 96.2736 42.4031 95.2283 44.787 95.0245C47.1353 94.8208 49.2879 96.2382 50.0262 98.4705L54.9097 112.733C54.9986 112.999 54.9631 113.282 54.8029 113.512C54.6428 113.743 54.3938 113.885 54.1091 113.902L50.1063 114.106C49.9996 114.106 49.8928 114.106 49.795 114.106V114.124ZM37.3417 101.748H41.3179C41.6559 101.748 41.9672 101.943 42.1184 102.244L45.9167 109.996C46.6905 111.51 48.3095 112.467 50.0262 112.352L52.846 112.21L48.345 99.0464C47.8647 97.5935 46.4593 96.6811 44.9471 96.8051C42.9991 96.9734 41.1667 97.8327 39.8057 99.2324L37.3506 101.748H37.3417Z" fill="black"/>
<path d="M33.7214 102.625H27.646L31.5688 98.6035C33.081 97.0532 35.1091 96.0965 37.2706 95.9105C39.2008 95.7422 40.9888 96.9204 41.5936 98.7541L45.6854 111.138L41.6826 111.342C39.61 111.449 37.6709 110.332 36.728 108.49L33.7214 102.625Z" fill="white"/>
<path d="M41.4069 112.237C39.112 112.237 36.986 110.953 35.9275 108.897L33.17 103.52H27.6372C27.2814 103.52 26.9612 103.308 26.8189 102.98C26.6766 102.652 26.7477 102.271 26.9968 102.014L30.9106 97.9924C32.574 96.2827 34.7978 95.2374 37.1817 95.0336C39.5212 94.821 41.6827 96.2472 42.421 98.4796L46.5128 110.864C46.6017 111.13 46.5572 111.413 46.406 111.644C46.2459 111.874 45.9968 112.016 45.7211 112.024L41.7183 112.228C41.6115 112.228 41.5048 112.228 41.4069 112.228V112.237ZM29.7454 101.748H33.7215C34.0595 101.748 34.362 101.934 34.5132 102.227L37.5198 108.091C38.3025 109.615 39.9214 110.572 41.6382 110.456L44.4758 110.315L40.7487 99.0377C40.2684 97.5938 38.8629 96.6725 37.3507 96.8053C35.4027 96.9737 33.5703 97.8329 32.2093 99.2326L29.7543 101.748H29.7454Z" fill="black"/>
<path d="M262.265 87.0342H106.128C101.795 87.0342 98.2827 90.5323 98.2827 94.8475V180.475C98.2827 184.79 101.795 188.288 106.128 188.288H262.265C266.598 188.288 270.11 184.79 270.11 180.475V94.8475C270.11 90.5323 266.598 87.0342 262.265 87.0342Z" fill="white"/>
<path d="M262.265 189.174H106.128C101.316 189.174 97.3931 185.276 97.3931 180.475V94.8386C97.3931 90.0461 101.307 86.1394 106.128 86.1394H262.265C267.077 86.1394 271 90.0372 271 94.8386V180.466C271 185.258 267.086 189.165 262.265 189.165V189.174ZM106.128 87.92C102.294 87.92 99.1721 91.0294 99.1721 94.8474V180.475C99.1721 184.293 102.294 187.402 106.128 187.402H262.265C266.099 187.402 269.221 184.293 269.221 180.475V94.8386C269.221 91.0205 266.099 87.9111 262.265 87.9111H106.128V87.92Z" fill="black"/>
<path d="M105.603 96.1674C103.976 96.1674 102.641 94.8475 102.641 93.2175C102.641 91.5875 103.967 90.2676 105.603 90.2676C107.24 90.2676 108.565 91.5875 108.565 93.2175C108.565 94.8475 107.24 96.1674 105.603 96.1674ZM105.603 92.0393C104.954 92.0393 104.42 92.5708 104.42 93.2175C104.42 93.8642 104.954 94.3957 105.603 94.3957C106.253 94.3957 106.786 93.8642 106.786 93.2175C106.786 92.5708 106.253 92.0393 105.603 92.0393Z" fill="black"/>
<path d="M112.577 96.1674C110.949 96.1674 109.615 94.8475 109.615 93.2175C109.615 91.5875 110.94 90.2676 112.577 90.2676C114.214 90.2676 115.539 91.5875 115.539 93.2175C115.539 94.8475 114.214 96.1674 112.577 96.1674ZM112.577 92.0393C111.928 92.0393 111.394 92.5708 111.394 93.2175C111.394 93.8642 111.928 94.3957 112.577 94.3957C113.226 94.3957 113.76 93.8642 113.76 93.2175C113.76 92.5708 113.226 92.0393 112.577 92.0393Z" fill="black"/>
<path d="M119.551 96.1674C117.923 96.1674 116.589 94.8475 116.589 93.2175C116.589 91.5875 117.914 90.2676 119.551 90.2676C121.188 90.2676 122.513 91.5875 122.513 93.2175C122.513 94.8475 121.188 96.1674 119.551 96.1674ZM119.551 92.0393C118.902 92.0393 118.368 92.5708 118.368 93.2175C118.368 93.8642 118.902 94.3957 119.551 94.3957C120.2 94.3957 120.734 93.8642 120.734 93.2175C120.734 92.5708 120.2 92.0393 119.551 92.0393Z" fill="black"/>
<path d="M182.627 43.1041C182.217 43.1041 181.808 43.0598 181.408 42.9624C178.775 42.3068 177.103 40.916 176.498 38.9317C175.306 39.1443 173.856 39.2595 172.095 39.2152L172.13 37.4435C173.811 37.4789 175.164 37.3726 176.24 37.1777C176.24 36.7348 176.275 36.2653 176.356 35.778C176.596 34.3252 177.396 32.8813 178.312 32.2612C178.9 31.8625 179.424 31.8625 179.753 31.9334C181.114 32.2257 182.057 33.59 181.888 35.0251C181.808 35.7249 181.283 37.4966 178.223 38.4976C178.677 39.8441 179.878 40.7566 181.826 41.2349C183.676 41.6956 185.927 40.4554 187.67 38.8165C185.936 36.8234 184.833 34.3784 185.108 32.8813C185.464 30.9324 186.967 29.3378 188.684 29.0898C190.152 28.8772 191.459 29.6656 192.26 31.2513C193.212 33.1204 192.482 35.8489 190.321 38.5508C190.259 38.6217 190.196 38.7014 190.134 38.7722C191.593 40.0213 193.87 41.2615 196.672 40.4288C198.033 40.0213 199.145 39.2418 199.981 38.3205C198.834 36.6196 198.095 34.529 198.264 33.0584C198.371 32.146 198.834 31.4727 199.554 31.1627C201.102 30.4983 202.08 30.8792 202.623 31.3133C203.539 32.0486 203.868 33.4394 203.53 35.1402C203.326 36.1678 202.89 37.2751 202.214 38.3027C202.454 38.5596 202.694 38.7811 202.952 38.976C204.722 40.2959 205.38 39.7998 205.389 39.791L206.67 41.0135C206.608 41.0843 205.042 42.7498 201.885 40.3934C201.618 40.1896 201.351 39.9593 201.102 39.7024C200.088 40.7654 198.771 41.6424 197.179 42.1208C194.35 42.9712 191.424 42.236 188.915 40.0656C187.101 41.7842 184.788 43.0953 182.609 43.0953L182.627 43.1041ZM189.147 30.8349C189.084 30.8349 189.022 30.8349 188.951 30.8526C187.999 30.9944 187.083 32.0308 186.87 33.209C186.736 33.9443 187.474 35.8223 188.898 37.5143C188.915 37.4966 188.933 37.4789 188.942 37.4523C190.579 35.406 191.282 33.2356 190.686 32.0574C190.392 31.4816 189.903 30.8349 189.147 30.8349ZM201.12 32.5889C200.826 32.5889 200.497 32.7041 200.275 32.8015C200.159 32.8547 200.079 33.0141 200.052 33.2799C199.954 34.1215 200.381 35.5034 201.102 36.7613C201.449 36.1147 201.68 35.4503 201.805 34.8213C202.027 33.6963 201.822 32.9521 201.529 32.713C201.422 32.6244 201.28 32.5978 201.12 32.5978V32.5889ZM179.38 33.6697C179.14 33.7228 178.33 34.715 178.108 36.0615C178.072 36.2741 178.046 36.4867 178.037 36.6905C179.495 36.1324 180.056 35.3794 180.127 34.8213C180.198 34.2278 179.798 33.7583 179.38 33.6697Z" fill="white"/>
<path d="M0 140.274V179.217C0 181.99 2.25937 184.24 5.04356 184.24H86.1941C88.9783 184.24 91.2377 181.99 91.2377 179.217V169.605H102.214C104.322 169.605 105.639 167.337 104.58 165.521L91.2288 151.206V140.274C91.2288 137.502 88.9694 135.251 86.1852 135.251H5.04356C2.25937 135.251 0 137.502 0 140.274Z" fill="black"/>
<path d="M155.372 131.841C158.619 133.914 160.273 136.111 160.513 137.741C160.513 137.741 231.434 164.653 250.096 151.082C265.209 140.097 249.785 128.041 245.142 127.013C236.407 125.082 235.918 124.595 239.805 115.417C243.683 106.231 249.171 100.836 235.437 99.4716C225.733 98.506 225.243 95.6092 224.763 84.4917C224.274 73.3741 206.804 71.9301 200.497 74.8269C194.19 77.7237 200.497 70.4773 194.671 69.0245C188.844 67.5717 187.394 70.9557 186.425 73.3741C185.455 75.7925 173.322 76.7581 170.894 85.4573C168.466 94.1564 158.761 93.1908 162.159 107.684C165.557 122.185 160.7 116.383 156.822 117.836C152.943 119.288 148.576 127.5 155.363 131.85L155.372 131.841Z" fill="black"/>
<path d="M141.878 185.285L149.99 148.15C153.637 142.392 160.024 138.946 166.856 139.052L221.294 137.829C228.962 137.661 235.82 142.533 238.159 149.806L250.728 186.171L141.869 185.285H141.878Z" fill="#2E85EC"/>
<path d="M250.728 187.057C250.363 187.057 250.016 186.826 249.883 186.463L237.314 150.099C235.108 143.233 228.543 138.565 221.312 138.724L166.864 139.947C160.424 139.858 154.278 143.118 150.809 148.504L142.732 185.489C142.625 185.967 142.154 186.268 141.673 186.162C141.193 186.056 140.891 185.586 140.997 185.108L149.11 147.973C149.136 147.875 149.172 147.778 149.225 147.689C152.952 141.798 159.57 138.175 166.544 138.175C166.651 138.175 166.749 138.175 166.855 138.175L221.267 136.952C229.228 136.784 236.558 141.949 238.995 149.541L251.555 185.887C251.715 186.348 251.466 186.853 251.004 187.013C250.906 187.048 250.808 187.057 250.71 187.057H250.728Z" fill="black"/>
<path d="M185.455 121.432C199.294 121.432 210.513 110.26 210.513 96.4774C210.513 82.6953 199.294 71.5227 185.455 71.5227C171.616 71.5227 160.398 82.6953 160.398 96.4774C160.398 110.26 171.616 121.432 185.455 121.432Z" fill="black"/>
<path d="M215.645 104.982C214.542 104.76 213.457 104.831 212.452 105.141C214.293 95.4852 209.374 85.723 200.355 81.4886C189.236 76.2709 175.982 81.2494 171.098 92.4821L168.421 98.63C164.142 108.472 170.084 119.731 180.643 121.795L182.564 122.176V138.228H172.94C176.186 147.104 185.153 153.483 195.711 153.483C206.27 153.483 215.245 147.104 218.483 138.228H206.706V121.592C208.147 120.148 209.223 118.323 209.748 116.205L209.846 115.825C210.7 116.666 211.794 117.277 213.057 117.534C216.535 118.243 219.933 116.011 220.653 112.547C221.365 109.083 219.123 105.699 215.645 104.982Z" fill="white"/>
<path d="M195.711 154.36C185.055 154.36 175.564 147.999 172.104 138.52C172.006 138.246 172.041 137.945 172.21 137.705C172.379 137.466 172.646 137.325 172.94 137.325H181.675V122.885L180.465 122.646C175.163 121.609 170.68 118.279 168.172 113.521C165.655 108.756 165.45 103.192 167.594 98.2581L170.271 92.1102C172.735 86.4584 177.272 82.1442 183.062 79.9739C188.853 77.7946 195.124 78.0427 200.719 80.6737C209.659 84.8638 214.791 94.3248 213.519 103.998C214.284 103.91 215.058 103.945 215.814 104.105C217.727 104.495 219.381 105.611 220.458 107.232C221.534 108.853 221.908 110.802 221.516 112.715C221.125 114.62 220.004 116.268 218.376 117.34C216.739 118.411 214.791 118.783 212.87 118.394C211.963 118.208 211.1 117.853 210.335 117.348C209.766 119.049 208.832 120.617 207.586 121.937V137.333H218.474C218.768 137.333 219.034 137.475 219.203 137.714C219.372 137.954 219.408 138.255 219.31 138.529C215.85 147.999 206.359 154.369 195.702 154.369L195.711 154.36ZM174.247 139.105C177.788 147.22 186.247 152.588 195.711 152.588C205.176 152.588 213.626 147.22 217.175 139.105H206.706C206.216 139.105 205.816 138.707 205.816 138.219V121.583C205.816 121.352 205.905 121.122 206.074 120.963C207.453 119.581 208.422 117.862 208.885 115.993L208.983 115.612C209.063 115.302 209.294 115.063 209.606 114.974C209.917 114.886 210.246 114.974 210.468 115.196C211.233 115.949 212.194 116.454 213.235 116.666C214.685 116.959 216.161 116.675 217.398 115.869C218.634 115.054 219.479 113.814 219.773 112.37C220.066 110.926 219.782 109.455 218.972 108.224C218.154 106.993 216.908 106.151 215.459 105.859C214.542 105.673 213.591 105.717 212.71 105.992C212.416 106.08 212.087 106.018 211.856 105.806C211.625 105.602 211.518 105.283 211.571 104.982C213.35 95.6625 208.574 86.3344 199.972 82.2948C194.813 79.8764 189.031 79.6461 183.694 81.6481C178.357 83.6502 174.167 87.6277 171.908 92.8366L169.23 98.9845C167.3 103.423 167.487 108.437 169.746 112.715C172.006 117.003 176.044 119.997 180.812 120.927L182.733 121.299C183.151 121.379 183.454 121.742 183.454 122.167V138.219C183.454 138.707 183.053 139.105 182.564 139.105H174.247Z" fill="black"/>
<path d="M211.305 113.22C211.242 113.22 211.189 113.22 211.127 113.202C210.646 113.105 210.335 112.635 210.433 112.157C211.056 109.127 214.044 107.161 217.086 107.79C217.567 107.887 217.878 108.357 217.78 108.835C217.682 109.313 217.22 109.624 216.731 109.526C214.649 109.101 212.603 110.439 212.176 112.52C212.087 112.937 211.723 113.229 211.305 113.229V113.22Z" fill="black"/>
<path d="M180.287 99.0375C180.074 99.0375 179.869 98.9666 179.7 98.816C179.335 98.4882 179.3 97.9301 179.629 97.5669L183.187 93.5806C184.103 92.553 184.53 91.1799 184.343 89.8156C184.165 88.4514 183.4 87.2289 182.244 86.4759C182.217 86.4582 182.191 86.4405 182.164 86.4139C182.093 86.3608 180.127 84.8548 176.427 86.5645C175.982 86.7683 175.448 86.5734 175.244 86.1305C175.039 85.6875 175.235 85.156 175.679 84.9523C180.163 82.8882 182.849 84.7042 183.258 85.0143C184.824 86.0596 185.864 87.7161 186.114 89.5853C186.363 91.4633 185.784 93.3502 184.521 94.7588L180.963 98.7451C180.785 98.94 180.545 99.0463 180.296 99.0463L180.287 99.0375Z" fill="black"/>
<path d="M197.766 96.008C196.966 97.0267 195.818 97.319 195.195 96.6546C194.573 95.9902 194.715 94.626 195.507 93.6073C196.307 92.5885 197.455 92.2962 198.077 92.9606C198.7 93.625 198.558 94.9892 197.766 96.008Z" fill="black"/>
<path d="M179.673 91.8266C178.873 92.8453 177.725 93.1376 177.094 92.4732C176.471 91.8088 176.605 90.4446 177.405 89.4259C178.206 88.4071 179.353 88.1148 179.985 88.7792C180.607 89.4436 180.474 90.8078 179.673 91.8266Z" fill="black"/>
<path d="M179.255 101.164L191.362 101.226C191.362 101.226 184.85 115.187 179.255 101.164Z" fill="white"/>
<path d="M184.904 108.295C184.904 108.295 184.824 108.295 184.788 108.295C182.342 108.224 180.207 105.938 178.428 101.491C178.321 101.217 178.357 100.907 178.517 100.668C178.686 100.428 178.962 100.278 179.255 100.278L191.362 100.34C191.664 100.34 191.949 100.499 192.109 100.747C192.269 101.004 192.296 101.323 192.162 101.598C191.842 102.289 188.915 108.295 184.886 108.295H184.904ZM180.607 102.058C181.933 104.946 183.383 106.488 184.833 106.523C184.85 106.523 184.877 106.523 184.895 106.523C186.843 106.523 188.791 103.954 189.885 102.103L180.599 102.058H180.607Z" fill="black"/>
<path d="M212.577 104.255C213.938 95.0778 209.285 85.9712 200.862 81.7456C200.328 90.3119 204.891 98.6301 212.577 104.255Z" fill="black"/>
<path d="M204.562 96.2293C204.188 96.2293 203.833 95.9901 203.717 95.6092C201.742 89.4613 194.235 88.8146 194.155 88.8058C193.666 88.7703 193.301 88.3451 193.336 87.8579C193.372 87.3707 193.799 86.9986 194.288 87.0429C194.644 87.0695 203.068 87.7693 205.407 95.0688C205.558 95.5383 205.3 96.0344 204.829 96.185C204.74 96.2116 204.651 96.2293 204.562 96.2293Z" fill="black"/>
<path d="M182.564 123.053C182.093 123.053 181.693 122.681 181.675 122.203C181.657 121.716 182.039 121.299 182.529 121.281C186.816 121.104 194.164 117.915 194.235 117.88C194.688 117.685 195.213 117.88 195.409 118.332C195.605 118.783 195.409 119.306 194.955 119.501C194.644 119.634 187.234 122.858 182.609 123.044C182.6 123.044 182.582 123.044 182.573 123.044L182.564 123.053Z" fill="black"/>
<path d="M229.833 187.765C229.833 187.765 216.348 173.255 197.179 177.587C181.817 181.06 179.816 191.052 184.299 193.701C186.087 194.755 191.486 192.248 191.486 192.248C191.486 192.248 192.482 194.657 195.151 194.135C198.086 193.559 198.069 196.527 199.625 197.776C201.271 199.105 203.806 198.493 204.642 196.66C205.478 194.826 209.259 190.024 209.259 190.024C209.259 190.024 210.095 193.594 211.554 195.632C212.55 197.032 216.375 196.057 217.762 193.24C219.159 190.423 220.556 185.737 229.833 187.765Z" fill="white"/>
<path d="M200.417 177.144C200.417 177.144 191.015 185.214 191.673 191.336C192.144 195.721 197.25 193.967 197.25 193.967L200.426 177.144H200.417Z" fill="white"/>
<path d="M195.08 195.198C194.244 195.198 193.327 195.047 192.545 194.551C191.531 193.913 190.944 192.859 190.792 191.433C190.09 184.931 199.447 176.816 199.839 176.48C200.212 176.161 200.773 176.205 201.093 176.568C201.413 176.94 201.369 177.498 201.004 177.817C200.915 177.897 191.958 185.657 192.562 191.247C192.66 192.124 192.963 192.717 193.496 193.054C194.555 193.727 196.352 193.337 196.957 193.134C197.419 192.974 197.926 193.222 198.086 193.683C198.246 194.144 197.997 194.649 197.535 194.808C197.464 194.835 196.37 195.198 195.071 195.198H195.08Z" fill="black"/>
<path d="M209.312 177.791C202.845 182.335 195.026 193.727 198.754 196.934C202.543 200.194 204.758 195.906 206.172 193.984C208.111 191.344 210.522 189.174 210.522 189.174L209.321 177.791H209.312Z" fill="white"/>
<path d="M201.413 198.998C200.346 198.998 199.261 198.529 198.175 197.598C197.544 197.058 196.814 196.031 196.912 194.188C197.161 189.076 203.512 180.785 208.805 177.064C209.205 176.781 209.757 176.878 210.041 177.277C210.326 177.675 210.228 178.234 209.828 178.508C204.998 181.901 198.905 189.838 198.682 194.268C198.638 195.189 198.851 195.836 199.332 196.252C200.168 196.978 200.959 197.297 201.636 197.209C202.97 197.04 204.108 195.375 204.945 194.161C205.122 193.904 205.291 193.665 205.443 193.444C207.409 190.76 209.81 188.589 209.908 188.501C210.273 188.173 210.833 188.199 211.162 188.563C211.491 188.926 211.465 189.484 211.1 189.812C211.073 189.829 208.734 191.947 206.875 194.48C206.724 194.684 206.572 194.905 206.403 195.153C205.38 196.642 203.975 198.679 201.858 198.954C201.707 198.972 201.547 198.98 201.395 198.98L201.413 198.998Z" fill="black"/>
<path d="M213.875 196.934C212.826 196.934 211.794 196.5 210.78 195.65C209.801 194.826 209.276 193.754 209.205 192.443C208.974 188.013 214.4 182.291 214.631 182.052C214.969 181.697 215.53 181.688 215.886 182.025C216.241 182.362 216.25 182.92 215.912 183.274C214.48 184.762 210.815 189.298 210.975 192.345C211.02 193.151 211.331 193.789 211.918 194.285C212.719 194.959 213.493 195.242 214.213 195.118C215.592 194.888 216.535 193.32 216.544 193.302L220.529 187.287C220.689 187.039 220.974 186.888 221.267 186.888L228.401 186.844C223.971 182.672 209.686 171.687 190.098 181.369C185.402 183.69 182.858 186.118 182.733 188.385C182.627 190.37 184.406 191.831 184.939 192.221C185.731 192.301 188.88 192.514 191.095 190.644C191.468 190.326 192.029 190.379 192.349 190.751C192.669 191.123 192.616 191.681 192.242 192C189.067 194.675 184.655 193.975 184.468 193.949C184.352 193.931 184.237 193.887 184.139 193.825C184.005 193.736 180.785 191.663 180.963 188.306C181.123 185.312 183.934 182.441 189.316 179.784C213.849 167.647 231.007 186.942 231.185 187.145C231.408 187.402 231.47 187.774 231.319 188.093C231.176 188.412 230.865 188.607 230.518 188.616L221.774 188.669L218.074 194.25C218.047 194.303 216.748 196.491 214.542 196.872C214.32 196.907 214.098 196.925 213.884 196.925L213.875 196.934Z" fill="black"/>
<path d="M124.319 187.252L132.582 168.197L103.504 140.018C102.632 139.176 102.641 137.776 103.522 136.944C104.954 135.588 107.16 135.464 108.734 136.651L125.769 149.47L143.39 149.558L140.268 137.28C139.663 134.888 141.38 132.532 143.853 132.373C145.463 132.275 146.966 133.152 147.669 134.596L155.585 150.923C158.352 156.627 158.761 163.174 156.733 169.18L150.951 186.871L124.328 187.261L124.319 187.252Z" fill="white"/>
<path d="M124.319 188.138C124.203 188.138 124.079 188.111 123.963 188.067C123.509 187.872 123.305 187.349 123.5 186.906L131.524 168.409L102.881 140.655C102.285 140.08 101.956 139.3 101.965 138.476C101.965 137.643 102.303 136.873 102.908 136.306C104.661 134.649 107.338 134.499 109.268 135.951L126.062 148.584L142.234 148.664L139.387 137.493C139.031 136.093 139.316 134.623 140.17 133.462C141.024 132.302 142.34 131.575 143.781 131.487C145.756 131.345 147.597 132.435 148.451 134.206L156.368 150.533C159.25 156.477 159.677 163.201 157.56 169.455L151.778 187.137C151.627 187.597 151.12 187.854 150.657 187.704C150.186 187.553 149.937 187.048 150.088 186.587L155.87 168.897C157.836 163.077 157.444 156.822 154.767 151.303L146.85 134.977C146.308 133.852 145.151 133.179 143.888 133.258C142.972 133.32 142.136 133.772 141.602 134.508C141.06 135.243 140.882 136.173 141.113 137.059L144.235 149.337C144.306 149.603 144.235 149.886 144.075 150.099C143.906 150.311 143.648 150.435 143.372 150.435L125.76 150.347C125.564 150.347 125.377 150.285 125.226 150.17L108.192 137.36C106.955 136.43 105.248 136.527 104.136 137.59C103.887 137.829 103.744 138.148 103.744 138.485C103.744 138.831 103.878 139.149 104.127 139.389L133.205 167.568C133.472 167.825 133.552 168.215 133.401 168.551L125.137 187.606C124.995 187.943 124.666 188.138 124.319 188.138Z" fill="black"/>
<path d="M116.9 147.494L113.129 132.559C112.782 131.177 114.152 129.981 115.477 130.512C117.167 131.185 118.501 132.532 119.151 134.224L124.977 148.238L116.909 147.494H116.9Z" fill="white"/>
<path d="M124.977 149.133C124.63 149.133 124.301 148.929 124.159 148.584L118.341 134.569C117.772 133.09 116.616 131.912 115.157 131.336C114.854 131.221 114.516 131.274 114.267 131.487C114.018 131.708 113.92 132.027 114 132.346L117.772 147.281C117.888 147.76 117.603 148.238 117.123 148.353C116.651 148.469 116.162 148.185 116.046 147.707L112.275 132.771C112.035 131.805 112.346 130.804 113.093 130.149C113.84 129.493 114.881 129.316 115.806 129.679C117.727 130.441 119.249 131.983 119.987 133.905L125.795 147.893C125.982 148.345 125.769 148.858 125.315 149.053C125.208 149.097 125.093 149.124 124.977 149.124V149.133Z" fill="black"/>
<path d="M140.677 161.951L131.079 152.88L128.446 138.574C128.09 136.625 126.721 135.003 124.853 134.313C123.643 133.87 122.371 134.791 122.415 136.075L123.127 153.917L140.677 161.951Z" fill="white"/>
<path d="M140.677 162.837C140.455 162.837 140.232 162.757 140.063 162.598L130.465 153.527C130.332 153.394 130.234 153.226 130.199 153.04L127.566 138.733C127.263 137.094 126.107 135.721 124.532 135.145C124.239 135.039 123.927 135.083 123.669 135.26C123.42 135.446 123.278 135.73 123.287 136.04L123.999 153.881C124.016 154.368 123.634 154.785 123.145 154.802C122.691 154.838 122.237 154.439 122.22 153.952L121.508 136.111C121.472 135.216 121.89 134.357 122.62 133.834C123.349 133.303 124.292 133.179 125.137 133.489C127.29 134.286 128.882 136.173 129.3 138.423L131.88 152.446L141.264 161.314C141.62 161.65 141.638 162.208 141.3 162.563C141.122 162.749 140.891 162.837 140.65 162.837H140.677Z" fill="black"/>
<path d="M35.0736 169.862C34.4777 169.862 33.8906 169.818 33.3124 169.712C27.8063 168.737 25.5291 166.363 24.7108 164.007C22.5404 164.405 19.7918 164.662 16.3315 164.68V162.908C19.6494 162.89 22.2735 162.642 24.3372 162.253C24.266 161.438 24.3283 160.658 24.435 160.002C24.8887 157.274 27.157 154.368 29.4341 154.714C31.4978 155.024 33.01 156.716 32.8676 158.559C32.7787 159.816 31.8447 162.226 26.4542 163.617C27.326 165.814 29.7188 167.275 33.6148 167.966C37.1996 168.604 41.5315 166.708 44.885 163.927C44.6271 163.714 44.4047 163.51 44.2001 163.324C41.2914 160.64 39.5123 157.433 39.8681 155.538C40.3396 153.031 42.4833 150.914 45.0896 150.373C47.4913 149.877 49.7062 150.834 51.1739 153.004C52.5082 154.962 52.1524 157.708 50.1865 160.72C49.5016 161.774 48.6388 162.819 47.6603 163.803C50.4623 165.699 54.981 167.692 60.4604 166.239C63.0934 165.539 65.1838 164.246 66.7226 162.74C64.6056 160.428 63.1379 157.487 63.3069 155.396C63.4047 154.147 64.0719 153.226 65.1749 152.818C67.8701 151.817 69.4357 152.473 70.2629 153.199C71.4726 154.262 71.8729 156.114 71.3659 158.275C71.0279 159.692 70.2985 161.225 69.1688 162.651C69.6936 163.103 70.254 163.502 70.8322 163.829C74.7194 166.035 76.2227 164.875 76.2405 164.857L77.4413 166.159C77.21 166.381 75.004 168.232 69.9516 165.362C69.2755 164.981 68.6173 164.503 67.9946 163.962C66.2512 165.69 63.8851 167.151 60.9319 167.94C54.5718 169.632 49.4038 167.196 46.3438 165.025C43.106 167.798 38.943 169.853 35.0736 169.853V169.862ZM46.3082 152.021C45.988 152.021 45.7034 152.056 45.4632 152.109C43.5774 152.499 41.9674 154.076 41.6294 155.865C41.4604 156.778 42.5456 159.373 45.4187 162.031C45.65 162.244 45.9169 162.474 46.2282 162.731C47.1889 161.783 48.0339 160.773 48.701 159.754C50.231 157.407 50.5957 155.307 49.7062 153.996C48.621 152.402 47.2956 152.021 46.2993 152.021H46.3082ZM29.0605 156.459C28.0732 156.459 26.5343 158.266 26.2052 160.295C26.1162 160.844 26.0806 161.367 26.1073 161.872C29.7632 160.897 31.0352 159.444 31.1153 158.434C31.1865 157.504 30.3325 156.645 29.1851 156.468C29.1495 156.468 29.1139 156.468 29.0694 156.468L29.0605 156.459ZM67.7011 154.076C67.1585 154.076 66.518 154.209 65.8064 154.475C65.504 154.59 65.1482 154.811 65.0948 155.538C64.9792 156.999 66.1356 159.418 67.9146 161.411C68.7952 160.242 69.3823 159.019 69.6491 157.876C69.9961 156.388 69.8004 155.139 69.1065 154.537C68.7685 154.235 68.2882 154.085 67.71 154.085L67.7011 154.076Z" fill="white"/>
</g>
<defs>
<clipPath id="clip0_1_1867">
<rect width="271" height="199" fill="white"/>
</clipPath>
</defs>
</svg>
