<svg width="234" height="225" viewBox="0 0 234 225" fill="none" xmlns="http://www.w3.org/2000/svg">
<g clip-path="url(#clip0_1_1870)">
<path d="M85.6956 123.874L61.1516 84.1182L74.1489 53.2713C74.4829 52.4892 75.2463 51.9741 76.0956 51.9741C77.5079 51.9741 78.5195 53.3286 78.1282 54.683L74.6928 66.3483L77.6511 82.84L147.046 134.013L106.423 158.965L85.6861 123.864L85.6956 123.874Z" fill="white"/>
<path d="M106.432 159.928C106.356 159.928 106.279 159.928 106.203 159.9C105.955 159.843 105.745 159.68 105.611 159.461L84.8845 124.37L60.35 84.6236C60.1878 84.3566 60.1592 84.0323 60.2832 83.7557L73.2805 52.9088C73.7576 51.7642 74.8741 51.0298 76.1052 51.0298C77.0785 51.0298 77.9755 51.4781 78.5672 52.2602C79.1493 53.0424 79.3306 54.0248 79.0539 54.9596L75.6853 66.415L78.5386 82.3154L147.628 133.259C147.886 133.45 148.029 133.746 148.02 134.07C148.01 134.385 147.838 134.681 147.562 134.843L106.938 159.795C106.785 159.89 106.613 159.938 106.442 159.938L106.432 159.928ZM62.23 84.0323L86.5163 123.368V123.387L106.766 157.658L145.357 133.956L77.1072 83.6221C76.9068 83.479 76.7732 83.2597 76.735 83.0212L73.7767 66.5295C73.7481 66.3864 73.7576 66.2338 73.7958 66.0907L77.2312 54.4254C77.3362 54.0725 77.2694 53.7005 77.0499 53.4048C76.8304 53.1091 76.4869 52.9374 76.1242 52.9374C75.6566 52.9374 75.2368 53.2141 75.0555 53.6528L62.249 84.0513L62.23 84.0323Z" fill="black"/>
<path d="M147.046 134.023L115.851 111.016L89.9424 131.066L106.432 158.975L147.046 134.023Z" fill="black"/>
<path d="M175.685 158.517L139.565 135.844L145.911 96.499L182.451 102.384L175.685 158.517Z" fill="white"/>
<path d="M175.684 159.471C175.503 159.471 175.331 159.423 175.179 159.328L139.059 136.646C138.735 136.446 138.563 136.064 138.62 135.683L144.966 96.3371C145.004 96.0891 145.148 95.8601 145.348 95.7171C145.558 95.5645 145.806 95.5072 146.054 95.5454L182.603 101.431C183.109 101.516 183.462 101.974 183.395 102.489L176.629 158.632C176.591 158.956 176.391 159.233 176.095 159.376C175.961 159.442 175.828 159.471 175.684 159.471ZM140.605 135.368L174.921 156.915L181.401 103.176L146.703 97.5866L140.615 135.368H140.605Z" fill="black"/>
<path d="M177.259 51.1541C177.259 51.1541 157.153 62.3807 152.954 59.7386C148.745 57.0965 138.993 48.3117 143.44 40.5285C147.886 32.7357 149.976 36.1313 153.526 37.7528C157.067 39.3744 160.015 30.5705 162.411 31.2573C164.815 31.944 166.896 34.0615 170.512 38.6971C174.129 43.3327 177.269 51.1637 177.269 51.1637L177.259 51.1541Z" fill="black"/>
<path d="M170.865 115.051C179.721 113.935 188.271 109.461 194.455 101.878C206.937 86.5502 204.742 64.6694 190.18 52.241C166.275 31.8576 144.814 50.629 141.903 55.6843C141.216 56.867 140.558 58.0116 139.909 59.1181C138.601 60.8445 137.466 62.6377 136.502 64.4977C133.897 68.2176 131.311 70.7548 128.305 71.2031C123.695 71.8899 119.831 105.922 145.434 108.097L170.884 115.051H170.865Z" fill="white"/>
<path d="M170.856 116.005C170.379 116.005 169.968 115.652 169.911 115.165C169.844 114.641 170.216 114.164 170.741 114.097C179.73 112.962 187.89 108.403 193.711 101.268C205.782 86.4552 203.95 65.2421 189.55 52.9567C180.942 45.6123 171.858 42.7126 162.534 44.3246C151.646 46.2036 144.088 53.758 142.714 56.1521C142.027 57.3444 141.369 58.489 140.71 59.5954C140.691 59.624 140.672 59.6622 140.653 59.6908C139.393 61.3504 138.277 63.115 137.332 64.9368C137.313 64.975 137.294 65.0131 137.265 65.0418C134.135 69.5057 131.406 71.6995 128.419 72.1382C127.541 72.2718 125.68 76.7739 125.89 83.6987C126.052 88.8207 127.932 105.646 145.481 107.134C146.006 107.182 146.398 107.64 146.35 108.164C146.302 108.689 145.844 109.08 145.319 109.032C138.048 108.412 132.456 105.293 128.715 99.7611C125.852 95.5357 124.172 89.8413 123.982 83.7463C123.781 77.432 125.289 70.6598 128.133 70.2401C130.547 69.8777 132.866 67.9509 135.652 63.983C136.626 62.104 137.78 60.2822 139.078 58.5653C139.718 57.4779 140.367 56.3524 141.044 55.1887C143.077 51.6595 151.36 44.296 162.191 42.4265C172.096 40.7191 181.706 43.7618 190.771 51.4878C205.964 64.4408 207.901 86.8272 195.171 102.451C189.044 109.967 180.446 114.774 170.961 115.967C170.923 115.967 170.884 115.967 170.837 115.967L170.856 116.005Z" fill="black"/>
<path d="M197.356 47.4818C187.432 39.4029 174.511 37.4094 162.869 40.929C166.027 42.3311 169.043 44.1243 171.82 46.3849C190.667 61.7225 191.936 91.3389 174.664 112.533C173.7 113.706 172.707 114.832 171.677 115.9C182.918 115.881 194.198 110.892 201.994 101.316C215.535 84.6907 213.464 60.5874 197.356 47.4723V47.4818Z" fill="black"/>
<path d="M164.777 61.3505C166.943 56.4383 173.394 58.3555 169.463 54.9885C162.019 48.6169 160.931 38.1057 160.931 38.1057C182.469 36.3602 198.062 70.9174 198.062 70.9174L185.218 110.864L180.208 119.763L170.016 116.959C166.628 116.024 164.252 113 164.138 109.5L163.546 91.1863C163.68 91.3198 163.823 91.4438 163.966 91.5678C167.516 94.4579 172.736 93.9238 175.627 90.3755C178.519 86.8273 177.984 81.6099 174.434 78.7197C170.884 75.8296 165.664 76.3638 162.783 79.912C162.763 79.9311 162.754 79.9502 162.735 79.9693C161.704 79.3588 159.385 77.7182 160.645 75.8487C162.239 73.4737 162.611 66.2627 164.777 61.3505Z" fill="black"/>
<path d="M131.091 89.0876C130.939 89.0876 130.786 89.0876 130.624 89.0686C130.099 89.0304 129.708 88.5726 129.746 88.048C129.784 87.5234 130.232 87.1132 130.767 87.1704C133.372 87.3421 135.223 85.1579 135.233 85.1388C135.567 84.7382 136.168 84.6714 136.578 85.0053C136.989 85.3391 137.046 85.94 136.712 86.3406C136.617 86.4551 134.431 89.0876 131.091 89.0876Z" fill="black"/>
<path d="M165.588 85.2058C165.426 85.2058 165.254 85.1581 165.101 85.0723C164.653 84.8052 164.5 84.2234 164.767 83.7655C164.844 83.632 166.762 80.4367 170.369 80.1505C170.894 80.1124 171.352 80.5034 171.4 81.028C171.438 81.5526 171.046 82.0105 170.522 82.0582C167.926 82.268 166.428 84.7194 166.409 84.748C166.227 85.0437 165.912 85.2153 165.588 85.2153V85.2058Z" fill="black"/>
<path d="M150.711 65.0993C150.616 65.0993 150.511 65.0802 150.415 65.0516C149.919 64.8894 149.642 64.3457 149.804 63.8498C150.091 62.9722 149.69 61.1886 148.516 59.7197C147.829 58.8517 146.331 57.4496 143.964 57.6403C143.43 57.688 142.972 57.2969 142.934 56.7723C142.886 56.2477 143.277 55.7804 143.802 55.7422C146.216 55.5324 148.421 56.5243 150.014 58.5369C151.493 60.3969 152.152 62.8292 151.618 64.4507C151.484 64.8513 151.112 65.1088 150.711 65.1088V65.0993Z" fill="black"/>
<path d="M142.208 68.3517C141.435 69.0957 140.376 69.2579 139.842 68.7047C139.307 68.1514 139.489 67.1022 140.262 66.3487C141.035 65.6047 142.094 65.4426 142.628 65.9958C143.163 66.549 142.981 67.5982 142.208 68.3517Z" fill="black"/>
<path d="M144.231 107.02L142.199 119.611C147.915 118.313 153.259 115.175 157.248 110.282C158.841 108.327 160.111 106.209 161.074 104.006C155.912 106.81 149.986 107.84 144.222 107.02H144.231Z" fill="black"/>
<path d="M21.1673 79.6734L15.4607 65.4232C14.5828 63.2199 12.3402 61.875 9.98317 62.1325L6.14697 62.5522L17.9896 89.8317L21.1673 79.683V79.6734Z" fill="white"/>
<path d="M17.9992 90.7758C17.6175 90.7758 17.274 90.5469 17.1213 90.2035L5.2787 62.924C5.15464 62.6474 5.17373 62.3231 5.32641 62.0655C5.47909 61.808 5.74629 61.6268 6.05166 61.5981L9.88786 61.188C12.6553 60.8923 15.3177 62.4852 16.3483 65.0701L22.0549 79.3203C22.1312 79.5206 22.1408 79.7495 22.0835 79.9594L18.9058 90.1081C18.7913 90.4896 18.4477 90.7567 18.0469 90.7758C18.0278 90.7758 18.0088 90.7758 17.9992 90.7758ZM7.54033 63.3532L17.8465 87.094L20.1559 79.7114L14.5829 65.7759C13.8672 63.9827 12.0159 62.8763 10.0978 63.0766L7.54988 63.3532H7.54033Z" fill="black"/>
<path d="M234 220.281L205.61 148.387C201.163 137.246 190.285 130.016 178.28 130.226L132.159 131.056C123.037 131.342 114.124 133.822 106.165 138.286L43.3448 173.597L42.8295 153.719L14.058 153.852L1.69056 188.2C-6.38263 210.615 15.8998 232 37.9722 223.024L105.65 195.516L112.159 220.281H234Z" fill="black"/>
<path d="M50.8262 92.1495H33.5252C28.4961 92.1495 25.0416 87.0942 26.8643 82.4109L45.9785 35.1582C47.0473 32.4112 49.6906 30.5989 52.6393 30.5989H69.9404C74.9694 30.5989 78.4239 35.6542 76.6013 40.3375L57.4871 87.5902C56.4183 90.3372 53.7749 92.1495 50.8262 92.1495Z" fill="black"/>
<path d="M50.8263 93.1032H33.5252C30.8437 93.1032 28.3435 91.787 26.8357 89.5741C25.328 87.3612 25.0035 84.5569 25.9673 82.0674L45.0815 34.8052C46.2935 31.6767 49.2613 29.6545 52.6299 29.6545H69.9309C72.6029 29.6545 75.1031 30.9708 76.6204 33.1837C78.1282 35.3871 78.4526 38.2008 77.4888 40.6903L58.3746 87.9526C57.1627 91.0811 54.1949 93.1032 50.8263 93.1032ZM52.6394 31.5622C50.0629 31.5622 47.8012 33.1074 46.866 35.5111L27.7518 82.7733C27.0075 84.7 27.2461 86.7889 28.4198 88.4962C29.5936 90.2131 31.4544 91.1956 33.5348 91.1956H50.8358C53.4124 91.1956 55.674 89.6504 56.6092 87.2467L75.7234 39.9845C76.4677 38.0578 76.2292 35.9689 75.0554 34.252C73.8816 32.5351 72.0208 31.5527 69.9405 31.5527H52.6394V31.5622Z" fill="black"/>
<path d="M53.3648 92.1495H36.0637C31.0347 92.1495 27.5802 87.0942 29.4029 82.4109L48.517 35.1582C49.5858 32.4112 52.2292 30.5989 55.1779 30.5989H72.479C77.508 30.5989 80.9625 35.6542 79.1398 40.3375L60.0256 87.5902C58.9569 90.3372 56.3135 92.1495 53.3648 92.1495Z" fill="white"/>
<path d="M53.365 93.1032H36.0639C33.3919 93.1032 30.8917 91.787 29.3744 89.5741C27.8571 87.3612 27.5422 84.5569 28.506 82.0674L47.6202 34.8052C48.8322 31.6767 51.8 29.6545 55.1686 29.6545H72.4696C75.1511 29.6545 77.6513 30.9708 79.1591 33.1837C80.6669 35.3966 80.9913 38.2008 80.0275 40.6903L60.9133 87.9526C59.7014 91.0811 56.7336 93.1032 53.365 93.1032ZM55.1781 31.5622C52.6016 31.5622 50.3399 33.1074 49.4047 35.5111L30.2905 82.7733C29.5462 84.7 29.7848 86.7889 30.9585 88.4962C32.1323 90.2131 33.9931 91.1956 36.0735 91.1956H53.3745C55.9511 91.1956 58.2127 89.6504 59.1479 87.2467L78.2621 39.9845C79.0064 38.0578 78.7679 35.9689 77.5941 34.252C76.4203 32.5351 74.5595 31.5527 72.4792 31.5527H55.1781V31.5622Z" fill="black"/>
<path d="M42.1804 66.5008L41.8083 66.7965C40.625 68.1604 39.8424 69.8392 39.5562 71.6228L38.2202 80.0738C37.9339 81.8765 35.3669 81.9337 34.9947 80.1501L32.3704 67.4069L36.178 57.0483L26.4444 59.5855L18.9628 78.1375C16.539 84.1466 17.6841 91.0047 21.9211 95.9073L31.1013 106.533L14.1724 153.48H42.9438L46.7514 75.2379L46.5128 68.5038C46.4365 66.3005 43.8886 65.1273 42.1613 66.5008H42.1804Z" fill="white"/>
<path d="M42.9628 154.425H14.1913C13.8764 154.425 13.5901 154.272 13.4088 154.024C13.2275 153.767 13.1893 153.442 13.2943 153.156L30.0323 106.733L21.2148 96.537C16.7202 91.3386 15.5273 84.1563 18.0943 77.7847L25.5759 59.2328C25.6904 58.9562 25.9289 58.7463 26.2248 58.67L35.9584 56.1328C36.3019 56.047 36.6646 56.1519 36.9031 56.419C37.1417 56.686 37.2181 57.058 37.094 57.3919L33.3819 67.4929L35.9489 79.969C36.0538 80.4841 36.5023 80.5032 36.6359 80.5127C36.7695 80.5127 37.2181 80.4555 37.2944 79.9309L38.6304 71.4799C38.9453 69.515 39.7946 67.6742 41.102 66.1766C41.1401 66.1289 41.1783 66.0908 41.226 66.0526L41.5982 65.757C42.6765 64.8985 44.127 64.7173 45.3867 65.2991C46.6463 65.8714 47.4479 67.0923 47.5052 68.4754L47.7437 75.2094L43.9362 153.528C43.9075 154.034 43.4877 154.434 42.9819 154.434L42.9628 154.425ZM15.5464 152.517H42.0467L45.8066 75.1808L45.568 68.5326C45.5489 67.8649 45.1672 67.3022 44.566 67.0255C43.9648 66.7489 43.2873 66.8252 42.772 67.2449L42.4761 67.4834C41.436 68.7043 40.7584 70.1827 40.5008 71.7756L39.1648 80.2265C38.9644 81.4856 37.9338 82.3822 36.6646 82.4108C35.4145 82.468 34.3171 81.5905 34.0689 80.341L31.4447 67.5979C31.4065 67.4262 31.4256 67.2449 31.4828 67.0732L34.6606 58.422L27.16 60.3774L19.8597 78.481C17.5599 84.1849 18.6287 90.6233 22.6462 95.278L31.8264 105.904C32.0554 106.161 32.1222 106.524 31.9982 106.848L15.5369 152.517H15.5464Z" fill="black"/>
<path d="M23.0761 76.6114C23.0188 76.6114 22.952 76.6114 22.8852 76.5924C22.3699 76.4874 22.0359 75.9914 22.1409 75.4668L25.3186 59.6047C25.4236 59.0896 25.9198 58.7462 26.4447 58.8607C26.96 58.9656 27.294 59.4616 27.189 59.9862L24.0113 75.8484C23.9254 76.3062 23.5246 76.6114 23.0761 76.6114Z" fill="black"/>
<path d="M86.5832 49.4083C100.233 49.4083 111.299 38.3479 111.299 24.7042C111.299 11.0604 100.233 0 86.5832 0C72.9331 0 61.8674 11.0604 61.8674 24.7042C61.8674 38.3479 72.9331 49.4083 86.5832 49.4083Z" fill="#2E85EC"/>
<path d="M61.7432 49.5421L65.0927 37.0374L68.4422 24.5327L77.6033 33.6895L86.7548 42.8367L74.2442 46.1942L61.7432 49.5421Z" fill="#2E85EC"/>
<path d="M105.65 196.47C105.192 196.47 104.791 196.145 104.714 195.688L102.1 181.142C102.004 180.627 102.348 180.131 102.873 180.035C103.397 179.94 103.884 180.283 103.98 180.808L106.594 195.354C106.69 195.869 106.346 196.365 105.821 196.46C105.764 196.47 105.707 196.479 105.65 196.479V196.47Z" fill="white"/>
<path d="M26.8836 183.822C26.5496 183.822 26.2251 183.65 26.0533 183.336C25.7957 182.878 25.9579 182.296 26.416 182.038L42.8868 172.777C43.3449 172.519 43.927 172.681 44.1846 173.139C44.4423 173.597 44.2801 174.179 43.822 174.436L27.3512 183.698C27.208 183.784 27.0458 183.822 26.8836 183.822Z" fill="white"/>
<path d="M134.039 141.615L137.847 120.678L183.318 122.939L189.254 139.707L134.039 141.615Z" fill="black"/>
<path d="M96.9087 144.467C96.5842 144.467 96.2693 144.305 96.088 143.999C95.8208 143.551 95.9639 142.96 96.4124 142.693C111.29 133.765 125.127 130.064 134.106 128.538C143.869 126.869 150.024 127.317 150.291 127.336C150.816 127.374 151.207 127.832 151.169 128.357C151.131 128.881 150.673 129.272 150.148 129.234C149.909 129.215 125.337 127.574 97.3953 144.324C97.2426 144.419 97.0709 144.457 96.9087 144.457V144.467Z" fill="white"/>
<path d="M87.719 6.81055H83.4343V13.2298H87.719V6.81055Z" fill="white"/>
<path d="M87.719 34.6431H83.4343V41.0623H87.719V34.6431Z" fill="white"/>
<path d="M86.6502 26.0782H84.5126C80.3806 26.0782 77.012 22.7112 77.012 18.5811C77.012 14.451 80.371 11.084 84.5126 11.084H86.6502C90.7822 11.084 94.1508 14.4415 94.1508 18.5811H89.8661C89.8661 16.807 88.4251 15.3667 86.6502 15.3667H84.5126C82.7376 15.3667 81.2967 16.807 81.2967 18.5811C81.2967 20.3552 82.7376 21.7955 84.5126 21.7955H86.6502V26.0782Z" fill="white"/>
<path d="M86.6502 36.7796H84.5126C80.3806 36.7796 77.012 33.4221 77.012 29.2825H81.2967C81.2967 31.0566 82.7376 32.4969 84.5126 32.4969H86.6502C88.4251 32.4969 89.8661 31.0566 89.8661 29.2825C89.8661 27.5084 88.4251 26.0681 86.6502 26.0681H84.5126V21.7854H86.6502C90.7822 21.7854 94.1508 25.1429 94.1508 29.2825C94.1508 33.4221 90.7917 36.7796 86.6502 36.7796Z" fill="white"/>
</g>
<defs>
<clipPath id="clip0_1_1870">
<rect width="234" height="225" fill="white"/>
</clipPath>
</defs>
</svg>
