<svg width="613" height="567" viewBox="0 0 613 567" fill="none" xmlns="http://www.w3.org/2000/svg">
<g clip-path="url(#clip0_1_1241)">
<path d="M520.5 178C711.582 37.3927 485 -113 403 140.5" stroke="#2E85EC" stroke-width="6" stroke-linecap="round"/>
<path d="M323.018 497.5C314.351 523.667 314.018 573.2 382.018 562C450.018 550.8 561.684 474 609.018 437" stroke="#2E85EC" stroke-width="6" stroke-linecap="round"/>
<path d="M267 413C282.346 404.91 308.654 386.933 324 373" stroke="#2E85EC" stroke-width="6" stroke-linecap="round"/>
<path d="M266.163 471.319L249.16 401.984C246.122 389.584 234.313 381.396 221.638 382.88L160.138 390.114C150.484 391.253 142.65 398.443 140.689 407.955L127.918 471.319H266.163Z" fill="black"/>
<path d="M198.483 350.546C201.405 339.775 195.042 328.674 184.271 325.751C173.499 322.829 162.398 329.191 159.476 339.963C156.553 350.734 162.916 361.836 173.688 364.758C184.459 367.681 195.56 361.318 198.483 350.546Z" fill="black"/>
<path d="M152.419 343.832C153.276 350.456 159.343 355.12 165.968 354.263C172.592 353.406 177.256 347.338 176.399 340.714C175.542 334.09 169.474 329.426 162.85 330.283C156.226 331.139 151.562 337.207 152.419 343.832Z" fill="black"/>
<path d="M171.489 381.979C160.987 381.246 153.241 369.738 154.178 356.277C155.123 342.816 164.397 332.5 174.898 333.242C183.669 333.86 190.514 341.977 191.989 352.479C193.049 349.803 195.496 347.763 198.56 347.383C202.826 346.853 206.872 349.856 207.596 354.095C208.373 358.679 205.185 362.954 200.618 363.546C199.638 363.67 198.684 363.608 197.774 363.405L203.904 384.594C206.545 384.373 177.469 408.194 175.896 388.922L175.949 381.635C174.51 381.962 173.017 382.094 171.498 381.988L171.489 381.979Z" fill="white"/>
<path d="M182.662 397.321C181.743 397.321 180.869 397.206 180.065 396.941C177.062 395.979 175.357 393.302 175.004 388.983L175.048 382.695C173.838 382.889 172.628 382.942 171.427 382.862C160.457 382.094 152.322 370.144 153.294 356.215C154.265 342.295 163.99 331.599 174.96 332.359C183.271 332.942 190.204 340.043 192.421 349.935C193.87 348.054 196.025 346.8 198.445 346.499C203.17 345.908 207.657 349.246 208.452 353.936C208.867 356.383 208.284 358.829 206.809 360.826C205.334 362.822 203.17 364.094 200.715 364.411C200.141 364.482 199.567 364.5 198.984 364.464L204.628 383.958C204.716 384.037 204.787 384.134 204.831 384.223C205.175 384.894 204.628 385.539 204.372 385.848C202.216 388.392 190.664 397.312 182.662 397.312V397.321ZM175.94 380.743C176.143 380.743 176.337 380.813 176.496 380.937C176.708 381.105 176.832 381.361 176.823 381.635L176.77 388.921C177.088 392.746 178.554 394.901 181.257 395.431C188.235 396.791 201.112 387.031 203.02 384.744L196.917 363.652C196.829 363.352 196.917 363.025 197.12 362.804C197.332 362.574 197.65 362.477 197.959 362.548C198.807 362.742 199.664 362.786 200.494 362.671C202.473 362.415 204.213 361.391 205.396 359.783C206.58 358.185 207.048 356.215 206.712 354.245C206.067 350.474 202.455 347.789 198.657 348.266C196.025 348.593 193.782 350.333 192.801 352.815C192.651 353.185 192.271 353.415 191.874 353.371C191.476 353.327 191.158 353.018 191.105 352.62C189.657 342.313 182.962 334.717 174.827 334.143C164.82 333.436 155.952 343.408 155.051 356.365C154.142 369.313 161.543 380.425 171.541 381.122C172.928 381.22 174.333 381.105 175.728 380.787C175.79 380.769 175.861 380.76 175.922 380.76L175.94 380.743Z" fill="black"/>
<path d="M196.466 359.271C196.06 359.271 195.698 358.988 195.601 358.582C195.062 356.171 195.327 354.139 196.396 352.532C197.924 350.218 200.547 349.714 200.662 349.697C201.147 349.608 201.598 349.926 201.686 350.403C201.775 350.88 201.457 351.34 200.98 351.428C200.98 351.428 198.957 351.834 197.853 353.521C197.076 354.714 196.899 356.286 197.323 358.194C197.429 358.67 197.129 359.139 196.652 359.245C196.59 359.262 196.519 359.262 196.457 359.262L196.466 359.271Z" fill="black"/>
<path d="M176.399 382.403C176.01 382.403 175.648 382.138 175.542 381.74C175.418 381.272 175.701 380.787 176.169 380.663C181.451 379.285 186.062 375.001 188.817 368.925C189.02 368.483 189.542 368.28 189.983 368.483C190.425 368.686 190.628 369.207 190.425 369.649C187.448 376.211 182.414 380.848 176.62 382.368C176.549 382.385 176.47 382.394 176.399 382.394V382.403Z" fill="black"/>
<path d="M158.655 351.984C159.07 352.523 158.187 353.892 156.694 355.032C155.201 356.171 153.647 356.666 153.24 356.127C152.825 355.588 153.709 354.219 155.201 353.08C156.694 351.931 158.248 351.446 158.655 351.984Z" fill="black"/>
<path d="M175.507 352.531C175.436 353.371 173.493 353.9 171.17 353.706C168.838 353.512 167.01 352.682 167.08 351.843C167.151 351.003 169.094 350.473 171.417 350.668C173.749 350.862 175.577 351.692 175.507 352.531Z" fill="black"/>
<path d="M163.389 363.651C163.213 363.651 163.045 363.598 162.886 363.492C161.826 362.759 161.234 361.514 161.331 360.233L161.746 354.721C161.782 354.236 162.197 353.865 162.691 353.909C163.177 353.944 163.539 354.368 163.504 354.854L163.089 360.365C163.036 361.037 163.336 361.664 163.893 362.044C164.29 362.317 164.396 362.874 164.113 363.271C163.946 363.519 163.663 363.651 163.389 363.651Z" fill="black"/>
<path d="M167.531 371.662C167.116 371.662 166.745 371.371 166.666 370.947C166.577 370.47 166.886 370.002 167.372 369.913C171.992 369.03 173.679 365.418 173.749 365.268C173.952 364.826 174.474 364.623 174.915 364.826C175.357 365.029 175.56 365.541 175.357 365.992C175.277 366.177 173.255 370.594 167.699 371.653C167.646 371.662 167.584 371.671 167.531 371.671V371.662Z" fill="black"/>
<path d="M179.716 333.847C179.991 329.402 176.61 325.575 172.165 325.3C167.72 325.025 163.894 328.406 163.619 332.851C163.344 337.296 166.724 341.122 171.169 341.397C175.615 341.672 179.441 338.292 179.716 333.847Z" fill="black"/>
<path d="M177.035 340.723C179.305 344.556 184.251 345.828 188.085 343.558C191.918 341.288 193.19 336.342 190.92 332.509C188.65 328.675 183.704 327.403 179.87 329.673C176.037 331.943 174.765 336.889 177.035 340.723Z" fill="black"/>
<path d="M185.567 354.836C186.636 356.638 188.959 357.23 190.761 356.17C192.563 355.101 193.155 352.778 192.095 350.977C191.026 349.175 190.028 335.308 184.914 338.337C178.846 341.923 184.516 353.034 185.576 354.836H185.567Z" fill="black"/>
<path d="M192.024 330.645C191.847 330.645 191.661 330.592 191.502 330.477C191.105 330.185 191.026 329.638 191.308 329.24C192.2 328.021 194.046 327.703 194.258 327.668C194.735 327.597 195.194 327.924 195.265 328.401C195.336 328.887 195.009 329.337 194.532 329.408C194.188 329.461 193.128 329.744 192.739 330.274C192.562 330.512 192.297 330.636 192.024 330.636V330.645Z" fill="black"/>
<path d="M191.079 330.018C190.867 330.018 190.664 329.947 190.496 329.797C190.134 329.47 190.098 328.922 190.416 328.551C190.452 328.507 191.079 327.748 190.752 326.811C190.584 326.352 190.823 325.849 191.282 325.681C191.741 325.513 192.245 325.752 192.412 326.211C193.11 328.145 191.794 329.647 191.741 329.708C191.565 329.903 191.326 330.009 191.079 330.009V330.018Z" fill="black"/>
<path d="M169.421 359.527C169.81 360.861 170.817 361.744 171.683 361.488C172.539 361.241 172.919 359.951 172.53 358.617C172.142 357.284 171.135 356.4 170.269 356.657C169.404 356.913 169.033 358.193 169.421 359.527Z" fill="black"/>
<path d="M156.694 362.106C157.083 363.439 158.09 364.323 158.956 364.066C159.821 363.81 160.192 362.53 159.803 361.196C159.415 359.862 158.408 358.979 157.542 359.235C156.677 359.491 156.306 360.772 156.694 362.106Z" fill="black"/>
<path d="M75.7354 471.319H180.099C180.099 467.83 177.273 462.301 173.784 462.301H75.7354V471.319Z" fill="black"/>
<path d="M180.1 472.202C179.614 472.202 179.216 471.805 179.216 471.319C179.216 468.254 176.673 463.184 173.785 463.184H75.7358C75.25 463.184 74.8525 462.787 74.8525 462.301C74.8525 461.815 75.25 461.418 75.7358 461.418H173.785C177.892 461.418 180.983 467.424 180.983 471.319C180.983 471.805 180.585 472.202 180.1 472.202Z" fill="white"/>
<path d="M116.232 471.319H21.3366L0.483275 407.505C-1.53052 401.419 3.00052 395.139 9.41286 395.139H84.4885C88.5426 395.139 92.1462 397.745 93.418 401.596L116.223 471.328L116.232 471.319Z" fill="black"/>
<path d="M52.0201 440.997C55.7128 440.997 58.7063 438.003 58.7063 434.311C58.7063 430.618 55.7128 427.625 52.0201 427.625C48.3275 427.625 45.334 430.618 45.334 434.311C45.334 438.003 48.3275 440.997 52.0201 440.997Z" fill="white"/>
<path d="M52.0208 441.871C47.8519 441.871 44.4514 438.48 44.4514 434.302C44.4514 430.124 47.843 426.733 52.0208 426.733C56.1985 426.733 59.5902 430.124 59.5902 434.302C59.5902 438.48 56.1985 441.871 52.0208 441.871ZM52.0208 428.508C48.8234 428.508 46.2179 431.114 46.2179 434.311C46.2179 437.508 48.8234 440.114 52.0208 440.114C55.2181 440.114 57.8237 437.508 57.8237 434.311C57.8237 431.114 55.2181 428.508 52.0208 428.508Z" fill="black"/>
<path d="M219.757 459.872C219.324 459.872 218.953 459.554 218.883 459.121L213.592 423.871C213.521 423.385 213.848 422.935 214.334 422.864C214.82 422.785 215.27 423.12 215.341 423.606L220.631 458.856C220.702 459.342 220.375 459.793 219.89 459.863C219.845 459.863 219.801 459.872 219.757 459.872Z" fill="white"/>
<path d="M229.261 471.319L212.065 434.179C207.498 425.046 198.763 418.616 188.694 416.964L162.108 412.601C161.923 412.575 161.746 412.601 161.587 412.681C161.472 412.433 161.269 412.239 160.978 412.177L147.005 409.236C146.881 409.209 146.758 409.209 146.643 409.236L128.881 412.981C127.344 413.308 126.063 414.368 125.463 415.816C124.862 417.265 125.003 418.916 125.86 420.241C127.627 422.979 130.744 424.454 133.977 424.092L143.931 422.988L152.976 424.26L150.538 427.59C150.432 427.731 150.379 427.899 150.37 428.067L149.61 444.866C149.531 446.659 150.865 448.213 152.64 448.408C155.007 448.664 157.357 448.019 159.264 446.597L160.289 445.829C160.342 447.498 161.623 448.911 163.31 449.097C163.654 449.132 163.99 449.15 164.325 449.15C166.339 449.15 168.3 448.505 169.925 447.277L170.808 446.615C171.073 447.63 171.798 448.523 172.866 448.964C173.705 449.3 174.571 449.459 175.428 449.459C177.98 449.459 180.444 448.037 181.752 445.599L182.776 443.682C182.9 443.797 183.05 443.886 183.227 443.912L193.596 445.467V471.293C193.596 471.531 193.693 471.125 193.861 471.293C194.029 471.452 194.25 471.293 194.479 471.293H194.497H228.475C228.775 471.293 229.058 471.549 229.208 471.293C229.367 471.036 229.376 471.566 229.244 471.293L229.261 471.319Z" fill="white"/>
<path d="M228.466 472.202C228.13 472.202 227.812 472.016 227.662 471.689L210.465 434.946C206.164 426.344 197.905 420.267 188.393 418.704L162.346 414.429L152.109 428.419L151.359 444.954C151.323 445.81 151.959 446.561 152.816 446.658C154.732 446.87 156.64 446.34 158.186 445.183L159.997 443.823C160.385 443.532 160.942 443.611 161.233 444C161.525 444.388 161.445 444.945 161.057 445.236L159.246 446.596C157.338 448.027 154.989 448.672 152.622 448.407C150.837 448.213 149.513 446.658 149.592 444.865L150.352 428.066C150.352 427.889 150.422 427.722 150.519 427.589L161.233 412.945C161.427 412.68 161.763 412.539 162.09 412.592L188.675 416.955C198.744 418.606 207.489 425.045 212.046 434.169L229.252 470.93C229.455 471.371 229.269 471.901 228.828 472.104C228.704 472.157 228.58 472.184 228.457 472.184L228.466 472.202Z" fill="black"/>
<path d="M164.325 449.159C163.99 449.159 163.645 449.141 163.309 449.106C161.552 448.911 160.227 447.401 160.271 445.635L158.929 432.024C158.911 431.803 158.964 431.591 159.096 431.414L168.706 418.36C168.998 417.971 169.545 417.883 169.943 418.175C170.331 418.466 170.42 419.014 170.128 419.411L160.713 432.192L162.029 445.52C162.029 445.52 162.029 445.608 162.029 445.643C161.993 446.5 162.629 447.251 163.486 447.348C165.403 447.56 167.311 447.03 168.856 445.873L170.667 444.513C171.056 444.221 171.612 444.301 171.903 444.69C172.195 445.078 172.115 445.635 171.727 445.926L169.916 447.286C168.282 448.505 166.33 449.159 164.316 449.159H164.325Z" fill="black"/>
<path d="M175.436 449.476C174.579 449.476 173.705 449.317 172.875 448.981C171.196 448.292 170.349 446.499 170.843 444.839L171.594 431.325C171.603 431.122 171.691 430.919 171.832 430.768L180.506 421.503C180.841 421.15 181.398 421.132 181.751 421.459C182.105 421.795 182.122 422.351 181.795 422.704L173.343 431.74L172.61 445.051C172.61 445.13 172.592 445.209 172.566 445.289C172.292 446.102 172.698 447.002 173.493 447.329C175.992 448.336 178.925 447.214 180.214 444.794L184.639 436.545C184.737 436.359 184.904 436.209 185.108 436.139L192.553 433.348C193.013 433.18 193.516 433.409 193.693 433.869C193.86 434.328 193.631 434.831 193.172 435.008L186.035 437.675L181.769 445.633C180.462 448.071 177.997 449.493 175.445 449.493L175.436 449.476Z" fill="black"/>
<path d="M153.637 424.348C153.637 424.348 153.558 424.348 153.514 424.348L143.939 423.005L133.985 424.109C130.752 424.462 127.634 422.987 125.868 420.258C125.011 418.942 124.87 417.29 125.471 415.833C126.071 414.385 127.352 413.325 128.889 412.998L146.651 409.253C146.766 409.226 146.898 409.226 147.013 409.253L160.986 412.194C161.463 412.291 161.772 412.759 161.666 413.236C161.569 413.713 161.101 414.014 160.624 413.916L146.836 411.019L129.26 414.729C128.279 414.932 127.493 415.586 127.105 416.513C126.716 417.441 126.813 418.456 127.352 419.295C128.756 421.468 131.22 422.634 133.791 422.351L143.851 421.239C143.921 421.239 144.001 421.239 144.072 421.239L153.752 422.599C154.238 422.669 154.573 423.111 154.503 423.597C154.441 424.038 154.061 424.356 153.628 424.356L153.637 424.348Z" fill="black"/>
<path d="M194.488 472.202C194.002 472.202 193.604 471.805 193.604 471.319V445.493L183.235 443.939C182.749 443.868 182.423 443.418 182.493 442.932C182.564 442.446 183.014 442.11 183.5 442.19L194.62 443.859C195.053 443.921 195.371 444.292 195.371 444.734V471.319C195.371 471.805 194.973 472.202 194.488 472.202Z" fill="black"/>
<path d="M125.179 334.442H58.2121C50.7487 334.442 44.6985 340.492 44.6985 347.956V360.877C44.6985 368.341 50.7487 374.391 58.2121 374.391H108.142L124.588 390.837V374.391H125.171C132.634 374.391 138.684 368.341 138.684 360.877V347.956C138.684 340.492 132.634 334.442 125.171 334.442H125.179Z" fill="#2E85EC"/>
<path d="M79.1886 361.867C79.0384 361.867 78.8883 361.832 78.747 361.752L66.1872 354.501C65.9134 354.342 65.7456 354.05 65.7456 353.732C65.7456 353.414 65.9134 353.123 66.1872 352.964L78.747 345.713C79.1709 345.465 79.7097 345.615 79.957 346.039C80.2043 346.463 80.0542 347.002 79.6302 347.249L68.3954 353.741L79.6302 360.233C80.0542 360.48 80.1955 361.019 79.957 361.443C79.7892 361.726 79.4977 361.885 79.1886 361.885V361.867Z" fill="white"/>
<path d="M100.678 361.867C100.369 361.867 100.078 361.708 99.91 361.426C99.6627 361.002 99.8128 360.463 100.237 360.216L111.472 353.724L100.237 347.232C99.8128 346.985 99.6715 346.446 99.91 346.022C100.148 345.598 100.696 345.457 101.12 345.695L113.68 352.946C113.954 353.105 114.121 353.397 114.121 353.715C114.121 354.033 113.954 354.324 113.68 354.483L101.12 361.735C100.979 361.814 100.829 361.85 100.678 361.85V361.867Z" fill="white"/>
<path d="M84.3386 368.713C84.2414 368.713 84.1354 368.695 84.0383 368.66C83.579 368.492 83.3405 367.989 83.5083 367.529L93.7274 339.336C93.8952 338.877 94.3987 338.638 94.858 338.806C95.3173 338.974 95.5557 339.478 95.3879 339.937L85.1688 368.13C85.0363 368.492 84.7007 368.713 84.3386 368.713Z" fill="white"/>
<path d="M418.16 296.291L433.359 233.572C435.171 226.087 444.292 219.95 456.573 217.946L478.153 214.432L505.817 217.401C520.759 219.007 532.753 225.638 536.517 234.375L563.689 297.485L418.16 296.284V296.291Z" fill="black"/>
<path d="M485.211 273.983C477.121 288.673 460.596 288.673 460.596 288.673L441.271 263.794C441.271 263.794 434.648 252.742 446.244 247.512L485.203 273.983H485.211Z" fill="white"/>
<path d="M460.596 289.41C460.368 289.41 460.154 289.307 460.014 289.123L440.689 264.243C440.689 264.243 440.653 264.199 440.638 264.169C440.513 263.956 437.521 258.872 439.12 253.774C440.056 250.797 442.354 248.462 445.942 246.841C446.311 246.672 446.753 246.841 446.915 247.21C447.084 247.578 446.915 248.02 446.547 248.182C443.356 249.619 441.33 251.645 440.527 254.201C439.186 258.46 441.632 262.939 441.883 263.374L460.942 287.915C463.344 287.797 477.423 286.574 484.562 273.614C484.761 273.261 485.203 273.128 485.564 273.327C485.918 273.526 486.051 273.975 485.852 274.329C477.644 289.226 460.758 289.403 460.589 289.403L460.596 289.41Z" fill="black"/>
<path d="M398.82 266.047C399.691 270.379 403.909 273.184 408.24 272.313L439.986 265.928C444.318 265.057 447.123 260.84 446.252 256.508L432.175 186.503C431.304 182.172 427.087 179.366 422.755 180.237L391.008 186.621C386.677 187.492 383.871 191.71 384.742 196.041L398.82 266.047Z" fill="#2E85EC"/>
<path d="M394.498 201C391.934 201 389.636 199.191 389.11 196.584C388.819 195.144 389.11 193.676 389.923 192.452C390.736 191.229 391.976 190.395 393.416 190.108C396.39 189.512 399.291 191.443 399.89 194.415C400.181 195.855 399.89 197.324 399.077 198.546C398.265 199.77 397.024 200.604 395.584 200.891C395.22 200.965 394.856 201 394.498 201ZM394.498 190.7C394.187 190.7 393.867 190.732 393.552 190.795C392.294 191.047 391.212 191.772 390.505 192.841C389.793 193.91 389.545 195.189 389.797 196.444C390.319 199.037 392.855 200.726 395.444 200.204C396.702 199.952 397.784 199.223 398.492 198.158C399.2 197.092 399.452 195.809 399.2 194.555C398.741 192.277 396.733 190.7 394.498 190.7Z" fill="white"/>
<path d="M397.498 214C394.934 214 392.636 212.191 392.11 209.584C391.819 208.144 392.11 206.676 392.923 205.452C393.736 204.229 394.976 203.395 396.416 203.108C399.39 202.512 402.291 204.443 402.89 207.415C403.181 208.855 402.89 210.324 402.077 211.546C401.265 212.77 400.024 213.604 398.584 213.891C398.22 213.965 397.856 214 397.498 214ZM397.498 203.7C397.187 203.7 396.867 203.732 396.552 203.795C395.294 204.047 394.212 204.772 393.505 205.841C392.793 206.91 392.545 208.189 392.797 209.444C393.319 212.037 395.855 213.726 398.444 213.204C399.702 212.952 400.784 212.223 401.492 211.158C402.2 210.092 402.452 208.809 402.2 207.555C401.741 205.277 399.733 203.7 397.498 203.7Z" fill="white"/>
<path d="M451.859 251.35H443.121L442.826 251.77C441.286 253.973 438.708 255.211 436.026 255.026L434.39 254.916L438.759 244.992H435.982L433.536 249.442C432.335 251.63 430.139 253.096 427.657 253.376L424.474 253.73L426.853 248.963C424.85 250.215 422.381 250.473 420.156 249.67L419.309 249.361L430.029 230.699L444.72 226.728L435.982 222.359L422.455 226.448C420.215 227.126 417.784 226.743 415.861 225.409L413.747 223.943L435.982 211.242L459.012 225.137L466.557 258.091C466.557 258.091 484.025 272.782 485.218 273.975L451.866 251.343L451.859 251.35Z" fill="white"/>
<path d="M485.211 274.72C485.019 274.72 484.835 274.646 484.688 274.506C483.767 273.585 472.111 263.742 466.078 258.666C465.952 258.563 465.871 258.423 465.834 258.268L458.364 225.623L435.974 212.111L415.132 224.024L416.281 224.82C418.035 226.036 420.208 226.374 422.241 225.756L435.768 221.667C435.945 221.615 436.144 221.63 436.313 221.711L445.051 226.08C445.323 226.22 445.486 226.507 445.456 226.809C445.427 227.111 445.213 227.369 444.918 227.45L430.522 231.34L420.392 248.978H420.414C422.44 249.722 424.643 249.486 426.47 248.351C426.75 248.175 427.111 248.212 427.354 248.433C427.597 248.654 427.664 249.015 427.516 249.309L425.741 252.86L427.583 252.654C429.822 252.404 431.812 251.077 432.902 249.096L435.348 244.646C435.481 244.41 435.724 244.263 435.996 244.263H438.774C439.024 244.263 439.253 244.388 439.393 244.594C439.525 244.8 439.547 245.066 439.452 245.294L435.51 254.26L436.099 254.297C438.501 254.452 440.866 253.332 442.251 251.35L442.546 250.93C442.686 250.731 442.907 250.613 443.15 250.613H451.888C452.293 250.613 452.625 250.945 452.625 251.35C452.625 251.755 452.293 252.087 451.888 252.087H443.541L443.467 252.197C441.787 254.599 438.929 255.962 436.011 255.77L434.375 255.66C434.132 255.645 433.919 255.513 433.793 255.306C433.668 255.1 433.653 254.85 433.749 254.629L437.661 245.736H436.446L434.206 249.803C432.887 252.197 430.478 253.811 427.76 254.113L424.577 254.466C424.304 254.496 424.046 254.378 423.892 254.157C423.737 253.936 423.715 253.649 423.84 253.406L425.291 250.503C423.56 251.041 421.689 251.004 419.935 250.363L419.088 250.053C418.882 249.98 418.72 249.818 418.646 249.611C418.572 249.405 418.594 249.184 418.698 248.992L429.417 230.331C429.513 230.161 429.675 230.036 429.867 229.984L442.686 226.522L435.945 223.147L422.698 227.148C420.223 227.892 417.592 227.48 415.471 226.013L413.356 224.547C413.15 224.4 413.032 224.164 413.039 223.906C413.047 223.656 413.187 223.42 413.408 223.295L435.643 210.593C435.871 210.461 436.158 210.468 436.387 210.601L459.417 224.496C459.587 224.599 459.712 224.768 459.756 224.96L467.242 257.671C469.238 259.351 484.614 272.288 485.763 273.438C486.051 273.725 486.051 274.189 485.763 274.476C485.616 274.624 485.432 274.69 485.24 274.69L485.211 274.72Z" fill="black"/>
<path d="M444.712 227.472C444.366 227.472 444.049 227.222 443.99 226.868C443.916 226.47 444.182 226.087 444.587 226.013L450.407 224.953C450.805 224.879 451.188 225.144 451.262 225.542C451.335 225.94 451.07 226.323 450.665 226.397L444.845 227.457C444.8 227.465 444.756 227.472 444.712 227.472Z" fill="black"/>
<path d="M426.846 249.707C426.758 249.707 426.662 249.692 426.573 249.656C426.198 249.501 426.013 249.073 426.168 248.698L431.067 236.519C431.171 236.269 431.399 236.092 431.664 236.063L449.132 233.948C449.53 233.904 449.906 234.184 449.95 234.589C450.002 234.994 449.714 235.363 449.309 235.407L432.276 237.47L427.538 249.243C427.421 249.53 427.148 249.707 426.853 249.707H426.846Z" fill="black"/>
<path d="M438.759 245.736C438.648 245.736 438.538 245.714 438.427 245.655C438.066 245.471 437.919 245.029 438.096 244.668L439.024 242.819C439.157 242.561 439.422 242.391 439.717 242.413L451.895 242.944C452.3 242.959 452.617 243.305 452.602 243.71C452.587 244.115 452.226 244.447 451.836 244.417L440.137 243.909L439.422 245.331C439.289 245.589 439.031 245.736 438.759 245.736Z" fill="black"/>
<path d="M465.201 296.999C464.95 296.999 464.707 296.873 464.567 296.645L459.97 289.049C459.756 288.703 459.867 288.246 460.221 288.04C460.567 287.834 461.024 287.944 461.23 288.29L465.827 295.886C466.041 296.232 465.93 296.689 465.577 296.896C465.459 296.969 465.326 296.999 465.194 296.999H465.201Z" fill="white"/>
<path d="M511.011 297.492C510.842 297.492 510.672 297.433 510.54 297.315L484.083 275.022C483.774 274.756 483.73 274.292 483.995 273.983C484.26 273.673 484.724 273.629 485.034 273.894L511.49 296.188C511.8 296.453 511.844 296.918 511.579 297.227C511.431 297.396 511.225 297.492 511.011 297.492Z" fill="white"/>
<path d="M495.503 160.915C491.304 159.876 489.094 161.659 487.981 163.339C487.826 163.574 487.686 163.818 487.554 164.068C487.215 155.573 484.607 149.665 479.781 146.482C475.589 143.712 469.614 143.056 462.512 144.574C457.185 145.716 453.03 147.698 452.993 147.72C452.868 147.779 452.78 147.897 452.75 148.029C452.529 149.046 447.431 173.108 450.783 184.299C454.135 195.505 455.174 199.049 455.174 199.056C455.211 199.181 455.299 199.284 455.417 199.336C455.491 199.373 460.368 201.524 467.868 199.992L468.929 209.989C468.944 210.122 469.017 210.247 469.135 210.321C469.283 210.417 471.515 211.75 477.689 210.291C482.043 209.267 488.364 206.858 497.301 201.657C497.463 201.561 497.551 201.369 497.515 201.185L493.411 178.987C496.476 178.523 499.32 175.539 500.248 171.465C501.382 166.485 499.297 161.85 495.511 160.915H495.503Z" fill="white"/>
<path d="M484.04 135.534C480.238 136.425 477.07 138.591 474.882 141.48C485.889 141.929 495.791 149.9 498.524 161.497C498.642 162.005 498.745 162.521 498.833 163.029C502.885 159.198 504.86 153.393 503.49 147.572C501.441 138.879 492.733 133.493 484.04 135.534Z" fill="black"/>
<path d="M490 173.403L499.504 170.655L502.429 158.749C503.873 152.862 501.942 146.659 497.404 142.644C492.357 138.172 486.323 133.154 485.012 133.464C483.531 133.81 465.584 135.394 454.607 137.376C448.433 138.488 444.336 144.39 445.449 150.564L450.12 163L453.045 147.543C453.045 147.543 465.23 155.75 481.277 150.748L489.992 173.41L490 173.403Z" fill="black"/>
<path d="M461.031 184.137C460.729 184.137 460.449 183.953 460.338 183.651C460.198 183.268 460.397 182.848 460.78 182.708L467.021 180.468C467.404 180.328 467.824 180.527 467.964 180.91C468.104 181.293 467.905 181.713 467.522 181.853L461.281 184.093C461.2 184.122 461.112 184.137 461.031 184.137Z" fill="black"/>
<path d="M491.495 178.493C495.01 179.289 498.73 176.106 499.806 171.369C500.881 166.639 498.907 162.153 495.4 161.357C491.886 160.561 488.165 163.744 487.09 168.481L491.495 178.493Z" fill="white"/>
<path d="M492.6 179.355C492.173 179.355 491.753 179.311 491.333 179.215C490.935 179.127 490.685 178.729 490.781 178.331C490.869 177.934 491.267 177.683 491.665 177.779C493.131 178.11 494.7 177.639 496.085 176.453C497.537 175.208 498.598 173.351 499.084 171.214C500.071 166.882 498.34 162.786 495.231 162.079C493.764 161.747 492.195 162.219 490.81 163.405C489.359 164.65 488.29 166.507 487.804 168.643C487.716 169.041 487.318 169.292 486.92 169.196C486.522 169.107 486.272 168.71 486.368 168.312C486.92 165.873 488.158 163.729 489.845 162.278C491.598 160.775 493.625 160.193 495.555 160.635C499.46 161.519 501.684 166.411 500.52 171.531C499.968 173.97 498.73 176.114 497.043 177.565C495.673 178.737 494.133 179.355 492.6 179.355Z" fill="black"/>
<path d="M466.395 164.142C466.689 165.402 467.478 166.3 468.148 166.138C468.818 165.984 469.121 164.827 468.826 163.567C468.531 162.307 467.743 161.408 467.072 161.571C466.402 161.725 466.1 162.882 466.395 164.142Z" fill="black"/>
<path d="M451.991 165.689C452.286 166.949 453.074 167.848 453.744 167.685C454.415 167.531 454.717 166.374 454.422 165.114C454.128 163.854 453.339 162.956 452.669 163.118C451.998 163.272 451.696 164.429 451.991 165.689Z" fill="black"/>
<path d="M462.63 200.905C458.232 200.905 455.535 199.704 455.299 199.594C455.108 199.505 454.96 199.336 454.902 199.13C454.902 199.13 453.863 195.579 450.511 184.38C447.144 173.123 452.257 148.994 452.478 147.97C452.566 147.572 452.957 147.322 453.354 147.403C453.752 147.491 454.003 147.882 453.922 148.28C453.87 148.53 448.669 173.064 451.925 183.96C454.695 193.221 455.889 197.258 456.22 198.378C458.158 199.1 469.386 202.46 483.48 190.672C483.789 190.407 484.253 190.451 484.519 190.76C484.776 191.07 484.74 191.534 484.423 191.799C475.604 199.181 467.905 200.905 462.637 200.905H462.63Z" fill="black"/>
<path d="M497.073 202.01C496.727 202.01 496.417 201.76 496.351 201.406L492.21 179.002C492.137 178.604 492.402 178.221 492.8 178.14C493.198 178.059 493.581 178.331 493.662 178.729L497.802 201.134C497.876 201.531 497.611 201.915 497.213 201.996C497.169 202.003 497.124 202.01 497.08 202.01H497.073Z" fill="black"/>
<path d="M469.371 210.674C469.003 210.674 468.678 210.394 468.642 210.019L467.551 199.712C467.507 199.306 467.802 198.945 468.207 198.901C468.612 198.857 468.973 199.152 469.017 199.557L470.108 209.864C470.152 210.269 469.857 210.63 469.452 210.674C469.423 210.674 469.4 210.674 469.371 210.674Z" fill="black"/>
<path d="M459.852 179.798C459.764 179.798 459.683 179.783 459.594 179.753C458.379 179.304 454.371 177.705 453.715 176.165C453.524 175.723 453.605 175.355 453.708 175.134C454.12 174.191 455.808 165.232 456.78 159.802C456.854 159.404 457.229 159.132 457.635 159.206C458.033 159.279 458.305 159.662 458.231 160.06C457.974 161.489 455.763 173.852 455.093 175.635C455.38 176.21 457.672 177.462 460.11 178.376C460.493 178.516 460.685 178.943 460.545 179.326C460.434 179.621 460.154 179.805 459.852 179.805V179.798Z" fill="black"/>
<path d="M495.737 198.813L468.743 205.164C466.541 205.683 465.176 207.888 465.694 210.09L468.954 223.946C469.472 226.148 471.677 227.513 473.88 226.995L500.874 220.644C503.076 220.125 504.441 217.92 503.923 215.718L500.663 201.862C500.145 199.66 497.939 198.295 495.737 198.813Z" fill="black"/>
<path d="M287.971 92.5339C293.715 82.4387 293.122 71.4857 293.122 71.4857C293.122 60.1632 274.114 45.6868 262.431 44.9544C260.639 44.4529 258.749 44.1758 256.793 44.1758C245.294 44.1758 235.974 53.5122 235.974 65.0327V71.4197C235.401 74.8904 235.072 77.9849 234.776 80.1425C233.412 90.0596 224.192 89.7165 219.759 94.8433C215.32 99.9701 219.759 104.417 219.074 111.939C218.475 118.557 212.857 118.564 208.958 125.677C211.671 129.919 214.885 133.806 218.514 137.256C229.54 139.638 244.668 139.638 244.668 139.638C244.668 139.638 310.812 159.308 297.831 119.125C295.651 112.375 282.465 102.2 287.965 92.5405L287.971 92.5339Z" fill="black"/>
<path d="M274.74 146.619C273.68 146.619 272.586 146.599 271.473 146.566C260.231 146.223 250.24 144.171 250.141 144.152C249.785 144.079 249.555 143.729 249.627 143.373C249.7 143.017 250.049 142.792 250.404 142.858C250.799 142.937 289.783 150.835 300.623 137.646C304.213 133.271 304.311 126.937 300.906 118.821C300.077 116.842 298.074 114.519 295.954 112.058C291.291 106.641 285.482 99.9042 288.841 92.633C293.57 82.3992 292.16 71.6969 292.147 71.5914C291.725 66.6427 287.207 60.7505 280.048 55.7953C273.311 51.137 265.447 48.181 260 48.3196C259.638 48.3064 259.335 48.0358 259.328 47.6729C259.322 47.31 259.612 47.0065 259.974 46.9999C265.763 46.8746 273.745 49.8306 280.799 54.7066C288.393 59.9588 293.003 66.0555 293.458 71.4396C293.517 71.8553 294.933 82.5839 290.039 93.1806C287.036 99.6798 292.305 105.796 296.955 111.194C299.141 113.734 301.209 116.136 302.125 118.306C305.734 126.917 305.569 133.7 301.644 138.484C297.205 143.888 288.162 146.619 274.746 146.619H274.74Z" fill="black"/>
<path d="M319.591 178.35C318.538 166.585 312.287 145.491 307.427 134.927C297.811 121.751 277.045 112.625 252.966 112.625C238.615 112.625 225.443 115.872 215.103 121.276C193.731 140.793 187.31 163.557 188.376 178.35H319.591Z" fill="#2E85EC"/>
<path d="M250.141 112.282C243.206 112.282 236.738 113.193 231.252 114.77C232.793 127.471 242.152 137.243 253.467 137.243C264.09 137.243 272.988 128.633 275.313 117.066C268.839 114.11 259.954 112.282 250.141 112.282Z" fill="white"/>
<path d="M211.83 120.121C211.639 120.121 211.448 120.042 211.322 119.877C211.092 119.593 211.131 119.177 211.415 118.946C214.991 116.017 216.795 113.886 217.922 107.07C218.356 104.45 218.04 102.147 217.757 100.115C217.289 96.7106 216.888 93.7744 219.898 90.8118C221.61 89.1227 223.869 88.1659 226.056 87.2422C230.001 85.5794 233.722 84.0025 234.907 78.4534C235.032 77.853 235.171 77.1733 235.322 76.4212C235.658 74.7452 236.08 72.6536 236.613 70.4366L237.035 64.5378C237.417 59.1669 239.9 54.2644 244.022 50.7476C248.139 47.2308 253.401 45.5021 258.835 45.8979C260.692 46.0299 262.529 46.4192 264.288 47.046C264.63 47.1714 264.808 47.5475 264.69 47.8906C264.571 48.2337 264.189 48.4119 263.847 48.2931C262.193 47.7059 260.474 47.343 258.742 47.2176C253.651 46.8547 248.731 48.4646 244.879 51.7571C241.032 55.0496 238.714 59.6222 238.352 64.6368L237.924 70.5884C237.924 70.6279 237.917 70.6609 237.904 70.6939C237.37 72.9109 236.949 75.0025 236.613 76.6785C236.462 77.4307 236.323 78.1169 236.192 78.7239C234.861 84.946 230.455 86.8133 226.563 88.4562C224.396 89.3734 222.348 90.2378 220.813 91.7487C218.277 94.2494 218.607 96.638 219.055 99.9371C219.344 102.062 219.674 104.47 219.213 107.287C218.067 114.229 216.222 116.71 212.238 119.976C212.113 120.075 211.968 120.128 211.823 120.128L211.83 120.121Z" fill="black"/>
<path d="M270.002 93.4012L245.06 86.4951L235.847 119.89L260.789 126.796L270.002 93.4012Z" fill="white"/>
<path d="M265.19 110.817L269.998 93.3985L254.159 89.0107L247.454 93.57C249.555 101.329 255.752 107.611 265.19 110.817Z" fill="black"/>
<path d="M285.805 69.4799C285.805 57.9609 276.484 48.623 264.986 48.623C253.488 48.623 244.167 57.9609 244.167 69.4799V82.5377C244.167 94.0566 253.488 103.395 264.986 103.395C276.484 103.395 285.805 94.0566 285.805 82.5377V69.4799Z" fill="white"/>
<path d="M263.504 47.3164C251.03 47.3164 240.92 57.0817 240.92 69.1299V73.6233C249.686 79.1988 261.581 78.2618 269.293 70.8125L279.284 61.1593C280.523 59.9651 281.576 58.6652 282.465 57.2928C278.441 51.2885 271.453 47.3164 263.497 47.3164H263.504Z" fill="black"/>
<path d="M247.638 86.7211C244.457 88.1463 240.723 86.7211 239.294 83.5342L238.872 82.5973C237.449 79.4103 238.872 75.6692 242.053 74.2374C245.234 72.8121 248.968 74.2374 250.398 77.4243L250.819 78.3612C252.242 81.5481 250.819 85.2893 247.638 86.7211Z" fill="white"/>
<path d="M283.309 78.3808C283.058 79.9182 282.057 81.0333 281.083 80.8749C280.108 80.7166 279.522 79.3375 279.772 77.8002C280.022 76.2628 281.023 75.1477 281.998 75.306C282.973 75.4644 283.559 76.8434 283.309 78.3808Z" fill="black"/>
<path d="M288.63 75.1544C288.446 75.1544 288.261 75.0752 288.129 74.9235C285.113 71.4396 279.633 72.304 279.574 72.3106C279.218 72.37 278.876 72.1258 278.817 71.7695C278.757 71.4132 279.001 71.0701 279.357 71.0107C279.614 70.9645 285.62 70.0144 289.124 74.0657C289.361 74.3428 289.335 74.7585 289.058 74.996C288.933 75.1016 288.782 75.1544 288.63 75.1544Z" fill="black"/>
<path d="M269.399 77.0151C269.148 78.5525 268.147 79.6675 267.173 79.5092C266.198 79.3508 265.612 77.9718 265.862 76.4344C266.112 74.8971 267.113 73.782 268.088 73.9403C269.063 74.0987 269.649 75.4777 269.399 77.0151Z" fill="black"/>
<path d="M273.357 73.01C273.212 73.01 273.06 72.9572 272.935 72.8582C269.385 69.922 264.123 71.6772 264.07 71.6969C263.728 71.8157 263.353 71.631 263.234 71.2879C263.115 70.9448 263.3 70.5687 263.642 70.4499C263.886 70.3641 269.655 68.4308 273.778 71.8421C274.062 72.073 274.101 72.4887 273.864 72.7725C273.732 72.9308 273.548 73.01 273.357 73.01Z" fill="black"/>
<path d="M274.542 87.8097C274.18 87.8097 273.884 87.5128 273.884 87.1499C273.884 86.787 274.18 86.4901 274.542 86.4901C275.511 86.4901 277.23 86.2196 277.73 85.507C277.835 85.3552 277.961 85.0847 277.763 84.5502C276.933 82.2606 275.491 75.2666 275.432 74.9697C275.359 74.6133 275.59 74.2636 275.945 74.1911C276.301 74.1185 276.65 74.3494 276.722 74.7057C276.736 74.7783 278.198 81.8977 279.001 84.1015C279.377 85.1243 279.1 85.8435 278.804 86.2657C277.756 87.7635 274.865 87.8097 274.542 87.8097Z" fill="black"/>
<path d="M273.522 92.9366C273.522 92.9366 273.495 92.9366 273.482 92.9366C269.115 92.6661 266.685 89.2086 266.58 89.0635C266.376 88.7665 266.448 88.3509 266.744 88.1463C267.041 87.9418 267.456 88.0143 267.66 88.3113C267.686 88.3509 269.853 91.386 273.561 91.617C273.923 91.6367 274.2 91.9535 274.18 92.3164C274.16 92.6661 273.871 92.9366 273.522 92.9366Z" fill="black"/>
<path d="M246.644 83.5342C246.644 83.5342 246.611 83.5342 246.598 83.5342C246.235 83.5078 245.959 83.1911 245.985 82.8282C246.288 78.5328 243.759 77.3715 243.654 77.3253C243.324 77.1801 243.166 76.7908 243.311 76.4609C243.456 76.131 243.831 75.9727 244.167 76.1112C244.312 76.1706 247.671 77.6354 247.302 82.9206C247.276 83.2703 246.986 83.5342 246.644 83.5342Z" fill="black"/>
<path d="M342.234 179.373L323.003 146.362H364.686L385.597 123.855C386.849 122.509 386.756 120.398 385.4 119.164C382.383 116.426 377.74 116.591 374.921 119.534L373.163 121.368L375.58 117.416C376.495 115.819 375.929 113.787 374.322 112.889C370.765 110.91 366.274 112.124 364.199 115.634L355.189 130.104L355.084 130.071L361.367 117.356C362.131 115.687 361.387 113.707 359.707 112.962C355.986 111.312 351.626 112.929 349.874 116.611L344.625 127.042L320.059 119.93L334.324 112.249C337.025 110.798 337.525 107.129 335.312 105.004C334.252 103.982 332.764 103.546 331.321 103.83L318.755 106.298C301.414 109.696 290.362 126.844 294.399 144.072L304.575 179.386H342.248L342.234 179.373Z" fill="white"/>
<path d="M304.555 180.032C304.272 180.032 304.009 179.841 303.923 179.557L293.747 144.244C291.745 135.699 293.253 126.97 297.989 119.626C302.724 112.282 310.048 107.314 318.61 105.638L331.176 103.17C332.829 102.847 334.535 103.348 335.754 104.516C336.959 105.677 337.525 107.294 337.295 108.957C337.071 110.62 336.096 112.025 334.621 112.817L321.778 119.732L344.269 126.244L349.275 116.301C351.185 112.282 355.887 110.54 359.964 112.348C360.939 112.777 361.683 113.569 362.058 114.565C362.434 115.562 362.401 116.65 361.953 117.62L361.123 119.296L363.626 115.278C365.892 111.444 370.732 110.138 374.631 112.309C375.56 112.83 376.232 113.681 376.522 114.71C376.798 115.72 376.68 116.769 376.179 117.68C379.195 115.878 383.101 116.182 385.834 118.669C386.625 119.389 387.086 120.372 387.132 121.434C387.178 122.503 386.802 123.519 386.078 124.298L365.167 146.804C365.042 146.936 364.871 147.015 364.686 147.015H324.155L342.807 179.036C342.992 179.353 342.886 179.755 342.57 179.94C342.254 180.125 341.852 180.019 341.668 179.703L322.436 146.692C322.318 146.487 322.318 146.237 322.436 146.032C322.555 145.827 322.772 145.702 323.009 145.702H364.403L385.116 123.407C385.597 122.886 385.847 122.206 385.821 121.493C385.788 120.781 385.485 120.128 384.958 119.652C382.186 117.132 377.984 117.284 375.395 119.989L373.637 121.823C373.406 122.067 373.024 122.094 372.761 121.889C372.497 121.685 372.425 121.309 372.603 121.025L375.02 117.073C375.362 116.472 375.455 115.753 375.264 115.067C375.073 114.381 374.625 113.813 374.006 113.47C370.732 111.649 366.675 112.751 364.765 115.971L355.749 130.454C355.591 130.704 355.288 130.823 355.005 130.737L354.899 130.704C354.715 130.652 354.557 130.513 354.478 130.335C354.399 130.157 354.405 129.952 354.491 129.774L360.774 117.059C361.064 116.433 361.084 115.707 360.833 115.04C360.583 114.374 360.083 113.853 359.437 113.562C356.012 112.045 352.074 113.51 350.467 116.888L345.211 127.333C345.066 127.616 344.744 127.755 344.441 127.669L319.874 120.556C319.618 120.484 319.433 120.259 319.4 119.996C319.374 119.732 319.506 119.474 319.743 119.342L334.008 111.662C335.108 111.068 335.833 110.019 336.004 108.785C336.175 107.551 335.754 106.344 334.851 105.473C333.949 104.602 332.671 104.226 331.44 104.47L318.873 106.938C310.667 108.548 303.646 113.312 299.109 120.352C294.571 127.392 293.122 135.759 295.038 143.921L305.207 179.201C305.306 179.551 305.108 179.92 304.759 180.019C304.7 180.039 304.634 180.046 304.575 180.046L304.555 180.032Z" fill="black"/>
<path d="M359.503 147.022C359.391 147.022 359.286 146.995 359.18 146.936C358.864 146.758 358.752 146.355 358.93 146.039L372.741 121.328C372.919 121.012 373.321 120.9 373.637 121.078C373.953 121.256 374.065 121.658 373.887 121.975L360.076 146.685C359.957 146.903 359.733 147.022 359.503 147.022Z" fill="black"/>
<path d="M347.417 147.022C347.319 147.022 347.22 147.002 347.128 146.956C346.798 146.797 346.667 146.401 346.825 146.072L355.472 128.375C355.63 128.045 356.026 127.913 356.355 128.072C356.684 128.23 356.816 128.626 356.658 128.956L348.01 146.652C347.898 146.883 347.661 147.022 347.417 147.022Z" fill="black"/>
<path d="M340.265 135.653H325.466C325.275 135.653 325.097 135.574 324.972 135.429C324.847 135.29 324.788 135.099 324.808 134.914C324.847 134.591 325.598 126.996 316.865 124.001C316.522 123.882 316.338 123.506 316.456 123.163C316.575 122.82 316.95 122.635 317.293 122.754C325.394 125.531 326.138 132.123 326.145 134.333H339.857L343.617 127.029C343.782 126.706 344.184 126.581 344.507 126.746C344.829 126.91 344.954 127.313 344.79 127.636L340.845 135.297C340.733 135.514 340.509 135.653 340.259 135.653H340.265Z" fill="black"/>
<path d="M323.003 147.022H315.851C315.488 147.022 315.192 146.725 315.192 146.362C315.192 145.999 315.488 145.702 315.851 145.702H323.003C323.365 145.702 323.662 145.999 323.662 146.362C323.662 146.725 323.365 147.022 323.003 147.022Z" fill="black"/>
<path d="M217.178 176.522H217.151C216.789 176.509 216.506 176.205 216.519 175.836L217.395 152.142C217.408 151.779 217.698 151.495 218.08 151.508C218.442 151.522 218.725 151.825 218.712 152.195L217.836 175.889C217.823 176.245 217.533 176.522 217.178 176.522Z" fill="black"/>
<path d="M341.699 85.9726C345.551 85.0458 349.602 84.167 353.909 83.352C358.215 84.167 362.266 85.0458 366.11 85.9726C367.171 82.1776 368.064 78.1749 368.71 73.9725C371.366 56.7632 366.716 38.803 353.909 29C341.101 38.803 336.444 56.7632 339.108 73.9725C339.746 78.1669 340.647 82.1696 341.707 85.9726H341.699Z" fill="white" stroke="black" stroke-width="2.17" stroke-linecap="round" stroke-linejoin="round"/>
<path d="M372.785 86.0604C375.369 87.083 378.001 84.6223 377.107 82.0017C375.09 76.0816 372.322 70.489 368.79 65.4077C368.758 65.7193 368.742 66.0229 368.71 66.3345C368.072 72.3745 367.171 78.1269 366.11 83.5916C368.415 84.3906 370.64 85.2135 372.785 86.0604Z" fill="black"/>
<path d="M339.1 66.3345C339.068 66.0229 339.052 65.7193 339.02 65.4077C335.487 70.489 332.72 76.0816 330.702 82.0017C329.809 84.6223 332.433 87.083 335.024 86.0604C337.17 85.2135 339.395 84.3906 341.699 83.5916C340.639 78.1269 339.746 72.3745 339.108 66.3345H339.1Z" fill="black"/>
<path d="M353.909 79.8286C352.816 80.1242 351.732 80.4358 350.671 80.7394C351.74 80.4278 352.816 80.1242 353.909 79.8286Z" fill="#2E85EC"/>
<path d="M353.908 79.8286C355.001 80.1242 356.078 80.4358 357.146 80.7394C356.086 80.4278 355.009 80.1242 353.908 79.8286Z" fill="#2E85EC"/>
<path d="M353.901 91.3892V66.1826" stroke="black" stroke-width="2.17"/>
<path d="M353.901 106.745V98.292" stroke="black" stroke-width="2.17"/>
<path d="M359.69 102.902V94.4575" stroke="black" stroke-width="2.17"/>
<path d="M348.119 102.902V94.4575" stroke="black" stroke-width="2.17"/>
<path d="M353.901 55.0935C356.68 55.0935 358.933 52.8507 358.933 50.0841C358.933 47.3175 356.68 45.0747 353.901 45.0747C351.122 45.0747 348.869 47.3175 348.869 50.0841C348.869 52.8507 351.122 55.0935 353.901 55.0935Z" fill="black"/>
<path d="M337.304 472.606L350.721 450.883C355.712 442.805 365.129 438.577 374.506 440.201L377.473 440.715C385.356 442.081 391.983 447.392 395.012 454.766L402.338 472.606H337.304Z" fill="black"/>
<path d="M387.427 473.282L441.36 392.142L467.087 363.857L480.334 369.546L478.888 374.816L476.606 381.696C474.787 387.189 471.086 391.864 466.157 394.915L461.295 397.926L426.049 473.275H387.441L387.427 473.282Z" fill="white"/>
<path d="M426.035 473.959C425.94 473.959 425.838 473.938 425.75 473.898C425.41 473.742 425.261 473.336 425.424 472.998L460.67 397.648C460.725 397.527 460.813 397.432 460.929 397.357L465.79 394.347C470.577 391.384 474.182 386.817 475.955 381.486L478.236 374.606L479.519 369.932L467.264 364.662L441.896 392.547L387.998 473.647C387.787 473.959 387.366 474.047 387.054 473.837C386.742 473.627 386.654 473.208 386.864 472.896L440.796 391.756C440.796 391.756 440.837 391.702 440.857 391.675L466.585 363.39C466.781 363.173 467.087 363.106 467.359 363.221L480.606 368.91C480.918 369.045 481.081 369.384 480.993 369.708L479.546 374.978L477.251 381.892C475.384 387.521 471.568 392.344 466.517 395.477L461.825 398.379L426.66 473.546C426.544 473.789 426.3 473.938 426.042 473.938L426.035 473.959Z" fill="black"/>
<path d="M490.388 356.997L460.131 329.344L403.634 390.709L433.892 418.362L490.388 356.997Z" fill="#2E85EC"/>
<path d="M411.152 413.134C410.989 413.134 410.826 413.073 410.69 412.958C410.412 412.707 410.398 412.274 410.649 412.004L424.168 397.324C424.419 397.046 424.854 397.033 425.125 397.283C425.404 397.533 425.417 397.966 425.166 398.237L411.647 412.917C411.512 413.059 411.328 413.134 411.145 413.134H411.152Z" fill="black"/>
<path d="M392.859 419.209C392.696 419.209 392.534 419.148 392.398 419.033C392.119 418.782 392.106 418.349 392.357 418.079L405.876 403.399C406.127 403.121 406.562 403.108 406.833 403.358C407.111 403.608 407.125 404.041 406.874 404.312L393.355 418.992C393.219 419.134 393.036 419.209 392.853 419.209H392.859Z" fill="black"/>
<path d="M408.123 317.989L411.81 319.403L414.289 316.136L414.628 320.425L419.096 321.04L414.214 322.623L413.773 326.933L411.613 323.455L407.981 324.409L409.916 321.609L408.123 317.989Z" fill="#2E85EC"/>
<path d="M485.916 405.367C485.664 405.367 485.44 405.232 485.318 405.015L483.79 402.242L481.006 400.726C480.789 400.605 480.653 400.381 480.653 400.131C480.653 399.881 480.789 399.658 481.006 399.536L483.79 398.014L485.318 395.24C485.556 394.807 486.269 394.807 486.506 395.24L488.034 398.014L490.818 399.536C491.035 399.658 491.171 399.881 491.171 400.131C491.171 400.381 491.035 400.605 490.818 400.726L488.034 402.242L486.506 405.015C486.384 405.232 486.16 405.367 485.909 405.367H485.916ZM482.751 400.124L484.625 401.146C484.741 401.207 484.836 401.301 484.897 401.416L485.922 403.284L486.948 401.416C487.009 401.301 487.104 401.207 487.219 401.146L489.093 400.124L487.219 399.103C487.104 399.042 487.009 398.947 486.948 398.832L485.922 396.965L484.897 398.832C484.836 398.947 484.741 399.042 484.625 399.103L482.751 400.124Z" fill="#2E85EC"/>
<path d="M472.22 388.326C474.841 384.977 478.114 375.168 478.256 374.755L479.872 369.925C479.974 369.62 479.832 369.303 479.546 369.181L467.488 364.357C467.263 364.269 466.999 364.323 466.809 364.506C466.007 365.284 464.846 366.975 465.131 368.646L462.348 367.496C462.096 367.395 461.798 367.476 461.614 367.692C461.506 367.821 459.054 370.865 460.643 373.294C460.182 373.93 459.408 375.188 459.462 376.528C459.496 377.319 459.808 378.002 460.372 378.577C459.727 379.281 459.122 380.391 459.482 381.71C459.835 382.995 463.217 385.113 464.785 385.978C463.998 386.256 462.015 387.135 461.37 388.252C461.18 388.576 469.334 391.999 472.213 388.326H472.22Z" fill="white"/>
<path d="M478.25 375.141C478.161 375.141 478.066 375.121 477.978 375.087L461.757 367.997C461.234 368.809 460.277 370.649 461.254 372.083C461.465 372.394 461.383 372.814 461.071 373.023C460.759 373.233 460.338 373.152 460.127 372.841C458.274 370.121 460.881 366.86 460.996 366.725C461.186 366.488 461.519 366.407 461.798 366.529L478.528 373.842C478.874 373.991 479.03 374.39 478.874 374.735C478.766 374.992 478.514 375.141 478.25 375.141Z" fill="black"/>
<path d="M478.881 375.499C478.813 375.499 478.745 375.493 478.684 375.472C478.324 375.364 478.127 374.985 478.236 374.627L479.669 369.986L467.25 364.723C466.686 365.399 465.593 366.996 466.571 368.423C466.781 368.734 466.7 369.154 466.388 369.363C466.075 369.573 465.654 369.492 465.444 369.181C463.93 366.962 465.539 364.445 466.598 363.424C466.795 363.234 467.087 363.18 467.338 363.288L480.762 368.978C481.081 369.113 481.251 369.465 481.142 369.796L479.533 375.026C479.445 375.317 479.173 375.506 478.881 375.506V375.499Z" fill="black"/>
<path d="M476.783 380.621C476.688 380.621 476.593 380.6 476.505 380.56L461.193 373.652C460.813 374.187 460.216 375.208 460.283 376.23C460.331 376.859 460.623 377.394 461.186 377.86C461.472 378.104 461.512 378.53 461.268 378.814C461.024 379.098 460.596 379.139 460.311 378.895C459.462 378.185 459 377.319 458.932 376.318C458.79 374.268 460.412 372.435 460.48 372.36C460.677 372.137 460.996 372.076 461.268 372.198L477.068 379.328C477.408 379.484 477.564 379.883 477.408 380.221C477.292 380.472 477.048 380.621 476.79 380.621H476.783Z" fill="black"/>
<path d="M461.485 388.908C461.349 388.908 461.214 388.867 461.091 388.779C460.786 388.563 460.718 388.143 460.935 387.839C461.716 386.743 462.653 386.181 463.509 385.897C461.75 384.896 459.571 383.408 459.136 381.987C458.532 379.998 459.93 378.483 460.752 377.955C460.956 377.827 461.214 377.813 461.424 377.921L473.721 384.165C474.053 384.335 474.189 384.74 474.019 385.072C473.85 385.403 473.442 385.539 473.103 385.37L461.193 379.322C460.779 379.694 460.1 380.499 460.433 381.588C460.82 382.853 464.201 384.835 466.245 385.782C466.564 385.931 466.714 386.29 466.598 386.621C466.483 386.953 466.136 387.135 465.797 387.054C465.709 387.034 463.515 386.547 462.042 388.61C461.906 388.793 461.703 388.894 461.485 388.894V388.908Z" fill="black"/>
<path d="M364.661 430.506L354.062 432.008C341.874 433.733 330.487 425.209 328.756 413.066L328.158 408.878C325.992 393.677 336.7 379.47 351.957 377.312L353.715 381.331C363.282 379.978 372.218 386.669 373.576 396.194L376.272 415.095C377.331 422.51 372.103 429.444 364.661 430.5V430.506Z" fill="black"/>
<path d="M365.754 459.109L378.77 414.473L352.066 405.996L339.056 445.356L365.754 459.109Z" fill="white"/>
<path d="M365.754 459.786C365.646 459.786 365.537 459.759 365.442 459.711L338.744 445.958C338.445 445.802 338.309 445.464 338.411 445.146L351.427 405.787C351.543 405.435 351.923 405.239 352.276 405.354L378.981 413.83C379.334 413.939 379.531 414.311 379.429 414.663L366.406 459.299C366.352 459.495 366.209 459.65 366.019 459.732C365.931 459.765 365.842 459.786 365.754 459.786ZM339.885 445.018L365.333 458.128L377.942 414.913L352.507 406.842L339.885 445.018Z" fill="black"/>
<path d="M348.134 397.107C353.98 397.107 358.72 392.385 358.72 386.56C358.72 380.735 353.98 376.014 348.134 376.014C342.288 376.014 337.549 380.735 337.549 386.56C337.549 392.385 342.288 397.107 348.134 397.107Z" fill="black"/>
<path d="M349.322 380.993C338.187 384.03 330.711 394.726 331.947 406.369C334.745 407.701 337.997 408.256 341.351 407.776C350.069 406.544 356.18 398.839 355.006 390.579C354.442 386.641 352.33 383.293 349.329 380.993H349.322Z" fill="black"/>
<path d="M334.616 395.626C330.012 406.172 333.685 418.681 343.565 425.02C346.362 423.68 348.834 421.509 350.565 418.607C355.067 411.063 352.88 401.498 345.676 397.229C342.247 395.199 338.303 394.739 334.616 395.626Z" fill="black"/>
<path d="M360.306 396.717C365.393 393.847 367.181 387.411 364.299 382.342C361.418 377.274 354.958 375.493 349.871 378.364C344.785 381.235 342.997 387.671 345.878 392.739C348.76 397.807 355.219 399.588 360.306 396.717Z" fill="black"/>
<path d="M377.922 387.453C378.525 381.491 374.162 376.17 368.177 375.57C362.192 374.969 356.852 379.316 356.25 385.279C355.647 391.242 360.01 396.562 365.995 397.163C371.979 397.763 377.319 393.416 377.922 387.453Z" fill="black"/>
<path d="M364.054 390.196C367.667 385.405 366.698 378.602 361.889 375.002C357.08 371.402 350.253 372.368 346.64 377.159C343.027 381.95 343.996 388.753 348.805 392.353C353.614 395.953 360.441 394.987 364.054 390.196Z" fill="black"/>
<path d="M334.079 395.673C333.937 395.673 333.794 395.632 333.672 395.538C331.268 393.752 328.063 395.287 328.029 395.308C327.697 395.47 327.289 395.335 327.119 395.003C326.956 394.672 327.092 394.266 327.425 394.097C327.588 394.015 331.404 392.169 334.48 394.455C334.778 394.678 334.84 395.105 334.616 395.402C334.48 395.578 334.276 395.673 334.072 395.673H334.079Z" fill="black"/>
<path d="M333.814 395.226C330.297 395.226 328.219 391.966 328.124 391.824C327.927 391.506 328.022 391.086 328.342 390.89C328.661 390.694 329.075 390.788 329.279 391.106C329.313 391.154 331.234 394.117 334.201 393.86C334.575 393.826 334.907 394.103 334.935 394.475C334.969 394.848 334.69 395.179 334.317 395.206C334.147 395.22 333.977 395.226 333.808 395.226H333.814Z" fill="black"/>
<path d="M381.208 397.094C374.235 383.266 359.079 376.812 347.36 382.677C337.454 387.636 333.169 399.813 336.299 411.821C336.034 411.855 335.77 411.896 335.505 411.956C331.478 412.904 328.728 416.821 329.211 420.913C329.754 425.507 333.984 428.734 338.56 428.084C340.577 427.8 342.302 426.799 343.551 425.392C351.38 434.173 363.119 437.501 372.612 432.752C384.331 426.887 388.181 410.915 381.208 397.087V397.094Z" fill="white"/>
<path d="M363.276 435.621C356.309 435.621 349.132 432.394 343.537 426.393C342.193 427.672 340.489 428.504 338.656 428.761C336.252 429.099 333.875 428.477 331.954 427.002C330.032 425.527 328.817 423.396 328.532 420.995C328.009 416.584 330.996 412.322 335.342 411.3C335.383 411.293 335.417 411.28 335.457 411.273C332.531 398.92 337.236 386.986 347.048 382.075C352.901 379.146 359.745 379.078 366.324 381.879C372.863 384.666 378.363 389.956 381.812 396.789C385.255 403.622 386.239 411.178 384.576 418.065C382.905 425 378.764 430.432 372.911 433.361C369.876 434.883 366.596 435.614 363.269 435.614L363.276 435.621ZM343.551 424.722C343.748 424.722 343.931 424.803 344.06 424.952C351.93 433.781 363.283 436.676 372.306 432.157C377.793 429.41 381.683 424.296 383.259 417.754C384.847 411.172 383.897 403.947 380.597 397.398C377.297 390.849 372.042 385.782 365.795 383.124C359.589 380.478 353.152 380.539 347.659 383.286C338.235 388.008 333.828 399.671 336.951 411.652C336.999 411.841 336.965 412.038 336.856 412.2C336.748 412.362 336.578 412.471 336.381 412.491C336.136 412.525 335.899 412.559 335.654 412.613C331.974 413.479 329.435 417.091 329.883 420.832C330.127 422.869 331.153 424.675 332.782 425.926C334.412 427.178 336.428 427.706 338.465 427.415C340.224 427.164 341.854 426.292 343.049 424.945C343.178 424.803 343.361 424.715 343.558 424.715L343.551 424.722Z" fill="black"/>
<path d="M354.177 401.274C354.877 402.127 355.882 402.465 356.425 402.019C356.968 401.579 356.846 400.53 356.153 399.671C355.454 398.819 354.449 398.48 353.906 398.927C353.363 399.367 353.485 400.415 354.177 401.274Z" fill="black"/>
<path d="M367.642 394.273C368.341 395.125 369.346 395.463 369.889 395.017C370.432 394.577 370.31 393.528 369.618 392.669C368.918 391.817 367.913 391.479 367.37 391.925C366.827 392.365 366.949 393.413 367.642 394.273Z" fill="black"/>
<path d="M349.071 401.268C349.01 401.268 348.949 401.261 348.895 401.241C348.535 401.139 348.318 400.767 348.419 400.408C349.302 397.182 352.779 396.092 352.928 396.045C353.288 395.937 353.668 396.14 353.777 396.498C353.885 396.857 353.682 397.236 353.329 397.344C353.329 397.344 350.416 398.271 349.73 400.767C349.648 401.065 349.377 401.268 349.078 401.268H349.071Z" fill="black"/>
<path d="M364.43 410.597C364.084 410.597 363.792 410.34 363.758 409.988C363.717 409.616 363.989 409.284 364.362 409.244C366.379 409.041 372.008 408.1 373.821 406.233C374.079 405.963 374.513 405.956 374.778 406.22C375.043 406.484 375.056 406.91 374.792 407.174C372.259 409.778 364.81 410.563 364.491 410.59C364.471 410.59 364.444 410.59 364.423 410.59L364.43 410.597Z" fill="black"/>
<path d="M368.789 400.605C368.613 400.605 368.436 400.537 368.307 400.402L361.205 393.224C360.981 392.994 360.947 392.635 361.123 392.372C362.644 390.125 366.725 386.648 371.335 389.578C371.655 389.78 371.743 390.2 371.546 390.511C371.342 390.829 370.921 390.917 370.609 390.721C368.667 389.49 366.691 389.503 364.722 390.768C363.731 391.404 362.984 392.209 362.583 392.696L369.271 399.455C369.536 399.718 369.529 400.151 369.271 400.408C369.142 400.537 368.966 400.605 368.796 400.605H368.789Z" fill="black"/>
<path d="M339.158 401.098L346.444 415.65C346.674 416.11 346.668 416.645 346.437 417.105C345.982 417.998 344.828 418.262 344.026 417.659L336.238 411.828L339.158 401.098Z" fill="black"/>
<path d="M340.543 419.966C340.265 419.966 340.007 419.797 339.905 419.527C339.884 419.473 338.832 416.773 336.388 416.252C336.021 416.178 335.79 415.813 335.865 415.447C335.94 415.082 336.299 414.845 336.673 414.926C339.878 415.603 341.134 418.911 341.181 419.053C341.31 419.405 341.134 419.79 340.781 419.919C340.706 419.946 340.625 419.96 340.543 419.96V419.966Z" fill="black"/>
<path d="M331.906 390.613C328.695 395.923 327.221 402.309 328.158 408.885L328.607 412.031C329.734 412.241 330.915 412.281 332.117 412.112C338.072 411.266 342.214 405.78 341.365 399.847C340.659 394.881 336.68 391.194 331.906 390.613Z" fill="black"/>
<path d="M498.83 317.556L494.518 372.448L444.313 326.574L498.83 317.556Z" fill="#2E85EC"/>
<path d="M398.264 372.719C398.101 372.719 397.938 372.658 397.803 372.543L387.835 363.437C387.699 363.315 387.624 363.146 387.618 362.964C387.611 362.781 387.672 362.605 387.801 362.477L404.946 344.075L398.943 338.589C398.753 338.413 398.678 338.142 398.753 337.899C398.828 337.655 399.038 337.466 399.29 337.425L424.236 333.299C424.439 333.265 424.65 333.326 424.806 333.468C424.962 333.61 425.044 333.813 425.023 334.023L423.048 359.141C423.027 359.398 422.864 359.622 422.62 359.716C422.375 359.811 422.104 359.764 421.914 359.588L415.905 354.095L398.753 372.502C398.617 372.644 398.441 372.719 398.258 372.719H398.264ZM389.261 362.896L398.224 371.089L415.375 352.681C415.626 352.41 416.054 352.39 416.332 352.64L421.812 357.646L423.611 334.773L400.892 338.528L406.371 343.534C406.507 343.656 406.582 343.825 406.589 344.008C406.596 344.19 406.534 344.366 406.405 344.495L389.261 362.896Z" fill="#2E85EC"/>
<path d="M307.497 472.606L320.913 450.883C325.904 442.805 335.322 438.577 344.699 440.201L347.666 440.715C355.549 442.081 362.176 447.392 365.204 454.766L372.53 472.606H307.497Z" fill="black"/>
<path d="M141.34 267.759C156.555 256.31 159.145 235.28 147.124 220.787C135.104 206.295 113.025 203.828 97.8101 215.278C82.5951 226.727 80.0053 247.757 92.0257 262.249C104.046 276.742 126.125 279.208 141.34 267.759Z" fill="black"/>
<path d="M108.593 279.465C120.28 279.465 129.754 270.441 129.754 259.31C129.754 248.179 120.28 239.155 108.593 239.155C96.9069 239.155 87.4331 248.179 87.4331 259.31C87.4331 270.441 96.9069 279.465 108.593 279.465Z" fill="black"/>
<path d="M180.936 239.02C189.022 228.706 186.798 214.101 175.97 206.4C165.141 198.698 149.808 200.815 141.722 211.129C133.636 221.443 135.859 236.048 146.688 243.75C157.516 251.452 172.85 249.335 180.936 239.02Z" fill="black"/>
<path d="M192.402 273.118C201.958 264.016 201.958 249.258 192.402 240.156C182.846 231.054 167.352 231.054 157.796 240.156C148.24 249.258 148.24 264.016 157.796 273.118C167.352 282.22 182.846 282.22 192.402 273.118Z" fill="black"/>
<path d="M177.607 278.177C173.782 278.177 169.901 277.341 166.257 275.582C153.883 269.603 148.922 255.148 155.2 243.355C161.477 231.569 176.653 226.843 189.034 232.823C201.408 238.803 206.369 253.257 200.091 265.05C195.66 273.372 186.79 278.171 177.607 278.171V278.177ZM177.691 231.562C169.016 231.562 160.641 236.095 156.454 243.959C150.524 255.095 155.206 268.747 166.898 274.401C178.589 280.049 192.922 275.589 198.858 264.453C204.787 253.317 200.105 239.665 188.414 234.011C184.979 232.352 181.307 231.562 177.698 231.562H177.691Z" fill="black"/>
<path d="M171.364 226.525C169.294 226.525 167.204 226.074 165.232 225.125C161.992 223.558 159.588 220.89 158.46 217.599C157.331 214.314 157.617 210.803 159.261 207.717C160.905 204.631 163.706 202.341 167.162 201.266C170.611 200.191 174.297 200.463 177.537 202.029C184.219 205.261 186.901 213.066 183.508 219.437C181.111 223.93 176.324 226.525 171.364 226.525ZM171.398 201.95C170.123 201.95 168.841 202.142 167.594 202.527C164.494 203.489 161.978 205.547 160.501 208.314C159.024 211.082 158.773 214.234 159.784 217.181C160.794 220.134 162.954 222.53 165.859 223.937C171.858 226.837 179.216 224.547 182.261 218.833C185.306 213.119 182.902 206.111 176.903 203.211C175.168 202.374 173.287 201.95 171.391 201.95H171.398Z" fill="black"/>
<path d="M161.564 217.635C174.383 205.425 174.383 185.63 161.564 173.42C148.746 161.21 127.963 161.21 115.144 173.42C102.326 185.63 102.326 205.425 115.144 217.635C127.963 229.845 148.746 229.845 161.564 217.635Z" fill="black"/>
<path d="M177.537 296.667H47.6206L71.784 247.424C76.1596 238.504 87.2449 234.589 96.672 238.624L113.422 245.805L157.756 241.046C170.472 239.679 181.348 249.68 180.359 261.832L177.537 296.674V296.667Z" fill="#2E85EC"/>
<path d="M107.722 229.393L119.386 232.087C132.791 235.186 146.42 227.275 149.674 214.507L150.796 210.107C154.872 194.119 144.469 177.86 127.684 173.977L125.287 178.085C114.766 175.65 104.064 181.861 101.514 191.883L96.449 211.766C94.4632 219.57 99.5356 227.501 107.729 229.393H107.722Z" fill="black"/>
<path d="M142.692 245.738L134.087 245.38L124.444 204.558L93.7241 210.836L100.155 243.959C100.155 243.959 102.078 261.878 116.55 261.878C131.021 261.878 142.741 255.076 142.741 246.694C142.741 246.375 142.72 246.057 142.685 245.745L142.692 245.738Z" fill="white"/>
<path d="M116.557 262.535C101.632 262.535 99.4933 244.212 99.4724 244.026L93.0483 210.956C92.9786 210.604 93.2155 210.259 93.5848 210.186L124.305 203.908C124.681 203.828 125.043 204.054 125.134 204.412L134.658 244.743L142.734 245.081C143.082 245.094 143.361 245.347 143.396 245.679C143.438 246.063 143.458 246.382 143.458 246.694C143.458 255.434 131.398 262.542 116.571 262.542L116.557 262.535ZM94.5393 211.348L100.852 243.84C100.88 244.066 102.894 261.215 116.557 261.215C130.22 261.215 142.051 254.698 142.051 246.694C142.051 246.594 142.051 246.488 142.044 246.382L134.052 246.05C133.739 246.037 133.474 245.825 133.404 245.533L123.915 205.355L94.5324 211.361L94.5393 211.348Z" fill="black"/>
<path d="M137.12 193.884C142.716 190.636 144.488 183.682 141.077 178.352C137.667 173.021 130.366 171.334 124.77 174.582C119.174 177.831 117.402 184.785 120.813 190.115C124.223 195.445 131.524 197.133 137.12 193.884Z" fill="black"/>
<path d="M130.228 178.171C142.316 182.564 149.493 194.743 146.845 207.033C143.577 208.162 139.892 208.42 136.199 207.564C126.605 205.348 120.626 196.501 122.842 187.814C123.894 183.673 126.625 180.315 130.221 178.178L130.228 178.171Z" fill="black"/>
<path d="M145.041 195.294C149.026 207.02 143.571 219.982 131.858 225.722C128.89 224.003 126.368 221.428 124.751 218.157C120.55 209.648 124.034 199.667 132.534 195.858C136.582 194.046 141.034 193.96 145.048 195.287L145.041 195.294Z" fill="black"/>
<path d="M111.547 181.888C110 187.954 113.909 194.066 120.277 195.539C126.646 197.012 133.063 193.289 134.61 187.223C136.156 181.158 132.248 175.045 125.879 173.572C119.511 172.099 113.094 175.822 111.547 181.888Z" fill="black"/>
<path d="M97.9605 179.326C96.3719 185.565 100.392 191.849 106.942 193.363C113.491 194.876 120.089 191.046 121.678 184.808C123.267 178.57 119.246 172.285 112.697 170.772C106.147 169.259 99.5491 173.088 97.9605 179.326Z" fill="black"/>
<path d="M111.353 177.66C109.764 183.899 113.784 190.184 120.334 191.697C126.883 193.21 133.482 189.381 135.07 183.142C136.659 176.904 132.639 170.619 126.089 169.106C119.54 167.593 112.941 171.422 111.353 177.66Z" fill="black"/>
<path d="M152.823 195.686C152.697 195.686 152.572 195.652 152.454 195.586C152.454 195.586 148.977 193.575 146.064 195.248C145.737 195.44 145.305 195.334 145.11 195.022C144.908 194.71 145.019 194.298 145.347 194.113C148.998 192.009 153.025 194.358 153.192 194.458C153.52 194.65 153.617 195.062 153.415 195.374C153.283 195.573 153.053 195.686 152.823 195.686Z" fill="black"/>
<path d="M146.594 194.921C146.218 194.921 145.828 194.888 145.431 194.815C145.054 194.749 144.804 194.404 144.873 194.039C144.943 193.68 145.305 193.442 145.689 193.508C149.033 194.105 151.52 191.092 151.548 191.059C151.785 190.767 152.224 190.714 152.524 190.94C152.83 191.165 152.886 191.577 152.649 191.869C152.538 192.008 150.148 194.915 146.594 194.915V194.921Z" fill="black"/>
<path d="M92.909 192.049C102.197 178.019 119.804 172.703 132.241 180.176C142.755 186.494 146.204 199.92 141.41 212.396C141.703 212.463 141.988 212.529 142.281 212.622C146.663 214.049 149.311 218.515 148.322 222.822C147.214 227.667 142.142 230.667 137.111 229.505C134.895 228.994 133.077 227.747 131.837 226.121C122.145 234.675 108.683 237.011 98.6154 230.965C86.1784 223.493 83.6283 206.072 92.909 192.042V192.049Z" fill="white"/>
<path d="M111.199 235.04C106.621 235.04 102.162 233.892 98.2395 231.536C85.4959 223.884 82.8413 206.012 92.3171 191.697C96.8948 184.781 103.598 179.711 111.178 177.421C118.808 175.119 126.416 175.902 132.61 179.618C143.013 185.87 146.949 199.083 142.316 211.945C142.379 211.965 142.441 211.985 142.504 212.005C147.207 213.538 150.064 218.356 149.005 222.975C148.427 225.49 146.852 227.627 144.567 228.988C142.281 230.348 139.571 230.766 136.951 230.162C134.93 229.698 133.112 228.616 131.753 227.103C125.594 232.326 118.25 235.047 111.206 235.047L111.199 235.04ZM119.713 177.448C117.059 177.448 114.334 177.859 111.596 178.682C104.322 180.879 97.8911 185.75 93.4877 192.4C84.4229 206.098 86.8825 223.147 98.9711 230.408C108.572 236.175 121.588 234.257 131.349 225.636C131.496 225.51 131.698 225.444 131.893 225.464C132.088 225.483 132.269 225.583 132.387 225.736C133.586 227.302 135.314 228.417 137.265 228.868C139.522 229.392 141.842 229.034 143.814 227.859C145.779 226.685 147.138 224.853 147.632 222.689C148.545 218.714 146.085 214.573 142.044 213.259C141.78 213.173 141.508 213.106 141.243 213.047C141.048 213 140.881 212.881 140.79 212.715C140.693 212.549 140.679 212.35 140.748 212.171C145.549 199.687 141.891 186.759 131.865 180.74C128.235 178.556 124.075 177.455 119.713 177.455V177.448Z" fill="black"/>
<path d="M118.069 197.013C117.198 197.849 116.042 198.101 115.477 197.577C114.92 197.052 115.171 195.944 116.035 195.101C116.906 194.265 118.062 194.013 118.627 194.537C119.184 195.061 118.933 196.17 118.069 197.013Z" fill="black"/>
<path d="M105.416 189.785C104.545 190.621 103.389 190.874 102.824 190.349C102.267 189.825 102.518 188.717 103.382 187.874C104.253 187.038 105.409 186.786 105.974 187.31C106.531 187.834 106.28 188.942 105.416 189.785Z" fill="black"/>
<path d="M124.765 193.947C124.431 193.947 124.138 193.721 124.082 193.396C123.58 190.608 120.438 189.341 120.403 189.327C120.048 189.188 119.881 188.797 120.027 188.458C120.173 188.12 120.577 187.96 120.94 188.1C121.1 188.159 124.828 189.673 125.455 193.17C125.517 193.528 125.267 193.874 124.883 193.933C124.842 193.933 124.807 193.94 124.765 193.94V193.947Z" fill="black"/>
<path d="M109.569 216.405C107.026 216.405 104.88 214.838 103.312 211.819C102.058 209.396 101.612 206.908 101.598 206.801C101.556 206.562 101.654 206.324 101.849 206.178C102.044 206.025 102.309 205.992 102.546 206.078C105.834 207.352 113.582 204.97 113.659 204.943C113.84 204.89 114.028 204.903 114.195 204.983C114.363 205.063 114.488 205.209 114.537 205.381C114.606 205.607 116.265 210.996 114.14 214.161C113.331 215.369 112.098 216.099 110.475 216.332C110.168 216.378 109.862 216.398 109.562 216.398L109.569 216.405ZM103.208 207.631C103.835 210.02 105.799 215.661 110.273 215.031C111.499 214.858 112.377 214.347 112.969 213.465C114.363 211.374 113.729 207.863 113.38 206.423C111.527 206.941 106.517 208.202 103.208 207.631Z" fill="black"/>
<path d="M139.383 200.663L129.67 215.429C129.363 215.894 129.308 216.471 129.517 216.975C129.928 217.971 131.182 218.376 132.143 217.818L141.466 212.403L139.376 200.663H139.383Z" fill="black"/>
<path d="M135.85 220.586C135.746 220.586 135.648 220.566 135.544 220.519C135.195 220.36 135.056 219.962 135.223 219.637C135.293 219.491 137.042 216.126 140.651 215.734C141.034 215.694 141.376 215.953 141.424 216.318C141.466 216.683 141.194 217.008 140.811 217.055C137.975 217.36 136.491 220.187 136.477 220.214C136.359 220.446 136.108 220.586 135.85 220.586Z" fill="black"/>
<path d="M148.608 190.223C151.611 196.216 152.559 203.185 150.796 210.1L149.953 213.405C148.671 213.511 147.354 213.431 146.03 213.126C139.481 211.613 135.46 205.328 137.049 199.09C138.38 193.867 143.222 190.349 148.608 190.223Z" fill="black"/>
<path d="M106.133 198.067C105.987 198.067 105.848 198.028 105.722 197.941C105.416 197.722 105.346 197.311 105.576 197.012C109.526 191.895 110.955 187.774 109.708 185.093C108.349 182.173 104.252 181.741 104.217 181.735C103.834 181.695 103.555 181.37 103.597 181.005C103.639 180.64 103.973 180.374 104.363 180.414C104.566 180.434 109.31 180.938 110.99 184.555C112.474 187.741 111.031 192.201 106.712 197.802C106.572 197.981 106.363 198.074 106.147 198.074L106.133 198.067Z" fill="black"/>
<path d="M149.876 277.122L144.812 295.123L146.158 295.466L151.222 277.466L149.876 277.122Z" fill="white"/>
<path d="M157.735 203.603C157.951 192.008 151.353 180.753 139.766 175.152C133.69 172.212 127.106 171.249 120.814 172.012C120.598 183.607 127.197 194.862 138.784 200.463C144.859 203.403 151.444 204.366 157.735 203.603Z" fill="black"/>
<path d="M76.9676 297.477V258.44L77.6853 245.539C78.0058 239.725 75.9295 234.018 71.8883 229.644L60.3222 217.121C59.298 216.013 57.6746 215.608 56.2114 216.093C53.9609 216.836 52.9715 219.351 54.156 221.322L60.2316 231.436L43.8858 235.69L24.7879 228.523C23.0251 227.859 21.0115 228.51 20.036 230.062C19.4368 231.018 19.7922 232.259 20.8164 232.797L55.0617 250.623L42.0534 297.49H76.9607L76.9676 297.477Z" fill="white"/>
<path d="M42.0604 298.14C42.0047 298.14 41.942 298.134 41.8793 298.12C41.51 298.028 41.287 297.663 41.3846 297.311L54.2536 250.941L20.489 233.367C19.8271 233.022 19.3463 232.445 19.1512 231.755C18.9491 231.058 19.0537 230.335 19.4438 229.717C20.6004 227.879 22.9555 227.116 25.0457 227.899L43.9277 234.987L59.1796 231.018L53.5499 221.654C52.881 220.546 52.7695 219.218 53.2433 218.017C53.7171 216.816 54.7134 215.887 55.9815 215.469C57.7234 214.891 59.6255 215.369 60.8449 216.69L72.4109 229.213C76.5915 233.746 78.7166 239.559 78.3821 245.579L77.6645 258.48V297.483C77.6645 297.848 77.3509 298.147 76.9677 298.147C76.5845 298.147 76.271 297.848 76.271 297.483V258.447L76.9886 245.506C77.3021 239.831 75.3094 234.35 71.3658 230.082L59.7997 217.559C58.9567 216.65 57.6398 216.318 56.4414 216.716C55.5635 217.008 54.8737 217.645 54.5462 218.475C54.2187 219.305 54.2954 220.22 54.7622 220.984L60.8379 231.091C60.9424 231.27 60.9563 231.483 60.8797 231.675C60.7961 231.868 60.6289 232.007 60.4198 232.06L44.074 236.314C43.9277 236.354 43.7744 236.341 43.6351 236.294L24.5371 229.127C23.0809 228.582 21.4435 229.113 20.6423 230.388C20.4472 230.693 20.3984 231.051 20.4959 231.396C20.5935 231.741 20.8304 232.027 21.1578 232.193L55.4032 250.012C55.6819 250.158 55.8213 250.47 55.7446 250.762L42.7363 297.629C42.6527 297.928 42.374 298.12 42.0604 298.12V298.14Z" fill="black"/>
<path d="M35.1766 236.122L27.812 223.818C27.1291 222.683 28.0907 221.289 29.4563 221.428C31.1982 221.608 32.7798 222.47 33.8249 223.818L42.8479 234.808L35.1766 236.128V236.122Z" fill="white"/>
<path d="M35.1765 236.786C34.9326 236.786 34.6957 236.666 34.5703 236.454L27.2056 224.15C26.7597 223.406 26.7876 222.497 27.2823 221.78C27.777 221.064 28.634 220.672 29.5328 220.765C31.4628 220.964 33.2325 221.933 34.3892 223.419L43.4051 234.396C43.642 234.682 43.5863 235.1 43.2867 235.326C42.9871 235.551 42.5481 235.498 42.3112 235.213L33.2883 224.223C32.3546 223.015 30.9402 222.245 29.3934 222.086C29.0172 222.046 28.6688 222.205 28.4598 222.504C28.2508 222.809 28.2438 223.174 28.425 223.486L35.7896 235.79C35.9777 236.109 35.8663 236.513 35.5318 236.693C35.4203 236.752 35.3019 236.779 35.1904 236.779L35.1765 236.786Z" fill="black"/>
<path d="M60.95 243.091L49.7114 237.41L43.566 225.378C42.7299 223.738 41.0438 222.637 39.1277 222.484C37.8944 222.385 36.9469 223.519 37.3301 224.641L42.6115 240.277L60.9569 243.084L60.95 243.091Z" fill="white"/>
<path d="M60.9498 243.754C60.8383 243.754 60.7268 243.728 60.6223 243.674L49.3837 238C49.2513 237.934 49.1468 237.828 49.0841 237.702L42.9387 225.669C42.2141 224.243 40.73 223.28 39.0718 223.148C38.7164 223.121 38.3889 223.254 38.166 223.519C37.943 223.785 37.8803 224.123 37.9918 224.442L43.2732 240.077C43.3916 240.429 43.1896 240.801 42.8203 240.914C42.451 241.026 42.0608 240.834 41.9424 240.482L36.661 224.846C36.4102 224.103 36.5634 223.3 37.0721 222.69C37.5807 222.079 38.368 221.754 39.1832 221.82C41.3292 221.986 43.2453 223.24 44.1859 225.085L50.2337 236.925L61.2772 242.5C61.6187 242.672 61.7441 243.07 61.5699 243.396C61.4445 243.621 61.2006 243.747 60.9567 243.747L60.9498 243.754Z" fill="black"/>
<path d="M158.154 263.935C168.602 258.98 172.854 246.896 167.652 236.944C162.45 226.993 149.763 222.942 139.315 227.898C128.868 232.853 124.615 244.937 129.817 254.888C135.02 264.839 147.706 268.89 158.154 263.935Z" fill="black"/>
<path d="M154.056 220.937L149.723 207.698C149.486 206.967 148.88 206.41 148.113 206.198C147.347 205.985 146.518 206.158 145.911 206.656C144.274 207.99 143.445 210.014 143.689 212.051L144.344 217.493L142.79 219.033L143.515 212.283C143.522 212.197 143.515 212.104 143.494 212.018L140.414 201.134C140.233 200.497 139.759 199.979 139.125 199.714C138.484 199.455 137.766 199.481 137.153 199.8C135.76 200.517 134.722 201.771 134.31 203.231L134.213 203.583L131.677 198.552C131.523 198.247 131.161 198.081 130.813 198.161C129.614 198.433 127.615 199.588 126.988 202.11C126.793 202.017 126.584 201.944 126.354 201.924C125.72 201.864 125.12 202.129 124.751 202.621C123.365 204.472 122.919 206.795 123.532 208.998L124.988 214.195L122.145 224.481L109.569 230.64C104.301 233.222 100.448 237.841 98.999 243.309L85.1057 296.661C85.05 296.88 85.1057 296.482 85.2521 296.661C85.3984 296.833 85.6144 296.661 85.8443 296.661C85.8513 296.661 85.8652 296.661 85.8722 296.661H117.156C117.526 296.647 117.832 297.006 117.881 296.661L125.288 244.657L153.82 221.701C154.049 221.515 154.147 221.21 154.056 220.931V220.937Z" fill="white"/>
<path d="M117.129 297.331C117.129 297.331 117.066 297.331 117.031 297.331C116.648 297.284 116.383 296.946 116.432 296.587L123.88 244.205C123.901 244.039 123.992 243.893 124.124 243.787L152.524 220.937L148.33 208.122C148.239 207.836 148.009 207.624 147.709 207.544C147.41 207.465 147.096 207.524 146.859 207.724C145.591 208.759 144.943 210.325 145.138 211.905L145.835 217.685C145.856 217.884 145.786 218.077 145.647 218.223L142.219 221.627C141.954 221.893 141.508 221.899 141.237 221.647C140.958 221.395 140.951 220.97 141.216 220.711L144.414 217.532L143.752 212.064C143.508 210.046 144.33 208.049 145.954 206.721C146.546 206.237 147.347 206.071 148.1 206.277C148.852 206.482 149.437 207.027 149.667 207.737L154.001 220.977C154.085 221.229 154.001 221.508 153.785 221.68L125.232 244.649L117.819 296.78C117.77 297.111 117.47 297.357 117.129 297.357V297.331Z" fill="black"/>
<path d="M141.264 226.784C141.264 226.784 141.215 226.784 141.194 226.784C140.811 226.744 140.532 226.419 140.574 226.054L142.051 212.27L139.007 201.505C138.944 201.279 138.777 201.094 138.547 201.001C138.317 200.908 138.066 200.921 137.85 201.034C136.805 201.571 136.024 202.507 135.718 203.602L135.237 205.295C135.14 205.646 134.756 205.859 134.38 205.766C134.011 205.673 133.788 205.308 133.885 204.949L134.366 203.257C134.777 201.81 135.802 200.576 137.181 199.866C137.773 199.561 138.47 199.527 139.09 199.786C139.71 200.038 140.17 200.543 140.344 201.167L143.424 212.051C143.445 212.13 143.452 212.21 143.445 212.289L141.954 226.2C141.919 226.538 141.612 226.797 141.264 226.797V226.784Z" fill="black"/>
<path d="M136.046 227.494C136.046 227.494 135.976 227.494 135.948 227.487C135.565 227.434 135.3 227.096 135.356 226.737L137.411 213.172L130.625 199.706C129.74 200.111 128.054 201.273 128.249 204.226C128.27 204.591 127.984 204.909 127.594 204.929C127.211 204.949 126.876 204.677 126.855 204.306C126.528 199.268 130.771 198.233 130.813 198.226C131.133 198.153 131.461 198.299 131.6 198.585L138.749 212.774C138.812 212.893 138.833 213.026 138.812 213.159L136.728 226.923C136.68 227.255 136.38 227.494 136.039 227.494H136.046Z" fill="black"/>
<path d="M85.8371 297.33C85.7814 297.33 85.7256 297.33 85.6699 297.31C85.2936 297.224 85.0707 296.859 85.1613 296.507L99.0545 243.335C100.497 237.88 104.343 233.274 109.589 230.705L122.187 224.533L125.043 214.207L123.587 208.991C122.974 206.807 123.413 204.504 124.793 202.666C125.148 202.188 125.719 201.943 126.332 201.996C126.939 202.049 127.461 202.394 127.719 202.925L133.544 214.778C133.606 214.897 133.62 215.037 133.599 215.163L131.516 227.367C131.453 227.726 131.098 227.978 130.715 227.918C130.339 227.858 130.081 227.52 130.137 227.155L132.185 215.156L126.451 203.489C126.388 203.356 126.263 203.323 126.2 203.316C126.137 203.316 126.012 203.316 125.921 203.436C124.786 204.949 124.423 206.847 124.925 208.645L126.43 214.028C126.458 214.141 126.458 214.253 126.43 214.366L123.448 225.151C123.399 225.33 123.267 225.489 123.092 225.569L110.216 231.873C105.318 234.269 101.744 238.563 100.392 243.647L86.499 296.819C86.4224 297.118 86.1367 297.323 85.8232 297.323L85.8371 297.33Z" fill="black"/>
<path d="M78.3611 208.261C78.3611 209.575 77.2393 210.643 75.8598 210.643C74.4802 210.643 73.3584 209.575 73.3584 208.261C73.3584 206.947 74.4802 205.878 75.8598 205.878C77.2393 205.878 78.3611 206.947 78.3611 208.261Z" fill="white"/>
<path d="M75.86 211.307C74.0972 211.307 72.6619 209.94 72.6619 208.261C72.6619 206.582 74.0972 205.215 75.86 205.215C77.6227 205.215 79.0581 206.582 79.0581 208.261C79.0581 209.94 77.6227 211.307 75.86 211.307ZM75.86 206.535C74.8636 206.535 74.0554 207.305 74.0554 208.254C74.0554 209.203 74.8636 209.973 75.86 209.973C76.8563 209.973 77.6645 209.203 77.6645 208.254C77.6645 207.305 76.8563 206.535 75.86 206.535Z" fill="black"/>
<path d="M73.5189 197.988C73.5189 200.357 71.5053 202.282 69.0109 202.282C66.5165 202.282 64.5029 200.357 64.5029 197.988C64.5029 195.618 66.5165 193.694 69.0109 193.694C71.5053 193.694 73.5189 195.618 73.5189 197.988Z" fill="white"/>
<path d="M69.0112 202.939C66.1405 202.939 63.8064 200.716 63.8064 197.981C63.8064 195.247 66.1405 193.024 69.0112 193.024C71.8818 193.024 74.2159 195.247 74.2159 197.981C74.2159 200.716 71.8818 202.939 69.0112 202.939ZM69.0112 194.358C66.9139 194.358 65.1999 195.984 65.1999 197.988C65.1999 199.992 66.907 201.618 69.0112 201.618C71.1154 201.618 72.8224 199.992 72.8224 197.988C72.8224 195.984 71.1154 194.358 69.0112 194.358Z" fill="black"/>
<path d="M77.6229 160.345C76.8007 154.233 70.941 149.899 64.517 150.669C63.4231 150.802 62.3919 151.08 61.4304 151.465C57.2777 146.01 50.2127 142.818 42.6947 143.72C35.3788 144.603 29.4912 149.142 26.7878 155.168C24.8857 154.857 22.9069 154.803 20.8933 155.042C9.92646 156.363 2.15767 165.893 3.54421 176.339C4.93074 186.785 14.9361 194.185 25.903 192.864C26.8924 192.745 27.8539 192.559 28.7875 192.313C30.3552 194.683 33.2607 196.109 36.3682 195.738C38.5142 195.479 40.3397 194.417 41.566 192.904C44.0116 196.003 48.0876 197.808 52.4144 197.291C57.3056 196.7 61.1029 193.322 62.2874 189.042C65.0814 190.283 68.2655 190.82 71.5472 190.429C80.814 189.314 87.3844 181.257 86.2139 172.424C85.5101 167.121 82.1797 162.747 77.6229 160.345Z" fill="white"/>
<path d="M50.9581 198.041C47.3698 198.041 43.9209 196.548 41.545 193.94C40.2003 195.294 38.4166 196.156 36.4517 196.395C33.3651 196.767 30.2924 195.473 28.4809 193.077C27.6517 193.276 26.8156 193.429 25.9865 193.528C14.6643 194.882 4.28267 187.217 2.85433 176.426C1.41902 165.635 9.47348 155.746 20.8027 154.386C22.656 154.16 24.5233 154.18 26.3628 154.432C29.3449 148.254 35.5181 143.913 42.611 143.064C49.9409 142.181 57.194 145.088 61.6672 150.669C62.573 150.344 63.4997 150.125 64.4263 150.019C71.1082 149.222 77.2326 153.642 78.2638 159.934C83.0018 162.555 86.2207 167.168 86.9105 172.344C87.5028 176.791 86.2347 181.191 83.3501 184.728C80.4656 188.265 76.306 190.528 71.6377 191.086C68.6068 191.451 65.5411 191.059 62.7263 189.951C61.2143 194.265 57.2846 197.371 52.4979 197.948C51.9823 198.008 51.4667 198.041 50.9581 198.041ZM41.5659 192.241C41.7819 192.241 41.9909 192.34 42.1163 192.506C44.4992 195.519 48.408 197.105 52.3237 196.634C56.8108 196.097 60.4548 193.05 61.6115 188.876C61.6672 188.684 61.7996 188.531 61.9877 188.445C62.1758 188.358 62.3918 188.358 62.5799 188.445C65.353 189.679 68.4257 190.137 71.4635 189.772C75.7625 189.254 79.5946 187.177 82.2493 183.912C84.9039 180.653 86.0675 176.598 85.524 172.51C84.876 167.646 81.7964 163.312 77.2814 160.929C77.0863 160.83 76.9539 160.644 76.9261 160.432C76.1527 154.691 70.6274 150.61 64.5936 151.333C63.6181 151.452 62.6357 151.705 61.6881 152.083C61.3885 152.202 61.0401 152.109 60.852 151.857C56.7063 146.402 49.7806 143.535 42.7713 144.378C35.9919 145.194 30.1043 149.428 27.4218 155.428C27.2964 155.713 26.9829 155.872 26.6624 155.819C24.7881 155.514 22.872 155.474 20.9699 155.7C10.4141 156.974 2.9031 166.192 4.2339 176.26C5.5647 186.321 15.2496 193.482 25.8123 192.208C26.739 192.095 27.6796 191.916 28.5993 191.67C28.8989 191.59 29.2125 191.71 29.3727 191.955C30.8429 194.179 33.5532 195.406 36.2775 195.075C38.1657 194.849 39.8449 193.933 41.0085 192.493C41.1409 192.327 41.3429 192.234 41.5589 192.234L41.5659 192.241Z" fill="black"/>
<path d="M20.907 174.183L20.7119 181.583L25.9515 175.663L31.5812 177.143L27.7003 171.78L29.4492 166.046L24.0145 168.82L19.7364 164.195L20.1266 170.851L13.9116 173.811L20.907 174.183Z" fill="black"/>
<path d="M37.3711 173.147L41.5655 170.26L40.402 162.495L46.6936 168.707L51.8217 166.046L49.0208 172.257L53.4521 176.034L47.1605 175.589L45.76 181.582L43.1959 174.255L37.3711 173.147Z" fill="black"/>
<path d="M56.2463 174.255L59.974 170.26L58.5735 162.495L63.2348 167.599L70.697 164.712L68.5998 170.041L74.6545 173.591L67.6661 175.363L65.332 182.026L61.8413 175.808L56.2463 174.255Z" fill="black"/>
<path d="M355.574 252.727V286.901C355.574 303.284 343.479 316.563 328.561 316.563H271.599C256.68 316.563 244.586 303.284 244.586 286.901V252.727H223.403V291.428C223.403 301.616 227.088 311.391 233.654 318.602C240.129 325.714 248.384 335.251 257.283 338.993V354.262H343.199V339.939C351.117 337.255 358.391 326.983 363.541 320.158C370.107 312.954 373.793 303.179 373.793 292.983V252.734H355.574V252.727Z" fill="white"/>
<path d="M343.199 354.963H257.276C256.89 354.963 256.575 354.648 256.575 354.262V339.456C248.292 335.798 240.633 327.347 234.453 320.529L233.129 319.072C226.409 311.686 222.702 301.869 222.702 291.428V252.727C222.702 252.341 223.017 252.026 223.403 252.026H244.593C244.978 252.026 245.293 252.341 245.293 252.727V286.901C245.293 302.871 257.094 315.862 271.606 315.862H328.568C343.073 315.862 354.88 302.871 354.88 286.901V252.727C354.88 252.341 355.195 252.026 355.581 252.026H373.8C374.185 252.026 374.5 252.341 374.5 252.727V292.976C374.5 303.417 370.794 313.235 364.067 320.62L363.009 322.029C358.047 328.637 351.292 337.641 343.907 340.423V354.255C343.907 354.641 343.591 354.956 343.206 354.956L343.199 354.963ZM257.983 353.561H342.498V339.939C342.498 339.638 342.687 339.372 342.975 339.274C350.136 336.849 356.926 327.803 361.88 321.195L362.981 319.73C369.511 312.555 373.085 303.074 373.085 292.983V253.434H356.268V286.908C356.268 303.649 343.837 317.271 328.554 317.271H271.599C256.316 317.271 243.885 303.649 243.885 286.908V253.434H224.103V291.435C224.103 301.525 227.677 311.006 234.173 318.133L235.497 319.59C241.685 326.415 249.393 334.915 257.556 338.349C257.815 338.461 257.983 338.713 257.983 338.993V353.561Z" fill="black"/>
<path d="M235.385 192.289H361.159C364.571 192.289 367.339 195.057 367.339 198.469V282.326C367.339 285.738 364.571 288.506 361.159 288.506H235.385C231.973 288.506 229.205 285.738 229.205 282.326V198.469C229.205 195.057 231.973 192.289 235.385 192.289Z" fill="white"/>
<path d="M361.159 289.2H235.386C231.595 289.2 228.504 286.117 228.504 282.319V198.47C228.504 194.672 231.595 191.588 235.386 191.588H361.159C364.95 191.588 368.04 194.672 368.04 198.47V282.326C368.04 286.117 364.957 289.207 361.159 289.207V289.2ZM235.386 192.99C232.365 192.99 229.906 195.449 229.906 198.47V282.326C229.906 285.346 232.365 287.805 235.386 287.805H361.159C364.179 287.805 366.639 285.346 366.639 282.326V198.47C366.639 195.449 364.179 192.99 361.159 192.99H235.386Z" fill="black"/>
<path d="M237.102 201.924C235.484 201.924 234.166 200.607 234.166 198.988C234.166 197.37 235.484 196.052 237.102 196.052C238.721 196.052 240.038 197.37 240.038 198.988C240.038 200.607 238.721 201.924 237.102 201.924ZM237.102 197.461C236.254 197.461 235.568 198.147 235.568 198.995C235.568 199.843 236.254 200.53 237.102 200.53C237.95 200.53 238.637 199.843 238.637 198.995C238.637 198.147 237.95 197.461 237.102 197.461Z" fill="black"/>
<path d="M244.621 201.924C243.002 201.924 241.685 200.607 241.685 198.988C241.685 197.37 243.002 196.052 244.621 196.052C246.239 196.052 247.557 197.37 247.557 198.988C247.557 200.607 246.239 201.924 244.621 201.924ZM244.621 197.461C243.773 197.461 243.086 198.147 243.086 198.995C243.086 199.843 243.773 200.53 244.621 200.53C245.469 200.53 246.155 199.843 246.155 198.995C246.155 198.147 245.469 197.461 244.621 197.461Z" fill="black"/>
<path d="M252.14 201.924C250.521 201.924 249.204 200.607 249.204 198.988C249.204 197.37 250.521 196.052 252.14 196.052C253.758 196.052 255.076 197.37 255.076 198.988C255.076 200.607 253.758 201.924 252.14 201.924ZM252.14 197.461C251.292 197.461 250.605 198.147 250.605 198.995C250.605 199.843 251.292 200.53 252.14 200.53C252.988 200.53 253.674 199.843 253.674 198.995C253.674 198.147 252.988 197.461 252.14 197.461Z" fill="black"/>
<path d="M288.579 302.252C289.496 296.63 285.681 291.329 280.058 290.412C274.436 289.496 269.135 293.31 268.218 298.933C267.302 304.555 271.116 309.856 276.739 310.773C282.361 311.69 287.662 307.875 288.579 302.252Z" fill="black"/>
<path d="M299.11 311C312.639 311 323.607 300.032 323.607 286.502C323.607 272.973 312.639 262.005 299.11 262.005C285.58 262.005 274.612 272.973 274.612 286.502C274.612 300.032 285.58 311 299.11 311Z" fill="black"/>
<path d="M301.941 303.173C303.512 296.569 299.432 289.942 292.828 288.372C286.224 286.801 279.597 290.881 278.027 297.485C276.456 304.088 280.536 310.715 287.14 312.286C293.743 313.857 300.37 309.777 301.941 303.173Z" fill="black"/>
<path d="M322.446 303.169C324.017 296.565 319.937 289.938 313.333 288.367C306.73 286.797 300.103 290.877 298.532 297.48C296.961 304.084 301.041 310.711 307.645 312.282C314.249 313.853 320.875 309.773 322.446 303.169Z" fill="black"/>
<path d="M287.66 290.098C288.554 284.472 284.718 279.186 279.092 278.292C273.466 277.398 268.18 281.234 267.286 286.86C266.392 292.486 270.228 297.772 275.854 298.666C281.48 299.56 286.766 295.724 287.66 290.098Z" fill="black"/>
<path d="M320.449 310.772C326.071 309.855 329.886 304.555 328.969 298.932C328.052 293.31 322.751 289.495 317.129 290.412C311.507 291.328 307.692 296.629 308.609 302.252C309.525 307.874 314.826 311.689 320.449 310.772Z" fill="black"/>
<path d="M321.347 298.662C326.973 297.768 330.809 292.482 329.915 286.856C329.021 281.23 323.736 277.394 318.109 278.288C312.483 279.182 308.647 284.468 309.542 290.094C310.436 295.72 315.721 299.556 321.347 298.662Z" fill="black"/>
<path d="M310.419 316.563C310.468 316.15 310.496 315.73 310.496 315.302V283.419H288.129V315.302C288.129 315.73 288.157 316.15 288.206 316.563H279.685C283.07 323.606 290.266 328.469 298.598 328.469C306.929 328.469 314.133 323.606 317.51 316.563H310.419Z" fill="white"/>
<path d="M298.598 329.17C290.315 329.17 282.642 324.342 279.048 316.865C278.942 316.648 278.956 316.395 279.083 316.185C279.209 315.982 279.433 315.856 279.678 315.856H287.435C287.428 315.667 287.421 315.478 287.421 315.295V283.412C287.421 283.027 287.737 282.711 288.122 282.711H310.489C310.875 282.711 311.19 283.027 311.19 283.412V315.295C311.19 315.478 311.19 315.66 311.176 315.856H317.511C317.749 315.856 317.973 315.982 318.106 316.185C318.232 316.388 318.246 316.648 318.141 316.865C314.553 324.342 306.881 329.17 298.591 329.17H298.598ZM280.834 317.264C284.373 323.683 291.226 327.768 298.598 327.768C305.97 327.768 312.823 323.683 316.368 317.264H310.426C310.23 317.264 310.034 317.18 309.901 317.033C309.767 316.886 309.704 316.683 309.725 316.487C309.775 316.059 309.796 315.674 309.796 315.302V284.12H288.83V315.302C288.83 315.667 288.851 316.052 288.9 316.487C288.921 316.683 288.858 316.886 288.725 317.033C288.592 317.18 288.402 317.264 288.199 317.264H280.827H280.834Z" fill="black"/>
<path d="M321.567 286.727C320.712 286.727 319.906 286.958 319.213 287.351C318.085 277.533 309.746 269.903 299.62 269.903C289.495 269.903 281.514 277.211 280.105 286.727C280.049 286.727 279.993 286.72 279.93 286.72C277.295 286.72 275.158 288.857 275.158 291.492C275.158 294.127 277.295 296.264 279.93 296.264C280.294 296.264 280.652 296.222 280.995 296.138C283.686 303.832 291.001 309.347 299.613 309.347C308.225 309.347 316.137 303.369 318.54 295.185C319.36 295.858 320.418 296.264 321.56 296.264C324.195 296.264 326.332 294.127 326.332 291.492C326.332 288.857 324.195 286.72 321.56 286.72L321.567 286.727Z" fill="white"/>
<path d="M299.613 310.061C291.141 310.061 283.553 304.813 280.539 296.943C277.253 297.322 274.457 294.722 274.457 291.506C274.457 288.633 276.685 286.264 279.509 286.047C281.226 276.405 289.761 269.209 299.62 269.209C309.48 269.209 318.183 276.503 319.773 286.334C320.348 286.131 320.957 286.033 321.567 286.033C324.587 286.033 327.04 288.486 327.04 291.506C327.04 294.526 324.587 296.978 321.567 296.978C320.642 296.978 319.731 296.74 318.925 296.299C316.108 304.448 308.302 310.061 299.613 310.061ZM280.995 295.451C281.289 295.451 281.556 295.633 281.654 295.92C284.323 303.537 291.534 308.66 299.613 308.66C307.693 308.66 315.506 303.04 317.867 294.995C317.93 294.771 318.105 294.596 318.337 294.526C318.561 294.456 318.806 294.505 318.988 294.652C319.71 295.248 320.628 295.57 321.567 295.57C323.816 295.57 325.638 293.741 325.638 291.499C325.638 289.256 323.809 287.427 321.567 287.427C320.866 287.427 320.173 287.61 319.556 287.96C319.353 288.079 319.101 288.079 318.89 287.974C318.68 287.869 318.54 287.666 318.512 287.427C317.405 277.835 309.283 270.603 299.62 270.603C289.957 270.603 282.165 277.582 280.799 286.832C280.75 287.182 280.462 287.434 280.077 287.427H279.979C277.681 287.427 275.859 289.249 275.859 291.492C275.859 294.035 278.192 296.067 280.841 295.458C280.897 295.444 280.946 295.444 280.995 295.444V295.451Z" fill="black"/>
<path d="M299.109 262.005C290.048 262.005 282.144 266.924 277.905 274.24C280.581 276.384 283.98 277.666 287.673 277.666C296.194 277.666 303.124 270.848 303.313 262.369C301.947 262.131 300.545 262.005 299.109 262.005Z" fill="black"/>
<path d="M301.485 291.625C299.474 291.625 295.865 290.742 295.41 290.623C295.031 290.532 294.807 290.146 294.898 289.775C294.989 289.397 295.375 289.165 295.746 289.264C297.61 289.726 300.945 290.392 301.962 290.189C302.347 290.111 302.711 290.357 302.788 290.735C302.865 291.113 302.62 291.485 302.242 291.562C302.032 291.604 301.772 291.625 301.485 291.625Z" fill="black"/>
<path d="M294.646 279.923C294.646 281.037 293.882 281.941 292.936 281.941C291.99 281.941 291.226 281.037 291.226 279.923C291.226 278.809 291.99 277.905 292.936 277.905C293.882 277.905 294.646 278.809 294.646 279.923Z" fill="black"/>
<path d="M311.428 279.923C311.428 281.037 310.664 281.941 309.718 281.941C308.772 281.941 308.009 281.037 308.009 279.923C308.009 278.809 308.772 277.905 309.718 277.905C310.664 277.905 311.428 278.809 311.428 279.923Z" fill="black"/>
<path d="M288.054 211.449L256.068 211.84C252.005 211.89 248.751 215.224 248.801 219.287L249.192 251.273C249.241 255.336 252.575 258.59 256.638 258.54L288.624 258.149C292.688 258.1 295.941 254.766 295.892 250.702L295.501 218.716C295.451 214.653 292.117 211.4 288.054 211.449Z" fill="#2E85EC"/>
<path d="M271.564 226.337C271.606 230.058 268.628 233.106 264.914 233.155C261.193 233.197 258.145 230.219 258.096 226.505C258.054 222.784 261.032 219.736 264.746 219.687C268.467 219.645 271.515 222.623 271.564 226.337Z" fill="white"/>
<path d="M249.189 251.269L249.098 244.01L252.322 240.702C254.704 238.257 258.621 238.208 261.067 240.597C263.379 242.853 267.086 242.811 269.342 240.499L282.011 227.522C285.018 224.438 289.958 224.382 293.041 227.388L295.634 229.918L295.886 250.709C295.935 254.773 292.684 258.101 288.619 258.15L256.631 258.536C252.567 258.585 249.238 255.333 249.189 251.269Z" fill="black"/>
<path d="M238.188 223.752C237.915 223.478 237.571 223.331 237.221 223.282C238.454 221.748 238.223 219.505 236.696 218.258C235.981 217.676 234.937 217.782 234.355 218.496L234.341 218.51L234.418 218.139C234.839 216.205 233.605 214.292 231.664 213.871C230.767 213.675 229.877 214.25 229.688 215.147L229.1 217.859C228.462 216.857 227.348 216.184 226.073 216.184C225.155 216.184 224.405 216.927 224.405 217.845V252.888H228.686L232.743 240.948C233.437 238.909 233.157 236.708 232.064 234.935L238.181 228.818C239.583 227.417 239.583 225.146 238.181 223.745L238.188 223.752Z" fill="white"/>
<path d="M228.693 253.596H224.412C224.026 253.596 223.711 253.281 223.711 252.895V217.852C223.711 216.549 224.769 215.49 226.079 215.49C227.046 215.49 227.964 215.813 228.707 216.394L229.008 215.007C229.142 214.39 229.506 213.858 230.039 213.521C230.571 213.178 231.202 213.066 231.818 213.199C233.773 213.62 235.133 215.322 235.203 217.235C235.273 217.221 235.336 217.214 235.406 217.207C236.037 217.144 236.653 217.326 237.137 217.726C238.7 219.008 239.127 221.187 238.272 222.939C238.419 223.03 238.559 223.142 238.685 223.269C240.36 224.943 240.36 227.662 238.685 229.337L232.947 235.076C233.935 236.961 234.11 239.161 233.416 241.2L229.359 253.141C229.261 253.428 228.994 253.617 228.693 253.617V253.596ZM225.112 252.195H228.196L232.092 240.731C232.708 238.916 232.484 236.94 231.475 235.307C231.307 235.034 231.349 234.676 231.573 234.445L237.69 228.328C238.819 227.2 238.819 225.371 237.69 224.243C237.501 224.053 237.284 223.99 237.13 223.976C236.878 223.941 236.66 223.78 236.569 223.542C236.471 223.304 236.513 223.037 236.674 222.841C237.662 221.608 237.473 219.793 236.254 218.798C236.058 218.637 235.806 218.56 235.546 218.588C235.287 218.616 235.063 218.735 234.895 218.938C234.691 219.19 234.334 219.274 234.04 219.134C233.745 218.994 233.584 218.679 233.654 218.363L233.731 217.992C234.068 216.436 233.073 214.895 231.517 214.559C231.265 214.502 231.006 214.551 230.788 214.692C230.571 214.832 230.424 215.049 230.368 215.301L229.779 218.013C229.716 218.293 229.499 218.504 229.219 218.553C228.938 218.602 228.658 218.476 228.504 218.237C227.971 217.389 227.06 216.885 226.072 216.885C225.54 216.885 225.105 217.319 225.105 217.845V252.188L225.112 252.195Z" fill="black"/>
<path d="M227.144 227.655C227.095 227.655 227.046 227.655 226.997 227.641C226.618 227.557 226.38 227.185 226.457 226.807L228.636 216.695C228.721 216.317 229.092 216.079 229.47 216.156C229.849 216.24 230.087 216.611 230.01 216.99L227.831 227.101C227.761 227.431 227.466 227.655 227.144 227.655Z" fill="black"/>
<path d="M224.377 231.397C224.222 231.397 224.061 231.348 223.935 231.236C223.634 230.99 223.592 230.549 223.837 230.248L233.808 218.048C234.054 217.747 234.495 217.705 234.796 217.95C235.098 218.195 235.14 218.637 234.894 218.938L224.923 231.138C224.783 231.306 224.58 231.397 224.384 231.397H224.377Z" fill="black"/>
<path d="M229.793 237.22L238.181 228.832C239.582 227.431 239.582 225.161 238.181 223.759C237.529 223.107 236.478 223.107 235.826 223.759L227.508 232.077L229.786 237.227L229.793 237.22Z" fill="white"/>
<path d="M229.793 237.921C229.61 237.921 229.435 237.851 229.295 237.717C229.022 237.444 229.022 237.003 229.295 236.729L237.69 228.342C238.818 227.214 238.818 225.385 237.69 224.256C237.325 223.892 236.688 223.892 236.33 224.256L228.013 232.574C227.74 232.847 227.298 232.847 227.025 232.574C226.752 232.301 226.752 231.859 227.025 231.586L235.342 223.268C236.232 222.371 237.795 222.371 238.685 223.268C240.36 224.943 240.36 227.662 238.685 229.337L230.29 237.724C230.15 237.865 229.975 237.928 229.793 237.928V237.921Z" fill="black"/>
<path d="M358.405 223.752C358.678 223.479 359.021 223.331 359.372 223.282C358.138 221.748 358.37 219.505 359.897 218.258C360.612 217.677 361.656 217.782 362.238 218.496L362.252 218.51L362.175 218.139C361.754 216.205 362.987 214.292 364.928 213.872C365.825 213.675 366.715 214.25 366.905 215.147L367.493 217.859C368.131 216.857 369.245 216.184 370.52 216.184C371.438 216.184 372.188 216.927 372.188 217.845V252.888H367.907L363.849 240.948C363.156 238.909 363.436 236.708 364.529 234.936L358.412 228.818C357.01 227.417 357.01 225.146 358.412 223.745L358.405 223.752Z" fill="white"/>
<path d="M372.181 253.596H367.899C367.598 253.596 367.332 253.407 367.234 253.119L363.176 241.179C362.483 239.147 362.658 236.946 363.646 235.054L357.907 229.315C356.232 227.641 356.232 224.922 357.907 223.247C358.033 223.121 358.173 223.009 358.32 222.918C357.465 221.166 357.886 218.987 359.456 217.704C359.946 217.305 360.556 217.123 361.186 217.186C361.256 217.193 361.326 217.2 361.39 217.214C361.46 215.301 362.819 213.598 364.774 213.178C366.049 212.904 367.311 213.717 367.584 214.993L367.885 216.38C368.628 215.798 369.546 215.476 370.513 215.476C371.816 215.476 372.881 216.534 372.881 217.838V252.881C372.881 253.266 372.566 253.582 372.181 253.582V253.596ZM368.404 252.194H371.48V217.852C371.48 217.319 371.046 216.892 370.513 216.892C369.525 216.892 368.614 217.396 368.082 218.244C367.927 218.482 367.654 218.608 367.367 218.559C367.086 218.51 366.862 218.293 366.806 218.02L366.218 215.308C366.105 214.789 365.587 214.46 365.075 214.572C363.52 214.909 362.525 216.45 362.861 218.006L362.938 218.377C363.008 218.692 362.854 219.015 362.567 219.155C362.279 219.295 361.929 219.225 361.726 218.98C361.544 218.756 361.312 218.629 361.053 218.608C360.801 218.58 360.549 218.657 360.345 218.819C359.126 219.814 358.937 221.629 359.925 222.862C360.086 223.058 360.121 223.324 360.03 223.563C359.932 223.801 359.722 223.962 359.47 223.997C359.315 224.018 359.098 224.081 358.909 224.263C357.781 225.391 357.781 227.22 358.909 228.348L365.026 234.466C365.258 234.697 365.3 235.054 365.124 235.328C364.115 236.96 363.891 238.936 364.508 240.751L368.404 252.215V252.194Z" fill="black"/>
<path d="M369.448 227.655C369.126 227.655 368.831 227.431 368.761 227.101L366.575 216.99C366.491 216.611 366.736 216.24 367.114 216.156C367.493 216.079 367.864 216.317 367.948 216.695L370.135 226.807C370.219 227.185 369.973 227.557 369.595 227.641C369.546 227.655 369.497 227.655 369.448 227.655Z" fill="black"/>
<path d="M372.217 231.397C372.013 231.397 371.81 231.305 371.67 231.137L361.699 218.938C361.453 218.636 361.495 218.195 361.797 217.95C362.098 217.704 362.539 217.746 362.785 218.048L372.756 230.247C373.001 230.549 372.959 230.99 372.658 231.235C372.525 231.341 372.371 231.397 372.217 231.397Z" fill="black"/>
<path d="M366.799 237.22L358.412 228.832C357.01 227.431 357.01 225.161 358.412 223.759C359.063 223.107 360.114 223.107 360.766 223.759L369.084 232.077L366.806 237.227L366.799 237.22Z" fill="white"/>
<path d="M366.799 237.921C366.617 237.921 366.442 237.851 366.302 237.718L357.907 229.33C356.232 227.655 356.232 224.936 357.907 223.262C358.832 222.337 360.331 222.337 361.249 223.262L369.567 231.579C369.84 231.853 369.84 232.294 369.567 232.567C369.294 232.841 368.852 232.841 368.579 232.567L360.261 224.25C359.883 223.871 359.273 223.871 358.895 224.25C357.767 225.378 357.767 227.207 358.895 228.335L367.29 236.723C367.563 236.996 367.563 237.437 367.29 237.711C367.15 237.851 366.974 237.914 366.792 237.914L366.799 237.921Z" fill="black"/>
<path d="M344.831 256.483L336.416 253.75L327.993 251.01L330.733 259.433L333.466 267.856L336.423 262.096L340.921 266.588L343.57 263.939L339.071 259.447L344.831 256.483Z" fill="white"/>
<path d="M333.466 268.556C333.466 268.556 333.431 268.556 333.41 268.556C333.13 268.535 332.884 268.346 332.8 268.073L327.328 251.234C327.243 250.982 327.314 250.709 327.496 250.52C327.685 250.331 327.958 250.267 328.21 250.352L345.049 255.824C345.315 255.908 345.511 256.154 345.532 256.434C345.553 256.714 345.406 256.987 345.154 257.114L340.249 259.636L344.068 263.455C344.341 263.728 344.341 264.17 344.068 264.443L341.419 267.092C341.153 267.351 340.69 267.351 340.431 267.092L336.612 263.273L334.097 268.178C333.977 268.409 333.732 268.556 333.473 268.556H333.466ZM329.086 252.11L333.613 266.041L335.799 261.78C335.904 261.584 336.094 261.444 336.311 261.409C336.528 261.374 336.759 261.444 336.914 261.605L340.915 265.606L342.575 263.946L338.574 259.944C338.413 259.783 338.343 259.559 338.378 259.342C338.413 259.118 338.553 258.928 338.749 258.83L343.01 256.644L329.079 252.117L329.086 252.11Z" fill="black"/>
<path d="M331.531 229.126C325.876 229.126 321.28 224.529 321.28 218.874C321.28 213.219 325.876 208.622 331.531 208.622C337.186 208.622 341.783 213.219 341.783 218.874C341.783 224.529 337.179 229.126 331.531 229.126ZM331.531 210.017C326.647 210.017 322.681 213.99 322.681 218.867C322.681 223.744 326.654 227.717 331.531 227.717C336.408 227.717 340.381 223.744 340.381 218.867C340.381 213.99 336.408 210.017 331.531 210.017Z" fill="black"/>
<path d="M330.158 222.84C330.109 222.84 330.067 222.84 330.018 222.826C328.378 222.553 326.599 219.582 326.262 218.986L327.481 218.292C328.28 219.687 329.528 221.256 330.2 221.432C331.041 221.151 333.767 217.55 335.834 214.298L337.018 215.048C333.732 220.212 331.427 222.833 330.158 222.833V222.84Z" fill="black"/>
<path d="M340.543 236.12H304.189C303.804 236.12 303.489 235.804 303.489 235.419C303.489 235.033 303.804 234.718 304.189 234.718H340.543C340.928 234.718 341.244 235.033 341.244 235.419C341.244 235.804 340.928 236.12 340.543 236.12Z" fill="black"/>
<path d="M320.971 241.249H304.196C303.81 241.249 303.495 240.934 303.495 240.548C303.495 240.163 303.81 239.848 304.196 239.848H320.971C321.357 239.848 321.672 240.163 321.672 240.548C321.672 240.934 321.357 241.249 320.971 241.249Z" fill="black"/>
</g>
<defs>
<clipPath id="clip0_1_1241">
<rect width="613" height="567" fill="white"/>
</clipPath>
</defs>
</svg>
