<svg width="361" height="288" viewBox="0 0 361 288" fill="none" xmlns="http://www.w3.org/2000/svg">
<mask id="mask0_2_1961" style="mask-type:luminance" maskUnits="userSpaceOnUse" x="0" y="0" width="361" height="288">
<path d="M360.997 0H0V287.77H360.997V0Z" fill="white"/>
</mask>
<g mask="url(#mask0_2_1961)">
<path d="M77.5309 63.8236C86.4595 60.5348 91.7139 63.9135 94.553 67.3051C94.9513 67.7804 95.311 68.2815 95.6579 68.7953C94.3475 50.1417 98.6126 36.6139 108.402 28.4818C116.907 21.4289 129.792 18.5384 145.684 20.1571C157.605 21.3647 167.151 24.692 167.253 24.7306C167.536 24.8333 167.767 25.0646 167.857 25.3472C168.577 27.5183 185.522 78.8801 180.91 104.137C176.285 129.432 174.872 137.436 174.872 137.436C174.82 137.719 174.653 137.963 174.409 138.104C174.255 138.207 164.119 144.078 147.354 142.536L147.456 164.646C147.456 164.941 147.328 165.224 147.084 165.417C146.776 165.661 142.228 169.104 128.379 167.421C118.615 166.226 104.227 162.487 83.4405 153.289C83.0551 153.122 82.8238 152.724 82.8495 152.313L86.4723 102.814C79.6635 102.531 72.7262 96.7116 69.72 88.0143C66.0458 77.4027 69.4759 66.7655 77.5309 63.8108V63.8236Z" fill="white"/>
<path d="M96.4672 5.58865C104.985 6.62925 112.436 10.5989 117.921 16.3672C93.9621 20.0029 74.255 39.8128 71.0818 65.8148C70.9405 66.9582 70.8505 68.1016 70.7735 69.2321C60.997 61.8452 55.2801 49.6149 56.8731 36.5754C59.2498 17.0867 76.9656 3.21198 96.4672 5.5758V5.58865Z" fill="black"/>
<path d="M92.5618 89.787L71.1332 86.0743L61.8706 60.7531C57.2971 48.2402 60.0078 34.2114 68.9621 24.3322C78.9312 13.3481 90.9045 0.938077 93.8336 1.28494C97.1609 1.68319 136.768 0.822455 161.215 2.50539C174.974 3.44322 185.355 15.3651 184.404 29.1241L177.197 57.4257L167.074 24.3579C167.074 24.3579 142.42 45.234 106.141 38.1683L92.5618 89.7999V89.787Z" fill="black"/>
<path d="M158.299 105.936C158.196 105.936 158.094 105.936 158.004 105.897L143.821 102.518C143.127 102.351 142.703 101.658 142.87 100.964C143.037 100.27 143.731 99.8591 144.425 100.013L158.608 103.392C159.301 103.559 159.725 104.253 159.558 104.946C159.417 105.537 158.89 105.936 158.312 105.936H158.299Z" fill="black"/>
<path d="M90.5319 101.259C83.0551 103.855 74.1522 97.778 70.6578 87.6932C67.1635 77.6084 70.4009 67.3309 77.8778 64.7358C85.3546 62.1407 94.2575 68.2173 97.7519 78.3021L90.5319 101.259Z" fill="white"/>
<path d="M86.922 103.148C84.07 103.148 81.1409 102.184 78.366 100.296C74.3834 97.5852 71.2102 93.2558 69.4374 88.117C65.7118 77.377 69.3089 66.3544 77.4538 63.5281C85.5988 60.7146 95.2468 67.1509 98.9595 77.8781C99.1907 78.5461 98.831 79.2784 98.163 79.5096C97.495 79.7409 96.7627 79.3811 96.5314 78.7131C93.2683 69.322 85.0849 63.5923 78.2889 65.9433C71.4929 68.2943 68.6023 77.8652 71.8654 87.2563C73.4713 91.8683 76.2848 95.7481 79.8177 98.1504C83.2349 100.476 86.8834 101.144 90.108 100.026C90.776 99.7948 91.5083 100.155 91.7396 100.823C91.9708 101.491 91.6111 102.223 90.9431 102.454C89.6455 102.904 88.2838 103.122 86.922 103.122V103.148Z" fill="black"/>
<path d="M141.932 63.8492C141.585 66.6755 140.095 68.8209 138.592 68.6411C137.089 68.4612 136.151 66.0203 136.498 63.194C136.845 60.3677 138.335 58.2223 139.838 58.4021C141.341 58.582 142.279 61.0229 141.932 63.8492Z" fill="black"/>
<path d="M173.78 63.7594C173.433 66.5857 171.943 68.7311 170.439 68.5512C168.936 68.3714 167.999 65.9305 168.345 63.1042C168.692 60.2779 170.183 58.1324 171.686 58.3123C173.189 58.4921 174.127 60.9331 173.78 63.7594Z" fill="black"/>
<path d="M152.968 143.294C141.868 143.294 126.979 140.057 109.404 128.366C108.813 127.968 108.659 127.171 109.044 126.58C109.443 125.989 110.239 125.835 110.83 126.221C145.105 149.024 169.065 138.335 172.739 136.434C173.15 134.134 174.782 125.013 178.674 103.726C183.196 79.034 165.879 26.593 165.699 26.0663C165.481 25.3983 165.84 24.666 166.508 24.4476C167.189 24.2292 167.909 24.5889 168.127 25.257C168.846 27.4281 185.817 78.8541 181.192 104.188C176.619 129.188 175.167 137.41 175.141 137.487C175.077 137.847 174.859 138.168 174.538 138.361C173.96 138.708 166.136 143.281 152.942 143.281L152.968 143.294Z" fill="black"/>
<path d="M83.8387 153.687C83.8387 153.687 83.7744 153.687 83.7487 153.687C83.0422 153.636 82.5154 153.019 82.5668 152.313L86.2153 102.351C86.2667 101.645 86.8705 101.092 87.5899 101.169C88.2965 101.221 88.8232 101.837 88.7719 102.544L85.1234 152.505C85.072 153.186 84.5067 153.7 83.8387 153.7V153.687Z" fill="black"/>
<path d="M146.454 165.956C145.748 165.956 145.17 165.378 145.17 164.672L145.067 141.894C145.067 141.187 145.632 140.609 146.352 140.609C147.058 140.609 147.636 141.187 147.636 141.894L147.739 164.672C147.739 165.378 147.174 165.956 146.454 165.956Z" fill="black"/>
<path d="M159.815 96.1721C159.34 96.1721 158.89 95.9152 158.672 95.4655C158.351 94.836 158.608 94.0652 159.237 93.7441C164.697 90.982 169.72 87.3849 169.759 86.1901C168.114 83.3766 160.021 55.9871 159.109 52.8782C158.903 52.1973 159.301 51.4907 159.982 51.2851C160.663 51.0796 161.382 51.4778 161.575 52.1587C165.147 64.2605 170.863 83.0041 172.02 84.9953C172.264 85.4064 172.482 86.0873 172.212 86.9995C171.172 90.481 162.192 95.1444 160.406 96.0437C160.226 96.1336 160.021 96.185 159.828 96.185L159.815 96.1721Z" fill="black"/>
<path d="M78.3394 195.449L142.575 203.267C146.49 203.744 150.052 200.955 150.528 197.039L154.761 162.263C155.238 158.347 152.45 154.786 148.534 154.309L84.2987 146.491C80.3827 146.014 76.8217 148.802 76.3451 152.717L72.1119 187.494C71.6353 191.411 74.4234 194.971 78.3394 195.449Z" fill="black"/>
<path d="M297.341 286.074L235.098 170.131C217.922 152.017 187.385 143.988 158.877 150.09L52.4795 172.881C36.9733 176.208 23.4712 183.441 14.26 193.371L0 286.074C0 286.074 297.341 283.184 297.341 286.074Z" fill="black"/>
<path d="M108.453 150.758L130.165 131.488C132.554 129.368 136.215 129.561 138.361 131.938L138.644 132.246C141.264 135.149 142.305 139.145 141.406 142.947L139.748 150.026L108.453 150.758Z" fill="white"/>
<path d="M108.453 152.043C108.094 152.043 107.747 151.902 107.49 151.606C107.014 151.08 107.066 150.27 107.593 149.795L129.304 130.525C132.207 127.943 136.691 128.187 139.299 131.077L139.568 131.385C142.472 134.597 143.615 139.029 142.639 143.243L140.982 150.322C140.815 151.015 140.121 151.439 139.44 151.285C138.746 151.131 138.322 150.437 138.476 149.744L140.134 142.665C140.93 139.273 140.005 135.702 137.667 133.12L137.397 132.811C135.727 130.974 132.862 130.807 131.012 132.465L109.301 151.735C109.057 151.953 108.749 152.056 108.453 152.056V152.043Z" fill="black"/>
<path d="M84.4683 286.087L108.453 150.771L163.425 135.56L176.529 132.053C181.526 130.717 186.048 135.393 184.545 140.339C183.954 142.305 182.477 143.885 180.55 144.604L166.919 149.717L174.294 179.574C175.206 183.286 174.91 187.192 173.446 190.725L170.067 198.844C168.076 203.61 164.132 207.284 159.237 208.916L144.142 213.952L157.015 286.1H84.494L84.4683 286.087Z" fill="white"/>
<path d="M84.4682 287.372C84.3912 287.372 84.3141 287.372 84.237 287.346C83.5433 287.218 83.0679 286.55 83.1964 285.856L107.182 150.54C107.271 150.052 107.631 149.653 108.106 149.525L163.078 134.314L176.195 130.807C178.996 130.062 181.873 130.858 183.903 132.94C185.92 135.021 186.627 137.924 185.779 140.712C185.072 143.05 183.286 144.951 181 145.812L168.435 150.514L175.54 179.253C176.516 183.209 176.195 187.449 174.628 191.2L171.249 199.319C169.116 204.432 164.89 208.364 159.635 210.111L145.581 214.8L158.248 285.856C158.376 286.55 157.901 287.218 157.207 287.346C156.501 287.488 155.845 287.012 155.717 286.306L142.844 214.158C142.729 213.528 143.101 212.911 143.705 212.719L158.813 207.683C163.361 206.167 167.022 202.762 168.872 198.33L172.251 190.211C173.6 186.961 173.882 183.287 173.047 179.869L165.673 150.026C165.519 149.396 165.853 148.741 166.47 148.51L180.1 143.397C181.642 142.819 182.85 141.534 183.325 139.967C183.89 138.091 183.415 136.139 182.053 134.725C180.691 133.325 178.751 132.785 176.863 133.286L163.759 136.794L109.571 151.786L85.7272 286.306C85.6116 286.922 85.072 287.372 84.4682 287.372Z" fill="black"/>
<path d="M149.974 212.873C149.473 212.873 148.998 212.578 148.793 212.089C147.469 208.955 147.431 205.936 148.664 203.109C151.349 196.994 159.16 194.117 159.494 194.001C160.162 193.757 160.894 194.104 161.138 194.772C161.382 195.44 161.036 196.172 160.368 196.416C160.29 196.442 153.25 199.05 151.015 204.15C150.077 206.295 150.129 208.621 151.169 211.087C151.439 211.743 151.143 212.488 150.488 212.77C150.321 212.835 150.154 212.873 149.987 212.873H149.974Z" fill="black"/>
<path d="M156.334 177.775C155.82 177.775 155.332 177.467 155.139 176.953C154.882 176.298 155.203 175.553 155.871 175.283C157.349 174.705 170.414 169.785 173.805 175.219C174.178 175.823 173.998 176.619 173.394 176.992C172.791 177.377 172.007 177.184 171.621 176.581C169.836 173.729 160.869 176.092 156.809 177.685C156.655 177.75 156.501 177.775 156.347 177.775H156.334Z" fill="black"/>
<path d="M154.586 165.494C154.073 165.494 153.584 165.185 153.392 164.671C153.135 164.016 153.456 163.271 154.124 163.001C155.601 162.423 168.667 157.503 172.058 162.937C172.431 163.541 172.251 164.337 171.647 164.71C171.043 165.082 170.26 164.903 169.874 164.299C168.089 161.447 159.121 163.811 155.062 165.404C154.908 165.468 154.753 165.494 154.599 165.494H154.586Z" fill="black"/>
<path d="M150.861 153.662C150.347 153.662 149.859 153.353 149.666 152.839C149.409 152.184 149.73 151.439 150.398 151.169C151.876 150.591 164.941 145.671 168.333 151.105C168.705 151.709 168.525 152.505 167.922 152.878C167.318 153.25 166.534 153.071 166.149 152.467C164.363 149.615 155.396 151.979 151.336 153.572C151.182 153.636 151.028 153.662 150.874 153.662H150.861Z" fill="black"/>
<path d="M304.625 21.2104V10.6888C304.625 5.71702 308.659 1.68311 313.631 1.68311H345.157C349.885 1.68311 353.7 5.71702 353.7 10.6888V21.2104H304.625Z" fill="#2E85EC"/>
<path d="M345.953 2.96792H253.584C246.634 2.96792 240.995 8.6077 240.995 15.5578V127.107C240.995 134.057 246.634 139.697 253.584 139.697H324.229C330.833 139.697 336.177 134.057 336.177 127.107V13.1297H336.267V12.8728C336.267 7.52857 340.596 3.18632 345.953 3.18632V2.95508V2.96792Z" fill="white"/>
<path d="M324.229 140.982H253.584C245.928 140.982 239.71 134.751 239.71 127.107V15.5578C239.71 7.90099 245.941 1.68311 253.584 1.68311H345.954C346.66 1.68311 347.238 2.26121 347.238 2.96779V3.19904C347.238 3.90561 346.66 4.48372 345.954 4.48372C341.329 4.48372 337.552 8.24786 337.552 12.8856V13.1426C337.552 13.3096 337.526 13.4637 337.462 13.6179V127.107C337.462 134.764 331.526 140.982 324.229 140.982ZM253.584 4.25248C247.354 4.25248 242.279 9.327 242.279 15.5578V127.107C242.279 133.338 247.354 138.412 253.584 138.412H324.229C330.113 138.412 334.892 133.338 334.892 127.107V13.1297C334.892 12.9627 334.931 12.7957 334.982 12.6543C335.047 9.24992 336.678 6.21805 339.183 4.25248H253.584Z" fill="black"/>
<path d="M316.239 125.309V128.392C316.239 139.337 322.868 140.339 325.373 140.982C325.373 141.046 319.309 140.982 319.309 140.982H236.447C229.497 140.982 223.857 135.342 223.857 128.392V125.309H316.239Z" fill="#2E85EC"/>
<path d="M283.62 68.2939H257.631V70.8633H283.62V68.2939Z" fill="#2E85EC"/>
<path d="M307.015 78.6743H257.631V81.2437H307.015V78.6743Z" fill="#2E85EC"/>
<path d="M296.621 89.1191H257.631V91.6885H296.621V89.1191Z" fill="#2E85EC"/>
<path d="M281.025 102.082H257.631V104.651H281.025V102.082Z" fill="#2E85EC"/>
<path d="M310.369 29.8174L280.118 60.0675L281.935 61.8843L312.185 31.6342L310.369 29.8174Z" fill="#2E85EC"/>
<path d="M289.222 40.635C284.944 40.635 281.449 37.1535 281.449 32.8627C281.449 28.5718 284.931 25.0903 289.222 25.0903C293.513 25.0903 296.994 28.5718 296.994 32.8627C296.994 37.1535 293.513 40.635 289.222 40.635ZM289.222 27.6726C286.357 27.6726 284.019 30.0107 284.019 32.8755C284.019 35.7404 286.344 38.0785 289.222 38.0785C292.099 38.0785 294.425 35.7404 294.425 32.8755C294.425 30.0107 292.099 27.6726 289.222 27.6726Z" fill="#2E85EC"/>
<path d="M305.229 64.8382C300.951 64.8382 297.457 61.3567 297.457 57.0658C297.457 52.775 300.938 49.2935 305.229 49.2935C309.52 49.2935 313.001 52.775 313.001 57.0658C313.001 61.3567 309.52 64.8382 305.229 64.8382ZM305.229 51.8757C302.364 51.8757 300.026 54.2138 300.026 57.0787C300.026 59.9435 302.351 62.2816 305.229 62.2816C308.107 62.2816 310.432 59.9435 310.432 57.0787C310.432 54.2138 308.107 51.8757 305.229 51.8757Z" fill="#2E85EC"/>
<path d="M359.353 118.243H341.419C340.712 118.243 340.134 117.665 340.134 116.958C340.134 116.251 340.712 115.673 341.419 115.673H359.353C360.059 115.673 360.638 116.251 360.638 116.958C360.638 117.665 360.059 118.243 359.353 118.243Z" fill="black"/>
<path d="M359.353 126.889H341.419C340.712 126.889 340.134 126.311 340.134 125.604C340.134 124.897 340.712 124.319 341.419 124.319H359.353C360.059 124.319 360.638 124.897 360.638 125.604C360.638 126.311 360.059 126.889 359.353 126.889Z" fill="black"/>
<path d="M359.353 135.535H341.419C340.712 135.535 340.134 134.957 340.134 134.25C340.134 133.543 340.712 132.965 341.419 132.965H359.353C360.059 132.965 360.638 133.543 360.638 134.25C360.638 134.957 360.059 135.535 359.353 135.535Z" fill="black"/>
</g>
</svg>
