<svg width="361" height="288" viewBox="0 0 361 288" fill="none" xmlns="http://www.w3.org/2000/svg">
<mask id="mask0_2_1961" style="mask-type:luminance" maskUnits="userSpaceOnUse" x="0" y="0" width="361" height="288">
<path d="M0 0H360.997V287.77H0V0Z" fill="white"/>
</mask>
<g mask="url(#mask0_2_1961)">
<path d="M283.466 63.8236C274.538 60.5348 269.283 63.9135 266.444 67.3051C266.046 67.7804 265.686 68.2815 265.339 68.7953C266.65 50.1417 262.385 36.6139 252.595 28.4818C244.091 21.4289 231.205 18.5384 215.314 20.1571C203.392 21.3647 193.846 24.692 193.744 24.7306C193.461 24.8333 193.23 25.0646 193.14 25.3472C192.42 27.5183 175.475 78.8801 180.087 104.137C184.712 129.432 186.126 137.436 186.126 137.436C186.177 137.719 186.344 137.963 186.588 138.104C186.742 138.207 196.878 144.078 213.644 142.536L213.541 164.646C213.541 164.941 213.669 165.224 213.913 165.417C214.222 165.661 218.769 169.104 232.618 167.421C242.382 166.226 256.77 162.487 277.557 153.289C277.942 153.122 278.173 152.724 278.148 152.313L274.525 102.814C281.334 102.531 288.271 96.7116 291.277 88.0143C294.951 77.4027 291.521 66.7655 283.466 63.8108V63.8236Z" fill="white"/>
<path d="M264.53 5.58865C256.013 6.62925 248.561 10.5989 243.076 16.3672C267.035 20.0029 286.742 39.8128 289.915 65.8148C290.057 66.9582 290.147 68.1016 290.224 69.2321C300 61.8452 305.717 49.6149 304.124 36.5754C301.747 17.0867 284.032 3.21198 264.53 5.5758V5.58865Z" fill="black"/>
<path d="M268.435 89.787L289.864 86.0743L299.127 60.7531C303.7 48.2402 300.989 34.2114 292.035 24.3322C282.066 13.3481 270.093 0.938077 267.164 1.28494C263.836 1.68319 224.229 0.822455 199.782 2.50539C186.023 3.44322 175.642 15.3651 176.593 29.1241L183.8 57.4257L193.924 24.3579C193.924 24.3579 218.577 45.234 254.856 38.1683L268.435 89.7999V89.787Z" fill="black"/>
<path d="M202.698 105.936C202.801 105.936 202.904 105.936 202.993 105.897L217.176 102.518C217.87 102.351 218.294 101.658 218.127 100.964C217.96 100.27 217.266 99.8591 216.573 100.013L202.39 103.392C201.696 103.559 201.272 104.253 201.439 104.946C201.58 105.537 202.107 105.936 202.685 105.936H202.698Z" fill="black"/>
<path d="M270.465 101.259C277.942 103.854 286.845 97.7775 290.339 87.6927C293.834 77.6079 290.596 67.3304 283.119 64.7353C275.643 62.1403 266.74 68.2168 263.245 78.3016L270.465 101.259Z" fill="white"/>
<path d="M274.075 103.147C276.927 103.147 279.856 102.184 282.631 100.295C286.614 97.5847 289.787 93.2553 291.56 88.1165C295.285 77.3765 291.688 66.3539 283.543 63.5276C275.398 60.7142 265.75 67.1504 262.038 77.8776C261.806 78.5456 262.166 79.2779 262.834 79.5091C263.502 79.7404 264.235 79.3807 264.466 78.7126C267.729 69.3216 275.912 63.5919 282.708 65.9428C289.504 68.2938 292.395 77.8647 289.132 87.2558C287.526 91.8678 284.712 95.7476 281.18 98.1499C277.762 100.475 274.114 101.143 270.889 100.026C270.221 99.7943 269.489 100.154 269.258 100.822C269.026 101.49 269.386 102.222 270.054 102.454C271.352 102.903 272.713 103.122 274.075 103.122V103.147Z" fill="black"/>
<path d="M219.065 63.8492C219.412 66.6755 220.902 68.8209 222.405 68.6411C223.908 68.4612 224.846 66.0203 224.499 63.194C224.152 60.3677 222.662 58.2223 221.159 58.4021C219.656 58.582 218.718 61.0229 219.065 63.8492Z" fill="black"/>
<path d="M187.218 63.7589C187.564 66.5852 189.055 68.7306 190.558 68.5508C192.061 68.3709 192.999 65.93 192.652 63.1037C192.305 60.2774 190.815 58.1319 189.312 58.3118C187.808 58.4917 186.871 60.9326 187.218 63.7589Z" fill="black"/>
<path d="M208.029 143.294C219.129 143.294 234.019 140.057 251.593 128.366C252.184 127.968 252.338 127.171 251.953 126.58C251.555 125.989 250.758 125.835 250.167 126.221C215.892 149.024 191.932 138.335 188.258 136.434C187.847 134.134 186.215 125.013 182.323 103.726C177.801 79.034 195.118 26.593 195.298 26.0663C195.517 25.3983 195.157 24.666 194.489 24.4476C193.808 24.2292 193.089 24.5889 192.87 25.257C192.151 27.4281 175.18 78.8541 179.805 104.188C184.378 129.188 185.83 137.41 185.856 137.487C185.92 137.847 186.138 138.168 186.46 138.361C187.038 138.708 194.861 143.281 208.055 143.281L208.029 143.294Z" fill="black"/>
<path d="M277.159 153.687C277.159 153.687 277.223 153.687 277.248 153.687C277.955 153.636 278.482 153.019 278.43 152.313L274.782 102.351C274.73 101.645 274.127 101.092 273.407 101.169C272.701 101.221 272.174 101.837 272.225 102.544L275.874 152.505C275.925 153.186 276.49 153.7 277.159 153.7V153.687Z" fill="black"/>
<path d="M214.543 165.956C215.249 165.956 215.828 165.378 215.828 164.671L215.93 141.894C215.93 141.187 215.365 140.609 214.646 140.609C213.939 140.609 213.361 141.187 213.361 141.894L213.258 164.671C213.258 165.378 213.823 165.956 214.543 165.956Z" fill="black"/>
<path d="M201.182 96.1716C201.657 96.1716 202.107 95.9147 202.325 95.4651C202.647 94.8356 202.39 94.0648 201.76 93.7436C196.3 90.9815 191.277 87.3844 191.239 86.1896C192.883 83.3761 200.976 55.9866 201.889 52.8777C202.094 52.1968 201.696 51.4902 201.015 51.2847C200.334 51.0791 199.615 51.4774 199.422 52.1582C195.851 64.26 190.134 83.0036 188.978 84.9949C188.733 85.406 188.515 86.0868 188.785 86.999C189.825 90.4805 198.805 95.1439 200.591 96.0432C200.771 96.1331 200.976 96.1845 201.169 96.1845L201.182 96.1716Z" fill="black"/>
<path d="M282.658 195.449L218.423 203.267C214.507 203.744 210.946 200.955 210.469 197.039L206.236 162.263C205.759 158.347 208.547 154.786 212.463 154.309L276.699 146.491C280.615 146.014 284.176 148.802 284.652 152.717L288.885 187.494C289.362 191.411 286.574 194.971 282.658 195.449Z" fill="black"/>
<path d="M63.6563 286.074L125.899 170.131C143.076 152.017 173.613 143.988 202.12 150.09L308.518 172.88C324.024 176.208 337.526 183.44 346.737 193.371L360.997 286.074C360.997 286.074 63.6563 283.183 63.6563 286.074Z" fill="black"/>
<path d="M252.544 150.758L230.833 131.488C228.443 129.368 224.782 129.561 222.636 131.938L222.354 132.246C219.733 135.149 218.692 139.145 219.592 142.947L221.249 150.026L252.544 150.758Z" fill="white"/>
<path d="M252.544 152.043C252.904 152.043 253.25 151.901 253.507 151.606C253.983 151.079 253.931 150.27 253.405 149.794L231.693 130.524C228.79 127.942 224.306 128.186 221.699 131.077L221.429 131.385C218.525 134.597 217.382 139.029 218.358 143.243L220.016 150.321C220.183 151.015 220.876 151.439 221.557 151.285C222.251 151.131 222.675 150.437 222.521 149.743L220.863 142.664C220.067 139.273 220.992 135.701 223.33 133.119L223.6 132.811C225.27 130.974 228.135 130.807 229.985 132.464L251.696 151.734C251.94 151.953 252.248 152.056 252.544 152.056V152.043Z" fill="black"/>
<path d="M276.529 286.087L252.544 150.771L197.572 135.56L184.468 132.053C179.471 130.717 174.949 135.393 176.452 140.339C177.043 142.305 178.52 143.885 180.447 144.604L194.078 149.717L186.704 179.574C185.792 183.286 186.087 187.192 187.552 190.725L190.93 198.844C192.922 203.61 196.866 207.284 201.76 208.916L216.855 213.952L203.983 286.1H276.503L276.529 286.087Z" fill="white"/>
<path d="M276.529 287.372C276.606 287.372 276.683 287.372 276.76 287.346C277.454 287.218 277.929 286.55 277.801 285.856L253.816 150.54C253.726 150.052 253.366 149.653 252.891 149.525L197.919 134.314L184.802 130.807C182.002 130.062 179.124 130.858 177.094 132.94C175.077 135.021 174.371 137.924 175.218 140.712C175.925 143.05 177.711 144.951 179.998 145.812L192.562 150.514L185.457 179.253C184.481 183.209 184.802 187.449 186.37 191.2L189.748 199.319C191.881 204.432 196.108 208.364 201.362 210.111L215.416 214.8L202.749 285.856C202.621 286.55 203.096 287.218 203.79 287.346C204.497 287.488 205.152 287.012 205.28 286.306L218.153 214.158C218.268 213.528 217.896 212.911 217.292 212.719L202.184 207.683C197.636 206.167 193.975 202.762 192.125 198.33L188.746 190.211C187.397 186.961 187.115 183.287 187.95 179.869L195.324 150.026C195.478 149.396 195.144 148.741 194.527 148.51L180.897 143.397C179.355 142.819 178.148 141.534 177.672 139.967C177.107 138.091 177.582 136.139 178.944 134.725C180.306 133.325 182.246 132.785 184.134 133.286L197.238 136.794L251.426 151.786L275.27 286.306C275.386 286.922 275.925 287.372 276.529 287.372Z" fill="black"/>
<path d="M211.023 212.873C211.524 212.873 211.999 212.577 212.205 212.089C213.528 208.954 213.566 205.935 212.333 203.109C209.648 196.994 201.837 194.116 201.503 194.001C200.835 193.756 200.103 194.103 199.859 194.771C199.615 195.439 199.962 196.172 200.63 196.416C200.707 196.441 207.747 199.049 209.982 204.15C210.92 206.295 210.869 208.62 209.828 211.087C209.558 211.742 209.854 212.487 210.509 212.77C210.676 212.834 210.843 212.873 211.01 212.873H211.023Z" fill="black"/>
<path d="M204.664 177.775C205.177 177.775 205.666 177.467 205.858 176.953C206.115 176.298 205.794 175.553 205.126 175.283C203.649 174.705 190.583 169.785 187.192 175.219C186.819 175.823 186.999 176.619 187.603 176.992C188.207 177.377 188.99 177.184 189.376 176.581C191.161 173.729 200.129 176.092 204.188 177.685C204.342 177.75 204.497 177.775 204.651 177.775H204.664Z" fill="black"/>
<path d="M206.411 165.494C206.925 165.494 207.413 165.185 207.605 164.671C207.862 164.016 207.541 163.271 206.873 163.001C205.396 162.423 192.331 157.503 188.939 162.937C188.566 163.541 188.746 164.337 189.35 164.71C189.954 165.082 190.738 164.903 191.123 164.299C192.909 161.447 201.876 163.811 205.935 165.404C206.09 165.468 206.244 165.494 206.398 165.494H206.411Z" fill="black"/>
<path d="M210.136 153.662C210.65 153.662 211.138 153.353 211.331 152.839C211.588 152.184 211.267 151.439 210.599 151.169C209.121 150.591 196.056 145.671 192.665 151.105C192.292 151.709 192.472 152.505 193.076 152.878C193.679 153.25 194.463 153.071 194.849 152.467C196.634 149.615 205.601 151.979 209.661 153.572C209.815 153.636 209.969 153.662 210.123 153.662H210.136Z" fill="black"/>
<path d="M45.2159 122.091V121.239C45.3106 112.195 46.2576 104.998 48.0568 99.6477C49.8561 94.2973 52.4129 89.965 55.7273 86.6506C59.0417 83.3362 63.0189 80.2822 67.6591 77.4886C70.4527 75.7841 72.9621 73.7718 75.1875 71.4517C77.4129 69.0843 79.1648 66.3617 80.4432 63.2841C81.7689 60.2064 82.4318 56.7973 82.4318 53.0568C82.4318 48.4167 81.3428 44.392 79.1648 40.983C76.9867 37.5739 74.0748 34.946 70.429 33.0994C66.7831 31.2528 62.7349 30.3295 58.2841 30.3295C54.4015 30.3295 50.661 31.1345 47.0625 32.7443C43.464 34.3542 40.4574 36.8873 38.0426 40.3438C35.6278 43.8002 34.2311 48.322 33.8523 53.9091H15.9545C16.3333 45.8598 18.4167 38.9706 22.2045 33.2415C26.0398 27.5123 31.0824 23.1326 37.3324 20.1023C43.6297 17.072 50.6136 15.5568 58.2841 15.5568C66.6174 15.5568 73.8617 17.214 80.017 20.5284C86.2197 23.8428 91.0019 28.3883 94.3636 34.1648C97.7727 39.9413 99.4773 46.5227 99.4773 53.9091C99.4773 59.1174 98.6723 63.8286 97.0625 68.0426C95.5 72.2566 93.2273 76.0208 90.2443 79.3352C87.3087 82.6496 83.7576 85.5852 79.5909 88.142C75.4242 90.7462 72.0862 93.4924 69.5767 96.3807C67.0672 99.2216 65.2443 102.607 64.108 106.537C62.9716 110.467 62.3561 115.367 62.2614 121.239V122.091H45.2159ZM54.3068 164.136C50.803 164.136 47.7964 162.882 45.2869 160.372C42.7775 157.863 41.5227 154.856 41.5227 151.352C41.5227 147.848 42.7775 144.842 45.2869 142.332C47.7964 139.823 50.803 138.568 54.3068 138.568C57.8106 138.568 60.8172 139.823 63.3267 142.332C65.8362 144.842 67.0909 147.848 67.0909 151.352C67.0909 153.672 66.4991 155.803 65.3153 157.744C64.179 159.686 62.6402 161.248 60.6989 162.432C58.8049 163.568 56.6742 164.136 54.3068 164.136Z" fill="#2E85EC"/>
</g>
</svg>
