<svg width="240" height="190" viewBox="0 0 240 190" fill="none" xmlns="http://www.w3.org/2000/svg">
<path d="M140.62 104.096C134.876 94.0555 135.469 83.1618 135.469 83.1618C135.469 71.9007 154.477 57.5028 166.16 56.7744C167.952 56.2756 169.842 56 171.798 56C183.297 56 192.617 65.2858 192.617 76.7438V83.0962C193.19 86.5481 193.519 89.6258 193.815 91.7717C195.179 101.635 204.399 101.294 208.832 106.393C213.271 111.492 208.832 115.915 209.517 123.396C210.116 129.978 215.734 129.985 219.633 137.059C216.92 141.278 213.706 145.144 210.077 148.576C199.051 150.945 183.923 150.945 183.923 150.945C183.923 150.945 117.779 170.508 130.76 130.543C132.94 123.829 146.126 113.71 140.626 104.102L140.62 104.096Z" fill="black"/>
<path d="M153.851 157.888C154.911 157.888 156.005 157.868 157.118 157.835C168.36 157.494 178.351 155.453 178.45 155.434C178.806 155.362 179.036 155.013 178.964 154.659C178.891 154.305 178.542 154.082 178.187 154.147C177.792 154.226 138.808 162.081 127.968 148.963C124.378 144.612 124.28 138.312 127.685 130.24C128.514 128.272 130.517 125.962 132.637 123.514C137.3 118.127 143.109 111.426 139.75 104.194C135.021 94.0161 136.431 83.3718 136.444 83.2669C136.866 78.345 141.384 72.4847 148.543 67.5564C155.28 62.9233 163.144 59.9834 168.591 60.1212C168.953 60.1081 169.256 59.839 169.263 59.478C169.269 59.1171 168.979 58.8152 168.617 58.8087C162.828 58.6841 154.846 61.624 147.792 66.4736C140.198 71.6973 135.588 77.761 135.133 83.1159C135.074 83.5293 133.658 94.1998 138.552 104.739C141.555 111.203 136.286 117.286 131.636 122.655C129.45 125.181 127.382 127.57 126.466 129.728C122.857 138.293 123.022 145.039 126.947 149.797C131.386 155.172 140.429 157.888 153.845 157.888H153.851Z" fill="black"/>
<path d="M109 188C110.05 176.544 116.286 156.003 121.134 145.717C130.726 132.886 151.44 124 175.459 124C189.775 124 202.914 127.162 213.228 132.424C234.547 151.429 240.952 173.595 239.889 188H109Z" fill="#2E85EC"/>
<path d="M178.45 123.737C185.385 123.737 191.853 124.643 197.339 126.211C195.798 138.844 186.439 148.563 175.124 148.563C164.501 148.563 155.603 139.999 153.278 128.495C159.752 125.555 168.637 123.737 178.45 123.737Z" fill="white"/>
<path d="M216.761 131.533C216.952 131.533 217.143 131.455 217.269 131.291C217.499 131.008 217.46 130.595 217.176 130.365C213.6 127.452 211.796 125.332 210.669 118.553C210.235 115.947 210.551 113.657 210.834 111.636C211.302 108.25 211.703 105.33 208.693 102.383C206.981 100.703 204.722 99.7516 202.535 98.8329C198.59 97.1791 194.869 95.6108 193.684 90.0917C193.559 89.4946 193.42 88.8186 193.269 88.0706C192.933 86.4037 192.511 84.3234 191.978 82.1184L191.556 76.2516C191.174 70.9098 188.691 66.0339 184.569 62.5362C180.452 59.0384 175.19 57.3191 169.756 57.7127C167.899 57.844 166.062 58.2312 164.303 58.8546C163.961 58.9793 163.783 59.3534 163.901 59.6946C164.02 60.0359 164.402 60.2131 164.744 60.095C166.398 59.5109 168.117 59.15 169.849 59.0253C174.94 58.6644 179.86 60.2655 183.712 63.5402C187.559 66.8148 189.877 71.3626 190.239 76.3501L190.667 82.2694C190.667 82.3087 190.674 82.3415 190.687 82.3743C191.221 84.5793 191.642 86.6596 191.978 88.3265C192.129 89.0746 192.268 89.7571 192.399 90.3608C193.73 96.5491 198.136 98.4063 202.028 100.04C204.195 100.953 206.243 101.812 207.778 103.315C210.314 105.802 209.984 108.178 209.536 111.459C209.247 113.572 208.917 115.967 209.378 118.769C210.524 125.673 212.369 128.141 216.353 131.389C216.478 131.488 216.623 131.54 216.768 131.54L216.761 131.533Z" fill="black"/>
<path d="M158.589 104.959L183.531 98.0899L192.744 131.304L167.802 138.172L158.589 104.959Z" fill="white"/>
<path d="M163.401 122.28L158.593 104.956L174.432 100.592L181.137 105.126C179.036 112.843 172.839 119.091 163.401 122.28Z" fill="black"/>
<path d="M142.786 81.1669C142.786 69.7103 152.107 60.423 163.605 60.423C175.103 60.423 184.424 69.7103 184.424 81.1669V94.1539C184.424 105.61 175.103 114.898 163.605 114.898C152.107 114.898 142.786 105.61 142.786 94.1539V81.1669Z" fill="white"/>
<path d="M165.087 59.1237C177.561 59.1237 187.671 68.8361 187.671 80.819V85.288C178.905 90.8333 167.01 89.9013 159.298 82.4924L149.307 72.8916C148.068 71.7038 147.015 70.411 146.126 69.046C150.15 63.0743 157.138 59.1237 165.094 59.1237H165.087Z" fill="black"/>
<path d="M180.953 98.3144C184.134 99.7319 187.868 98.3144 189.297 95.1448L189.719 94.213C191.142 91.0433 189.719 87.3225 186.538 85.8984C183.357 84.4809 179.623 85.8984 178.193 89.0681L177.772 89.9999C176.349 93.1695 177.772 96.8904 180.953 98.3144Z" fill="white"/>
<path d="M145.282 90.0196C145.533 91.5486 146.534 92.6577 147.508 92.5001C148.483 92.3427 149.069 90.9711 148.819 89.4421C148.569 87.913 147.568 86.804 146.593 86.9614C145.618 87.119 145.032 88.4905 145.282 90.0196Z" fill="black"/>
<path d="M139.961 86.8105C140.145 86.8105 140.33 86.7317 140.462 86.5809C143.478 83.1159 148.958 83.9756 149.017 83.9821C149.373 84.0412 149.715 83.7983 149.774 83.444C149.834 83.0896 149.59 82.7484 149.234 82.6893C148.977 82.6433 142.971 81.6984 139.467 85.7277C139.23 86.0033 139.256 86.4168 139.533 86.653C139.658 86.758 139.809 86.8105 139.961 86.8105Z" fill="black"/>
<path d="M159.192 88.6611C159.443 90.1902 160.444 91.2991 161.418 91.1417C162.393 90.9841 162.979 89.6126 162.729 88.0835C162.479 86.5546 161.478 85.4455 160.503 85.603C159.528 85.7605 158.942 87.132 159.192 88.6611Z" fill="black"/>
<path d="M155.234 84.6778C155.379 84.6778 155.531 84.6253 155.656 84.5268C159.206 81.6065 164.468 83.3522 164.521 83.3718C164.863 83.49 165.238 83.3063 165.357 82.965C165.476 82.6238 165.291 82.2497 164.949 82.1316C164.705 82.0462 158.936 80.1234 154.813 83.5162C154.529 83.7459 154.49 84.1593 154.727 84.4416C154.859 84.599 155.043 84.6778 155.234 84.6778Z" fill="black"/>
<path d="M154.049 99.3972C154.411 99.3972 154.707 99.1019 154.707 98.741C154.707 98.3801 154.411 98.0848 154.049 98.0848C153.08 98.0848 151.361 97.8157 150.861 97.107C150.756 96.956 150.63 96.687 150.828 96.1554C151.658 93.8782 153.1 86.9221 153.159 86.6268C153.232 86.2724 153.001 85.9246 152.646 85.8524C152.29 85.7802 151.941 86.0099 151.869 86.3643C151.855 86.4365 150.393 93.5173 149.59 95.7091C149.214 96.7264 149.491 97.4417 149.787 97.8616C150.835 99.3513 153.726 99.3972 154.049 99.3972Z" fill="black"/>
<path d="M155.069 104.496C155.069 104.496 155.096 104.496 155.109 104.496C159.476 104.227 161.906 100.788 162.011 100.644C162.215 100.349 162.143 99.9353 161.847 99.7318C161.55 99.5285 161.135 99.6006 160.931 99.8959C160.905 99.9353 158.738 102.954 155.03 103.184C154.668 103.203 154.391 103.518 154.411 103.879C154.431 104.227 154.72 104.496 155.069 104.496Z" fill="black"/>
<path d="M181.947 95.1448C181.947 95.1448 181.98 95.1448 181.993 95.1448C182.356 95.1186 182.632 94.8036 182.606 94.4427C182.303 90.1706 184.832 89.0156 184.937 88.9696C185.267 88.8252 185.425 88.438 185.28 88.1099C185.135 87.7818 184.76 87.6243 184.424 87.7621C184.279 87.8212 180.92 89.278 181.289 94.5346C181.315 94.8824 181.605 95.1448 181.947 95.1448Z" fill="black"/>
<path d="M211.413 187.629H211.44C211.802 187.616 212.085 187.313 212.072 186.946L211.196 163.381C211.183 163.02 210.893 162.737 210.511 162.75C210.149 162.764 209.866 163.066 209.879 163.434L210.755 186.999C210.768 187.353 211.058 187.629 211.413 187.629Z" fill="black"/>
<path d="M75.7354 188.18H180.099C180.099 184.691 177.273 179.162 173.784 179.162H75.7354V188.18Z" fill="black"/>
<path d="M180.1 189.063C179.614 189.063 179.216 188.666 179.216 188.18C179.216 185.115 176.673 180.045 173.785 180.045H75.7358C75.25 180.045 74.8525 179.648 74.8525 179.162C74.8525 178.676 75.25 178.279 75.7358 178.279H173.785C177.892 178.279 180.983 184.285 180.983 188.18C180.983 188.666 180.585 189.063 180.1 189.063Z" fill="white"/>
<path d="M116.232 188.18H21.3366L0.483275 124.366C-1.53052 118.28 3.00052 112 9.41286 112H84.4885C88.5426 112 92.1462 114.606 93.418 118.457L116.223 188.189L116.232 188.18Z" fill="black"/>
<path d="M52.0201 157.858C55.7128 157.858 58.7063 154.864 58.7063 151.172C58.7063 147.479 55.7128 144.486 52.0201 144.486C48.3275 144.486 45.334 147.479 45.334 151.172C45.334 154.864 48.3275 157.858 52.0201 157.858Z" fill="white"/>
<path d="M52.0206 158.732C47.8517 158.732 44.4512 155.341 44.4512 151.163C44.4512 146.985 47.8428 143.594 52.0206 143.594C56.1983 143.594 59.59 146.985 59.59 151.163C59.59 155.341 56.1983 158.732 52.0206 158.732ZM52.0206 145.369C48.8232 145.369 46.2177 147.975 46.2177 151.172C46.2177 154.369 48.8232 156.975 52.0206 156.975C55.2179 156.975 57.8235 154.369 57.8235 151.172C57.8235 147.975 55.2179 145.369 52.0206 145.369Z" fill="black"/>
<path d="M223.053 188L205.969 151.963C201.402 142.83 192.667 136.4 182.598 134.748L156.012 130.385C155.827 130.359 155.65 130.385 155.491 130.465C155.376 130.217 155.173 130.023 154.882 129.961L140.909 127.02C140.785 126.993 140.662 126.993 140.547 127.02L122.785 130.765C121.248 131.092 119.967 132.152 119.367 133.6C118.766 135.049 118.907 136.7 119.764 138.025C121.531 140.763 124.648 142.238 127.881 141.876L137.835 140.772L146.88 142.044L144.442 145.374C144.336 145.515 144.283 145.683 144.274 145.851L143.514 162.65C143.435 164.443 144.769 165.997 146.544 166.192C148.911 166.448 151.261 165.803 153.168 164.381L154.193 163.613C154.246 165.282 155.527 166.695 157.214 166.881C157.558 166.916 157.894 166.934 158.229 166.934C160.243 166.934 162.204 166.289 163.829 165.061L164.712 164.399C164.977 165.414 165.702 166.307 166.77 166.748C167.609 167.084 168.475 167.243 169.332 167.243C171.884 167.243 174.348 165.821 175.656 163.383L176.68 161.466C176.804 161.581 176.954 161.67 177.131 161.696L187.5 163.251V188H187.832C187.832 188 188.154 188 188.383 188H188.401H222.267H223H223.036H223.053Z" fill="white"/>
<path d="M223.37 188.986C223.034 188.986 222.716 188.8 222.566 188.473L204.369 152.73C200.068 144.128 191.809 138.051 182.297 136.488L156.25 132.213L146.013 146.203L145.263 162.738C145.227 163.594 145.863 164.345 146.72 164.442C148.636 164.654 150.544 164.124 152.09 162.967L153.901 161.607C154.289 161.316 154.846 161.395 155.137 161.784C155.429 162.172 155.349 162.729 154.961 163.02L153.15 164.38C151.242 165.811 148.893 166.456 146.526 166.191C144.741 165.997 143.417 164.442 143.496 162.649L144.256 145.85C144.256 145.673 144.326 145.506 144.423 145.373L155.137 130.729C155.331 130.464 155.667 130.323 155.994 130.376L182.579 134.739C192.648 136.39 201.393 142.829 205.95 151.953L224.156 187.714C224.359 188.155 224.173 188.685 223.732 188.888C223.608 188.941 223.493 188.986 223.37 188.986Z" fill="black"/>
<path d="M158.229 166.943C157.894 166.943 157.549 166.925 157.213 166.89C155.456 166.695 154.131 165.185 154.175 163.419L152.833 149.808C152.815 149.587 152.868 149.375 153 149.198L162.61 136.144C162.902 135.755 163.449 135.667 163.847 135.959C164.235 136.25 164.324 136.798 164.032 137.195L154.617 149.976L155.933 163.304C155.933 163.304 155.933 163.392 155.933 163.427C155.897 164.284 156.533 165.035 157.39 165.132C159.307 165.344 161.215 164.814 162.76 163.657L164.571 162.297C164.96 162.005 165.516 162.085 165.807 162.474C166.099 162.862 166.019 163.419 165.631 163.71L163.82 165.07C162.186 166.289 160.234 166.943 158.22 166.943H158.229Z" fill="black"/>
<path d="M169.34 167.26C168.483 167.26 167.609 167.101 166.779 166.765C165.1 166.076 164.253 164.283 164.747 162.623L165.498 149.109C165.507 148.906 165.595 148.703 165.736 148.552L174.41 139.287C174.745 138.934 175.302 138.916 175.655 139.243C176.009 139.579 176.026 140.135 175.699 140.488L167.247 149.524L166.514 162.835C166.514 162.914 166.496 162.993 166.47 163.073C166.196 163.886 166.602 164.786 167.397 165.113C169.896 166.12 172.829 164.998 174.118 162.578L178.543 154.329C178.641 154.143 178.808 153.993 179.012 153.923L186.457 151.132C186.917 150.964 187.42 151.193 187.597 151.653C187.764 152.112 187.535 152.615 187.076 152.792L179.939 155.459L175.673 163.417C174.366 165.855 171.901 167.277 169.349 167.277L169.34 167.26Z" fill="black"/>
<path d="M147.541 142.132C147.541 142.132 147.462 142.132 147.418 142.132L137.843 140.789L127.889 141.893C124.656 142.246 121.538 140.771 119.772 138.042C118.915 136.726 118.774 135.074 119.375 133.617C119.975 132.169 121.256 131.109 122.793 130.782L140.555 127.037C140.67 127.01 140.802 127.01 140.917 127.037L154.89 129.978C155.367 130.075 155.676 130.543 155.57 131.02C155.473 131.497 155.005 131.798 154.528 131.7L140.74 128.803L123.164 132.513C122.183 132.716 121.397 133.37 121.009 134.297C120.62 135.225 120.717 136.24 121.256 137.079C122.66 139.252 125.124 140.418 127.695 140.135L137.755 139.023C137.825 139.023 137.905 139.023 137.976 139.023L147.656 140.383C148.142 140.453 148.477 140.895 148.407 141.381C148.345 141.822 147.965 142.14 147.532 142.14L147.541 142.132Z" fill="black"/>
<path d="M79.1445 12.8942V5.94658C79.1445 2.66366 81.7988 0 85.0702 0H105.814C108.925 0 111.435 2.66366 111.435 5.94658V12.8942H79.1445Z" fill="#2E85EC"/>
<path d="M106.338 0.848388H45.5604C40.9873 0.848388 37.2764 4.57242 37.2764 9.16168V82.8196C37.2764 87.4089 40.9873 91.1329 45.5604 91.1329H92.044C96.3889 91.1329 99.9054 87.4089 99.9054 82.8196V7.5584H99.9646V7.38874C99.9646 3.85985 102.813 0.992599 106.338 0.992599V0.839905V0.848388Z" fill="white"/>
<path d="M92.0441 91.9811H45.5605C40.5225 91.9811 36.4312 87.8668 36.4312 82.8195V9.16167C36.4312 4.10577 40.5309 0 45.5605 0H106.338C106.803 0 107.184 0.381735 107.184 0.8483V1.00099C107.184 1.46756 106.803 1.84929 106.338 1.84929C103.295 1.84929 100.81 4.33481 100.81 7.39721V7.56687C100.81 7.67715 100.793 7.77894 100.751 7.88074V82.8195C100.751 87.8753 96.8455 91.9811 92.0441 91.9811ZM45.5605 1.6966C41.4607 1.6966 38.1218 5.04738 38.1218 9.16167V82.8195C38.1218 86.9337 41.4607 90.2845 45.5605 90.2845H92.0441C95.9156 90.2845 99.0602 86.9337 99.0602 82.8195V7.55838C99.0602 7.44811 99.0855 7.33779 99.1193 7.24448C99.1616 4.99649 100.235 2.9945 101.883 1.6966H45.5605Z" fill="black"/>
<path d="M86.7862 81.6319V83.6678C86.7862 90.8953 91.148 91.557 92.7964 91.9812C92.7964 92.0236 88.8065 91.9812 88.8065 91.9812H34.284C29.7109 91.9812 26 88.2571 26 83.6678V81.6319H86.7862Z" fill="#2E85EC"/>
<path d="M48.2231 43.9845H65.3238V45.6811H48.2231V43.9845Z" fill="#2E85EC"/>
<path d="M48.2231 50.8385H80.7169V52.5351H48.2231V50.8385Z" fill="#2E85EC"/>
<path d="M73.8783 57.7354H48.2231V59.432H73.8783V57.7354Z" fill="#2E85EC"/>
<path d="M48.2231 66.2947H63.6162V67.9913H48.2231V66.2947Z" fill="#2E85EC"/>
<path d="M48.2231 13.2063H65.3238V14.9029H48.2231V13.2063Z" fill="#2E85EC"/>
<path d="M48.2231 20.0603H80.7169V21.7569H48.2231V20.0603Z" fill="#2E85EC"/>
<path d="M73.8783 26.9572H48.2231V28.6538H73.8783V26.9572Z" fill="#2E85EC"/>
<path d="M48.2231 35.5165H63.6162V37.2131H48.2231V35.5165Z" fill="#2E85EC"/>
<path d="M115.155 76.9662H103.354C102.889 76.9662 102.509 76.5845 102.509 76.1179C102.509 75.6513 102.889 75.2696 103.354 75.2696H115.155C115.62 75.2696 116 75.6513 116 76.1179C116 76.5845 115.62 76.9662 115.155 76.9662Z" fill="black"/>
<path d="M115.155 82.6752H103.354C102.889 82.6752 102.509 82.2935 102.509 81.8269C102.509 81.3604 102.889 80.9786 103.354 80.9786H115.155C115.62 80.9786 116 81.3604 116 81.8269C116 82.2935 115.62 82.6752 115.155 82.6752Z" fill="black"/>
<path d="M115.155 88.3843H103.354C102.889 88.3843 102.509 88.0026 102.509 87.536C102.509 87.0695 102.889 86.6877 103.354 86.6877H115.155C115.62 86.6877 116 87.0695 116 87.536C116 88.0026 115.62 88.3843 115.155 88.3843Z" fill="black"/>
</svg>
