<svg width="519" height="268" viewBox="0 0 519 268" fill="none" xmlns="http://www.w3.org/2000/svg">
<path d="M2 229.811C61.6104 319.715 231.588 224.742 233.281 131.859C234.975 38.9766 168.549 82.5619 204.882 140.523C233.281 185.826 322.588 177.742 366.588 138.242" stroke="#2E85EC" stroke-width="3" stroke-linecap="round"/>
<path d="M390.917 85.3445C397.23 89.5507 403.739 94.0958 410.495 99.0778C415.034 106.119 419.151 112.884 422.931 119.42C429.486 116.107 436.104 112.298 442.669 107.892C469.569 89.8631 487.911 60.6885 484.454 30.4288C454.318 24.9323 423.771 41.1158 403.847 66.5699C398.976 72.7582 394.712 79.0717 390.928 85.3556L390.917 85.3445Z" fill="white" stroke="black" stroke-width="2.17" stroke-linecap="round" stroke-linejoin="round"/>
<path d="M430.873 128.753C432.878 133.655 439.682 134.229 442.073 129.674C447.473 119.383 451.443 108.458 453.712 97.1074C453.246 97.456 452.813 97.8167 452.347 98.1653C443.294 104.895 434.286 110.894 425.46 116.306C427.402 120.536 429.206 124.685 430.873 128.753Z" fill="black"/>
<path d="M414.558 57.6442C414.94 57.2064 415.332 56.801 415.714 56.3633C404.161 57.8361 392.918 61.0244 382.216 65.6739C377.478 67.7319 377.579 74.5049 382.375 76.8378C386.346 78.7681 390.389 80.8403 394.504 83.0541C400.542 74.6758 407.192 66.1686 414.569 57.6553L414.558 57.6442Z" fill="black"/>
<path d="M415.067 95.0369C413.257 93.8976 411.435 92.7891 409.656 91.7036C411.456 92.7901 413.257 93.8976 415.067 95.0369Z" fill="#2E85EC"/>
<path d="M415.027 95.0166C416.046 96.8917 417.022 98.7646 417.999 100.617C417.043 98.7657 416.056 96.9027 415.027 95.0166Z" fill="#2E85EC"/>
<path d="M399.203 109.8L433.759 77.5303" stroke="#2E85EC" stroke-width="2.17"/>
<path d="M378.151 129.458L389.739 118.637" stroke="#2E85EC" stroke-width="2.17"/>
<path d="M390.845 132.49L402.422 121.679" stroke="#2E85EC" stroke-width="2.17"/>
<path d="M376.004 116.597L387.581 105.786" stroke="#2E85EC" stroke-width="2.17"/>
<path d="M465.997 53.6402C464.017 55.6217 460.834 55.643 458.887 53.6972C456.94 51.7514 456.963 48.5644 458.939 46.5872C460.915 44.6099 464.102 44.5844 466.049 46.5302C467.996 48.476 467.973 51.6629 465.997 53.6402Z" fill="#2E85EC"/>
<path d="M453.859 65.7862C451.879 67.7677 448.696 67.789 446.749 65.8432C444.802 63.8974 444.825 60.7104 446.801 58.7332C448.777 56.7559 451.964 56.7304 453.911 58.6762C455.858 60.622 455.835 63.8089 453.859 65.7862Z" fill="#2E85EC"/>
<path d="M455.877 54.1942L454.25 47.9592C453.298 44.3033 448.727 43.1146 446.027 45.817C443.326 48.5194 444.518 53.0892 448.175 54.0385L454.411 55.6614C455.291 55.8927 456.109 55.0748 455.881 54.19" fill="#2E85EC"/>
<path d="M456.918 58.1757L458.545 64.4107C459.497 68.0666 464.067 69.2553 466.768 66.553C469.468 63.8506 468.277 59.2807 464.62 58.3314L458.384 56.7086C457.503 56.4773 456.686 57.2951 456.914 58.1799" fill="#2E85EC"/>
</svg>
