<svg width="64" height="64" viewBox="0 0 64 64" fill="none" xmlns="http://www.w3.org/2000/svg">
<g clip-path="url(#clip0_19_221)">
<path fill-rule="evenodd" clip-rule="evenodd" d="M39.402 62.0035L55.953 38.0479L27.5734 35.5354L31.8253 45.0496C27.7448 44.6353 23.9447 43.3229 20.9304 41.3644C17.019 38.8228 14.6162 35.3396 14.2687 31.4532C14.2837 27.0915 15.2104 23.5201 16.7027 20.6324C20.4306 22.907 24.6921 24.6309 28.8548 25.6749C34.3536 27.054 40.0867 27.3467 44.3635 25.7653C46.5502 24.9568 48.5171 23.5935 49.7383 21.4703C50.9702 19.3284 51.2453 16.7578 50.6776 13.9382L50.6528 13.8151L50.6162 13.6953C49.3589 9.5786 45.7506 7.01089 41.7263 5.79015C37.6555 4.55529 32.7463 4.54028 28.0246 5.84239C23.4798 7.09573 18.9845 9.60464 15.5277 13.5926C12.1318 10.687 10.2815 7.48906 10.2815 4.33597L5.3434 4.385C5.3434 9.76073 8.52152 14.3084 12.6395 17.7422C10.5594 21.5255 9.33041 26.1428 9.33041 31.6094L9.33041 31.7132L9.3387 31.8165C9.81309 37.7314 13.412 42.4979 18.2576 45.6464C22.6875 48.5248 28.3172 50.1755 34.1487 50.2486L39.402 62.0035ZM19.6062 16.4859C22.2671 13.6087 25.6921 11.714 29.2645 10.7288C33.1962 9.64458 37.1711 9.7004 40.2827 10.6443C43.3792 11.5836 45.2396 13.2544 45.8663 15.137C46.2124 16.9703 45.9395 18.151 45.4905 18.9316C45.0203 19.7492 44.1545 20.4788 42.7277 21.0064C39.7776 22.0972 35.1611 22.0345 30.0723 20.7582C26.4428 19.8479 22.7812 18.3712 19.6062 16.4859Z" fill="#2E85EC"/>
</g>
<defs>
<clipPath id="clip0_19_221">
<rect width="64" height="64" fill="white"/>
</clipPath>
</defs>
</svg>
