<svg width="2560" height="116" viewBox="0 0 2560 116" fill="none" xmlns="http://www.w3.org/2000/svg">
<path d="M2560 0H0V64H2560V0Z" fill="#3F7EE8"/>
<path d="M2560 64H0V116H2560V64Z" fill="#FFE247"/>
<path d="M93 20.4167H97.4244L99.4697 42.8333H99.5531L101.724 20.4167H106.732L108.903 42.8333H108.986L111.032 20.4167H114.997L112.033 49.5833H106.315L104.228 29.9167H104.145L102.058 49.5833H95.9635L93 20.4167Z" fill="white"/>
<path d="M117.319 20.4167H129.841V24.5833H121.911V32.2917H128.213V36.4583H121.911V45.4167H129.841V49.5833H117.319V20.4167Z" fill="white"/>
<path d="M145.136 50C142.91 50 141.227 49.375 140.086 48.125C138.945 46.8472 138.374 45.0278 138.374 42.6667V41H142.715V43C142.715 44.8889 143.508 45.8333 145.094 45.8333C145.874 45.8333 146.458 45.6111 146.848 45.1667C147.265 44.6944 147.474 43.9444 147.474 42.9167C147.474 41.6944 147.195 40.625 146.639 39.7083C146.082 38.7639 145.053 37.6389 143.55 36.3333C141.658 34.6667 140.336 33.1667 139.585 31.8333C138.833 30.4722 138.458 28.9444 138.458 27.25C138.458 24.9444 139.042 23.1667 140.211 21.9167C141.38 20.6389 143.077 20 145.303 20C147.501 20 149.157 20.6389 150.27 21.9167C151.411 23.1667 151.982 24.9722 151.982 27.3333V28.5417H147.641V27.0417C147.641 26.0417 147.446 25.3194 147.056 24.875C146.667 24.4028 146.096 24.1667 145.345 24.1667C143.814 24.1667 143.049 25.0972 143.049 26.9583C143.049 28.0139 143.327 29 143.884 29.9167C144.468 30.8333 145.512 31.9444 147.014 33.25C148.935 34.9167 150.256 36.4306 150.98 37.7917C151.703 39.1528 152.065 40.75 152.065 42.5833C152.065 44.9722 151.467 46.8056 150.27 48.0833C149.101 49.3611 147.39 50 145.136 50Z" fill="white"/>
<path d="M158.287 24.5833H153.487V20.4167H167.679V24.5833H162.879V49.5833H158.287V24.5833Z" fill="white"/>
<path d="M171.534 20.4167H177.753L182.511 49.5833H177.92L177.085 43.7917V43.875H171.868L171.033 49.5833H166.775L171.534 20.4167ZM176.542 39.9167L174.497 25.5H174.414L172.41 39.9167H176.542Z" fill="white"/>
<path d="M184.739 20.4167H190.499L194.965 37.875H195.048V20.4167H199.139V49.5833H194.422L188.913 28.2917H188.829V49.5833H184.739V20.4167Z" fill="white"/>
<path d="M202.552 20.4167H209.564C211.846 20.4167 213.557 21.0278 214.698 22.25C215.839 23.4722 216.409 25.2639 216.409 27.625V42.375C216.409 44.7361 215.839 46.5278 214.698 47.75C213.557 48.9722 211.846 49.5833 209.564 49.5833H202.552V20.4167ZM209.48 45.4167C210.232 45.4167 210.802 45.1944 211.192 44.75C211.609 44.3056 211.818 43.5833 211.818 42.5833V27.4167C211.818 26.4167 211.609 25.6944 211.192 25.25C210.802 24.8056 210.232 24.5833 209.48 24.5833H207.143V45.4167H209.48Z" fill="white"/>
<path d="M35 75H39.5042L41.5863 96.2169H41.6713L43.8809 75H48.98L51.1896 96.2169H51.2746L53.3567 75H57.3935L54.3765 102.606H48.555L46.4304 83.9915H46.3454L44.2208 102.606H38.017L35 75Z" fill="#3F7EE8"/>
<path d="M59.7577 75H64.4319V102.606H59.7577V75Z" fill="#3F7EE8"/>
<path d="M71.5869 78.9437H66.7003V75H81.1477V78.9437H76.261V102.606H71.5869V78.9437Z" fill="#3F7EE8"/>
<path d="M83.4107 75H88.0849V86.2394H93.0989V75H97.7731V102.606H93.0989V90.1831H88.0849V102.606H83.4107V75Z" fill="#3F7EE8"/>
<path d="M114.858 103C112.592 103 110.864 102.408 109.674 101.225C108.484 100.016 107.89 98.2939 107.89 96.0592V75H112.564V96.3746C112.564 97.3211 112.762 98.0047 113.159 98.4254C113.584 98.846 114.178 99.0563 114.943 99.0563C115.708 99.0563 116.289 98.846 116.686 98.4254C117.11 98.0047 117.323 97.3211 117.323 96.3746V75H121.827V96.0592C121.827 98.2939 121.232 100.016 120.042 101.225C118.853 102.408 117.125 103 114.858 103Z" fill="#3F7EE8"/>
<path d="M125.156 75H129.83V86.6338L135.779 75H140.453L134.887 85.1352L140.538 102.606H135.652L131.7 90.3014L129.83 93.8113V102.606H125.156V75Z" fill="#3F7EE8"/>
<path d="M142.751 75H149.677C152.085 75 153.841 75.5258 154.946 76.5775C156.051 77.6028 156.603 79.1934 156.603 81.3493V83.0451C156.603 85.9108 155.583 87.7249 153.544 88.4873V88.5662C154.677 88.8817 155.47 89.5258 155.923 90.4986C156.405 91.4714 156.646 92.7728 156.646 94.4028V99.2535C156.646 100.042 156.674 100.686 156.731 101.186C156.787 101.659 156.929 102.132 157.155 102.606H152.396C152.226 102.159 152.113 101.738 152.056 101.344C152 100.949 151.971 100.239 151.971 99.2141V94.1662C151.971 92.9042 151.745 92.0235 151.292 91.5239C150.867 91.0244 150.116 90.7746 149.039 90.7746H147.425V102.606H142.751V75ZM149.124 86.831C150.059 86.831 150.753 86.6075 151.207 86.1606C151.688 85.7136 151.929 84.9643 151.929 83.9127V81.7831C151.929 80.784 151.731 80.061 151.334 79.6141C150.966 79.1671 150.371 78.9437 149.549 78.9437H147.425V86.831H149.124Z" fill="#3F7EE8"/>
<path d="M163.5 75H169.832L174.676 102.606H170.002L169.152 97.1239V97.2028H163.84L162.991 102.606H158.656L163.5 75ZM168.599 93.4563L166.517 79.8113H166.432L164.393 93.4563H168.599Z" fill="#3F7EE8"/>
<path d="M176.944 75H181.618V102.606H176.944V75Z" fill="#3F7EE8"/>
<path d="M185.118 75H190.982L195.529 91.5239H195.614V75H199.778V102.606H194.977L189.368 82.4535H189.283V102.606H185.118V75Z" fill="#3F7EE8"/>
<path d="M203.252 75H216V78.9437H207.926V86.2394H214.343V90.1831H207.926V98.662H216V102.606H203.252V75Z" fill="#3F7EE8"/>
<path d="M75.8231 10.6261C76.1329 10.1966 76.0444 9.09048 74.8436 7.71865C73.588 6.28028 71.6788 4.81185 71.5292 5.01977C71.3795 5.22769 71.2674 7.17449 72.5898 8.99297C73.4981 10.2417 74.6794 11.0593 75.5491 10.8135L75.6715 10.9714C75.8099 11.1419 75.9556 11.342 76.1163 11.5629C76.2129 11.6957 76.315 11.836 76.4242 11.9818C76.58 12.1897 76.7323 12.421 76.8932 12.6652C77.0327 12.8769 77.1785 13.0983 77.3386 13.3227C77.3605 13.3591 77.3825 13.3957 77.4046 13.4325L77.4047 13.4326L77.4047 13.4326C77.6912 13.9087 78 14.422 78.2675 14.982C78.4669 15.3817 78.648 15.7893 78.8104 16.2036C78.7383 16.1312 78.6633 16.0566 78.5857 15.981L77.8159 15.3532C77.7687 15.3156 77.7224 15.2772 77.6762 15.2388L77.6758 15.2385L77.6757 15.2384C77.593 15.1697 77.5107 15.1013 77.4241 15.0389C77.3371 14.9761 77.2468 14.9203 77.1581 14.8656L77.158 14.8656L77.1579 14.8655C77.109 14.8353 77.0607 14.8055 77.0136 14.7749C76.9137 14.7154 76.8195 14.6531 76.7286 14.593L76.7285 14.5929C76.5712 14.4888 76.4235 14.3911 76.2729 14.3258L76.1802 14.2835C76.3744 13.7975 75.999 12.8635 74.5254 12.3538C73.0919 11.8567 71.2204 11.5968 71.0912 11.9225C70.9621 12.2482 72.7164 14.1804 73.7205 14.6336C74.614 15.0366 75.4874 15.0382 76.0121 14.5179L76.124 14.5743C76.265 14.6417 76.4067 14.7442 76.5575 14.8533C76.6409 14.9136 76.7272 14.976 76.8177 15.0356L77.2035 15.3044C77.2839 15.3677 77.3608 15.4368 77.438 15.5061C77.4807 15.5444 77.5234 15.5828 77.567 15.6204L78.2752 16.2466C78.4149 16.395 78.5463 16.5401 78.6675 16.674L78.6679 16.6745L78.6681 16.6746L78.6681 16.6747C78.7285 16.7414 78.7863 16.8053 78.8414 16.8655L79.1619 17.2175C79.2863 17.6379 79.3922 18.0631 79.4793 18.4919C79.4176 18.4305 79.3537 18.371 79.2879 18.3136L78.9458 18.0586C78.714 17.9124 78.4925 17.78 78.3026 17.6817C78.1974 17.6269 78.1036 17.5765 78.0229 17.5323C78.0311 17.2278 77.7512 16.782 76.9888 16.5333C76.1334 16.2555 75.0147 16.1272 74.9419 16.3189C74.8692 16.5105 75.9376 17.6411 76.5423 17.8977C77.0865 18.135 77.6132 18.1216 77.9163 17.79C77.9863 17.8323 78.0639 17.8785 78.1478 17.927C78.3334 18.0342 78.5344 18.1706 78.7465 18.316L79.0501 18.5597C79.1129 18.6132 79.166 18.6752 79.2193 18.7373L79.2193 18.7373C79.2517 18.7751 79.2841 18.8129 79.3187 18.8488C79.4108 18.9425 79.4862 19.0497 79.542 19.1664C79.569 19.2095 79.5949 19.2532 79.6198 19.2974C79.7224 19.999 79.789 20.705 79.8191 21.4129L79.8205 21.4465C79.7115 21.2798 79.5934 21.1187 79.4667 20.9637C79.3012 20.7735 79.1223 20.5941 78.9312 20.4269C78.7841 20.2919 78.6259 20.1683 78.4581 20.0573C78.5315 19.8343 78.4082 19.4436 77.8664 19.1323C77.2727 18.7887 76.4619 18.5134 76.3738 18.645C76.2857 18.7765 76.887 19.7918 77.2916 20.0793C77.6188 20.3047 77.9654 20.388 78.2381 20.2678C78.403 20.385 78.5565 20.516 78.6969 20.6592C79.0406 20.9826 79.3247 21.3585 79.5377 21.771C79.6348 21.94 79.7155 22.117 79.7789 22.2998C79.8076 22.3747 79.8324 22.4509 79.8533 22.5281C79.8615 22.9391 79.8652 23.3495 79.8661 23.7576C79.8666 23.9625 79.8661 24.1661 79.8657 24.3687V24.3693C79.865 24.7053 79.8642 25.0382 79.8676 25.3689C79.7092 25.388 79.559 25.4321 79.4462 25.5038C79.4462 25.5038 77.7355 21.8425 74.297 22.2827C71.9611 22.5818 71.3273 24.9054 70.6907 27.2398C70.3902 28.3415 70.0891 29.4456 69.6081 30.3404C68.3635 32.6576 66.2329 33.2643 65.1663 32.1946C64.4086 31.4342 64.0236 30.3063 63.4737 28.6956C62.7902 26.6935 61.8521 23.9454 59.6271 20.2303C55.8534 13.9278 45.5064 12.7582 45.5064 12.7582C45.5064 12.7582 46.9382 14.8586 46.2873 20.6673L46.2821 20.7134C45.6646 26.2279 44.5992 35.7408 52.7023 40.1597C55.3539 41.0458 58.7906 41.7532 60.8776 40.0314C62.8133 38.4208 61.9365 35.4571 59.155 35.6196C59.1352 35.6206 59.1133 35.6229 59.0907 35.6252C58.9916 35.6353 58.8791 35.6467 58.8693 35.566C58.8593 35.483 58.9763 35.4735 59.0809 35.465C59.1012 35.4633 59.1212 35.4617 59.1396 35.4596C62.2256 35.0957 63.4163 38.4647 61.3096 40.4594C59.2944 42.3607 55.9603 42.117 52.9692 41.3926C44.5948 46.0965 39.36 46.7735 36.1561 47.1878C34.0306 47.4627 32.7989 47.622 32.1375 48.7648C31.342 50.1365 34.1381 51.782 36.9453 51.1778C37.9824 50.9545 38.546 50.8036 38.8444 50.702C38.3623 51.1301 37.3789 52.1716 37.8331 53.2131C38.425 54.5703 39.8304 54.6458 40.7173 54.4947C41.6043 54.3437 43.8983 52.9118 43.8983 52.9118C43.8983 52.9118 43.3809 53.6655 43.528 55.2492C43.6751 56.833 45.3772 57.3609 46.709 56.7567C47.8933 56.2203 48.4265 55.5666 49.3023 54.4929C50.4252 53.1161 52.1113 51.0487 56.4555 47.6529C57.0567 47.1827 58.6596 47.0229 60.752 46.8143C67.8463 46.107 80.5681 44.8387 78.9578 29.0076C78.8518 27.9669 79.3871 27.098 79.898 26.5214C79.9241 27.0794 79.9739 27.6362 80.0475 28.1905C80.1336 28.83 80.2552 29.4646 80.4118 30.0919C80.6372 31.0318 80.9628 31.9475 81.3835 32.8249C81.5401 33.1632 81.7248 33.4891 81.936 33.7995L82.1276 33.6703C81.9292 33.3682 81.7575 33.0509 81.6144 32.7217C81.2238 31.8531 80.9269 30.9491 80.7283 30.0236C80.5908 29.4066 80.4877 28.783 80.4195 28.1556C80.3461 27.4752 80.3087 26.7918 80.3075 26.1079C80.5565 25.8823 80.7394 25.7589 80.7394 25.7589C80.8127 25.5612 80.5981 25.4277 80.3106 25.3786C80.3156 25.0978 80.3243 24.8129 80.333 24.5261C80.3407 24.2751 80.3484 24.0225 80.3537 23.7698L80.3568 23.6193V23.6176L80.3569 23.6162C80.3628 23.3383 80.3687 23.0573 80.3733 22.7746L80.4041 22.7676L80.375 22.6669C80.3812 22.2478 80.3839 21.8251 80.3785 21.4031C80.3767 21.3476 80.375 21.2921 80.3732 21.2365C80.3876 21.1684 80.4065 21.1012 80.4298 21.0352C80.5539 20.6267 80.726 20.2327 80.943 19.8608C80.9475 19.8528 80.9519 19.8449 80.9564 19.8369C81.4261 19.9272 81.9225 19.6051 82.303 19.0519C82.7469 18.4021 83.1352 16.5991 82.9547 16.4529C82.7743 16.3067 81.8428 16.8931 81.1585 17.7207C80.5457 18.4669 80.488 19.257 80.6582 19.6171C80.6438 19.6393 80.6296 19.6615 80.6154 19.6837C80.516 19.8296 80.4315 19.9842 80.3496 20.1345L80.34 20.0671C80.3318 20.0185 80.3213 19.9704 80.3085 19.9228C80.2849 19.6214 80.2529 19.3212 80.2074 19.0234C80.1689 18.7297 80.1201 18.4375 80.0611 18.1471V17.8701C80.0529 17.6677 80.0681 17.4651 80.1065 17.2659C80.116 17.1991 80.1258 17.131 80.1358 17.0621L80.1544 16.9337C80.1667 16.8176 80.1864 16.7023 80.2134 16.5885C80.2779 16.3106 80.352 16.0349 80.4356 15.7618C80.9678 15.7613 81.4259 15.3031 81.7 14.6125C82.0122 13.8263 81.9874 11.8047 81.7556 11.6886C81.5238 11.5725 80.6684 12.4106 80.1458 13.4494C79.6393 14.4453 79.8218 15.3567 80.1295 15.6545C80.0254 15.9367 79.9313 16.2222 79.8473 16.5105C79.811 16.6301 79.7825 16.7516 79.7618 16.8744C79.7581 16.8925 79.7544 16.9105 79.7508 16.9286C79.7324 16.8687 79.7135 16.809 79.6942 16.7493C79.5715 16.3773 79.4324 16.0104 79.2774 15.6497C79.2641 15.5889 79.2499 15.5237 79.2349 15.4547C79.2231 15.3995 79.2106 15.3419 79.1976 15.282L79.1866 15.2313C79.1786 15.1944 79.1704 15.1568 79.1622 15.1185C79.1528 15.0015 79.1425 14.8748 79.1314 14.7497C79.1258 14.6566 79.1168 14.5616 79.1077 14.4651V14.4649C79.0917 14.2955 79.0753 14.1211 79.0758 13.9432C79.0764 13.7504 79.0794 13.5567 79.0824 13.369L79.0824 13.3687V13.3675C79.0837 13.2838 79.085 13.2012 79.0861 13.1205C79.0879 12.981 79.0957 12.8456 79.1043 12.7177C79.5787 12.5625 79.8797 12.0303 79.9662 11.3353C80.0697 10.4963 79.53 8.54383 79.2734 8.4821C79.0168 8.42038 78.4548 9.72881 78.211 10.8569C77.9624 12.0042 78.3958 12.6451 78.7758 12.7458C78.7623 12.8599 78.7504 12.9803 78.7456 13.1067C78.7387 13.2914 78.7263 13.4799 78.7136 13.6711C78.7076 13.7623 78.7016 13.8541 78.696 13.9465C78.6857 14.1189 78.6925 14.295 78.7007 14.4676C78.4348 13.9838 78.1483 13.5424 77.8793 13.1281L77.8227 13.0409L77.7482 12.9392C77.4163 12.4862 77.1105 12.0689 76.804 11.7227C76.6874 11.591 76.5791 11.4633 76.4764 11.3422L76.4763 11.3421L76.4763 11.342L76.4761 11.3419C76.2888 11.121 76.12 10.9221 75.9538 10.7611L75.8231 10.6261Z" fill="white"/>
<path d="M59.3346 12.3863C55.7884 8.71033 50.8753 8.77205 50.8753 8.77205L52.4047 12.8037C57.6599 15.3629 59.0908 17.183 61.65 21.7426C62.3968 23.0732 62.9081 24.6495 63.3829 26.1133C64.1664 28.5289 64.8505 30.638 66.3296 30.8301C67.2029 30.9438 67.4039 30.4444 67.4039 30.4444C67.4039 30.4444 66.4271 30.6815 65.6462 29.3479C65.0411 28.3132 64.5035 26.2091 63.8842 23.7853C62.8391 19.6951 61.5613 14.6944 59.3346 12.3863Z" fill="white"/>
<path d="M2161 28.3333H2165.58L2169.13 42.3H2169.2V28.3333H2172.45V51.6667H2168.7L2164.32 34.6333H2164.25V51.6667H2161V28.3333Z" fill="white"/>
<path d="M2180.44 52C2178.65 52 2177.28 51.4889 2176.33 50.4667C2175.38 49.4444 2174.9 48 2174.9 46.1333V33.8667C2174.9 32 2175.38 30.5556 2176.33 29.5333C2177.28 28.5111 2178.65 28 2180.44 28C2182.24 28 2183.61 28.5111 2184.56 29.5333C2185.51 30.5556 2185.99 32 2185.99 33.8667V46.1333C2185.99 48 2185.51 49.4444 2184.56 50.4667C2183.61 51.4889 2182.24 52 2180.44 52ZM2180.44 48.6667C2181.7 48.6667 2182.33 47.9 2182.33 46.3667V33.6333C2182.33 32.1 2181.7 31.3333 2180.44 31.3333C2179.18 31.3333 2178.55 32.1 2178.55 33.6333V46.3667C2178.55 47.9 2179.18 48.6667 2180.44 48.6667Z" fill="white"/>
<path d="M2198.92 52C2197.17 52 2195.83 51.5 2194.9 50.5C2193.99 49.5 2193.54 48.0889 2193.54 46.2667V33.7333C2193.54 31.9111 2193.99 30.5 2194.9 29.5C2195.83 28.5 2197.17 28 2198.92 28C2200.66 28 2201.99 28.5 2202.9 29.5C2203.83 30.5 2204.29 31.9111 2204.29 33.7333V36.2H2200.84V33.5C2200.84 32.0556 2200.23 31.3333 2199.02 31.3333C2197.8 31.3333 2197.19 32.0556 2197.19 33.5V46.5333C2197.19 47.9556 2197.8 48.6667 2199.02 48.6667C2200.23 48.6667 2200.84 47.9556 2200.84 46.5333V42.9667H2204.29V46.2667C2204.29 48.0889 2203.83 49.5 2202.9 50.5C2201.99 51.5 2200.66 52 2198.92 52Z" fill="white"/>
<path d="M2211.82 52C2210.03 52 2208.66 51.4889 2207.7 50.4667C2206.75 49.4444 2206.28 48 2206.28 46.1333V33.8667C2206.28 32 2206.75 30.5556 2207.7 29.5333C2208.66 28.5111 2210.03 28 2211.82 28C2213.61 28 2214.99 28.5111 2215.94 29.5333C2216.89 30.5556 2217.36 32 2217.36 33.8667V46.1333C2217.36 48 2216.89 49.4444 2215.94 50.4667C2214.99 51.4889 2213.61 52 2211.82 52ZM2211.82 48.6667C2213.08 48.6667 2213.71 47.9 2213.71 46.3667V33.6333C2213.71 32.1 2213.08 31.3333 2211.82 31.3333C2210.56 31.3333 2209.93 32.1 2209.93 33.6333V46.3667C2209.93 47.9 2210.56 48.6667 2211.82 48.6667Z" fill="white"/>
<path d="M2219.83 28.3333H2223.48V48.3333H2229.49V51.6667H2219.83V28.3333Z" fill="white"/>
<path d="M2231.24 28.3333H2234.89V48.3333H2240.9V51.6667H2231.24V28.3333Z" fill="white"/>
<path d="M2245.6 28.3333H2250.55L2254.33 51.6667H2250.68L2250.02 47.0333V47.1H2245.87L2245.21 51.6667H2241.82L2245.6 28.3333ZM2249.59 43.9333L2247.96 32.4H2247.89L2246.3 43.9333H2249.59Z" fill="white"/>
<path d="M2256.11 28.3333H2261.62C2263.5 28.3333 2264.87 28.7778 2265.73 29.6667C2266.59 30.5333 2267.03 31.8778 2267.03 33.7V34.6333C2267.03 35.8333 2266.83 36.8111 2266.43 37.5667C2266.05 38.3222 2265.47 38.8667 2264.67 39.2V39.2667C2266.48 39.8889 2267.39 41.5111 2267.39 44.1333V46.1333C2267.39 47.9333 2266.92 49.3111 2265.96 50.2667C2265.03 51.2 2263.66 51.6667 2261.85 51.6667H2256.11V28.3333ZM2261.18 37.8333C2261.91 37.8333 2262.46 37.6444 2262.81 37.2667C2263.19 36.8889 2263.37 36.2556 2263.37 35.3667V34.0667C2263.37 33.2222 2263.22 32.6111 2262.91 32.2333C2262.62 31.8556 2262.16 31.6667 2261.52 31.6667H2259.76V37.8333H2261.18ZM2261.85 48.3333C2262.49 48.3333 2262.97 48.1667 2263.28 47.8333C2263.58 47.4778 2263.74 46.8778 2263.74 46.0333V44C2263.74 42.9333 2263.55 42.2 2263.18 41.8C2262.82 41.3778 2262.22 41.1667 2261.38 41.1667H2259.76V48.3333H2261.85Z" fill="white"/>
<path d="M2274.8 52C2273.01 52 2271.64 51.4889 2270.69 50.4667C2269.74 49.4444 2269.26 48 2269.26 46.1333V33.8667C2269.26 32 2269.74 30.5556 2270.69 29.5333C2271.64 28.5111 2273.01 28 2274.8 28C2276.6 28 2277.97 28.5111 2278.92 29.5333C2279.87 30.5556 2280.35 32 2280.35 33.8667V46.1333C2280.35 48 2279.87 49.4444 2278.92 50.4667C2277.97 51.4889 2276.6 52 2274.8 52ZM2274.8 48.6667C2276.06 48.6667 2276.69 47.9 2276.69 46.3667V33.6333C2276.69 32.1 2276.06 31.3333 2274.8 31.3333C2273.54 31.3333 2272.91 32.1 2272.91 33.6333V46.3667C2272.91 47.9 2273.54 48.6667 2274.8 48.6667Z" fill="white"/>
<path d="M2282.82 28.3333H2288.23C2290.11 28.3333 2291.48 28.7778 2292.34 29.6667C2293.2 30.5333 2293.64 31.8778 2293.64 33.7V35.1333C2293.64 37.5556 2292.84 39.0889 2291.25 39.7333V39.8C2292.13 40.0667 2292.75 40.6111 2293.11 41.4333C2293.48 42.2556 2293.67 43.3556 2293.67 44.7333V48.8333C2293.67 49.5 2293.69 50.0444 2293.74 50.4667C2293.78 50.8667 2293.89 51.2667 2294.07 51.6667H2290.35C2290.22 51.2889 2290.13 50.9333 2290.08 50.6C2290.04 50.2667 2290.02 49.6667 2290.02 48.8V44.5333C2290.02 43.4667 2289.84 42.7222 2289.49 42.3C2289.16 41.8778 2288.57 41.6667 2287.73 41.6667H2286.47V51.6667H2282.82V28.3333ZM2287.79 38.3333C2288.52 38.3333 2289.07 38.1444 2289.42 37.7667C2289.8 37.3889 2289.98 36.7556 2289.98 35.8667V34.0667C2289.98 33.2222 2289.83 32.6111 2289.52 32.2333C2289.23 31.8556 2288.77 31.6667 2288.13 31.6667H2286.47V38.3333H2287.79Z" fill="white"/>
<path d="M2299.02 28.3333H2303.97L2307.75 51.6667H2304.1L2303.44 47.0333V47.1H2299.29L2298.63 51.6667H2295.24L2299.02 28.3333ZM2303.01 43.9333L2301.38 32.4H2301.31L2299.72 43.9333H2303.01Z" fill="white"/>
<path d="M2310.86 31.6667H2307.04V28.3333H2318.32V31.6667H2314.51V51.6667H2310.86V31.6667Z" fill="white"/>
<path d="M2320.09 28.3333H2323.74V51.6667H2320.09V28.3333Z" fill="white"/>
<path d="M2331.76 52C2329.96 52 2328.59 51.4889 2327.64 50.4667C2326.69 49.4444 2326.21 48 2326.21 46.1333V33.8667C2326.21 32 2326.69 30.5556 2327.64 29.5333C2328.59 28.5111 2329.96 28 2331.76 28C2333.55 28 2334.92 28.5111 2335.87 29.5333C2336.82 30.5556 2337.3 32 2337.3 33.8667V46.1333C2337.3 48 2336.82 49.4444 2335.87 50.4667C2334.92 51.4889 2333.55 52 2331.76 52ZM2331.76 48.6667C2333.02 48.6667 2333.65 47.9 2333.65 46.3667V33.6333C2333.65 32.1 2333.02 31.3333 2331.76 31.3333C2330.49 31.3333 2329.86 32.1 2329.86 33.6333V46.3667C2329.86 47.9 2330.49 48.6667 2331.76 48.6667Z" fill="white"/>
<path d="M2339.77 28.3333H2344.35L2347.9 42.3H2347.97V28.3333H2351.22V51.6667H2347.47L2343.09 34.6333H2343.02V51.6667H2339.77V28.3333Z" fill="white"/>
<path d="M2358.39 28.3333H2361.91L2363.53 46.2667H2363.6L2365.32 28.3333H2369.31L2371.03 46.2667H2371.1L2372.73 28.3333H2375.88L2373.52 51.6667H2368.98L2367.32 35.9333H2367.25L2365.59 51.6667H2360.74L2358.39 28.3333Z" fill="white"/>
<path d="M2377.73 28.3333H2381.38V51.6667H2377.73V28.3333Z" fill="white"/>
<path d="M2386.97 31.6667H2383.15V28.3333H2394.43V31.6667H2390.62V51.6667H2386.97V31.6667Z" fill="white"/>
<path d="M2396.2 28.3333H2399.85V37.8333H2403.77V28.3333H2407.42V51.6667H2403.77V41.1667H2399.85V51.6667H2396.2V28.3333Z" fill="white"/>
<path d="M2418.28 28.3333H2423.22L2427.01 51.6667H2423.36L2422.69 47.0333V47.1H2418.54L2417.88 51.6667H2414.49L2418.28 28.3333ZM2422.26 43.9333L2420.64 32.4H2420.57L2418.98 43.9333H2422.26Z" fill="white"/>
<path d="M2433.89 52C2432.12 52 2430.77 51.5 2429.84 50.5C2428.91 49.4778 2428.45 48.0222 2428.45 46.1333V33.8667C2428.45 31.9778 2428.91 30.5333 2429.84 29.5333C2430.77 28.5111 2432.12 28 2433.89 28C2435.66 28 2437.01 28.5111 2437.94 29.5333C2438.87 30.5333 2439.34 31.9778 2439.34 33.8667V35.8667H2435.88V33.6333C2435.88 32.1 2435.25 31.3333 2433.99 31.3333C2432.73 31.3333 2432.1 32.1 2432.1 33.6333V46.4C2432.1 47.9111 2432.73 48.6667 2433.99 48.6667C2435.25 48.6667 2435.88 47.9111 2435.88 46.4V41.8333H2434.06V38.5H2439.34V46.1333C2439.34 48.0222 2438.87 49.4778 2437.94 50.5C2437.01 51.5 2435.66 52 2433.89 52Z" fill="white"/>
<path d="M2446.86 52C2445.09 52 2443.74 51.5 2442.81 50.5C2441.88 49.4778 2441.42 48.0222 2441.42 46.1333V33.8667C2441.42 31.9778 2441.88 30.5333 2442.81 29.5333C2443.74 28.5111 2445.09 28 2446.86 28C2448.63 28 2449.98 28.5111 2450.91 29.5333C2451.84 30.5333 2452.3 31.9778 2452.3 33.8667V35.8667H2448.85V33.6333C2448.85 32.1 2448.22 31.3333 2446.96 31.3333C2445.7 31.3333 2445.07 32.1 2445.07 33.6333V46.4C2445.07 47.9111 2445.7 48.6667 2446.96 48.6667C2448.22 48.6667 2448.85 47.9111 2448.85 46.4V41.8333H2447.02V38.5H2452.3V46.1333C2452.3 48.0222 2451.84 49.4778 2450.91 50.5C2449.98 51.5 2448.63 52 2446.86 52Z" fill="white"/>
<path d="M2454.65 28.3333H2460.06C2461.94 28.3333 2463.31 28.7778 2464.17 29.6667C2465.04 30.5333 2465.47 31.8778 2465.47 33.7V35.1333C2465.47 37.5556 2464.67 39.0889 2463.08 39.7333V39.8C2463.96 40.0667 2464.58 40.6111 2464.94 41.4333C2465.31 42.2556 2465.5 43.3556 2465.5 44.7333V48.8333C2465.5 49.5 2465.52 50.0444 2465.57 50.4667C2465.61 50.8667 2465.72 51.2667 2465.9 51.6667H2462.18C2462.05 51.2889 2461.96 50.9333 2461.92 50.6C2461.87 50.2667 2461.85 49.6667 2461.85 48.8V44.5333C2461.85 43.4667 2461.67 42.7222 2461.32 42.3C2460.99 41.8778 2460.4 41.6667 2459.56 41.6667H2458.3V51.6667H2454.65V28.3333ZM2459.63 38.3333C2460.36 38.3333 2460.9 38.1444 2461.25 37.7667C2461.63 37.3889 2461.82 36.7556 2461.82 35.8667V34.0667C2461.82 33.2222 2461.66 32.6111 2461.35 32.2333C2461.06 31.8556 2460.6 31.6667 2459.96 31.6667H2458.3V38.3333H2459.63Z" fill="white"/>
<path d="M2468.03 28.3333H2477.99V31.6667H2471.69V37.8333H2476.7V41.1667H2471.69V48.3333H2477.99V51.6667H2468.03V28.3333Z" fill="white"/>
<path d="M2484.9 52C2483.13 52 2481.79 51.5 2480.89 50.5C2479.98 49.4778 2479.53 48.0222 2479.53 46.1333V44.8H2482.98V46.4C2482.98 47.9111 2483.61 48.6667 2484.87 48.6667C2485.49 48.6667 2485.96 48.4889 2486.26 48.1333C2486.6 47.7556 2486.76 47.1556 2486.76 46.3333C2486.76 45.3556 2486.54 44.5 2486.1 43.7667C2485.66 43.0111 2484.84 42.1111 2483.64 41.0667C2482.14 39.7333 2481.09 38.5333 2480.49 37.4667C2479.89 36.3778 2479.59 35.1556 2479.59 33.8C2479.59 31.9556 2480.06 30.5333 2480.99 29.5333C2481.92 28.5111 2483.27 28 2485.04 28C2486.78 28 2488.1 28.5111 2488.99 29.5333C2489.89 30.5333 2490.35 31.9778 2490.35 33.8667V34.8333H2486.9V33.6333C2486.9 32.8333 2486.74 32.2556 2486.43 31.9C2486.12 31.5222 2485.67 31.3333 2485.07 31.3333C2483.85 31.3333 2483.24 32.0778 2483.24 33.5667C2483.24 34.4111 2483.47 35.2 2483.91 35.9333C2484.37 36.6667 2485.2 37.5556 2486.4 38.6C2487.92 39.9333 2488.98 41.1444 2489.55 42.2333C2490.13 43.3222 2490.41 44.6 2490.41 46.0667C2490.41 47.9778 2489.94 49.4444 2488.99 50.4667C2488.06 51.4889 2486.7 52 2484.9 52Z" fill="white"/>
<path d="M2497.25 52C2495.48 52 2494.14 51.5 2493.24 50.5C2492.33 49.4778 2491.88 48.0222 2491.88 46.1333V44.8H2495.33V46.4C2495.33 47.9111 2495.96 48.6667 2497.22 48.6667C2497.84 48.6667 2498.31 48.4889 2498.61 48.1333C2498.95 47.7556 2499.11 47.1556 2499.11 46.3333C2499.11 45.3556 2498.89 44.5 2498.45 43.7667C2498.01 43.0111 2497.19 42.1111 2495.99 41.0667C2494.49 39.7333 2493.44 38.5333 2492.84 37.4667C2492.24 36.3778 2491.94 35.1556 2491.94 33.8C2491.94 31.9556 2492.41 30.5333 2493.34 29.5333C2494.27 28.5111 2495.62 28 2497.39 28C2499.13 28 2500.45 28.5111 2501.34 29.5333C2502.24 30.5333 2502.7 31.9778 2502.7 33.8667V34.8333H2499.25V33.6333C2499.25 32.8333 2499.09 32.2556 2498.78 31.9C2498.47 31.5222 2498.02 31.3333 2497.42 31.3333C2496.2 31.3333 2495.59 32.0778 2495.59 33.5667C2495.59 34.4111 2495.82 35.2 2496.26 35.9333C2496.72 36.6667 2497.55 37.5556 2498.75 38.6C2500.27 39.9333 2501.33 41.1444 2501.9 42.2333C2502.48 43.3222 2502.76 44.6 2502.76 46.0667C2502.76 47.9778 2502.29 49.4444 2501.34 50.4667C2500.41 51.4889 2499.05 52 2497.25 52Z" fill="white"/>
<path d="M2510.14 52C2508.34 52 2506.97 51.4889 2506.02 50.4667C2505.07 49.4444 2504.59 48 2504.59 46.1333V33.8667C2504.59 32 2505.07 30.5556 2506.02 29.5333C2506.97 28.5111 2508.34 28 2510.14 28C2511.93 28 2513.3 28.5111 2514.25 29.5333C2515.2 30.5556 2515.68 32 2515.68 33.8667V46.1333C2515.68 48 2515.2 49.4444 2514.25 50.4667C2513.3 51.4889 2511.93 52 2510.14 52ZM2510.14 48.6667C2511.4 48.6667 2512.03 47.9 2512.03 46.3667V33.6333C2512.03 32.1 2511.4 31.3333 2510.14 31.3333C2508.87 31.3333 2508.24 32.1 2508.24 33.6333V46.3667C2508.24 47.9 2508.87 48.6667 2510.14 48.6667Z" fill="white"/>
<path d="M2518.15 28.3333H2523.56C2525.44 28.3333 2526.81 28.7778 2527.67 29.6667C2528.54 30.5333 2528.97 31.8778 2528.97 33.7V35.1333C2528.97 37.5556 2528.17 39.0889 2526.58 39.7333V39.8C2527.46 40.0667 2528.08 40.6111 2528.44 41.4333C2528.81 42.2556 2529 43.3556 2529 44.7333V48.8333C2529 49.5 2529.02 50.0444 2529.07 50.4667C2529.11 50.8667 2529.22 51.2667 2529.4 51.6667H2525.68C2525.55 51.2889 2525.46 50.9333 2525.42 50.6C2525.37 50.2667 2525.35 49.6667 2525.35 48.8V44.5333C2525.35 43.4667 2525.17 42.7222 2524.82 42.3C2524.49 41.8778 2523.9 41.6667 2523.06 41.6667H2521.8V51.6667H2518.15V28.3333ZM2523.13 38.3333C2523.86 38.3333 2524.4 38.1444 2524.75 37.7667C2525.13 37.3889 2525.32 36.7556 2525.32 35.8667V34.0667C2525.32 33.2222 2525.16 32.6111 2524.85 32.2333C2524.56 31.8556 2524.1 31.6667 2523.46 31.6667H2521.8V38.3333H2523.13Z" fill="white"/>
<path d="M2208.39 98C2206.64 98 2205.3 97.5 2204.36 96.5C2203.45 95.5 2203 94.0889 2203 92.2667V79.7333C2203 77.9111 2203.45 76.5 2204.36 75.5C2205.3 74.5 2206.64 74 2208.39 74C2210.14 74 2211.47 74.5 2212.38 75.5C2213.32 76.5 2213.78 77.9111 2213.78 79.7333V82.2H2210.32V79.5C2210.32 78.0556 2209.71 77.3333 2208.49 77.3333C2207.27 77.3333 2206.66 78.0556 2206.66 79.5V92.5333C2206.66 93.9556 2207.27 94.6667 2208.49 94.6667C2209.71 94.6667 2210.32 93.9556 2210.32 92.5333V88.9667H2213.78V92.2667C2213.78 94.0889 2213.32 95.5 2212.38 96.5C2211.47 97.5 2210.14 98 2208.39 98Z" fill="#3F7EE8"/>
<path d="M2221.33 98C2219.53 98 2218.16 97.4889 2217.2 96.4667C2216.25 95.4444 2215.77 94 2215.77 92.1333V79.8667C2215.77 78 2216.25 76.5556 2217.2 75.5333C2218.16 74.5111 2219.53 74 2221.33 74C2223.13 74 2224.5 74.5111 2225.46 75.5333C2226.41 76.5556 2226.89 78 2226.89 79.8667V92.1333C2226.89 94 2226.41 95.4444 2225.46 96.4667C2224.5 97.4889 2223.13 98 2221.33 98ZM2221.33 94.6667C2222.59 94.6667 2223.23 93.9 2223.23 92.3667V79.6333C2223.23 78.1 2222.59 77.3333 2221.33 77.3333C2220.06 77.3333 2219.43 78.1 2219.43 79.6333V92.3667C2219.43 93.9 2220.06 94.6667 2221.33 94.6667Z" fill="#3F7EE8"/>
<path d="M2234.69 98C2232.91 98 2231.56 97.5 2230.63 96.5C2229.69 95.4778 2229.23 94.0222 2229.23 92.1333V74.3333H2232.89V92.4C2232.89 93.2 2233.04 93.7778 2233.36 94.1333C2233.69 94.4889 2234.15 94.6667 2234.75 94.6667C2235.35 94.6667 2235.81 94.4889 2236.12 94.1333C2236.45 93.7778 2236.62 93.2 2236.62 92.4V74.3333H2240.14V92.1333C2240.14 94.0222 2239.68 95.4778 2238.75 96.5C2237.81 97.5 2236.46 98 2234.69 98Z" fill="#3F7EE8"/>
<path d="M2242.75 74.3333H2247.34L2250.9 88.3H2250.97V74.3333H2254.23V97.6667H2250.47L2246.08 80.6333H2246.01V97.6667H2242.75V74.3333Z" fill="#3F7EE8"/>
<path d="M2259.81 77.6667H2255.99V74.3333H2267.3V77.6667H2263.48V97.6667H2259.81V77.6667Z" fill="#3F7EE8"/>
<path d="M2269.07 74.3333H2274.5C2276.38 74.3333 2277.76 74.7778 2278.63 75.6667C2279.49 76.5333 2279.92 77.8778 2279.92 79.7V81.1333C2279.92 83.5556 2279.12 85.0889 2277.53 85.7333V85.8C2278.41 86.0667 2279.04 86.6111 2279.39 87.4333C2279.77 88.2556 2279.96 89.3556 2279.96 90.7333V94.8333C2279.96 95.5 2279.98 96.0444 2280.02 96.4667C2280.07 96.8667 2280.18 97.2667 2280.36 97.6667H2276.63C2276.5 97.2889 2276.41 96.9333 2276.36 96.6C2276.32 96.2667 2276.3 95.6667 2276.3 94.8V90.5333C2276.3 89.4667 2276.12 88.7222 2275.76 88.3C2275.43 87.8778 2274.84 87.6667 2274 87.6667H2272.74V97.6667H2269.07V74.3333ZM2274.07 84.3333C2274.8 84.3333 2275.34 84.1444 2275.7 83.7667C2276.07 83.3889 2276.26 82.7556 2276.26 81.8667V80.0667C2276.26 79.2222 2276.11 78.6111 2275.8 78.2333C2275.51 77.8556 2275.04 77.6667 2274.4 77.6667H2272.74V84.3333H2274.07Z" fill="#3F7EE8"/>
<path d="M2282.5 74.3333H2286.16V97.6667H2282.5V74.3333Z" fill="#3F7EE8"/>
<path d="M2288.9 74.3333H2298.88V77.6667H2292.56V83.8333H2297.58V87.1667H2292.56V94.3333H2298.88V97.6667H2288.9V74.3333Z" fill="#3F7EE8"/>
<path d="M2305.81 98C2304.04 98 2302.69 97.5 2301.79 96.5C2300.88 95.4778 2300.42 94.0222 2300.42 92.1333V90.8H2303.88V92.4C2303.88 93.9111 2304.51 94.6667 2305.78 94.6667C2306.4 94.6667 2306.87 94.4889 2307.18 94.1333C2307.51 93.7556 2307.68 93.1556 2307.68 92.3333C2307.68 91.3556 2307.45 90.5 2307.01 89.7667C2306.57 89.0111 2305.75 88.1111 2304.55 87.0667C2303.04 85.7333 2301.98 84.5333 2301.39 83.4667C2300.79 82.3778 2300.49 81.1556 2300.49 79.8C2300.49 77.9556 2300.95 76.5333 2301.88 75.5333C2302.82 74.5111 2304.17 74 2305.94 74C2307.7 74 2309.02 74.5111 2309.91 75.5333C2310.81 76.5333 2311.27 77.9778 2311.27 79.8667V80.8333H2307.81V79.6333C2307.81 78.8333 2307.65 78.2556 2307.34 77.9C2307.03 77.5222 2306.58 77.3333 2305.98 77.3333C2304.76 77.3333 2304.15 78.0778 2304.15 79.5667C2304.15 80.4111 2304.37 81.2 2304.81 81.9333C2305.28 82.6667 2306.11 83.5556 2307.31 84.6C2308.84 85.9333 2309.89 87.1444 2310.47 88.2333C2311.05 89.3222 2311.34 90.6 2311.34 92.0667C2311.34 93.9778 2310.86 95.4444 2309.91 96.4667C2308.97 97.4889 2307.61 98 2305.81 98Z" fill="#3F7EE8"/>
<path d="M2318.76 74.3333H2324.19C2326.07 74.3333 2327.45 74.7778 2328.32 75.6667C2329.18 76.5333 2329.61 77.8778 2329.61 79.7V81.1333C2329.61 83.5556 2328.81 85.0889 2327.22 85.7333V85.8C2328.1 86.0667 2328.73 86.6111 2329.08 87.4333C2329.46 88.2556 2329.65 89.3556 2329.65 90.7333V94.8333C2329.65 95.5 2329.67 96.0444 2329.71 96.4667C2329.76 96.8667 2329.87 97.2667 2330.05 97.6667H2326.32C2326.19 97.2889 2326.1 96.9333 2326.05 96.6C2326.01 96.2667 2325.99 95.6667 2325.99 94.8V90.5333C2325.99 89.4667 2325.81 88.7222 2325.45 88.3C2325.12 87.8778 2324.53 87.6667 2323.69 87.6667H2322.43V97.6667H2318.76V74.3333ZM2323.76 84.3333C2324.49 84.3333 2325.03 84.1444 2325.39 83.7667C2325.76 83.3889 2325.95 82.7556 2325.95 81.8667V80.0667C2325.95 79.2222 2325.8 78.6111 2325.49 78.2333C2325.2 77.8556 2324.73 77.6667 2324.09 77.6667H2322.43V84.3333H2323.76Z" fill="#3F7EE8"/>
<path d="M2337.51 98C2335.74 98 2334.38 97.5 2333.45 96.5C2332.52 95.4778 2332.05 94.0222 2332.05 92.1333V74.3333H2335.71V92.4C2335.71 93.2 2335.87 93.7778 2336.18 94.1333C2336.51 94.4889 2336.98 94.6667 2337.58 94.6667C2338.18 94.6667 2338.63 94.4889 2338.94 94.1333C2339.27 93.7778 2339.44 93.2 2339.44 92.4V74.3333H2342.97V92.1333C2342.97 94.0222 2342.5 95.4778 2341.57 96.5C2340.64 97.5 2339.29 98 2337.51 98Z" fill="#3F7EE8"/>
<path d="M2350.33 98C2348.56 98 2347.22 97.5 2346.31 96.5C2345.4 95.4778 2344.94 94.0222 2344.94 92.1333V90.8H2348.4V92.4C2348.4 93.9111 2349.04 94.6667 2350.3 94.6667C2350.92 94.6667 2351.39 94.4889 2351.7 94.1333C2352.03 93.7556 2352.2 93.1556 2352.2 92.3333C2352.2 91.3556 2351.98 90.5 2351.53 89.7667C2351.09 89.0111 2350.27 88.1111 2349.07 87.0667C2347.56 85.7333 2346.51 84.5333 2345.91 83.4667C2345.31 82.3778 2345.01 81.1556 2345.01 79.8C2345.01 77.9556 2345.48 76.5333 2346.41 75.5333C2347.34 74.5111 2348.69 74 2350.47 74C2352.22 74 2353.54 74.5111 2354.43 75.5333C2355.34 76.5333 2355.79 77.9778 2355.79 79.8667V80.8333H2352.33V79.6333C2352.33 78.8333 2352.18 78.2556 2351.87 77.9C2351.55 77.5222 2351.1 77.3333 2350.5 77.3333C2349.28 77.3333 2348.67 78.0778 2348.67 79.5667C2348.67 80.4111 2348.89 81.2 2349.34 81.9333C2349.8 82.6667 2350.63 83.5556 2351.83 84.6C2353.36 85.9333 2354.42 87.1444 2354.99 88.2333C2355.57 89.3222 2355.86 90.6 2355.86 92.0667C2355.86 93.9778 2355.38 95.4444 2354.43 96.4667C2353.5 97.4889 2352.13 98 2350.33 98Z" fill="#3F7EE8"/>
<path d="M2362.72 98C2360.94 98 2359.6 97.5 2358.69 96.5C2357.78 95.4778 2357.33 94.0222 2357.33 92.1333V90.8H2360.79V92.4C2360.79 93.9111 2361.42 94.6667 2362.68 94.6667C2363.3 94.6667 2363.77 94.4889 2364.08 94.1333C2364.41 93.7556 2364.58 93.1556 2364.58 92.3333C2364.58 91.3556 2364.36 90.5 2363.91 89.7667C2363.47 89.0111 2362.65 88.1111 2361.45 87.0667C2359.94 85.7333 2358.89 84.5333 2358.29 83.4667C2357.69 82.3778 2357.39 81.1556 2357.39 79.8C2357.39 77.9556 2357.86 76.5333 2358.79 75.5333C2359.72 74.5111 2361.07 74 2362.85 74C2364.6 74 2365.92 74.5111 2366.81 75.5333C2367.72 76.5333 2368.17 77.9778 2368.17 79.8667V80.8333H2364.71V79.6333C2364.71 78.8333 2364.56 78.2556 2364.25 77.9C2363.94 77.5222 2363.48 77.3333 2362.88 77.3333C2361.66 77.3333 2361.05 78.0778 2361.05 79.5667C2361.05 80.4111 2361.27 81.2 2361.72 81.9333C2362.18 82.6667 2363.02 83.5556 2364.21 84.6C2365.74 85.9333 2366.8 87.1444 2367.38 88.2333C2367.95 89.3222 2368.24 90.6 2368.24 92.0667C2368.24 93.9778 2367.76 95.4444 2366.81 96.4667C2365.88 97.4889 2364.51 98 2362.72 98Z" fill="#3F7EE8"/>
<path d="M2370.34 74.3333H2374V97.6667H2370.34V74.3333Z" fill="#3F7EE8"/>
<path d="M2379.57 74.3333H2384.53L2388.32 97.6667H2384.66L2384 93.0333V93.1H2379.84L2379.17 97.6667H2375.78L2379.57 74.3333ZM2383.56 89.9333L2381.93 78.4H2381.87L2380.27 89.9333H2383.56Z" fill="#3F7EE8"/>
<path d="M2398.26 74.3333H2403.22L2407.01 97.6667H2403.35L2402.68 93.0333V93.1H2398.52L2397.86 97.6667H2394.46L2398.26 74.3333ZM2402.25 89.9333L2400.62 78.4H2400.55L2398.96 89.9333H2402.25Z" fill="#3F7EE8"/>
<path d="M2408.79 74.3333H2413.38L2416.94 88.3H2417V74.3333H2420.27V97.6667H2416.51L2412.11 80.6333H2412.05V97.6667H2408.79V74.3333Z" fill="#3F7EE8"/>
<path d="M2422.99 74.3333H2428.58C2430.4 74.3333 2431.76 74.8222 2432.67 75.8C2433.58 76.7778 2434.04 78.2111 2434.04 80.1V91.9C2434.04 93.7889 2433.58 95.2222 2432.67 96.2C2431.76 97.1778 2430.4 97.6667 2428.58 97.6667H2422.99V74.3333ZM2428.51 94.3333C2429.11 94.3333 2429.56 94.1556 2429.88 93.8C2430.21 93.4444 2430.37 92.8667 2430.37 92.0667V79.9333C2430.37 79.1333 2430.21 78.5556 2429.88 78.2C2429.56 77.8444 2429.11 77.6667 2428.51 77.6667H2426.65V94.3333H2428.51Z" fill="#3F7EE8"/>
<path d="M2441.84 74.3333H2447.36C2449.25 74.3333 2450.62 74.7778 2451.49 75.6667C2452.35 76.5333 2452.78 77.8778 2452.78 79.7V80.6333C2452.78 81.8333 2452.58 82.8111 2452.19 83.5667C2451.81 84.3222 2451.22 84.8667 2450.42 85.2V85.2667C2452.24 85.8889 2453.15 87.5111 2453.15 90.1333V92.1333C2453.15 93.9333 2452.67 95.3111 2451.72 96.2667C2450.79 97.2 2449.41 97.6667 2447.59 97.6667H2441.84V74.3333ZM2446.93 83.8333C2447.66 83.8333 2448.2 83.6444 2448.56 83.2667C2448.94 82.8889 2449.12 82.2556 2449.12 81.3667V80.0667C2449.12 79.2222 2448.97 78.6111 2448.66 78.2333C2448.37 77.8556 2447.9 77.6667 2447.26 77.6667H2445.5V83.8333H2446.93ZM2447.59 94.3333C2448.24 94.3333 2448.71 94.1667 2449.02 93.8333C2449.33 93.4778 2449.49 92.8778 2449.49 92.0333V90C2449.49 88.9333 2449.3 88.2 2448.92 87.8C2448.57 87.3778 2447.97 87.1667 2447.13 87.1667H2445.5V94.3333H2447.59Z" fill="#3F7EE8"/>
<path d="M2455.29 74.3333H2465.27V77.6667H2458.95V83.8333H2463.98V87.1667H2458.95V94.3333H2465.27V97.6667H2455.29V74.3333Z" fill="#3F7EE8"/>
<path d="M2467.38 74.3333H2471.04V94.3333H2477.06V97.6667H2467.38V74.3333Z" fill="#3F7EE8"/>
<path d="M2481.78 74.3333H2486.74L2490.53 97.6667H2486.87L2486.2 93.0333V93.1H2482.04L2481.38 97.6667H2477.98L2481.78 74.3333ZM2485.77 89.9333L2484.14 78.4H2484.07L2482.48 89.9333H2485.77Z" fill="#3F7EE8"/>
<path d="M2492.31 74.3333H2497.73C2499.62 74.3333 2500.99 74.7778 2501.86 75.6667C2502.72 76.5333 2503.15 77.8778 2503.15 79.7V81.1333C2503.15 83.5556 2502.36 85.0889 2500.76 85.7333V85.8C2501.65 86.0667 2502.27 86.6111 2502.62 87.4333C2503 88.2556 2503.19 89.3556 2503.19 90.7333V94.8333C2503.19 95.5 2503.21 96.0444 2503.25 96.4667C2503.3 96.8667 2503.41 97.2667 2503.59 97.6667H2499.86C2499.73 97.2889 2499.64 96.9333 2499.59 96.6C2499.55 96.2667 2499.53 95.6667 2499.53 94.8V90.5333C2499.53 89.4667 2499.35 88.7222 2498.99 88.3C2498.66 87.8778 2498.07 87.6667 2497.23 87.6667H2495.97V97.6667H2492.31V74.3333ZM2497.3 84.3333C2498.03 84.3333 2498.57 84.1444 2498.93 83.7667C2499.31 83.3889 2499.49 82.7556 2499.49 81.8667V80.0667C2499.49 79.2222 2499.34 78.6111 2499.03 78.2333C2498.74 77.8556 2498.27 77.6667 2497.63 77.6667H2495.97V84.3333H2497.3Z" fill="#3F7EE8"/>
<path d="M2511.05 98C2509.28 98 2507.92 97.5 2506.99 96.5C2506.06 95.4778 2505.59 94.0222 2505.59 92.1333V74.3333H2509.26V92.4C2509.26 93.2 2509.41 93.7778 2509.72 94.1333C2510.05 94.4889 2510.52 94.6667 2511.12 94.6667C2511.72 94.6667 2512.17 94.4889 2512.48 94.1333C2512.82 93.7778 2512.98 93.2 2512.98 92.4V74.3333H2516.51V92.1333C2516.51 94.0222 2516.04 95.4778 2515.11 96.5C2514.18 97.5 2512.83 98 2511.05 98Z" fill="#3F7EE8"/>
<path d="M2523.88 98C2522.1 98 2520.76 97.5 2519.85 96.5C2518.94 95.4778 2518.48 94.0222 2518.48 92.1333V90.8H2521.95V92.4C2521.95 93.9111 2522.58 94.6667 2523.84 94.6667C2524.46 94.6667 2524.93 94.4889 2525.24 94.1333C2525.57 93.7556 2525.74 93.1556 2525.74 92.3333C2525.74 91.3556 2525.52 90.5 2525.07 89.7667C2524.63 89.0111 2523.81 88.1111 2522.61 87.0667C2521.1 85.7333 2520.05 84.5333 2519.45 83.4667C2518.85 82.3778 2518.55 81.1556 2518.55 79.8C2518.55 77.9556 2519.02 76.5333 2519.95 75.5333C2520.88 74.5111 2522.23 74 2524.01 74C2525.76 74 2527.08 74.5111 2527.97 75.5333C2528.88 76.5333 2529.33 77.9778 2529.33 79.8667V80.8333H2525.87V79.6333C2525.87 78.8333 2525.72 78.2556 2525.41 77.9C2525.1 77.5222 2524.64 77.3333 2524.04 77.3333C2522.82 77.3333 2522.21 78.0778 2522.21 79.5667C2522.21 80.4111 2522.43 81.2 2522.88 81.9333C2523.34 82.6667 2524.18 83.5556 2525.37 84.6C2526.9 85.9333 2527.96 87.1444 2528.53 88.2333C2529.11 89.3222 2529.4 90.6 2529.4 92.0667C2529.4 93.9778 2528.92 95.4444 2527.97 96.4667C2527.04 97.4889 2525.67 98 2523.88 98Z" fill="#3F7EE8"/>
</svg>
