<svg width="100" height="100" viewBox="0 0 100 100" fill="none" xmlns="http://www.w3.org/2000/svg">
<path d="M50 4.58124C24.9156 4.58124 4.58124 24.9156 4.58124 50C4.58124 75.0844 24.9156 95.4187 50 95.4187C75.0844 95.4187 95.4187 75.0844 95.4187 50C95.4187 24.9156 75.0844 4.58124 50 4.58124ZM53.9219 74.625V81.0219H47.8031V74.6969C37.7625 73.3219 33.3656 65.0719 33.3656 65.0719L39.6156 59.8437C39.6156 59.8437 43.6062 66.7906 50.825 66.7906C54.8125 66.7906 57.8375 64.6562 57.8375 61.0094C57.8375 52.4844 34.8687 53.5187 34.8687 37.7031C34.8687 30.8281 40.3062 25.875 47.8 24.7031V18.3125H53.9187V24.7031C59.1437 25.3906 65.3312 28.1406 65.3312 34.0562V38.5937H57.2187V36.3937C57.2187 34.125 54.3281 32.6125 51.0937 32.6125C46.9687 32.6125 43.9469 34.675 43.9469 37.5625C43.9469 46.2937 66.9156 44.1625 66.9156 60.7344C66.9156 67.5469 61.8281 73.4531 53.9219 74.625Z" fill="#2E85EC"/>
</svg>
